999
DXF created by Inkscape
  0
SECTION
  2
HEADER
  9
$ACADVER
  1
AC1014
  9
$HANDSEED
  5
FFFF
  9
$MEASUREMENT
 70
     1
  0
ENDSEC
  0
SECTION
  2
TABLES
  0
TABLE
  2
VPORT
  5
8
330
0
100
AcDbSymbolTable
 70
     4
  0
VPORT
  5
2E
330
8
100
AcDbSymbolTableRecord
100
AcDbViewportTableRecord
  2
*ACTIVE
 70
     0
 10
0.0
 20
0.0
 11
1.0
 21
1.0
 12
210.0
 22
148.5
 13
0.0
 23
0.0
 14
10.0
 24
10.0
 15
10.0
 25
10.0
 16
0.0
 26
0.0
 36
1.0
 17
0.0
 27
0.0
 37
0.0
 40
341.0
 41
1.24
 42
50.0
 43
0.0
 44
0.0
 50
0.0
 51
0.0
 71
     0
 72
   100
 73
     1
 74
     3
 75
     0
 76
     0
 77
     0
 78
     0
  0
ENDTAB
  0
TABLE
  2
LTYPE
  5
5
330
0
100
AcDbSymbolTable
 70
     1
  0
LTYPE
  5
14
330
5
100
AcDbSymbolTableRecord
100
AcDbLinetypeTableRecord
  2
BYBLOCK
 70
     0
  3

 72
    65
 73
     0
 40
0.0
  0
LTYPE
  5
15
330
5
100
AcDbSymbolTableRecord
100
AcDbLinetypeTableRecord
  2
BYLAYER
 70
     0
  3

 72
    65
 73
     0
 40
0.0
  0
LTYPE
  5
16
330
5
100
AcDbSymbolTableRecord
100
AcDbLinetypeTableRecord
  2
CONTINUOUS
 70
     0
  3
Solid line
 72
    65
 73
     0
 40
0.0
  0
ENDTAB
  0
TABLE
  2
LAYER
  5
2
100
AcDbSymbolTable
 70
1
  0
LAYER
  5
50
100
AcDbSymbolTableRecord
100
AcDbLayerTableRecord
  2
0
 70
0
  6
CONTINUOUS
  0
ENDTAB
  0
TABLE
  2
STYLE
  5
3
330
0
100
AcDbSymbolTable
 70
     1
  0
STYLE
  5
11
330
3
100
AcDbSymbolTableRecord
100
AcDbTextStyleTableRecord
  2
STANDARD
 70
     0
 40
0.0
 41
1.0
 50
0.0
 71
     0
 42
2.5
  3
txt
  4

  0
ENDTAB
  0
TABLE
  2
VIEW
  5
6
330
0
100
AcDbSymbolTable
 70
     0
  0
ENDTAB
  0
TABLE
  2
UCS
  5
7
330
0
100
AcDbSymbolTable
 70
     0
  0
ENDTAB
  0
TABLE
  2
APPID
  5
9
330
0
100
AcDbSymbolTable
 70
     2
  0
APPID
  5
12
330
9
100
AcDbSymbolTableRecord
100
AcDbRegAppTableRecord
  2
ACAD
 70
     0
  0
ENDTAB
  0
TABLE
  2
DIMSTYLE
  5
A
330
0
100
AcDbSymbolTable
 70
     1
  0
DIMSTYLE
105
27
330
A
100
AcDbSymbolTableRecord
100
AcDbDimStyleTableRecord
  2
ISO-25
 70
     0
  3

  4

  5

  6

  7

 40
1.0
 41
2.5
 42
0.625
 43
3.75
 44
1.25
 45
0.0
 46
0.0
 47
0.0
 48
0.0
140
2.5
141
2.5
142
0.0
143
0.03937007874016
144
1.0
145
0.0
146
1.0
147
0.625
 71
     0
 72
     0
 73
     0
 74
     0
 75
     0
 76
     0
 77
     1
 78
     8
170
     0
171
     3
172
     1
173
     0
174
     0
175
     0
176
     0
177
     0
178
     0
270
     2
271
     2
272
     2
273
     2
274
     3
340
11
275
     0
280
     0
281
     0
282
     0
283
     0
284
     8
285
     0
286
     0
287
     3
288
     0
  0
ENDTAB
  0
TABLE
  2
BLOCK_RECORD
  5
1
330
0
100
AcDbSymbolTable
 70
     1
  0
BLOCK_RECORD
  5
1F
330
1
100
AcDbSymbolTableRecord
100
AcDbBlockTableRecord
  2
*MODEL_SPACE
  0
BLOCK_RECORD
  5
1B
330
1
100
AcDbSymbolTableRecord
100
AcDbBlockTableRecord
  2
*PAPER_SPACE
  0
ENDTAB
  0
ENDSEC
  0
SECTION
  2
BLOCKS
  0
BLOCK
  5
20
330
1F
100
AcDbEntity
  8
0
100
AcDbBlockBegin
  2
*MODEL_SPACE
 70
     0
 10
0.0
 20
0.0
 30
0.0
  3
*MODEL_SPACE
  1

  0
ENDBLK
  5
21
330
1F
100
AcDbEntity
  8
0
100
AcDbBlockEnd
  0
BLOCK
  5
1C
330
1B
100
AcDbEntity
 67
     1
  8
0
100
AcDbBlockBegin
  2
*PAPER_SPACE
  1

  0
ENDBLK
  5
1D
330
1B
100
AcDbEntity
 67
     1
  8
0
100
AcDbBlockEnd
  0
ENDSEC
  0
SECTION
  2
ENTITIES
  0
LWPOLYLINE
  5
100
100
AcDbEntity
  8
0
 62
7
100
AcDbPolyline
 90
18
 70
0
 10
0.881944
 20
-29.142269
 30
0.0
 10
0.881944
 20
-35.986158
 30
0.0
 10
0.881944
 20
-42.830047
 30
0.0
 10
0.881944
 20
-49.673936
 30
0.0
 10
0.881944
 20
-56.517825
 30
0.0
 10
7.725833
 20
-56.517825
 30
0.0
 10
14.569722
 20
-56.517825
 30
0.0
 10
21.413611
 20
-56.517825
 30
0.0
 10
28.257500
 20
-56.517825
 30
0.0
 10
28.257500
 20
-49.673936
 30
0.0
 10
28.257500
 20
-42.830047
 30
0.0
 10
28.257500
 20
-35.986158
 30
0.0
 10
28.257500
 20
-29.142269
 30
0.0
 10
21.413611
 20
-29.142269
 30
0.0
 10
14.569722
 20
-29.142269
 30
0.0
 10
7.725833
 20
-29.142269
 30
0.0
 10
0.881944
 20
-29.142269
 30
0.0
 10
0.881944
 20
-29.142269
 30
0.0
  0
LWPOLYLINE
  5
101
100
AcDbEntity
  8
0
 62
7
100
AcDbPolyline
 90
18
 70
0
 10
29.104167
 20
-29.142269
 30
0.0
 10
29.104167
 20
-35.986158
 30
0.0
 10
29.104167
 20
-42.830047
 30
0.0
 10
29.104167
 20
-49.673936
 30
0.0
 10
29.104167
 20
-56.517825
 30
0.0
 10
35.948056
 20
-56.517825
 30
0.0
 10
42.791944
 20
-56.517825
 30
0.0
 10
49.635833
 20
-56.517825
 30
0.0
 10
56.479722
 20
-56.517825
 30
0.0
 10
56.479722
 20
-49.673936
 30
0.0
 10
56.479722
 20
-42.830047
 30
0.0
 10
56.479722
 20
-35.986158
 30
0.0
 10
56.479722
 20
-29.142269
 30
0.0
 10
49.635833
 20
-29.142269
 30
0.0
 10
42.791944
 20
-29.142269
 30
0.0
 10
35.948056
 20
-29.142269
 30
0.0
 10
29.104167
 20
-29.142269
 30
0.0
 10
29.104167
 20
-29.142269
 30
0.0
  0
LWPOLYLINE
  5
102
100
AcDbEntity
  8
0
 62
7
100
AcDbPolyline
 90
18
 70
0
 10
57.326389
 20
-29.142269
 30
0.0
 10
57.326389
 20
-35.986158
 30
0.0
 10
57.326389
 20
-42.830047
 30
0.0
 10
57.326389
 20
-49.673936
 30
0.0
 10
57.326389
 20
-56.517825
 30
0.0
 10
64.170278
 20
-56.517825
 30
0.0
 10
71.014167
 20
-56.517825
 30
0.0
 10
77.858056
 20
-56.517825
 30
0.0
 10
84.701944
 20
-56.517825
 30
0.0
 10
84.701944
 20
-49.673936
 30
0.0
 10
84.701944
 20
-42.830047
 30
0.0
 10
84.701944
 20
-35.986158
 30
0.0
 10
84.701944
 20
-29.142269
 30
0.0
 10
77.858056
 20
-29.142269
 30
0.0
 10
71.014167
 20
-29.142269
 30
0.0
 10
64.170278
 20
-29.142269
 30
0.0
 10
57.326389
 20
-29.142269
 30
0.0
 10
57.326389
 20
-29.142269
 30
0.0
  0
LWPOLYLINE
  5
103
100
AcDbEntity
  8
0
 62
7
100
AcDbPolyline
 90
18
 70
0
 10
85.548611
 20
-29.142269
 30
0.0
 10
85.548611
 20
-35.986158
 30
0.0
 10
85.548611
 20
-42.830047
 30
0.0
 10
85.548611
 20
-49.673936
 30
0.0
 10
85.548611
 20
-56.517825
 30
0.0
 10
92.392500
 20
-56.517825
 30
0.0
 10
99.236389
 20
-56.517825
 30
0.0
 10
106.080278
 20
-56.517825
 30
0.0
 10
112.924167
 20
-56.517825
 30
0.0
 10
112.924167
 20
-49.673936
 30
0.0
 10
112.924167
 20
-42.830047
 30
0.0
 10
112.924167
 20
-35.986158
 30
0.0
 10
112.924167
 20
-29.142269
 30
0.0
 10
106.080278
 20
-29.142269
 30
0.0
 10
99.236389
 20
-29.142269
 30
0.0
 10
92.392500
 20
-29.142269
 30
0.0
 10
85.548611
 20
-29.142269
 30
0.0
 10
85.548611
 20
-29.142269
 30
0.0
  0
LWPOLYLINE
  5
104
100
AcDbEntity
  8
0
 62
7
100
AcDbPolyline
 90
18
 70
0
 10
113.770833
 20
-29.142269
 30
0.0
 10
113.770833
 20
-35.986158
 30
0.0
 10
113.770833
 20
-42.830047
 30
0.0
 10
113.770833
 20
-49.673936
 30
0.0
 10
113.770833
 20
-56.517825
 30
0.0
 10
120.614722
 20
-56.517825
 30
0.0
 10
127.458611
 20
-56.517825
 30
0.0
 10
134.302500
 20
-56.517825
 30
0.0
 10
141.146389
 20
-56.517825
 30
0.0
 10
141.146389
 20
-49.673936
 30
0.0
 10
141.146389
 20
-42.830047
 30
0.0
 10
141.146389
 20
-35.986158
 30
0.0
 10
141.146389
 20
-29.142269
 30
0.0
 10
134.302500
 20
-29.142269
 30
0.0
 10
127.458611
 20
-29.142269
 30
0.0
 10
120.614722
 20
-29.142269
 30
0.0
 10
113.770833
 20
-29.142269
 30
0.0
 10
113.770833
 20
-29.142269
 30
0.0
  0
LWPOLYLINE
  5
105
100
AcDbEntity
  8
0
 62
7
100
AcDbPolyline
 90
18
 70
0
 10
1.446389
 20
-29.706714
 30
0.0
 10
8.008056
 20
-29.706714
 30
0.0
 10
14.569722
 20
-29.706714
 30
0.0
 10
21.131389
 20
-29.706714
 30
0.0
 10
27.693056
 20
-29.706714
 30
0.0
 10
27.693056
 20
-36.268381
 30
0.0
 10
27.693056
 20
-42.830047
 30
0.0
 10
27.693056
 20
-49.391714
 30
0.0
 10
27.693056
 20
-55.953381
 30
0.0
 10
21.131389
 20
-55.953381
 30
0.0
 10
14.569722
 20
-55.953381
 30
0.0
 10
8.008056
 20
-55.953381
 30
0.0
 10
1.446389
 20
-55.953381
 30
0.0
 10
1.446389
 20
-49.391714
 30
0.0
 10
1.446389
 20
-42.830047
 30
0.0
 10
1.446389
 20
-36.268381
 30
0.0
 10
1.446389
 20
-29.706714
 30
0.0
 10
1.446389
 20
-29.706714
 30
0.0
  0
LWPOLYLINE
  5
106
100
AcDbEntity
  8
0
 62
7
100
AcDbPolyline
 90
18
 70
0
 10
29.668611
 20
-29.706714
 30
0.0
 10
36.230278
 20
-29.706714
 30
0.0
 10
42.791944
 20
-29.706714
 30
0.0
 10
49.353611
 20
-29.706714
 30
0.0
 10
55.915278
 20
-29.706714
 30
0.0
 10
55.915278
 20
-36.268381
 30
0.0
 10
55.915278
 20
-42.830047
 30
0.0
 10
55.915278
 20
-49.391714
 30
0.0
 10
55.915278
 20
-55.953381
 30
0.0
 10
49.353611
 20
-55.953381
 30
0.0
 10
42.791944
 20
-55.953381
 30
0.0
 10
36.230278
 20
-55.953381
 30
0.0
 10
29.668611
 20
-55.953381
 30
0.0
 10
29.668611
 20
-49.391714
 30
0.0
 10
29.668611
 20
-42.830047
 30
0.0
 10
29.668611
 20
-36.268381
 30
0.0
 10
29.668611
 20
-29.706714
 30
0.0
 10
29.668611
 20
-29.706714
 30
0.0
  0
LWPOLYLINE
  5
107
100
AcDbEntity
  8
0
 62
7
100
AcDbPolyline
 90
18
 70
0
 10
57.890833
 20
-29.706714
 30
0.0
 10
64.452500
 20
-29.706714
 30
0.0
 10
71.014167
 20
-29.706714
 30
0.0
 10
77.575833
 20
-29.706714
 30
0.0
 10
84.137500
 20
-29.706714
 30
0.0
 10
84.137500
 20
-36.268381
 30
0.0
 10
84.137500
 20
-42.830047
 30
0.0
 10
84.137500
 20
-49.391714
 30
0.0
 10
84.137500
 20
-55.953381
 30
0.0
 10
77.575833
 20
-55.953381
 30
0.0
 10
71.014167
 20
-55.953381
 30
0.0
 10
64.452500
 20
-55.953381
 30
0.0
 10
57.890833
 20
-55.953381
 30
0.0
 10
57.890833
 20
-49.391714
 30
0.0
 10
57.890833
 20
-42.830047
 30
0.0
 10
57.890833
 20
-36.268381
 30
0.0
 10
57.890833
 20
-29.706714
 30
0.0
 10
57.890833
 20
-29.706714
 30
0.0
  0
LWPOLYLINE
  5
108
100
AcDbEntity
  8
0
 62
7
100
AcDbPolyline
 90
18
 70
0
 10
86.113056
 20
-29.706714
 30
0.0
 10
92.674722
 20
-29.706714
 30
0.0
 10
99.236389
 20
-29.706714
 30
0.0
 10
105.798056
 20
-29.706714
 30
0.0
 10
112.359722
 20
-29.706714
 30
0.0
 10
112.359722
 20
-36.268381
 30
0.0
 10
112.359722
 20
-42.830047
 30
0.0
 10
112.359722
 20
-49.391714
 30
0.0
 10
112.359722
 20
-55.953381
 30
0.0
 10
105.798056
 20
-55.953381
 30
0.0
 10
99.236389
 20
-55.953381
 30
0.0
 10
92.674722
 20
-55.953381
 30
0.0
 10
86.113056
 20
-55.953381
 30
0.0
 10
86.113056
 20
-49.391714
 30
0.0
 10
86.113056
 20
-42.830047
 30
0.0
 10
86.113056
 20
-36.268381
 30
0.0
 10
86.113056
 20
-29.706714
 30
0.0
 10
86.113056
 20
-29.706714
 30
0.0
  0
LWPOLYLINE
  5
109
100
AcDbEntity
  8
0
 62
7
100
AcDbPolyline
 90
18
 70
0
 10
114.335278
 20
-29.706714
 30
0.0
 10
120.896944
 20
-29.706714
 30
0.0
 10
127.458611
 20
-29.706714
 30
0.0
 10
134.020278
 20
-29.706714
 30
0.0
 10
140.581944
 20
-29.706714
 30
0.0
 10
140.581944
 20
-36.268381
 30
0.0
 10
140.581944
 20
-42.830047
 30
0.0
 10
140.581944
 20
-49.391714
 30
0.0
 10
140.581944
 20
-55.953381
 30
0.0
 10
134.020278
 20
-55.953381
 30
0.0
 10
127.458611
 20
-55.953381
 30
0.0
 10
120.896944
 20
-55.953381
 30
0.0
 10
114.335278
 20
-55.953381
 30
0.0
 10
114.335278
 20
-49.391714
 30
0.0
 10
114.335278
 20
-42.830047
 30
0.0
 10
114.335278
 20
-36.268381
 30
0.0
 10
114.335278
 20
-29.706714
 30
0.0
 10
114.335278
 20
-29.706714
 30
0.0
  0
LWPOLYLINE
  5
10a
100
AcDbEntity
  8
0
 62
7
100
AcDbPolyline
 90
18
 70
0
 10
0.881944
 20
-57.364492
 30
0.0
 10
0.881944
 20
-64.208381
 30
0.0
 10
0.881944
 20
-71.052269
 30
0.0
 10
0.881944
 20
-77.896158
 30
0.0
 10
0.881944
 20
-84.740047
 30
0.0
 10
7.725833
 20
-84.740047
 30
0.0
 10
14.569722
 20
-84.740047
 30
0.0
 10
21.413611
 20
-84.740047
 30
0.0
 10
28.257500
 20
-84.740047
 30
0.0
 10
28.257500
 20
-77.896158
 30
0.0
 10
28.257500
 20
-71.052269
 30
0.0
 10
28.257500
 20
-64.208381
 30
0.0
 10
28.257500
 20
-57.364492
 30
0.0
 10
21.413611
 20
-57.364492
 30
0.0
 10
14.569722
 20
-57.364492
 30
0.0
 10
7.725833
 20
-57.364492
 30
0.0
 10
0.881944
 20
-57.364492
 30
0.0
 10
0.881944
 20
-57.364492
 30
0.0
  0
LWPOLYLINE
  5
10b
100
AcDbEntity
  8
0
 62
7
100
AcDbPolyline
 90
18
 70
0
 10
29.104167
 20
-57.364492
 30
0.0
 10
29.104167
 20
-64.208381
 30
0.0
 10
29.104167
 20
-71.052269
 30
0.0
 10
29.104167
 20
-77.896158
 30
0.0
 10
29.104167
 20
-84.740047
 30
0.0
 10
35.948056
 20
-84.740047
 30
0.0
 10
42.791944
 20
-84.740047
 30
0.0
 10
49.635833
 20
-84.740047
 30
0.0
 10
56.479722
 20
-84.740047
 30
0.0
 10
56.479722
 20
-77.896158
 30
0.0
 10
56.479722
 20
-71.052269
 30
0.0
 10
56.479722
 20
-64.208381
 30
0.0
 10
56.479722
 20
-57.364492
 30
0.0
 10
49.635833
 20
-57.364492
 30
0.0
 10
42.791944
 20
-57.364492
 30
0.0
 10
35.948056
 20
-57.364492
 30
0.0
 10
29.104167
 20
-57.364492
 30
0.0
 10
29.104167
 20
-57.364492
 30
0.0
  0
LWPOLYLINE
  5
10c
100
AcDbEntity
  8
0
 62
7
100
AcDbPolyline
 90
18
 70
0
 10
57.326389
 20
-57.364492
 30
0.0
 10
57.326389
 20
-64.208381
 30
0.0
 10
57.326389
 20
-71.052269
 30
0.0
 10
57.326389
 20
-77.896158
 30
0.0
 10
57.326389
 20
-84.740047
 30
0.0
 10
64.170278
 20
-84.740047
 30
0.0
 10
71.014167
 20
-84.740047
 30
0.0
 10
77.858056
 20
-84.740047
 30
0.0
 10
84.701944
 20
-84.740047
 30
0.0
 10
84.701944
 20
-77.896158
 30
0.0
 10
84.701944
 20
-71.052269
 30
0.0
 10
84.701944
 20
-64.208381
 30
0.0
 10
84.701944
 20
-57.364492
 30
0.0
 10
77.858056
 20
-57.364492
 30
0.0
 10
71.014167
 20
-57.364492
 30
0.0
 10
64.170278
 20
-57.364492
 30
0.0
 10
57.326389
 20
-57.364492
 30
0.0
 10
57.326389
 20
-57.364492
 30
0.0
  0
LWPOLYLINE
  5
10d
100
AcDbEntity
  8
0
 62
7
100
AcDbPolyline
 90
18
 70
0
 10
85.548611
 20
-57.364492
 30
0.0
 10
85.548611
 20
-64.208381
 30
0.0
 10
85.548611
 20
-71.052269
 30
0.0
 10
85.548611
 20
-77.896158
 30
0.0
 10
85.548611
 20
-84.740047
 30
0.0
 10
92.392500
 20
-84.740047
 30
0.0
 10
99.236389
 20
-84.740047
 30
0.0
 10
106.080278
 20
-84.740047
 30
0.0
 10
112.924167
 20
-84.740047
 30
0.0
 10
112.924167
 20
-77.896158
 30
0.0
 10
112.924167
 20
-71.052269
 30
0.0
 10
112.924167
 20
-64.208381
 30
0.0
 10
112.924167
 20
-57.364492
 30
0.0
 10
106.080278
 20
-57.364492
 30
0.0
 10
99.236389
 20
-57.364492
 30
0.0
 10
92.392500
 20
-57.364492
 30
0.0
 10
85.548611
 20
-57.364492
 30
0.0
 10
85.548611
 20
-57.364492
 30
0.0
  0
LWPOLYLINE
  5
10e
100
AcDbEntity
  8
0
 62
7
100
AcDbPolyline
 90
18
 70
0
 10
113.770833
 20
-57.364492
 30
0.0
 10
113.770833
 20
-64.208381
 30
0.0
 10
113.770833
 20
-71.052269
 30
0.0
 10
113.770833
 20
-77.896158
 30
0.0
 10
113.770833
 20
-84.740047
 30
0.0
 10
120.614722
 20
-84.740047
 30
0.0
 10
127.458611
 20
-84.740047
 30
0.0
 10
134.302500
 20
-84.740047
 30
0.0
 10
141.146389
 20
-84.740047
 30
0.0
 10
141.146389
 20
-77.896158
 30
0.0
 10
141.146389
 20
-71.052269
 30
0.0
 10
141.146389
 20
-64.208381
 30
0.0
 10
141.146389
 20
-57.364492
 30
0.0
 10
134.302500
 20
-57.364492
 30
0.0
 10
127.458611
 20
-57.364492
 30
0.0
 10
120.614722
 20
-57.364492
 30
0.0
 10
113.770833
 20
-57.364492
 30
0.0
 10
113.770833
 20
-57.364492
 30
0.0
  0
LWPOLYLINE
  5
10f
100
AcDbEntity
  8
0
 62
7
100
AcDbPolyline
 90
18
 70
0
 10
1.446389
 20
-57.928936
 30
0.0
 10
8.008056
 20
-57.928936
 30
0.0
 10
14.569722
 20
-57.928936
 30
0.0
 10
21.131389
 20
-57.928936
 30
0.0
 10
27.693056
 20
-57.928936
 30
0.0
 10
27.693056
 20
-64.490603
 30
0.0
 10
27.693056
 20
-71.052269
 30
0.0
 10
27.693056
 20
-77.613936
 30
0.0
 10
27.693056
 20
-84.175603
 30
0.0
 10
21.131389
 20
-84.175603
 30
0.0
 10
14.569722
 20
-84.175603
 30
0.0
 10
8.008056
 20
-84.175603
 30
0.0
 10
1.446389
 20
-84.175603
 30
0.0
 10
1.446389
 20
-77.613936
 30
0.0
 10
1.446389
 20
-71.052269
 30
0.0
 10
1.446389
 20
-64.490603
 30
0.0
 10
1.446389
 20
-57.928936
 30
0.0
 10
1.446389
 20
-57.928936
 30
0.0
  0
LWPOLYLINE
  5
110
100
AcDbEntity
  8
0
 62
7
100
AcDbPolyline
 90
18
 70
0
 10
29.668611
 20
-57.928936
 30
0.0
 10
36.230278
 20
-57.928936
 30
0.0
 10
42.791944
 20
-57.928936
 30
0.0
 10
49.353611
 20
-57.928936
 30
0.0
 10
55.915278
 20
-57.928936
 30
0.0
 10
55.915278
 20
-64.490603
 30
0.0
 10
55.915278
 20
-71.052269
 30
0.0
 10
55.915278
 20
-77.613936
 30
0.0
 10
55.915278
 20
-84.175603
 30
0.0
 10
49.353611
 20
-84.175603
 30
0.0
 10
42.791944
 20
-84.175603
 30
0.0
 10
36.230278
 20
-84.175603
 30
0.0
 10
29.668611
 20
-84.175603
 30
0.0
 10
29.668611
 20
-77.613936
 30
0.0
 10
29.668611
 20
-71.052269
 30
0.0
 10
29.668611
 20
-64.490603
 30
0.0
 10
29.668611
 20
-57.928936
 30
0.0
 10
29.668611
 20
-57.928936
 30
0.0
  0
LWPOLYLINE
  5
111
100
AcDbEntity
  8
0
 62
7
100
AcDbPolyline
 90
18
 70
0
 10
57.890833
 20
-57.928936
 30
0.0
 10
64.452500
 20
-57.928936
 30
0.0
 10
71.014167
 20
-57.928936
 30
0.0
 10
77.575833
 20
-57.928936
 30
0.0
 10
84.137500
 20
-57.928936
 30
0.0
 10
84.137500
 20
-64.490603
 30
0.0
 10
84.137500
 20
-71.052269
 30
0.0
 10
84.137500
 20
-77.613936
 30
0.0
 10
84.137500
 20
-84.175603
 30
0.0
 10
77.575833
 20
-84.175603
 30
0.0
 10
71.014167
 20
-84.175603
 30
0.0
 10
64.452500
 20
-84.175603
 30
0.0
 10
57.890833
 20
-84.175603
 30
0.0
 10
57.890833
 20
-77.613936
 30
0.0
 10
57.890833
 20
-71.052269
 30
0.0
 10
57.890833
 20
-64.490603
 30
0.0
 10
57.890833
 20
-57.928936
 30
0.0
 10
57.890833
 20
-57.928936
 30
0.0
  0
LWPOLYLINE
  5
112
100
AcDbEntity
  8
0
 62
7
100
AcDbPolyline
 90
18
 70
0
 10
86.113056
 20
-57.928936
 30
0.0
 10
92.674722
 20
-57.928936
 30
0.0
 10
99.236389
 20
-57.928936
 30
0.0
 10
105.798056
 20
-57.928936
 30
0.0
 10
112.359722
 20
-57.928936
 30
0.0
 10
112.359722
 20
-64.490603
 30
0.0
 10
112.359722
 20
-71.052269
 30
0.0
 10
112.359722
 20
-77.613936
 30
0.0
 10
112.359722
 20
-84.175603
 30
0.0
 10
105.798056
 20
-84.175603
 30
0.0
 10
99.236389
 20
-84.175603
 30
0.0
 10
92.674722
 20
-84.175603
 30
0.0
 10
86.113056
 20
-84.175603
 30
0.0
 10
86.113056
 20
-77.613936
 30
0.0
 10
86.113056
 20
-71.052269
 30
0.0
 10
86.113056
 20
-64.490603
 30
0.0
 10
86.113056
 20
-57.928936
 30
0.0
 10
86.113056
 20
-57.928936
 30
0.0
  0
LWPOLYLINE
  5
113
100
AcDbEntity
  8
0
 62
7
100
AcDbPolyline
 90
18
 70
0
 10
114.335278
 20
-57.928936
 30
0.0
 10
120.896944
 20
-57.928936
 30
0.0
 10
127.458611
 20
-57.928936
 30
0.0
 10
134.020278
 20
-57.928936
 30
0.0
 10
140.581944
 20
-57.928936
 30
0.0
 10
140.581944
 20
-64.490603
 30
0.0
 10
140.581944
 20
-71.052269
 30
0.0
 10
140.581944
 20
-77.613936
 30
0.0
 10
140.581944
 20
-84.175603
 30
0.0
 10
134.020278
 20
-84.175603
 30
0.0
 10
127.458611
 20
-84.175603
 30
0.0
 10
120.896944
 20
-84.175603
 30
0.0
 10
114.335278
 20
-84.175603
 30
0.0
 10
114.335278
 20
-77.613936
 30
0.0
 10
114.335278
 20
-71.052269
 30
0.0
 10
114.335278
 20
-64.490603
 30
0.0
 10
114.335278
 20
-57.928936
 30
0.0
 10
114.335278
 20
-57.928936
 30
0.0
  0
LWPOLYLINE
  5
114
100
AcDbEntity
  8
0
 62
7
100
AcDbPolyline
 90
18
 70
0
 10
0.881944
 20
-85.586714
 30
0.0
 10
0.881944
 20
-92.430603
 30
0.0
 10
0.881944
 20
-99.274492
 30
0.0
 10
0.881944
 20
-106.118381
 30
0.0
 10
0.881944
 20
-112.962269
 30
0.0
 10
7.725833
 20
-112.962269
 30
0.0
 10
14.569722
 20
-112.962269
 30
0.0
 10
21.413611
 20
-112.962269
 30
0.0
 10
28.257500
 20
-112.962269
 30
0.0
 10
28.257500
 20
-106.118381
 30
0.0
 10
28.257500
 20
-99.274492
 30
0.0
 10
28.257500
 20
-92.430603
 30
0.0
 10
28.257500
 20
-85.586714
 30
0.0
 10
21.413611
 20
-85.586714
 30
0.0
 10
14.569722
 20
-85.586714
 30
0.0
 10
7.725833
 20
-85.586714
 30
0.0
 10
0.881944
 20
-85.586714
 30
0.0
 10
0.881944
 20
-85.586714
 30
0.0
  0
LWPOLYLINE
  5
115
100
AcDbEntity
  8
0
 62
7
100
AcDbPolyline
 90
18
 70
0
 10
29.104167
 20
-85.586714
 30
0.0
 10
29.104167
 20
-92.430603
 30
0.0
 10
29.104167
 20
-99.274492
 30
0.0
 10
29.104167
 20
-106.118381
 30
0.0
 10
29.104167
 20
-112.962269
 30
0.0
 10
35.948056
 20
-112.962269
 30
0.0
 10
42.791944
 20
-112.962269
 30
0.0
 10
49.635833
 20
-112.962269
 30
0.0
 10
56.479722
 20
-112.962269
 30
0.0
 10
56.479722
 20
-106.118381
 30
0.0
 10
56.479722
 20
-99.274492
 30
0.0
 10
56.479722
 20
-92.430603
 30
0.0
 10
56.479722
 20
-85.586714
 30
0.0
 10
49.635833
 20
-85.586714
 30
0.0
 10
42.791944
 20
-85.586714
 30
0.0
 10
35.948056
 20
-85.586714
 30
0.0
 10
29.104167
 20
-85.586714
 30
0.0
 10
29.104167
 20
-85.586714
 30
0.0
  0
LWPOLYLINE
  5
116
100
AcDbEntity
  8
0
 62
7
100
AcDbPolyline
 90
18
 70
0
 10
57.326389
 20
-85.586714
 30
0.0
 10
57.326389
 20
-92.430603
 30
0.0
 10
57.326389
 20
-99.274492
 30
0.0
 10
57.326389
 20
-106.118381
 30
0.0
 10
57.326389
 20
-112.962269
 30
0.0
 10
64.170278
 20
-112.962269
 30
0.0
 10
71.014167
 20
-112.962269
 30
0.0
 10
77.858056
 20
-112.962269
 30
0.0
 10
84.701944
 20
-112.962269
 30
0.0
 10
84.701944
 20
-106.118381
 30
0.0
 10
84.701944
 20
-99.274492
 30
0.0
 10
84.701944
 20
-92.430603
 30
0.0
 10
84.701944
 20
-85.586714
 30
0.0
 10
77.858056
 20
-85.586714
 30
0.0
 10
71.014167
 20
-85.586714
 30
0.0
 10
64.170278
 20
-85.586714
 30
0.0
 10
57.326389
 20
-85.586714
 30
0.0
 10
57.326389
 20
-85.586714
 30
0.0
  0
LWPOLYLINE
  5
117
100
AcDbEntity
  8
0
 62
7
100
AcDbPolyline
 90
18
 70
0
 10
85.548611
 20
-85.586714
 30
0.0
 10
85.548611
 20
-92.430603
 30
0.0
 10
85.548611
 20
-99.274492
 30
0.0
 10
85.548611
 20
-106.118381
 30
0.0
 10
85.548611
 20
-112.962269
 30
0.0
 10
92.392500
 20
-112.962269
 30
0.0
 10
99.236389
 20
-112.962269
 30
0.0
 10
106.080278
 20
-112.962269
 30
0.0
 10
112.924167
 20
-112.962269
 30
0.0
 10
112.924167
 20
-106.118381
 30
0.0
 10
112.924167
 20
-99.274492
 30
0.0
 10
112.924167
 20
-92.430603
 30
0.0
 10
112.924167
 20
-85.586714
 30
0.0
 10
106.080278
 20
-85.586714
 30
0.0
 10
99.236389
 20
-85.586714
 30
0.0
 10
92.392500
 20
-85.586714
 30
0.0
 10
85.548611
 20
-85.586714
 30
0.0
 10
85.548611
 20
-85.586714
 30
0.0
  0
LWPOLYLINE
  5
118
100
AcDbEntity
  8
0
 62
7
100
AcDbPolyline
 90
18
 70
0
 10
113.770833
 20
-85.586714
 30
0.0
 10
113.770833
 20
-92.430603
 30
0.0
 10
113.770833
 20
-99.274492
 30
0.0
 10
113.770833
 20
-106.118381
 30
0.0
 10
113.770833
 20
-112.962269
 30
0.0
 10
120.614722
 20
-112.962269
 30
0.0
 10
127.458611
 20
-112.962269
 30
0.0
 10
134.302500
 20
-112.962269
 30
0.0
 10
141.146389
 20
-112.962269
 30
0.0
 10
141.146389
 20
-106.118381
 30
0.0
 10
141.146389
 20
-99.274492
 30
0.0
 10
141.146389
 20
-92.430603
 30
0.0
 10
141.146389
 20
-85.586714
 30
0.0
 10
134.302500
 20
-85.586714
 30
0.0
 10
127.458611
 20
-85.586714
 30
0.0
 10
120.614722
 20
-85.586714
 30
0.0
 10
113.770833
 20
-85.586714
 30
0.0
 10
113.770833
 20
-85.586714
 30
0.0
  0
LWPOLYLINE
  5
119
100
AcDbEntity
  8
0
 62
7
100
AcDbPolyline
 90
18
 70
0
 10
1.446389
 20
-86.151158
 30
0.0
 10
8.008056
 20
-86.151158
 30
0.0
 10
14.569722
 20
-86.151158
 30
0.0
 10
21.131389
 20
-86.151158
 30
0.0
 10
27.693056
 20
-86.151158
 30
0.0
 10
27.693056
 20
-92.712825
 30
0.0
 10
27.693056
 20
-99.274492
 30
0.0
 10
27.693056
 20
-105.836158
 30
0.0
 10
27.693056
 20
-112.397825
 30
0.0
 10
21.131389
 20
-112.397825
 30
0.0
 10
14.569722
 20
-112.397825
 30
0.0
 10
8.008056
 20
-112.397825
 30
0.0
 10
1.446389
 20
-112.397825
 30
0.0
 10
1.446389
 20
-105.836158
 30
0.0
 10
1.446389
 20
-99.274492
 30
0.0
 10
1.446389
 20
-92.712825
 30
0.0
 10
1.446389
 20
-86.151158
 30
0.0
 10
1.446389
 20
-86.151158
 30
0.0
  0
LWPOLYLINE
  5
11a
100
AcDbEntity
  8
0
 62
7
100
AcDbPolyline
 90
18
 70
0
 10
29.668611
 20
-86.151158
 30
0.0
 10
36.230278
 20
-86.151158
 30
0.0
 10
42.791944
 20
-86.151158
 30
0.0
 10
49.353611
 20
-86.151158
 30
0.0
 10
55.915278
 20
-86.151158
 30
0.0
 10
55.915278
 20
-92.712825
 30
0.0
 10
55.915278
 20
-99.274492
 30
0.0
 10
55.915278
 20
-105.836158
 30
0.0
 10
55.915278
 20
-112.397825
 30
0.0
 10
49.353611
 20
-112.397825
 30
0.0
 10
42.791944
 20
-112.397825
 30
0.0
 10
36.230278
 20
-112.397825
 30
0.0
 10
29.668611
 20
-112.397825
 30
0.0
 10
29.668611
 20
-105.836158
 30
0.0
 10
29.668611
 20
-99.274492
 30
0.0
 10
29.668611
 20
-92.712825
 30
0.0
 10
29.668611
 20
-86.151158
 30
0.0
 10
29.668611
 20
-86.151158
 30
0.0
  0
LWPOLYLINE
  5
11b
100
AcDbEntity
  8
0
 62
7
100
AcDbPolyline
 90
18
 70
0
 10
57.890833
 20
-86.151158
 30
0.0
 10
64.452500
 20
-86.151158
 30
0.0
 10
71.014167
 20
-86.151158
 30
0.0
 10
77.575833
 20
-86.151158
 30
0.0
 10
84.137500
 20
-86.151158
 30
0.0
 10
84.137500
 20
-92.712825
 30
0.0
 10
84.137500
 20
-99.274492
 30
0.0
 10
84.137500
 20
-105.836158
 30
0.0
 10
84.137500
 20
-112.397825
 30
0.0
 10
77.575833
 20
-112.397825
 30
0.0
 10
71.014167
 20
-112.397825
 30
0.0
 10
64.452500
 20
-112.397825
 30
0.0
 10
57.890833
 20
-112.397825
 30
0.0
 10
57.890833
 20
-105.836158
 30
0.0
 10
57.890833
 20
-99.274492
 30
0.0
 10
57.890833
 20
-92.712825
 30
0.0
 10
57.890833
 20
-86.151158
 30
0.0
 10
57.890833
 20
-86.151158
 30
0.0
  0
LWPOLYLINE
  5
11c
100
AcDbEntity
  8
0
 62
7
100
AcDbPolyline
 90
18
 70
0
 10
86.113056
 20
-86.151158
 30
0.0
 10
92.674722
 20
-86.151158
 30
0.0
 10
99.236389
 20
-86.151158
 30
0.0
 10
105.798056
 20
-86.151158
 30
0.0
 10
112.359722
 20
-86.151158
 30
0.0
 10
112.359722
 20
-92.712825
 30
0.0
 10
112.359722
 20
-99.274492
 30
0.0
 10
112.359722
 20
-105.836158
 30
0.0
 10
112.359722
 20
-112.397825
 30
0.0
 10
105.798056
 20
-112.397825
 30
0.0
 10
99.236389
 20
-112.397825
 30
0.0
 10
92.674722
 20
-112.397825
 30
0.0
 10
86.113056
 20
-112.397825
 30
0.0
 10
86.113056
 20
-105.836158
 30
0.0
 10
86.113056
 20
-99.274492
 30
0.0
 10
86.113056
 20
-92.712825
 30
0.0
 10
86.113056
 20
-86.151158
 30
0.0
 10
86.113056
 20
-86.151158
 30
0.0
  0
LWPOLYLINE
  5
11d
100
AcDbEntity
  8
0
 62
7
100
AcDbPolyline
 90
18
 70
0
 10
114.335278
 20
-86.151158
 30
0.0
 10
120.896944
 20
-86.151158
 30
0.0
 10
127.458611
 20
-86.151158
 30
0.0
 10
134.020278
 20
-86.151158
 30
0.0
 10
140.581944
 20
-86.151158
 30
0.0
 10
140.581944
 20
-92.712825
 30
0.0
 10
140.581944
 20
-99.274492
 30
0.0
 10
140.581944
 20
-105.836158
 30
0.0
 10
140.581944
 20
-112.397825
 30
0.0
 10
134.020278
 20
-112.397825
 30
0.0
 10
127.458611
 20
-112.397825
 30
0.0
 10
120.896944
 20
-112.397825
 30
0.0
 10
114.335278
 20
-112.397825
 30
0.0
 10
114.335278
 20
-105.836158
 30
0.0
 10
114.335278
 20
-99.274492
 30
0.0
 10
114.335278
 20
-92.712825
 30
0.0
 10
114.335278
 20
-86.151158
 30
0.0
 10
114.335278
 20
-86.151158
 30
0.0
  0
LWPOLYLINE
  5
11e
100
AcDbEntity
  8
0
 62
7
100
AcDbPolyline
 90
18
 70
0
 10
0.881944
 20
-113.808936
 30
0.0
 10
0.881944
 20
-120.652825
 30
0.0
 10
0.881944
 20
-127.496714
 30
0.0
 10
0.881944
 20
-134.340603
 30
0.0
 10
0.881944
 20
-141.184492
 30
0.0
 10
7.725833
 20
-141.184492
 30
0.0
 10
14.569722
 20
-141.184492
 30
0.0
 10
21.413611
 20
-141.184492
 30
0.0
 10
28.257500
 20
-141.184492
 30
0.0
 10
28.257500
 20
-134.340603
 30
0.0
 10
28.257500
 20
-127.496714
 30
0.0
 10
28.257500
 20
-120.652825
 30
0.0
 10
28.257500
 20
-113.808936
 30
0.0
 10
21.413611
 20
-113.808936
 30
0.0
 10
14.569722
 20
-113.808936
 30
0.0
 10
7.725833
 20
-113.808936
 30
0.0
 10
0.881944
 20
-113.808936
 30
0.0
 10
0.881944
 20
-113.808936
 30
0.0
  0
LWPOLYLINE
  5
11f
100
AcDbEntity
  8
0
 62
7
100
AcDbPolyline
 90
18
 70
0
 10
29.104167
 20
-113.808936
 30
0.0
 10
29.104167
 20
-120.652825
 30
0.0
 10
29.104167
 20
-127.496714
 30
0.0
 10
29.104167
 20
-134.340603
 30
0.0
 10
29.104167
 20
-141.184492
 30
0.0
 10
35.948056
 20
-141.184492
 30
0.0
 10
42.791944
 20
-141.184492
 30
0.0
 10
49.635833
 20
-141.184492
 30
0.0
 10
56.479722
 20
-141.184492
 30
0.0
 10
56.479722
 20
-134.340603
 30
0.0
 10
56.479722
 20
-127.496714
 30
0.0
 10
56.479722
 20
-120.652825
 30
0.0
 10
56.479722
 20
-113.808936
 30
0.0
 10
49.635833
 20
-113.808936
 30
0.0
 10
42.791944
 20
-113.808936
 30
0.0
 10
35.948056
 20
-113.808936
 30
0.0
 10
29.104167
 20
-113.808936
 30
0.0
 10
29.104167
 20
-113.808936
 30
0.0
  0
LWPOLYLINE
  5
120
100
AcDbEntity
  8
0
 62
7
100
AcDbPolyline
 90
18
 70
0
 10
57.326389
 20
-113.808936
 30
0.0
 10
57.326389
 20
-120.652825
 30
0.0
 10
57.326389
 20
-127.496714
 30
0.0
 10
57.326389
 20
-134.340603
 30
0.0
 10
57.326389
 20
-141.184492
 30
0.0
 10
64.170278
 20
-141.184492
 30
0.0
 10
71.014167
 20
-141.184492
 30
0.0
 10
77.858056
 20
-141.184492
 30
0.0
 10
84.701944
 20
-141.184492
 30
0.0
 10
84.701944
 20
-134.340603
 30
0.0
 10
84.701944
 20
-127.496714
 30
0.0
 10
84.701944
 20
-120.652825
 30
0.0
 10
84.701944
 20
-113.808936
 30
0.0
 10
77.858056
 20
-113.808936
 30
0.0
 10
71.014167
 20
-113.808936
 30
0.0
 10
64.170278
 20
-113.808936
 30
0.0
 10
57.326389
 20
-113.808936
 30
0.0
 10
57.326389
 20
-113.808936
 30
0.0
  0
LWPOLYLINE
  5
121
100
AcDbEntity
  8
0
 62
7
100
AcDbPolyline
 90
18
 70
0
 10
85.548611
 20
-113.808936
 30
0.0
 10
85.548611
 20
-120.652825
 30
0.0
 10
85.548611
 20
-127.496714
 30
0.0
 10
85.548611
 20
-134.340603
 30
0.0
 10
85.548611
 20
-141.184492
 30
0.0
 10
92.392500
 20
-141.184492
 30
0.0
 10
99.236389
 20
-141.184492
 30
0.0
 10
106.080278
 20
-141.184492
 30
0.0
 10
112.924167
 20
-141.184492
 30
0.0
 10
112.924167
 20
-134.340603
 30
0.0
 10
112.924167
 20
-127.496714
 30
0.0
 10
112.924167
 20
-120.652825
 30
0.0
 10
112.924167
 20
-113.808936
 30
0.0
 10
106.080278
 20
-113.808936
 30
0.0
 10
99.236389
 20
-113.808936
 30
0.0
 10
92.392500
 20
-113.808936
 30
0.0
 10
85.548611
 20
-113.808936
 30
0.0
 10
85.548611
 20
-113.808936
 30
0.0
  0
LWPOLYLINE
  5
122
100
AcDbEntity
  8
0
 62
7
100
AcDbPolyline
 90
18
 70
0
 10
113.770833
 20
-113.808936
 30
0.0
 10
113.770833
 20
-120.652825
 30
0.0
 10
113.770833
 20
-127.496714
 30
0.0
 10
113.770833
 20
-134.340603
 30
0.0
 10
113.770833
 20
-141.184492
 30
0.0
 10
120.614722
 20
-141.184492
 30
0.0
 10
127.458611
 20
-141.184492
 30
0.0
 10
134.302500
 20
-141.184492
 30
0.0
 10
141.146389
 20
-141.184492
 30
0.0
 10
141.146389
 20
-134.340603
 30
0.0
 10
141.146389
 20
-127.496714
 30
0.0
 10
141.146389
 20
-120.652825
 30
0.0
 10
141.146389
 20
-113.808936
 30
0.0
 10
134.302500
 20
-113.808936
 30
0.0
 10
127.458611
 20
-113.808936
 30
0.0
 10
120.614722
 20
-113.808936
 30
0.0
 10
113.770833
 20
-113.808936
 30
0.0
 10
113.770833
 20
-113.808936
 30
0.0
  0
LWPOLYLINE
  5
123
100
AcDbEntity
  8
0
 62
7
100
AcDbPolyline
 90
18
 70
0
 10
1.446389
 20
-114.373381
 30
0.0
 10
8.008056
 20
-114.373381
 30
0.0
 10
14.569722
 20
-114.373381
 30
0.0
 10
21.131389
 20
-114.373381
 30
0.0
 10
27.693056
 20
-114.373381
 30
0.0
 10
27.693056
 20
-120.935047
 30
0.0
 10
27.693056
 20
-127.496714
 30
0.0
 10
27.693056
 20
-134.058381
 30
0.0
 10
27.693056
 20
-140.620047
 30
0.0
 10
21.131389
 20
-140.620047
 30
0.0
 10
14.569722
 20
-140.620047
 30
0.0
 10
8.008056
 20
-140.620047
 30
0.0
 10
1.446389
 20
-140.620047
 30
0.0
 10
1.446389
 20
-134.058381
 30
0.0
 10
1.446389
 20
-127.496714
 30
0.0
 10
1.446389
 20
-120.935047
 30
0.0
 10
1.446389
 20
-114.373381
 30
0.0
 10
1.446389
 20
-114.373381
 30
0.0
  0
LWPOLYLINE
  5
124
100
AcDbEntity
  8
0
 62
7
100
AcDbPolyline
 90
18
 70
0
 10
29.668611
 20
-114.373381
 30
0.0
 10
36.230278
 20
-114.373381
 30
0.0
 10
42.791944
 20
-114.373381
 30
0.0
 10
49.353611
 20
-114.373381
 30
0.0
 10
55.915278
 20
-114.373381
 30
0.0
 10
55.915278
 20
-120.935047
 30
0.0
 10
55.915278
 20
-127.496714
 30
0.0
 10
55.915278
 20
-134.058381
 30
0.0
 10
55.915278
 20
-140.620047
 30
0.0
 10
49.353611
 20
-140.620047
 30
0.0
 10
42.791944
 20
-140.620047
 30
0.0
 10
36.230278
 20
-140.620047
 30
0.0
 10
29.668611
 20
-140.620047
 30
0.0
 10
29.668611
 20
-134.058381
 30
0.0
 10
29.668611
 20
-127.496714
 30
0.0
 10
29.668611
 20
-120.935047
 30
0.0
 10
29.668611
 20
-114.373381
 30
0.0
 10
29.668611
 20
-114.373381
 30
0.0
  0
LWPOLYLINE
  5
125
100
AcDbEntity
  8
0
 62
7
100
AcDbPolyline
 90
18
 70
0
 10
57.890833
 20
-114.373381
 30
0.0
 10
64.452500
 20
-114.373381
 30
0.0
 10
71.014167
 20
-114.373381
 30
0.0
 10
77.575833
 20
-114.373381
 30
0.0
 10
84.137500
 20
-114.373381
 30
0.0
 10
84.137500
 20
-120.935047
 30
0.0
 10
84.137500
 20
-127.496714
 30
0.0
 10
84.137500
 20
-134.058381
 30
0.0
 10
84.137500
 20
-140.620047
 30
0.0
 10
77.575833
 20
-140.620047
 30
0.0
 10
71.014167
 20
-140.620047
 30
0.0
 10
64.452500
 20
-140.620047
 30
0.0
 10
57.890833
 20
-140.620047
 30
0.0
 10
57.890833
 20
-134.058381
 30
0.0
 10
57.890833
 20
-127.496714
 30
0.0
 10
57.890833
 20
-120.935047
 30
0.0
 10
57.890833
 20
-114.373381
 30
0.0
 10
57.890833
 20
-114.373381
 30
0.0
  0
LWPOLYLINE
  5
126
100
AcDbEntity
  8
0
 62
7
100
AcDbPolyline
 90
18
 70
0
 10
86.113056
 20
-114.373381
 30
0.0
 10
92.674722
 20
-114.373381
 30
0.0
 10
99.236389
 20
-114.373381
 30
0.0
 10
105.798056
 20
-114.373381
 30
0.0
 10
112.359722
 20
-114.373381
 30
0.0
 10
112.359722
 20
-120.935047
 30
0.0
 10
112.359722
 20
-127.496714
 30
0.0
 10
112.359722
 20
-134.058381
 30
0.0
 10
112.359722
 20
-140.620047
 30
0.0
 10
105.798056
 20
-140.620047
 30
0.0
 10
99.236389
 20
-140.620047
 30
0.0
 10
92.674722
 20
-140.620047
 30
0.0
 10
86.113056
 20
-140.620047
 30
0.0
 10
86.113056
 20
-134.058381
 30
0.0
 10
86.113056
 20
-127.496714
 30
0.0
 10
86.113056
 20
-120.935047
 30
0.0
 10
86.113056
 20
-114.373381
 30
0.0
 10
86.113056
 20
-114.373381
 30
0.0
  0
LWPOLYLINE
  5
127
100
AcDbEntity
  8
0
 62
7
100
AcDbPolyline
 90
18
 70
0
 10
114.335278
 20
-114.373381
 30
0.0
 10
120.896944
 20
-114.373381
 30
0.0
 10
127.458611
 20
-114.373381
 30
0.0
 10
134.020278
 20
-114.373381
 30
0.0
 10
140.581944
 20
-114.373381
 30
0.0
 10
140.581944
 20
-120.935047
 30
0.0
 10
140.581944
 20
-127.496714
 30
0.0
 10
140.581944
 20
-134.058381
 30
0.0
 10
140.581944
 20
-140.620047
 30
0.0
 10
134.020278
 20
-140.620047
 30
0.0
 10
127.458611
 20
-140.620047
 30
0.0
 10
120.896944
 20
-140.620047
 30
0.0
 10
114.335278
 20
-140.620047
 30
0.0
 10
114.335278
 20
-134.058381
 30
0.0
 10
114.335278
 20
-127.496714
 30
0.0
 10
114.335278
 20
-120.935047
 30
0.0
 10
114.335278
 20
-114.373381
 30
0.0
 10
114.335278
 20
-114.373381
 30
0.0
  0
LWPOLYLINE
  5
128
100
AcDbEntity
  8
0
 62
7
100
AcDbPolyline
 90
18
 70
0
 10
0.881944
 20
-142.031158
 30
0.0
 10
0.881944
 20
-148.875047
 30
0.0
 10
0.881944
 20
-155.718936
 30
0.0
 10
0.881944
 20
-162.562825
 30
0.0
 10
0.881944
 20
-169.406714
 30
0.0
 10
7.725833
 20
-169.406714
 30
0.0
 10
14.569722
 20
-169.406714
 30
0.0
 10
21.413611
 20
-169.406714
 30
0.0
 10
28.257500
 20
-169.406714
 30
0.0
 10
28.257500
 20
-162.562825
 30
0.0
 10
28.257500
 20
-155.718936
 30
0.0
 10
28.257500
 20
-148.875047
 30
0.0
 10
28.257500
 20
-142.031158
 30
0.0
 10
21.413611
 20
-142.031158
 30
0.0
 10
14.569722
 20
-142.031158
 30
0.0
 10
7.725833
 20
-142.031158
 30
0.0
 10
0.881944
 20
-142.031158
 30
0.0
 10
0.881944
 20
-142.031158
 30
0.0
  0
LWPOLYLINE
  5
129
100
AcDbEntity
  8
0
 62
7
100
AcDbPolyline
 90
18
 70
0
 10
29.104167
 20
-142.031158
 30
0.0
 10
29.104167
 20
-148.875047
 30
0.0
 10
29.104167
 20
-155.718936
 30
0.0
 10
29.104167
 20
-162.562825
 30
0.0
 10
29.104167
 20
-169.406714
 30
0.0
 10
35.948056
 20
-169.406714
 30
0.0
 10
42.791944
 20
-169.406714
 30
0.0
 10
49.635833
 20
-169.406714
 30
0.0
 10
56.479722
 20
-169.406714
 30
0.0
 10
56.479722
 20
-162.562825
 30
0.0
 10
56.479722
 20
-155.718936
 30
0.0
 10
56.479722
 20
-148.875047
 30
0.0
 10
56.479722
 20
-142.031158
 30
0.0
 10
49.635833
 20
-142.031158
 30
0.0
 10
42.791944
 20
-142.031158
 30
0.0
 10
35.948056
 20
-142.031158
 30
0.0
 10
29.104167
 20
-142.031158
 30
0.0
 10
29.104167
 20
-142.031158
 30
0.0
  0
LWPOLYLINE
  5
12a
100
AcDbEntity
  8
0
 62
7
100
AcDbPolyline
 90
18
 70
0
 10
57.326389
 20
-142.031158
 30
0.0
 10
57.326389
 20
-148.875047
 30
0.0
 10
57.326389
 20
-155.718936
 30
0.0
 10
57.326389
 20
-162.562825
 30
0.0
 10
57.326389
 20
-169.406714
 30
0.0
 10
64.170278
 20
-169.406714
 30
0.0
 10
71.014167
 20
-169.406714
 30
0.0
 10
77.858056
 20
-169.406714
 30
0.0
 10
84.701944
 20
-169.406714
 30
0.0
 10
84.701944
 20
-162.562825
 30
0.0
 10
84.701944
 20
-155.718936
 30
0.0
 10
84.701944
 20
-148.875047
 30
0.0
 10
84.701944
 20
-142.031158
 30
0.0
 10
77.858056
 20
-142.031158
 30
0.0
 10
71.014167
 20
-142.031158
 30
0.0
 10
64.170278
 20
-142.031158
 30
0.0
 10
57.326389
 20
-142.031158
 30
0.0
 10
57.326389
 20
-142.031158
 30
0.0
  0
LWPOLYLINE
  5
12b
100
AcDbEntity
  8
0
 62
7
100
AcDbPolyline
 90
18
 70
0
 10
85.548611
 20
-142.031158
 30
0.0
 10
85.548611
 20
-148.875047
 30
0.0
 10
85.548611
 20
-155.718936
 30
0.0
 10
85.548611
 20
-162.562825
 30
0.0
 10
85.548611
 20
-169.406714
 30
0.0
 10
92.392500
 20
-169.406714
 30
0.0
 10
99.236389
 20
-169.406714
 30
0.0
 10
106.080278
 20
-169.406714
 30
0.0
 10
112.924167
 20
-169.406714
 30
0.0
 10
112.924167
 20
-162.562825
 30
0.0
 10
112.924167
 20
-155.718936
 30
0.0
 10
112.924167
 20
-148.875047
 30
0.0
 10
112.924167
 20
-142.031158
 30
0.0
 10
106.080278
 20
-142.031158
 30
0.0
 10
99.236389
 20
-142.031158
 30
0.0
 10
92.392500
 20
-142.031158
 30
0.0
 10
85.548611
 20
-142.031158
 30
0.0
 10
85.548611
 20
-142.031158
 30
0.0
  0
LWPOLYLINE
  5
12c
100
AcDbEntity
  8
0
 62
7
100
AcDbPolyline
 90
18
 70
0
 10
113.770833
 20
-142.031158
 30
0.0
 10
113.770833
 20
-148.875047
 30
0.0
 10
113.770833
 20
-155.718936
 30
0.0
 10
113.770833
 20
-162.562825
 30
0.0
 10
113.770833
 20
-169.406714
 30
0.0
 10
120.614722
 20
-169.406714
 30
0.0
 10
127.458611
 20
-169.406714
 30
0.0
 10
134.302500
 20
-169.406714
 30
0.0
 10
141.146389
 20
-169.406714
 30
0.0
 10
141.146389
 20
-162.562825
 30
0.0
 10
141.146389
 20
-155.718936
 30
0.0
 10
141.146389
 20
-148.875047
 30
0.0
 10
141.146389
 20
-142.031158
 30
0.0
 10
134.302500
 20
-142.031158
 30
0.0
 10
127.458611
 20
-142.031158
 30
0.0
 10
120.614722
 20
-142.031158
 30
0.0
 10
113.770833
 20
-142.031158
 30
0.0
 10
113.770833
 20
-142.031158
 30
0.0
  0
LWPOLYLINE
  5
12d
100
AcDbEntity
  8
0
 62
7
100
AcDbPolyline
 90
18
 70
0
 10
1.446389
 20
-142.595603
 30
0.0
 10
8.008056
 20
-142.595603
 30
0.0
 10
14.569722
 20
-142.595603
 30
0.0
 10
21.131389
 20
-142.595603
 30
0.0
 10
27.693056
 20
-142.595603
 30
0.0
 10
27.693056
 20
-149.157269
 30
0.0
 10
27.693056
 20
-155.718936
 30
0.0
 10
27.693056
 20
-162.280603
 30
0.0
 10
27.693056
 20
-168.842269
 30
0.0
 10
21.131389
 20
-168.842269
 30
0.0
 10
14.569722
 20
-168.842269
 30
0.0
 10
8.008056
 20
-168.842269
 30
0.0
 10
1.446389
 20
-168.842269
 30
0.0
 10
1.446389
 20
-162.280603
 30
0.0
 10
1.446389
 20
-155.718936
 30
0.0
 10
1.446389
 20
-149.157269
 30
0.0
 10
1.446389
 20
-142.595603
 30
0.0
 10
1.446389
 20
-142.595603
 30
0.0
  0
LWPOLYLINE
  5
12e
100
AcDbEntity
  8
0
 62
7
100
AcDbPolyline
 90
18
 70
0
 10
29.668611
 20
-142.595603
 30
0.0
 10
36.230278
 20
-142.595603
 30
0.0
 10
42.791944
 20
-142.595603
 30
0.0
 10
49.353611
 20
-142.595603
 30
0.0
 10
55.915278
 20
-142.595603
 30
0.0
 10
55.915278
 20
-149.157269
 30
0.0
 10
55.915278
 20
-155.718936
 30
0.0
 10
55.915278
 20
-162.280603
 30
0.0
 10
55.915278
 20
-168.842269
 30
0.0
 10
49.353611
 20
-168.842269
 30
0.0
 10
42.791944
 20
-168.842269
 30
0.0
 10
36.230278
 20
-168.842269
 30
0.0
 10
29.668611
 20
-168.842269
 30
0.0
 10
29.668611
 20
-162.280603
 30
0.0
 10
29.668611
 20
-155.718936
 30
0.0
 10
29.668611
 20
-149.157269
 30
0.0
 10
29.668611
 20
-142.595603
 30
0.0
 10
29.668611
 20
-142.595603
 30
0.0
  0
LWPOLYLINE
  5
12f
100
AcDbEntity
  8
0
 62
7
100
AcDbPolyline
 90
18
 70
0
 10
57.890833
 20
-142.595603
 30
0.0
 10
64.452500
 20
-142.595603
 30
0.0
 10
71.014167
 20
-142.595603
 30
0.0
 10
77.575833
 20
-142.595603
 30
0.0
 10
84.137500
 20
-142.595603
 30
0.0
 10
84.137500
 20
-149.157269
 30
0.0
 10
84.137500
 20
-155.718936
 30
0.0
 10
84.137500
 20
-162.280603
 30
0.0
 10
84.137500
 20
-168.842269
 30
0.0
 10
77.575833
 20
-168.842269
 30
0.0
 10
71.014167
 20
-168.842269
 30
0.0
 10
64.452500
 20
-168.842269
 30
0.0
 10
57.890833
 20
-168.842269
 30
0.0
 10
57.890833
 20
-162.280603
 30
0.0
 10
57.890833
 20
-155.718936
 30
0.0
 10
57.890833
 20
-149.157269
 30
0.0
 10
57.890833
 20
-142.595603
 30
0.0
 10
57.890833
 20
-142.595603
 30
0.0
  0
LWPOLYLINE
  5
130
100
AcDbEntity
  8
0
 62
7
100
AcDbPolyline
 90
18
 70
0
 10
86.113056
 20
-142.595603
 30
0.0
 10
92.674722
 20
-142.595603
 30
0.0
 10
99.236389
 20
-142.595603
 30
0.0
 10
105.798056
 20
-142.595603
 30
0.0
 10
112.359722
 20
-142.595603
 30
0.0
 10
112.359722
 20
-149.157269
 30
0.0
 10
112.359722
 20
-155.718936
 30
0.0
 10
112.359722
 20
-162.280603
 30
0.0
 10
112.359722
 20
-168.842269
 30
0.0
 10
105.798056
 20
-168.842269
 30
0.0
 10
99.236389
 20
-168.842269
 30
0.0
 10
92.674722
 20
-168.842269
 30
0.0
 10
86.113056
 20
-168.842269
 30
0.0
 10
86.113056
 20
-162.280603
 30
0.0
 10
86.113056
 20
-155.718936
 30
0.0
 10
86.113056
 20
-149.157269
 30
0.0
 10
86.113056
 20
-142.595603
 30
0.0
 10
86.113056
 20
-142.595603
 30
0.0
  0
LWPOLYLINE
  5
131
100
AcDbEntity
  8
0
 62
7
100
AcDbPolyline
 90
18
 70
0
 10
114.335278
 20
-142.595603
 30
0.0
 10
120.896944
 20
-142.595603
 30
0.0
 10
127.458611
 20
-142.595603
 30
0.0
 10
134.020278
 20
-142.595603
 30
0.0
 10
140.581944
 20
-142.595603
 30
0.0
 10
140.581944
 20
-149.157269
 30
0.0
 10
140.581944
 20
-155.718936
 30
0.0
 10
140.581944
 20
-162.280603
 30
0.0
 10
140.581944
 20
-168.842269
 30
0.0
 10
134.020278
 20
-168.842269
 30
0.0
 10
127.458611
 20
-168.842269
 30
0.0
 10
120.896944
 20
-168.842269
 30
0.0
 10
114.335278
 20
-168.842269
 30
0.0
 10
114.335278
 20
-162.280603
 30
0.0
 10
114.335278
 20
-155.718936
 30
0.0
 10
114.335278
 20
-149.157269
 30
0.0
 10
114.335278
 20
-142.595603
 30
0.0
 10
114.335278
 20
-142.595603
 30
0.0
  0
ENDSEC
  0
SECTION
  2
OBJECTS
  0
DICTIONARY
  5
C
330
0
100
AcDbDictionary
  3
ACAD_GROUP
350
D
  3
ACAD_MLINESTYLE
350
17
  0
DICTIONARY
  5
D
330
C
100
AcDbDictionary
  0
DICTIONARY
  5
1A
330
C
100
AcDbDictionary
  0
DICTIONARY
  5
17
330
C
100
AcDbDictionary
  3
STANDARD
350
18
  0
DICTIONARY
  5
19
330
C
100
AcDbDictionary
  0
ENDSEC
  0
EOF
