999
DXF created by Inkscape
  0
SECTION
  2
HEADER
  9
$ACADVER
  1
AC1014
  9
$HANDSEED
  5
FFFF
  9
$MEASUREMENT
 70
     1
  0
ENDSEC
  0
SECTION
  2
TABLES
  0
TABLE
  2
VPORT
  5
8
330
0
100
AcDbSymbolTable
 70
     4
  0
VPORT
  5
2E
330
8
100
AcDbSymbolTableRecord
100
AcDbViewportTableRecord
  2
*ACTIVE
 70
     0
 10
0.0
 20
0.0
 11
1.0
 21
1.0
 12
210.0
 22
148.5
 13
0.0
 23
0.0
 14
10.0
 24
10.0
 15
10.0
 25
10.0
 16
0.0
 26
0.0
 36
1.0
 17
0.0
 27
0.0
 37
0.0
 40
341.0
 41
1.24
 42
50.0
 43
0.0
 44
0.0
 50
0.0
 51
0.0
 71
     0
 72
   100
 73
     1
 74
     3
 75
     0
 76
     0
 77
     0
 78
     0
  0
ENDTAB
  0
TABLE
  2
LTYPE
  5
5
330
0
100
AcDbSymbolTable
 70
     1
  0
LTYPE
  5
14
330
5
100
AcDbSymbolTableRecord
100
AcDbLinetypeTableRecord
  2
BYBLOCK
 70
     0
  3

 72
    65
 73
     0
 40
0.0
  0
LTYPE
  5
15
330
5
100
AcDbSymbolTableRecord
100
AcDbLinetypeTableRecord
  2
BYLAYER
 70
     0
  3

 72
    65
 73
     0
 40
0.0
  0
LTYPE
  5
16
330
5
100
AcDbSymbolTableRecord
100
AcDbLinetypeTableRecord
  2
CONTINUOUS
 70
     0
  3
Solid line
 72
    65
 73
     0
 40
0.0
  0
ENDTAB
  0
TABLE
  2
LAYER
  5
2
100
AcDbSymbolTable
 70
1
  0
LAYER
  5
50
100
AcDbSymbolTableRecord
100
AcDbLayerTableRecord
  2
0
 70
0
  6
CONTINUOUS
  0
ENDTAB
  0
TABLE
  2
STYLE
  5
3
330
0
100
AcDbSymbolTable
 70
     1
  0
STYLE
  5
11
330
3
100
AcDbSymbolTableRecord
100
AcDbTextStyleTableRecord
  2
STANDARD
 70
     0
 40
0.0
 41
1.0
 50
0.0
 71
     0
 42
2.5
  3
txt
  4

  0
ENDTAB
  0
TABLE
  2
VIEW
  5
6
330
0
100
AcDbSymbolTable
 70
     0
  0
ENDTAB
  0
TABLE
  2
UCS
  5
7
330
0
100
AcDbSymbolTable
 70
     0
  0
ENDTAB
  0
TABLE
  2
APPID
  5
9
330
0
100
AcDbSymbolTable
 70
     2
  0
APPID
  5
12
330
9
100
AcDbSymbolTableRecord
100
AcDbRegAppTableRecord
  2
ACAD
 70
     0
  0
ENDTAB
  0
TABLE
  2
DIMSTYLE
  5
A
330
0
100
AcDbSymbolTable
 70
     1
  0
DIMSTYLE
105
27
330
A
100
AcDbSymbolTableRecord
100
AcDbDimStyleTableRecord
  2
ISO-25
 70
     0
  3

  4

  5

  6

  7

 40
1.0
 41
2.5
 42
0.625
 43
3.75
 44
1.25
 45
0.0
 46
0.0
 47
0.0
 48
0.0
140
2.5
141
2.5
142
0.0
143
0.03937007874016
144
1.0
145
0.0
146
1.0
147
0.625
 71
     0
 72
     0
 73
     0
 74
     0
 75
     0
 76
     0
 77
     1
 78
     8
170
     0
171
     3
172
     1
173
     0
174
     0
175
     0
176
     0
177
     0
178
     0
270
     2
271
     2
272
     2
273
     2
274
     3
340
11
275
     0
280
     0
281
     0
282
     0
283
     0
284
     8
285
     0
286
     0
287
     3
288
     0
  0
ENDTAB
  0
TABLE
  2
BLOCK_RECORD
  5
1
330
0
100
AcDbSymbolTable
 70
     1
  0
BLOCK_RECORD
  5
1F
330
1
100
AcDbSymbolTableRecord
100
AcDbBlockTableRecord
  2
*MODEL_SPACE
  0
BLOCK_RECORD
  5
1B
330
1
100
AcDbSymbolTableRecord
100
AcDbBlockTableRecord
  2
*PAPER_SPACE
  0
ENDTAB
  0
ENDSEC
  0
SECTION
  2
BLOCKS
  0
BLOCK
  5
20
330
1F
100
AcDbEntity
  8
0
100
AcDbBlockBegin
  2
*MODEL_SPACE
 70
     0
 10
0.0
 20
0.0
 30
0.0
  3
*MODEL_SPACE
  1

  0
ENDBLK
  5
21
330
1F
100
AcDbEntity
  8
0
100
AcDbBlockEnd
  0
BLOCK
  5
1C
330
1B
100
AcDbEntity
 67
     1
  8
0
100
AcDbBlockBegin
  2
*PAPER_SPACE
  1

  0
ENDBLK
  5
1D
330
1B
100
AcDbEntity
 67
     1
  8
0
100
AcDbBlockEnd
  0
ENDSEC
  0
SECTION
  2
ENTITIES
  0
LWPOLYLINE
  5
100
100
AcDbEntity
  8
0
 62
7
100
AcDbPolyline
 90
18
 70
0
 10
-168.724792
 20
-29.327478
 30
0.0
 10
-168.724792
 20
-36.171367
 30
0.0
 10
-168.724792
 20
-43.015256
 30
0.0
 10
-168.724792
 20
-49.859144
 30
0.0
 10
-168.724792
 20
-56.703033
 30
0.0
 10
-161.880903
 20
-56.703033
 30
0.0
 10
-155.037014
 20
-56.703033
 30
0.0
 10
-148.193125
 20
-56.703033
 30
0.0
 10
-141.349236
 20
-56.703033
 30
0.0
 10
-141.349236
 20
-49.859144
 30
0.0
 10
-141.349236
 20
-43.015256
 30
0.0
 10
-141.349236
 20
-36.171367
 30
0.0
 10
-141.349236
 20
-29.327478
 30
0.0
 10
-148.193125
 20
-29.327478
 30
0.0
 10
-155.037014
 20
-29.327478
 30
0.0
 10
-161.880903
 20
-29.327478
 30
0.0
 10
-168.724792
 20
-29.327478
 30
0.0
 10
-168.724792
 20
-29.327478
 30
0.0
  0
LWPOLYLINE
  5
101
100
AcDbEntity
  8
0
 62
7
100
AcDbPolyline
 90
18
 70
0
 10
-140.502569
 20
-29.327478
 30
0.0
 10
-140.502569
 20
-36.171367
 30
0.0
 10
-140.502569
 20
-43.015256
 30
0.0
 10
-140.502569
 20
-49.859144
 30
0.0
 10
-140.502569
 20
-56.703033
 30
0.0
 10
-133.658681
 20
-56.703033
 30
0.0
 10
-126.814792
 20
-56.703033
 30
0.0
 10
-119.970903
 20
-56.703033
 30
0.0
 10
-113.127014
 20
-56.703033
 30
0.0
 10
-113.127014
 20
-49.859144
 30
0.0
 10
-113.127014
 20
-43.015256
 30
0.0
 10
-113.127014
 20
-36.171367
 30
0.0
 10
-113.127014
 20
-29.327478
 30
0.0
 10
-119.970903
 20
-29.327478
 30
0.0
 10
-126.814792
 20
-29.327478
 30
0.0
 10
-133.658681
 20
-29.327478
 30
0.0
 10
-140.502569
 20
-29.327478
 30
0.0
 10
-140.502569
 20
-29.327478
 30
0.0
  0
LWPOLYLINE
  5
102
100
AcDbEntity
  8
0
 62
7
100
AcDbPolyline
 90
18
 70
0
 10
-112.280347
 20
-29.327478
 30
0.0
 10
-112.280347
 20
-36.171367
 30
0.0
 10
-112.280347
 20
-43.015256
 30
0.0
 10
-112.280347
 20
-49.859144
 30
0.0
 10
-112.280347
 20
-56.703033
 30
0.0
 10
-105.436458
 20
-56.703033
 30
0.0
 10
-98.592569
 20
-56.703033
 30
0.0
 10
-91.748681
 20
-56.703033
 30
0.0
 10
-84.904792
 20
-56.703033
 30
0.0
 10
-84.904792
 20
-49.859144
 30
0.0
 10
-84.904792
 20
-43.015256
 30
0.0
 10
-84.904792
 20
-36.171367
 30
0.0
 10
-84.904792
 20
-29.327478
 30
0.0
 10
-91.748681
 20
-29.327478
 30
0.0
 10
-98.592569
 20
-29.327478
 30
0.0
 10
-105.436458
 20
-29.327478
 30
0.0
 10
-112.280347
 20
-29.327478
 30
0.0
 10
-112.280347
 20
-29.327478
 30
0.0
  0
LWPOLYLINE
  5
103
100
AcDbEntity
  8
0
 62
7
100
AcDbPolyline
 90
18
 70
0
 10
-84.058125
 20
-29.327478
 30
0.0
 10
-84.058125
 20
-36.171367
 30
0.0
 10
-84.058125
 20
-43.015256
 30
0.0
 10
-84.058125
 20
-49.859144
 30
0.0
 10
-84.058125
 20
-56.703033
 30
0.0
 10
-77.214236
 20
-56.703033
 30
0.0
 10
-70.370347
 20
-56.703033
 30
0.0
 10
-63.526458
 20
-56.703033
 30
0.0
 10
-56.682569
 20
-56.703033
 30
0.0
 10
-56.682569
 20
-49.859144
 30
0.0
 10
-56.682569
 20
-43.015256
 30
0.0
 10
-56.682569
 20
-36.171367
 30
0.0
 10
-56.682569
 20
-29.327478
 30
0.0
 10
-63.526458
 20
-29.327478
 30
0.0
 10
-70.370347
 20
-29.327478
 30
0.0
 10
-77.214236
 20
-29.327478
 30
0.0
 10
-84.058125
 20
-29.327478
 30
0.0
 10
-84.058125
 20
-29.327478
 30
0.0
  0
LWPOLYLINE
  5
104
100
AcDbEntity
  8
0
 62
7
100
AcDbPolyline
 90
18
 70
0
 10
-55.835903
 20
-29.327478
 30
0.0
 10
-55.835903
 20
-36.171367
 30
0.0
 10
-55.835903
 20
-43.015256
 30
0.0
 10
-55.835903
 20
-49.859144
 30
0.0
 10
-55.835903
 20
-56.703033
 30
0.0
 10
-48.992014
 20
-56.703033
 30
0.0
 10
-42.148125
 20
-56.703033
 30
0.0
 10
-35.304236
 20
-56.703033
 30
0.0
 10
-28.460347
 20
-56.703033
 30
0.0
 10
-28.460347
 20
-49.859144
 30
0.0
 10
-28.460347
 20
-43.015256
 30
0.0
 10
-28.460347
 20
-36.171367
 30
0.0
 10
-28.460347
 20
-29.327478
 30
0.0
 10
-35.304236
 20
-29.327478
 30
0.0
 10
-42.148125
 20
-29.327478
 30
0.0
 10
-48.992014
 20
-29.327478
 30
0.0
 10
-55.835903
 20
-29.327478
 30
0.0
 10
-55.835903
 20
-29.327478
 30
0.0
  0
LWPOLYLINE
  5
105
100
AcDbEntity
  8
0
 62
7
100
AcDbPolyline
 90
9
 70
0
 10
-27.613681
 20
-29.327478
 30
0.0
 10
-27.613681
 20
-36.171367
 30
0.0
 10
-27.613681
 20
-43.015256
 30
0.0
 10
-27.613681
 20
-49.859144
 30
0.0
 10
-27.613681
 20
-56.703033
 30
0.0
 10
-27.560764
 20
-56.703033
 30
0.0
 10
-27.560764
 20
-29.327478
 30
0.0
 10
-27.613681
 20
-29.327478
 30
0.0
 10
-27.613681
 20
-29.327478
 30
0.0
  0
LWPOLYLINE
  5
106
100
AcDbEntity
  8
0
 62
7
100
AcDbPolyline
 90
18
 70
0
 10
-168.160347
 20
-29.891922
 30
0.0
 10
-161.598681
 20
-29.891922
 30
0.0
 10
-155.037014
 20
-29.891922
 30
0.0
 10
-148.475347
 20
-29.891922
 30
0.0
 10
-141.913681
 20
-29.891922
 30
0.0
 10
-141.913681
 20
-36.453589
 30
0.0
 10
-141.913681
 20
-43.015256
 30
0.0
 10
-141.913681
 20
-49.576922
 30
0.0
 10
-141.913681
 20
-56.138589
 30
0.0
 10
-148.475347
 20
-56.138589
 30
0.0
 10
-155.037014
 20
-56.138589
 30
0.0
 10
-161.598681
 20
-56.138589
 30
0.0
 10
-168.160347
 20
-56.138589
 30
0.0
 10
-168.160347
 20
-49.576922
 30
0.0
 10
-168.160347
 20
-43.015256
 30
0.0
 10
-168.160347
 20
-36.453589
 30
0.0
 10
-168.160347
 20
-29.891922
 30
0.0
 10
-168.160347
 20
-29.891922
 30
0.0
  0
LWPOLYLINE
  5
107
100
AcDbEntity
  8
0
 62
7
100
AcDbPolyline
 90
18
 70
0
 10
-139.938125
 20
-29.891922
 30
0.0
 10
-133.376458
 20
-29.891922
 30
0.0
 10
-126.814792
 20
-29.891922
 30
0.0
 10
-120.253125
 20
-29.891922
 30
0.0
 10
-113.691458
 20
-29.891922
 30
0.0
 10
-113.691458
 20
-36.453589
 30
0.0
 10
-113.691458
 20
-43.015256
 30
0.0
 10
-113.691458
 20
-49.576922
 30
0.0
 10
-113.691458
 20
-56.138589
 30
0.0
 10
-120.253125
 20
-56.138589
 30
0.0
 10
-126.814792
 20
-56.138589
 30
0.0
 10
-133.376458
 20
-56.138589
 30
0.0
 10
-139.938125
 20
-56.138589
 30
0.0
 10
-139.938125
 20
-49.576922
 30
0.0
 10
-139.938125
 20
-43.015256
 30
0.0
 10
-139.938125
 20
-36.453589
 30
0.0
 10
-139.938125
 20
-29.891922
 30
0.0
 10
-139.938125
 20
-29.891922
 30
0.0
  0
LWPOLYLINE
  5
108
100
AcDbEntity
  8
0
 62
7
100
AcDbPolyline
 90
18
 70
0
 10
-111.715903
 20
-29.891922
 30
0.0
 10
-105.154236
 20
-29.891922
 30
0.0
 10
-98.592569
 20
-29.891922
 30
0.0
 10
-92.030903
 20
-29.891922
 30
0.0
 10
-85.469236
 20
-29.891922
 30
0.0
 10
-85.469236
 20
-36.453589
 30
0.0
 10
-85.469236
 20
-43.015256
 30
0.0
 10
-85.469236
 20
-49.576922
 30
0.0
 10
-85.469236
 20
-56.138589
 30
0.0
 10
-92.030903
 20
-56.138589
 30
0.0
 10
-98.592569
 20
-56.138589
 30
0.0
 10
-105.154236
 20
-56.138589
 30
0.0
 10
-111.715903
 20
-56.138589
 30
0.0
 10
-111.715903
 20
-49.576922
 30
0.0
 10
-111.715903
 20
-43.015256
 30
0.0
 10
-111.715903
 20
-36.453589
 30
0.0
 10
-111.715903
 20
-29.891922
 30
0.0
 10
-111.715903
 20
-29.891922
 30
0.0
  0
LWPOLYLINE
  5
109
100
AcDbEntity
  8
0
 62
7
100
AcDbPolyline
 90
18
 70
0
 10
-83.493681
 20
-29.891922
 30
0.0
 10
-76.932014
 20
-29.891922
 30
0.0
 10
-70.370347
 20
-29.891922
 30
0.0
 10
-63.808681
 20
-29.891922
 30
0.0
 10
-57.247014
 20
-29.891922
 30
0.0
 10
-57.247014
 20
-36.453589
 30
0.0
 10
-57.247014
 20
-43.015256
 30
0.0
 10
-57.247014
 20
-49.576922
 30
0.0
 10
-57.247014
 20
-56.138589
 30
0.0
 10
-63.808681
 20
-56.138589
 30
0.0
 10
-70.370347
 20
-56.138589
 30
0.0
 10
-76.932014
 20
-56.138589
 30
0.0
 10
-83.493681
 20
-56.138589
 30
0.0
 10
-83.493681
 20
-49.576922
 30
0.0
 10
-83.493681
 20
-43.015256
 30
0.0
 10
-83.493681
 20
-36.453589
 30
0.0
 10
-83.493681
 20
-29.891922
 30
0.0
 10
-83.493681
 20
-29.891922
 30
0.0
  0
LWPOLYLINE
  5
10a
100
AcDbEntity
  8
0
 62
7
100
AcDbPolyline
 90
18
 70
0
 10
-55.271458
 20
-29.891922
 30
0.0
 10
-48.709792
 20
-29.891922
 30
0.0
 10
-42.148125
 20
-29.891922
 30
0.0
 10
-35.586458
 20
-29.891922
 30
0.0
 10
-29.024792
 20
-29.891922
 30
0.0
 10
-29.024792
 20
-36.453589
 30
0.0
 10
-29.024792
 20
-43.015256
 30
0.0
 10
-29.024792
 20
-49.576922
 30
0.0
 10
-29.024792
 20
-56.138589
 30
0.0
 10
-35.586458
 20
-56.138589
 30
0.0
 10
-42.148125
 20
-56.138589
 30
0.0
 10
-48.709792
 20
-56.138589
 30
0.0
 10
-55.271458
 20
-56.138589
 30
0.0
 10
-55.271458
 20
-49.576922
 30
0.0
 10
-55.271458
 20
-43.015256
 30
0.0
 10
-55.271458
 20
-36.453589
 30
0.0
 10
-55.271458
 20
-29.891922
 30
0.0
 10
-55.271458
 20
-29.891922
 30
0.0
  0
LWPOLYLINE
  5
10b
100
AcDbEntity
  8
0
 62
7
100
AcDbPolyline
 90
18
 70
0
 10
-168.724792
 20
-57.549700
 30
0.0
 10
-168.724792
 20
-64.393589
 30
0.0
 10
-168.724792
 20
-71.237478
 30
0.0
 10
-168.724792
 20
-78.081367
 30
0.0
 10
-168.724792
 20
-84.925256
 30
0.0
 10
-161.880903
 20
-84.925256
 30
0.0
 10
-155.037014
 20
-84.925256
 30
0.0
 10
-148.193125
 20
-84.925256
 30
0.0
 10
-141.349236
 20
-84.925256
 30
0.0
 10
-141.349236
 20
-78.081367
 30
0.0
 10
-141.349236
 20
-71.237478
 30
0.0
 10
-141.349236
 20
-64.393589
 30
0.0
 10
-141.349236
 20
-57.549700
 30
0.0
 10
-148.193125
 20
-57.549700
 30
0.0
 10
-155.037014
 20
-57.549700
 30
0.0
 10
-161.880903
 20
-57.549700
 30
0.0
 10
-168.724792
 20
-57.549700
 30
0.0
 10
-168.724792
 20
-57.549700
 30
0.0
  0
LWPOLYLINE
  5
10c
100
AcDbEntity
  8
0
 62
7
100
AcDbPolyline
 90
18
 70
0
 10
-140.502569
 20
-57.549700
 30
0.0
 10
-140.502569
 20
-64.393589
 30
0.0
 10
-140.502569
 20
-71.237478
 30
0.0
 10
-140.502569
 20
-78.081367
 30
0.0
 10
-140.502569
 20
-84.925256
 30
0.0
 10
-133.658681
 20
-84.925256
 30
0.0
 10
-126.814792
 20
-84.925256
 30
0.0
 10
-119.970903
 20
-84.925256
 30
0.0
 10
-113.127014
 20
-84.925256
 30
0.0
 10
-113.127014
 20
-78.081367
 30
0.0
 10
-113.127014
 20
-71.237478
 30
0.0
 10
-113.127014
 20
-64.393589
 30
0.0
 10
-113.127014
 20
-57.549700
 30
0.0
 10
-119.970903
 20
-57.549700
 30
0.0
 10
-126.814792
 20
-57.549700
 30
0.0
 10
-133.658681
 20
-57.549700
 30
0.0
 10
-140.502569
 20
-57.549700
 30
0.0
 10
-140.502569
 20
-57.549700
 30
0.0
  0
LWPOLYLINE
  5
10d
100
AcDbEntity
  8
0
 62
7
100
AcDbPolyline
 90
18
 70
0
 10
-112.280347
 20
-57.549700
 30
0.0
 10
-112.280347
 20
-64.393589
 30
0.0
 10
-112.280347
 20
-71.237478
 30
0.0
 10
-112.280347
 20
-78.081367
 30
0.0
 10
-112.280347
 20
-84.925256
 30
0.0
 10
-105.436458
 20
-84.925256
 30
0.0
 10
-98.592569
 20
-84.925256
 30
0.0
 10
-91.748681
 20
-84.925256
 30
0.0
 10
-84.904792
 20
-84.925256
 30
0.0
 10
-84.904792
 20
-78.081367
 30
0.0
 10
-84.904792
 20
-71.237478
 30
0.0
 10
-84.904792
 20
-64.393589
 30
0.0
 10
-84.904792
 20
-57.549700
 30
0.0
 10
-91.748681
 20
-57.549700
 30
0.0
 10
-98.592569
 20
-57.549700
 30
0.0
 10
-105.436458
 20
-57.549700
 30
0.0
 10
-112.280347
 20
-57.549700
 30
0.0
 10
-112.280347
 20
-57.549700
 30
0.0
  0
LWPOLYLINE
  5
10e
100
AcDbEntity
  8
0
 62
7
100
AcDbPolyline
 90
18
 70
0
 10
-84.058125
 20
-57.549700
 30
0.0
 10
-84.058125
 20
-64.393589
 30
0.0
 10
-84.058125
 20
-71.237478
 30
0.0
 10
-84.058125
 20
-78.081367
 30
0.0
 10
-84.058125
 20
-84.925256
 30
0.0
 10
-77.214236
 20
-84.925256
 30
0.0
 10
-70.370347
 20
-84.925256
 30
0.0
 10
-63.526458
 20
-84.925256
 30
0.0
 10
-56.682569
 20
-84.925256
 30
0.0
 10
-56.682569
 20
-78.081367
 30
0.0
 10
-56.682569
 20
-71.237478
 30
0.0
 10
-56.682569
 20
-64.393589
 30
0.0
 10
-56.682569
 20
-57.549700
 30
0.0
 10
-63.526458
 20
-57.549700
 30
0.0
 10
-70.370347
 20
-57.549700
 30
0.0
 10
-77.214236
 20
-57.549700
 30
0.0
 10
-84.058125
 20
-57.549700
 30
0.0
 10
-84.058125
 20
-57.549700
 30
0.0
  0
LWPOLYLINE
  5
10f
100
AcDbEntity
  8
0
 62
7
100
AcDbPolyline
 90
18
 70
0
 10
-55.835903
 20
-57.549700
 30
0.0
 10
-55.835903
 20
-64.393589
 30
0.0
 10
-55.835903
 20
-71.237478
 30
0.0
 10
-55.835903
 20
-78.081367
 30
0.0
 10
-55.835903
 20
-84.925256
 30
0.0
 10
-48.992014
 20
-84.925256
 30
0.0
 10
-42.148125
 20
-84.925256
 30
0.0
 10
-35.304236
 20
-84.925256
 30
0.0
 10
-28.460347
 20
-84.925256
 30
0.0
 10
-28.460347
 20
-78.081367
 30
0.0
 10
-28.460347
 20
-71.237478
 30
0.0
 10
-28.460347
 20
-64.393589
 30
0.0
 10
-28.460347
 20
-57.549700
 30
0.0
 10
-35.304236
 20
-57.549700
 30
0.0
 10
-42.148125
 20
-57.549700
 30
0.0
 10
-48.992014
 20
-57.549700
 30
0.0
 10
-55.835903
 20
-57.549700
 30
0.0
 10
-55.835903
 20
-57.549700
 30
0.0
  0
LWPOLYLINE
  5
110
100
AcDbEntity
  8
0
 62
7
100
AcDbPolyline
 90
9
 70
0
 10
-27.613681
 20
-57.549700
 30
0.0
 10
-27.613681
 20
-64.393589
 30
0.0
 10
-27.613681
 20
-71.237478
 30
0.0
 10
-27.613681
 20
-78.081367
 30
0.0
 10
-27.613681
 20
-84.925256
 30
0.0
 10
-27.560764
 20
-84.925256
 30
0.0
 10
-27.560764
 20
-57.549700
 30
0.0
 10
-27.613681
 20
-57.549700
 30
0.0
 10
-27.613681
 20
-57.549700
 30
0.0
  0
LWPOLYLINE
  5
111
100
AcDbEntity
  8
0
 62
7
100
AcDbPolyline
 90
18
 70
0
 10
-168.160347
 20
-58.114144
 30
0.0
 10
-161.598681
 20
-58.114144
 30
0.0
 10
-155.037014
 20
-58.114144
 30
0.0
 10
-148.475347
 20
-58.114144
 30
0.0
 10
-141.913681
 20
-58.114144
 30
0.0
 10
-141.913681
 20
-64.675811
 30
0.0
 10
-141.913681
 20
-71.237478
 30
0.0
 10
-141.913681
 20
-77.799144
 30
0.0
 10
-141.913681
 20
-84.360811
 30
0.0
 10
-148.475347
 20
-84.360811
 30
0.0
 10
-155.037014
 20
-84.360811
 30
0.0
 10
-161.598681
 20
-84.360811
 30
0.0
 10
-168.160347
 20
-84.360811
 30
0.0
 10
-168.160347
 20
-77.799144
 30
0.0
 10
-168.160347
 20
-71.237478
 30
0.0
 10
-168.160347
 20
-64.675811
 30
0.0
 10
-168.160347
 20
-58.114144
 30
0.0
 10
-168.160347
 20
-58.114144
 30
0.0
  0
LWPOLYLINE
  5
112
100
AcDbEntity
  8
0
 62
7
100
AcDbPolyline
 90
18
 70
0
 10
-139.938125
 20
-58.114144
 30
0.0
 10
-133.376458
 20
-58.114144
 30
0.0
 10
-126.814792
 20
-58.114144
 30
0.0
 10
-120.253125
 20
-58.114144
 30
0.0
 10
-113.691458
 20
-58.114144
 30
0.0
 10
-113.691458
 20
-64.675811
 30
0.0
 10
-113.691458
 20
-71.237478
 30
0.0
 10
-113.691458
 20
-77.799144
 30
0.0
 10
-113.691458
 20
-84.360811
 30
0.0
 10
-120.253125
 20
-84.360811
 30
0.0
 10
-126.814792
 20
-84.360811
 30
0.0
 10
-133.376458
 20
-84.360811
 30
0.0
 10
-139.938125
 20
-84.360811
 30
0.0
 10
-139.938125
 20
-77.799144
 30
0.0
 10
-139.938125
 20
-71.237478
 30
0.0
 10
-139.938125
 20
-64.675811
 30
0.0
 10
-139.938125
 20
-58.114144
 30
0.0
 10
-139.938125
 20
-58.114144
 30
0.0
  0
LWPOLYLINE
  5
113
100
AcDbEntity
  8
0
 62
7
100
AcDbPolyline
 90
18
 70
0
 10
-111.715903
 20
-58.114144
 30
0.0
 10
-105.154236
 20
-58.114144
 30
0.0
 10
-98.592569
 20
-58.114144
 30
0.0
 10
-92.030903
 20
-58.114144
 30
0.0
 10
-85.469236
 20
-58.114144
 30
0.0
 10
-85.469236
 20
-64.675811
 30
0.0
 10
-85.469236
 20
-71.237478
 30
0.0
 10
-85.469236
 20
-77.799144
 30
0.0
 10
-85.469236
 20
-84.360811
 30
0.0
 10
-92.030903
 20
-84.360811
 30
0.0
 10
-98.592569
 20
-84.360811
 30
0.0
 10
-105.154236
 20
-84.360811
 30
0.0
 10
-111.715903
 20
-84.360811
 30
0.0
 10
-111.715903
 20
-77.799144
 30
0.0
 10
-111.715903
 20
-71.237478
 30
0.0
 10
-111.715903
 20
-64.675811
 30
0.0
 10
-111.715903
 20
-58.114144
 30
0.0
 10
-111.715903
 20
-58.114144
 30
0.0
  0
LWPOLYLINE
  5
114
100
AcDbEntity
  8
0
 62
7
100
AcDbPolyline
 90
18
 70
0
 10
-83.493681
 20
-58.114144
 30
0.0
 10
-76.932014
 20
-58.114144
 30
0.0
 10
-70.370347
 20
-58.114144
 30
0.0
 10
-63.808681
 20
-58.114144
 30
0.0
 10
-57.247014
 20
-58.114144
 30
0.0
 10
-57.247014
 20
-64.675811
 30
0.0
 10
-57.247014
 20
-71.237478
 30
0.0
 10
-57.247014
 20
-77.799144
 30
0.0
 10
-57.247014
 20
-84.360811
 30
0.0
 10
-63.808681
 20
-84.360811
 30
0.0
 10
-70.370347
 20
-84.360811
 30
0.0
 10
-76.932014
 20
-84.360811
 30
0.0
 10
-83.493681
 20
-84.360811
 30
0.0
 10
-83.493681
 20
-77.799144
 30
0.0
 10
-83.493681
 20
-71.237478
 30
0.0
 10
-83.493681
 20
-64.675811
 30
0.0
 10
-83.493681
 20
-58.114144
 30
0.0
 10
-83.493681
 20
-58.114144
 30
0.0
  0
LWPOLYLINE
  5
115
100
AcDbEntity
  8
0
 62
7
100
AcDbPolyline
 90
18
 70
0
 10
-55.271458
 20
-58.114144
 30
0.0
 10
-48.709792
 20
-58.114144
 30
0.0
 10
-42.148125
 20
-58.114144
 30
0.0
 10
-35.586458
 20
-58.114144
 30
0.0
 10
-29.024792
 20
-58.114144
 30
0.0
 10
-29.024792
 20
-64.675811
 30
0.0
 10
-29.024792
 20
-71.237478
 30
0.0
 10
-29.024792
 20
-77.799144
 30
0.0
 10
-29.024792
 20
-84.360811
 30
0.0
 10
-35.586458
 20
-84.360811
 30
0.0
 10
-42.148125
 20
-84.360811
 30
0.0
 10
-48.709792
 20
-84.360811
 30
0.0
 10
-55.271458
 20
-84.360811
 30
0.0
 10
-55.271458
 20
-77.799144
 30
0.0
 10
-55.271458
 20
-71.237478
 30
0.0
 10
-55.271458
 20
-64.675811
 30
0.0
 10
-55.271458
 20
-58.114144
 30
0.0
 10
-55.271458
 20
-58.114144
 30
0.0
  0
LWPOLYLINE
  5
116
100
AcDbEntity
  8
0
 62
7
100
AcDbPolyline
 90
18
 70
0
 10
-168.724792
 20
-85.771922
 30
0.0
 10
-168.724792
 20
-92.615811
 30
0.0
 10
-168.724792
 20
-99.459700
 30
0.0
 10
-168.724792
 20
-106.303589
 30
0.0
 10
-168.724792
 20
-113.147478
 30
0.0
 10
-161.880903
 20
-113.147478
 30
0.0
 10
-155.037014
 20
-113.147478
 30
0.0
 10
-148.193125
 20
-113.147478
 30
0.0
 10
-141.349236
 20
-113.147478
 30
0.0
 10
-141.349236
 20
-106.303589
 30
0.0
 10
-141.349236
 20
-99.459700
 30
0.0
 10
-141.349236
 20
-92.615811
 30
0.0
 10
-141.349236
 20
-85.771922
 30
0.0
 10
-148.193125
 20
-85.771922
 30
0.0
 10
-155.037014
 20
-85.771922
 30
0.0
 10
-161.880903
 20
-85.771922
 30
0.0
 10
-168.724792
 20
-85.771922
 30
0.0
 10
-168.724792
 20
-85.771922
 30
0.0
  0
LWPOLYLINE
  5
117
100
AcDbEntity
  8
0
 62
7
100
AcDbPolyline
 90
18
 70
0
 10
-140.502569
 20
-85.771922
 30
0.0
 10
-140.502569
 20
-92.615811
 30
0.0
 10
-140.502569
 20
-99.459700
 30
0.0
 10
-140.502569
 20
-106.303589
 30
0.0
 10
-140.502569
 20
-113.147478
 30
0.0
 10
-133.658681
 20
-113.147478
 30
0.0
 10
-126.814792
 20
-113.147478
 30
0.0
 10
-119.970903
 20
-113.147478
 30
0.0
 10
-113.127014
 20
-113.147478
 30
0.0
 10
-113.127014
 20
-106.303589
 30
0.0
 10
-113.127014
 20
-99.459700
 30
0.0
 10
-113.127014
 20
-92.615811
 30
0.0
 10
-113.127014
 20
-85.771922
 30
0.0
 10
-119.970903
 20
-85.771922
 30
0.0
 10
-126.814792
 20
-85.771922
 30
0.0
 10
-133.658681
 20
-85.771922
 30
0.0
 10
-140.502569
 20
-85.771922
 30
0.0
 10
-140.502569
 20
-85.771922
 30
0.0
  0
LWPOLYLINE
  5
118
100
AcDbEntity
  8
0
 62
7
100
AcDbPolyline
 90
18
 70
0
 10
-112.280347
 20
-85.771922
 30
0.0
 10
-112.280347
 20
-92.615811
 30
0.0
 10
-112.280347
 20
-99.459700
 30
0.0
 10
-112.280347
 20
-106.303589
 30
0.0
 10
-112.280347
 20
-113.147478
 30
0.0
 10
-105.436458
 20
-113.147478
 30
0.0
 10
-98.592569
 20
-113.147478
 30
0.0
 10
-91.748681
 20
-113.147478
 30
0.0
 10
-84.904792
 20
-113.147478
 30
0.0
 10
-84.904792
 20
-106.303589
 30
0.0
 10
-84.904792
 20
-99.459700
 30
0.0
 10
-84.904792
 20
-92.615811
 30
0.0
 10
-84.904792
 20
-85.771922
 30
0.0
 10
-91.748681
 20
-85.771922
 30
0.0
 10
-98.592569
 20
-85.771922
 30
0.0
 10
-105.436458
 20
-85.771922
 30
0.0
 10
-112.280347
 20
-85.771922
 30
0.0
 10
-112.280347
 20
-85.771922
 30
0.0
  0
LWPOLYLINE
  5
119
100
AcDbEntity
  8
0
 62
7
100
AcDbPolyline
 90
18
 70
0
 10
-84.058125
 20
-85.771922
 30
0.0
 10
-84.058125
 20
-92.615811
 30
0.0
 10
-84.058125
 20
-99.459700
 30
0.0
 10
-84.058125
 20
-106.303589
 30
0.0
 10
-84.058125
 20
-113.147478
 30
0.0
 10
-77.214236
 20
-113.147478
 30
0.0
 10
-70.370347
 20
-113.147478
 30
0.0
 10
-63.526458
 20
-113.147478
 30
0.0
 10
-56.682569
 20
-113.147478
 30
0.0
 10
-56.682569
 20
-106.303589
 30
0.0
 10
-56.682569
 20
-99.459700
 30
0.0
 10
-56.682569
 20
-92.615811
 30
0.0
 10
-56.682569
 20
-85.771922
 30
0.0
 10
-63.526458
 20
-85.771922
 30
0.0
 10
-70.370347
 20
-85.771922
 30
0.0
 10
-77.214236
 20
-85.771922
 30
0.0
 10
-84.058125
 20
-85.771922
 30
0.0
 10
-84.058125
 20
-85.771922
 30
0.0
  0
LWPOLYLINE
  5
11a
100
AcDbEntity
  8
0
 62
7
100
AcDbPolyline
 90
18
 70
0
 10
-55.835903
 20
-85.771922
 30
0.0
 10
-55.835903
 20
-92.615811
 30
0.0
 10
-55.835903
 20
-99.459700
 30
0.0
 10
-55.835903
 20
-106.303589
 30
0.0
 10
-55.835903
 20
-113.147478
 30
0.0
 10
-48.992014
 20
-113.147478
 30
0.0
 10
-42.148125
 20
-113.147478
 30
0.0
 10
-35.304236
 20
-113.147478
 30
0.0
 10
-28.460347
 20
-113.147478
 30
0.0
 10
-28.460347
 20
-106.303589
 30
0.0
 10
-28.460347
 20
-99.459700
 30
0.0
 10
-28.460347
 20
-92.615811
 30
0.0
 10
-28.460347
 20
-85.771922
 30
0.0
 10
-35.304236
 20
-85.771922
 30
0.0
 10
-42.148125
 20
-85.771922
 30
0.0
 10
-48.992014
 20
-85.771922
 30
0.0
 10
-55.835903
 20
-85.771922
 30
0.0
 10
-55.835903
 20
-85.771922
 30
0.0
  0
LWPOLYLINE
  5
11b
100
AcDbEntity
  8
0
 62
7
100
AcDbPolyline
 90
9
 70
0
 10
-27.613681
 20
-85.771922
 30
0.0
 10
-27.613681
 20
-92.615811
 30
0.0
 10
-27.613681
 20
-99.459700
 30
0.0
 10
-27.613681
 20
-106.303589
 30
0.0
 10
-27.613681
 20
-113.147478
 30
0.0
 10
-27.560764
 20
-113.147478
 30
0.0
 10
-27.560764
 20
-85.771922
 30
0.0
 10
-27.613681
 20
-85.771922
 30
0.0
 10
-27.613681
 20
-85.771922
 30
0.0
  0
LWPOLYLINE
  5
11c
100
AcDbEntity
  8
0
 62
7
100
AcDbPolyline
 90
18
 70
0
 10
-168.160347
 20
-86.336367
 30
0.0
 10
-161.598681
 20
-86.336367
 30
0.0
 10
-155.037014
 20
-86.336367
 30
0.0
 10
-148.475347
 20
-86.336367
 30
0.0
 10
-141.913681
 20
-86.336367
 30
0.0
 10
-141.913681
 20
-92.898033
 30
0.0
 10
-141.913681
 20
-99.459700
 30
0.0
 10
-141.913681
 20
-106.021367
 30
0.0
 10
-141.913681
 20
-112.583033
 30
0.0
 10
-148.475347
 20
-112.583033
 30
0.0
 10
-155.037014
 20
-112.583033
 30
0.0
 10
-161.598681
 20
-112.583033
 30
0.0
 10
-168.160347
 20
-112.583033
 30
0.0
 10
-168.160347
 20
-106.021367
 30
0.0
 10
-168.160347
 20
-99.459700
 30
0.0
 10
-168.160347
 20
-92.898033
 30
0.0
 10
-168.160347
 20
-86.336367
 30
0.0
 10
-168.160347
 20
-86.336367
 30
0.0
  0
LWPOLYLINE
  5
11d
100
AcDbEntity
  8
0
 62
7
100
AcDbPolyline
 90
18
 70
0
 10
-139.938125
 20
-86.336367
 30
0.0
 10
-133.376458
 20
-86.336367
 30
0.0
 10
-126.814792
 20
-86.336367
 30
0.0
 10
-120.253125
 20
-86.336367
 30
0.0
 10
-113.691458
 20
-86.336367
 30
0.0
 10
-113.691458
 20
-92.898033
 30
0.0
 10
-113.691458
 20
-99.459700
 30
0.0
 10
-113.691458
 20
-106.021367
 30
0.0
 10
-113.691458
 20
-112.583033
 30
0.0
 10
-120.253125
 20
-112.583033
 30
0.0
 10
-126.814792
 20
-112.583033
 30
0.0
 10
-133.376458
 20
-112.583033
 30
0.0
 10
-139.938125
 20
-112.583033
 30
0.0
 10
-139.938125
 20
-106.021367
 30
0.0
 10
-139.938125
 20
-99.459700
 30
0.0
 10
-139.938125
 20
-92.898033
 30
0.0
 10
-139.938125
 20
-86.336367
 30
0.0
 10
-139.938125
 20
-86.336367
 30
0.0
  0
LWPOLYLINE
  5
11e
100
AcDbEntity
  8
0
 62
7
100
AcDbPolyline
 90
18
 70
0
 10
-111.715903
 20
-86.336367
 30
0.0
 10
-105.154236
 20
-86.336367
 30
0.0
 10
-98.592569
 20
-86.336367
 30
0.0
 10
-92.030903
 20
-86.336367
 30
0.0
 10
-85.469236
 20
-86.336367
 30
0.0
 10
-85.469236
 20
-92.898033
 30
0.0
 10
-85.469236
 20
-99.459700
 30
0.0
 10
-85.469236
 20
-106.021367
 30
0.0
 10
-85.469236
 20
-112.583033
 30
0.0
 10
-92.030903
 20
-112.583033
 30
0.0
 10
-98.592569
 20
-112.583033
 30
0.0
 10
-105.154236
 20
-112.583033
 30
0.0
 10
-111.715903
 20
-112.583033
 30
0.0
 10
-111.715903
 20
-106.021367
 30
0.0
 10
-111.715903
 20
-99.459700
 30
0.0
 10
-111.715903
 20
-92.898033
 30
0.0
 10
-111.715903
 20
-86.336367
 30
0.0
 10
-111.715903
 20
-86.336367
 30
0.0
  0
LWPOLYLINE
  5
11f
100
AcDbEntity
  8
0
 62
7
100
AcDbPolyline
 90
18
 70
0
 10
-83.493681
 20
-86.336367
 30
0.0
 10
-76.932014
 20
-86.336367
 30
0.0
 10
-70.370347
 20
-86.336367
 30
0.0
 10
-63.808681
 20
-86.336367
 30
0.0
 10
-57.247014
 20
-86.336367
 30
0.0
 10
-57.247014
 20
-92.898033
 30
0.0
 10
-57.247014
 20
-99.459700
 30
0.0
 10
-57.247014
 20
-106.021367
 30
0.0
 10
-57.247014
 20
-112.583033
 30
0.0
 10
-63.808681
 20
-112.583033
 30
0.0
 10
-70.370347
 20
-112.583033
 30
0.0
 10
-76.932014
 20
-112.583033
 30
0.0
 10
-83.493681
 20
-112.583033
 30
0.0
 10
-83.493681
 20
-106.021367
 30
0.0
 10
-83.493681
 20
-99.459700
 30
0.0
 10
-83.493681
 20
-92.898033
 30
0.0
 10
-83.493681
 20
-86.336367
 30
0.0
 10
-83.493681
 20
-86.336367
 30
0.0
  0
LWPOLYLINE
  5
120
100
AcDbEntity
  8
0
 62
7
100
AcDbPolyline
 90
18
 70
0
 10
-55.271458
 20
-86.336367
 30
0.0
 10
-48.709792
 20
-86.336367
 30
0.0
 10
-42.148125
 20
-86.336367
 30
0.0
 10
-35.586458
 20
-86.336367
 30
0.0
 10
-29.024792
 20
-86.336367
 30
0.0
 10
-29.024792
 20
-92.898033
 30
0.0
 10
-29.024792
 20
-99.459700
 30
0.0
 10
-29.024792
 20
-106.021367
 30
0.0
 10
-29.024792
 20
-112.583033
 30
0.0
 10
-35.586458
 20
-112.583033
 30
0.0
 10
-42.148125
 20
-112.583033
 30
0.0
 10
-48.709792
 20
-112.583033
 30
0.0
 10
-55.271458
 20
-112.583033
 30
0.0
 10
-55.271458
 20
-106.021367
 30
0.0
 10
-55.271458
 20
-99.459700
 30
0.0
 10
-55.271458
 20
-92.898033
 30
0.0
 10
-55.271458
 20
-86.336367
 30
0.0
 10
-55.271458
 20
-86.336367
 30
0.0
  0
LWPOLYLINE
  5
121
100
AcDbEntity
  8
0
 62
7
100
AcDbPolyline
 90
18
 70
0
 10
-168.724792
 20
-113.994144
 30
0.0
 10
-168.724792
 20
-120.838033
 30
0.0
 10
-168.724792
 20
-127.681922
 30
0.0
 10
-168.724792
 20
-134.525797
 30
0.0
 10
-168.724792
 20
-141.369686
 30
0.0
 10
-161.880903
 20
-141.369686
 30
0.0
 10
-155.037014
 20
-141.369686
 30
0.0
 10
-148.193125
 20
-141.369686
 30
0.0
 10
-141.349236
 20
-141.369686
 30
0.0
 10
-141.349236
 20
-134.525797
 30
0.0
 10
-141.349236
 20
-127.681922
 30
0.0
 10
-141.349236
 20
-120.838033
 30
0.0
 10
-141.349236
 20
-113.994144
 30
0.0
 10
-148.193125
 20
-113.994144
 30
0.0
 10
-155.037014
 20
-113.994144
 30
0.0
 10
-161.880903
 20
-113.994144
 30
0.0
 10
-168.724792
 20
-113.994144
 30
0.0
 10
-168.724792
 20
-113.994144
 30
0.0
  0
LWPOLYLINE
  5
122
100
AcDbEntity
  8
0
 62
7
100
AcDbPolyline
 90
18
 70
0
 10
-140.502569
 20
-113.994144
 30
0.0
 10
-140.502569
 20
-120.838033
 30
0.0
 10
-140.502569
 20
-127.681922
 30
0.0
 10
-140.502569
 20
-134.525797
 30
0.0
 10
-140.502569
 20
-141.369686
 30
0.0
 10
-133.658681
 20
-141.369686
 30
0.0
 10
-126.814792
 20
-141.369686
 30
0.0
 10
-119.970903
 20
-141.369686
 30
0.0
 10
-113.127014
 20
-141.369686
 30
0.0
 10
-113.127014
 20
-134.525797
 30
0.0
 10
-113.127014
 20
-127.681922
 30
0.0
 10
-113.127014
 20
-120.838033
 30
0.0
 10
-113.127014
 20
-113.994144
 30
0.0
 10
-119.970903
 20
-113.994144
 30
0.0
 10
-126.814792
 20
-113.994144
 30
0.0
 10
-133.658681
 20
-113.994144
 30
0.0
 10
-140.502569
 20
-113.994144
 30
0.0
 10
-140.502569
 20
-113.994144
 30
0.0
  0
LWPOLYLINE
  5
123
100
AcDbEntity
  8
0
 62
7
100
AcDbPolyline
 90
18
 70
0
 10
-112.280347
 20
-113.994144
 30
0.0
 10
-112.280347
 20
-120.838033
 30
0.0
 10
-112.280347
 20
-127.681922
 30
0.0
 10
-112.280347
 20
-134.525797
 30
0.0
 10
-112.280347
 20
-141.369686
 30
0.0
 10
-105.436458
 20
-141.369686
 30
0.0
 10
-98.592569
 20
-141.369686
 30
0.0
 10
-91.748681
 20
-141.369686
 30
0.0
 10
-84.904792
 20
-141.369686
 30
0.0
 10
-84.904792
 20
-134.525797
 30
0.0
 10
-84.904792
 20
-127.681922
 30
0.0
 10
-84.904792
 20
-120.838033
 30
0.0
 10
-84.904792
 20
-113.994144
 30
0.0
 10
-91.748681
 20
-113.994144
 30
0.0
 10
-98.592569
 20
-113.994144
 30
0.0
 10
-105.436458
 20
-113.994144
 30
0.0
 10
-112.280347
 20
-113.994144
 30
0.0
 10
-112.280347
 20
-113.994144
 30
0.0
  0
LWPOLYLINE
  5
124
100
AcDbEntity
  8
0
 62
7
100
AcDbPolyline
 90
18
 70
0
 10
-84.058125
 20
-113.994144
 30
0.0
 10
-84.058125
 20
-120.838033
 30
0.0
 10
-84.058125
 20
-127.681922
 30
0.0
 10
-84.058125
 20
-134.525797
 30
0.0
 10
-84.058125
 20
-141.369686
 30
0.0
 10
-77.214236
 20
-141.369686
 30
0.0
 10
-70.370347
 20
-141.369686
 30
0.0
 10
-63.526458
 20
-141.369686
 30
0.0
 10
-56.682569
 20
-141.369686
 30
0.0
 10
-56.682569
 20
-134.525797
 30
0.0
 10
-56.682569
 20
-127.681922
 30
0.0
 10
-56.682569
 20
-120.838033
 30
0.0
 10
-56.682569
 20
-113.994144
 30
0.0
 10
-63.526458
 20
-113.994144
 30
0.0
 10
-70.370347
 20
-113.994144
 30
0.0
 10
-77.214236
 20
-113.994144
 30
0.0
 10
-84.058125
 20
-113.994144
 30
0.0
 10
-84.058125
 20
-113.994144
 30
0.0
  0
LWPOLYLINE
  5
125
100
AcDbEntity
  8
0
 62
7
100
AcDbPolyline
 90
18
 70
0
 10
-55.835903
 20
-113.994144
 30
0.0
 10
-55.835903
 20
-120.838033
 30
0.0
 10
-55.835903
 20
-127.681922
 30
0.0
 10
-55.835903
 20
-134.525797
 30
0.0
 10
-55.835903
 20
-141.369686
 30
0.0
 10
-48.992014
 20
-141.369686
 30
0.0
 10
-42.148125
 20
-141.369686
 30
0.0
 10
-35.304236
 20
-141.369686
 30
0.0
 10
-28.460347
 20
-141.369686
 30
0.0
 10
-28.460347
 20
-134.525797
 30
0.0
 10
-28.460347
 20
-127.681922
 30
0.0
 10
-28.460347
 20
-120.838033
 30
0.0
 10
-28.460347
 20
-113.994144
 30
0.0
 10
-35.304236
 20
-113.994144
 30
0.0
 10
-42.148125
 20
-113.994144
 30
0.0
 10
-48.992014
 20
-113.994144
 30
0.0
 10
-55.835903
 20
-113.994144
 30
0.0
 10
-55.835903
 20
-113.994144
 30
0.0
  0
LWPOLYLINE
  5
126
100
AcDbEntity
  8
0
 62
7
100
AcDbPolyline
 90
9
 70
0
 10
-27.613681
 20
-113.994144
 30
0.0
 10
-27.613681
 20
-120.838033
 30
0.0
 10
-27.613681
 20
-127.681922
 30
0.0
 10
-27.613681
 20
-134.525797
 30
0.0
 10
-27.613681
 20
-141.369686
 30
0.0
 10
-27.560764
 20
-141.369686
 30
0.0
 10
-27.560764
 20
-113.994144
 30
0.0
 10
-27.613681
 20
-113.994144
 30
0.0
 10
-27.613681
 20
-113.994144
 30
0.0
  0
LWPOLYLINE
  5
127
100
AcDbEntity
  8
0
 62
7
100
AcDbPolyline
 90
18
 70
0
 10
-168.160347
 20
-114.558589
 30
0.0
 10
-161.598681
 20
-114.558589
 30
0.0
 10
-155.037014
 20
-114.558589
 30
0.0
 10
-148.475347
 20
-114.558589
 30
0.0
 10
-141.913681
 20
-114.558589
 30
0.0
 10
-141.913681
 20
-121.120256
 30
0.0
 10
-141.913681
 20
-127.681922
 30
0.0
 10
-141.913681
 20
-134.243575
 30
0.0
 10
-141.913681
 20
-140.805241
 30
0.0
 10
-148.475347
 20
-140.805241
 30
0.0
 10
-155.037014
 20
-140.805241
 30
0.0
 10
-161.598681
 20
-140.805241
 30
0.0
 10
-168.160347
 20
-140.805241
 30
0.0
 10
-168.160347
 20
-134.243575
 30
0.0
 10
-168.160347
 20
-127.681922
 30
0.0
 10
-168.160347
 20
-121.120256
 30
0.0
 10
-168.160347
 20
-114.558589
 30
0.0
 10
-168.160347
 20
-114.558589
 30
0.0
  0
LWPOLYLINE
  5
128
100
AcDbEntity
  8
0
 62
7
100
AcDbPolyline
 90
18
 70
0
 10
-139.938125
 20
-114.558589
 30
0.0
 10
-133.376458
 20
-114.558589
 30
0.0
 10
-126.814792
 20
-114.558589
 30
0.0
 10
-120.253125
 20
-114.558589
 30
0.0
 10
-113.691458
 20
-114.558589
 30
0.0
 10
-113.691458
 20
-121.120256
 30
0.0
 10
-113.691458
 20
-127.681922
 30
0.0
 10
-113.691458
 20
-134.243575
 30
0.0
 10
-113.691458
 20
-140.805241
 30
0.0
 10
-120.253125
 20
-140.805241
 30
0.0
 10
-126.814792
 20
-140.805241
 30
0.0
 10
-133.376458
 20
-140.805241
 30
0.0
 10
-139.938125
 20
-140.805241
 30
0.0
 10
-139.938125
 20
-134.243575
 30
0.0
 10
-139.938125
 20
-127.681922
 30
0.0
 10
-139.938125
 20
-121.120256
 30
0.0
 10
-139.938125
 20
-114.558589
 30
0.0
 10
-139.938125
 20
-114.558589
 30
0.0
  0
LWPOLYLINE
  5
129
100
AcDbEntity
  8
0
 62
7
100
AcDbPolyline
 90
18
 70
0
 10
-111.715903
 20
-114.558589
 30
0.0
 10
-105.154236
 20
-114.558589
 30
0.0
 10
-98.592569
 20
-114.558589
 30
0.0
 10
-92.030903
 20
-114.558589
 30
0.0
 10
-85.469236
 20
-114.558589
 30
0.0
 10
-85.469236
 20
-121.120256
 30
0.0
 10
-85.469236
 20
-127.681922
 30
0.0
 10
-85.469236
 20
-134.243575
 30
0.0
 10
-85.469236
 20
-140.805241
 30
0.0
 10
-92.030903
 20
-140.805241
 30
0.0
 10
-98.592569
 20
-140.805241
 30
0.0
 10
-105.154236
 20
-140.805241
 30
0.0
 10
-111.715903
 20
-140.805241
 30
0.0
 10
-111.715903
 20
-134.243575
 30
0.0
 10
-111.715903
 20
-127.681922
 30
0.0
 10
-111.715903
 20
-121.120256
 30
0.0
 10
-111.715903
 20
-114.558589
 30
0.0
 10
-111.715903
 20
-114.558589
 30
0.0
  0
LWPOLYLINE
  5
12a
100
AcDbEntity
  8
0
 62
7
100
AcDbPolyline
 90
18
 70
0
 10
-83.493681
 20
-114.558589
 30
0.0
 10
-76.932014
 20
-114.558589
 30
0.0
 10
-70.370347
 20
-114.558589
 30
0.0
 10
-63.808681
 20
-114.558589
 30
0.0
 10
-57.247014
 20
-114.558589
 30
0.0
 10
-57.247014
 20
-121.120256
 30
0.0
 10
-57.247014
 20
-127.681922
 30
0.0
 10
-57.247014
 20
-134.243575
 30
0.0
 10
-57.247014
 20
-140.805241
 30
0.0
 10
-63.808681
 20
-140.805241
 30
0.0
 10
-70.370347
 20
-140.805241
 30
0.0
 10
-76.932014
 20
-140.805241
 30
0.0
 10
-83.493681
 20
-140.805241
 30
0.0
 10
-83.493681
 20
-134.243575
 30
0.0
 10
-83.493681
 20
-127.681922
 30
0.0
 10
-83.493681
 20
-121.120256
 30
0.0
 10
-83.493681
 20
-114.558589
 30
0.0
 10
-83.493681
 20
-114.558589
 30
0.0
  0
LWPOLYLINE
  5
12b
100
AcDbEntity
  8
0
 62
7
100
AcDbPolyline
 90
18
 70
0
 10
-55.271458
 20
-114.558589
 30
0.0
 10
-48.709792
 20
-114.558589
 30
0.0
 10
-42.148125
 20
-114.558589
 30
0.0
 10
-35.586458
 20
-114.558589
 30
0.0
 10
-29.024792
 20
-114.558589
 30
0.0
 10
-29.024792
 20
-121.120256
 30
0.0
 10
-29.024792
 20
-127.681922
 30
0.0
 10
-29.024792
 20
-134.243575
 30
0.0
 10
-29.024792
 20
-140.805241
 30
0.0
 10
-35.586458
 20
-140.805241
 30
0.0
 10
-42.148125
 20
-140.805241
 30
0.0
 10
-48.709792
 20
-140.805241
 30
0.0
 10
-55.271458
 20
-140.805241
 30
0.0
 10
-55.271458
 20
-134.243575
 30
0.0
 10
-55.271458
 20
-127.681922
 30
0.0
 10
-55.271458
 20
-121.120256
 30
0.0
 10
-55.271458
 20
-114.558589
 30
0.0
 10
-55.271458
 20
-114.558589
 30
0.0
  0
LWPOLYLINE
  5
12c
100
AcDbEntity
  8
0
 62
7
100
AcDbPolyline
 90
18
 70
0
 10
-168.724792
 20
-142.216353
 30
0.0
 10
-168.724792
 20
-149.060241
 30
0.0
 10
-168.724792
 20
-155.904130
 30
0.0
 10
-168.724792
 20
-162.748019
 30
0.0
 10
-168.724792
 20
-169.591908
 30
0.0
 10
-161.880903
 20
-169.591908
 30
0.0
 10
-155.037014
 20
-169.591908
 30
0.0
 10
-148.193125
 20
-169.591908
 30
0.0
 10
-141.349236
 20
-169.591908
 30
0.0
 10
-141.349236
 20
-162.748019
 30
0.0
 10
-141.349236
 20
-155.904130
 30
0.0
 10
-141.349236
 20
-149.060241
 30
0.0
 10
-141.349236
 20
-142.216353
 30
0.0
 10
-148.193125
 20
-142.216353
 30
0.0
 10
-155.037014
 20
-142.216353
 30
0.0
 10
-161.880903
 20
-142.216353
 30
0.0
 10
-168.724792
 20
-142.216353
 30
0.0
 10
-168.724792
 20
-142.216353
 30
0.0
  0
LWPOLYLINE
  5
12d
100
AcDbEntity
  8
0
 62
7
100
AcDbPolyline
 90
18
 70
0
 10
-140.502569
 20
-142.216353
 30
0.0
 10
-140.502569
 20
-149.060241
 30
0.0
 10
-140.502569
 20
-155.904130
 30
0.0
 10
-140.502569
 20
-162.748019
 30
0.0
 10
-140.502569
 20
-169.591908
 30
0.0
 10
-133.658681
 20
-169.591908
 30
0.0
 10
-126.814792
 20
-169.591908
 30
0.0
 10
-119.970903
 20
-169.591908
 30
0.0
 10
-113.127014
 20
-169.591908
 30
0.0
 10
-113.127014
 20
-162.748019
 30
0.0
 10
-113.127014
 20
-155.904130
 30
0.0
 10
-113.127014
 20
-149.060241
 30
0.0
 10
-113.127014
 20
-142.216353
 30
0.0
 10
-119.970903
 20
-142.216353
 30
0.0
 10
-126.814792
 20
-142.216353
 30
0.0
 10
-133.658681
 20
-142.216353
 30
0.0
 10
-140.502569
 20
-142.216353
 30
0.0
 10
-140.502569
 20
-142.216353
 30
0.0
  0
LWPOLYLINE
  5
12e
100
AcDbEntity
  8
0
 62
7
100
AcDbPolyline
 90
18
 70
0
 10
-112.280347
 20
-142.216353
 30
0.0
 10
-112.280347
 20
-149.060241
 30
0.0
 10
-112.280347
 20
-155.904130
 30
0.0
 10
-112.280347
 20
-162.748019
 30
0.0
 10
-112.280347
 20
-169.591908
 30
0.0
 10
-105.436458
 20
-169.591908
 30
0.0
 10
-98.592569
 20
-169.591908
 30
0.0
 10
-91.748681
 20
-169.591908
 30
0.0
 10
-84.904792
 20
-169.591908
 30
0.0
 10
-84.904792
 20
-162.748019
 30
0.0
 10
-84.904792
 20
-155.904130
 30
0.0
 10
-84.904792
 20
-149.060241
 30
0.0
 10
-84.904792
 20
-142.216353
 30
0.0
 10
-91.748681
 20
-142.216353
 30
0.0
 10
-98.592569
 20
-142.216353
 30
0.0
 10
-105.436458
 20
-142.216353
 30
0.0
 10
-112.280347
 20
-142.216353
 30
0.0
 10
-112.280347
 20
-142.216353
 30
0.0
  0
LWPOLYLINE
  5
12f
100
AcDbEntity
  8
0
 62
7
100
AcDbPolyline
 90
18
 70
0
 10
-84.058125
 20
-142.216353
 30
0.0
 10
-84.058125
 20
-149.060241
 30
0.0
 10
-84.058125
 20
-155.904130
 30
0.0
 10
-84.058125
 20
-162.748019
 30
0.0
 10
-84.058125
 20
-169.591908
 30
0.0
 10
-77.214236
 20
-169.591908
 30
0.0
 10
-70.370347
 20
-169.591908
 30
0.0
 10
-63.526458
 20
-169.591908
 30
0.0
 10
-56.682569
 20
-169.591908
 30
0.0
 10
-56.682569
 20
-162.748019
 30
0.0
 10
-56.682569
 20
-155.904130
 30
0.0
 10
-56.682569
 20
-149.060241
 30
0.0
 10
-56.682569
 20
-142.216353
 30
0.0
 10
-63.526458
 20
-142.216353
 30
0.0
 10
-70.370347
 20
-142.216353
 30
0.0
 10
-77.214236
 20
-142.216353
 30
0.0
 10
-84.058125
 20
-142.216353
 30
0.0
 10
-84.058125
 20
-142.216353
 30
0.0
  0
LWPOLYLINE
  5
130
100
AcDbEntity
  8
0
 62
7
100
AcDbPolyline
 90
18
 70
0
 10
-55.835903
 20
-142.216353
 30
0.0
 10
-55.835903
 20
-149.060241
 30
0.0
 10
-55.835903
 20
-155.904130
 30
0.0
 10
-55.835903
 20
-162.748019
 30
0.0
 10
-55.835903
 20
-169.591908
 30
0.0
 10
-48.992014
 20
-169.591908
 30
0.0
 10
-42.148125
 20
-169.591908
 30
0.0
 10
-35.304236
 20
-169.591908
 30
0.0
 10
-28.460347
 20
-169.591908
 30
0.0
 10
-28.460347
 20
-162.748019
 30
0.0
 10
-28.460347
 20
-155.904130
 30
0.0
 10
-28.460347
 20
-149.060241
 30
0.0
 10
-28.460347
 20
-142.216353
 30
0.0
 10
-35.304236
 20
-142.216353
 30
0.0
 10
-42.148125
 20
-142.216353
 30
0.0
 10
-48.992014
 20
-142.216353
 30
0.0
 10
-55.835903
 20
-142.216353
 30
0.0
 10
-55.835903
 20
-142.216353
 30
0.0
  0
LWPOLYLINE
  5
131
100
AcDbEntity
  8
0
 62
7
100
AcDbPolyline
 90
9
 70
0
 10
-27.613681
 20
-142.216353
 30
0.0
 10
-27.613681
 20
-149.060241
 30
0.0
 10
-27.613681
 20
-155.904130
 30
0.0
 10
-27.613681
 20
-162.748019
 30
0.0
 10
-27.613681
 20
-169.591908
 30
0.0
 10
-27.560764
 20
-169.591908
 30
0.0
 10
-27.560764
 20
-142.216353
 30
0.0
 10
-27.613681
 20
-142.216353
 30
0.0
 10
-27.613681
 20
-142.216353
 30
0.0
  0
LWPOLYLINE
  5
132
100
AcDbEntity
  8
0
 62
7
100
AcDbPolyline
 90
18
 70
0
 10
-168.160347
 20
-142.780797
 30
0.0
 10
-161.598681
 20
-142.780797
 30
0.0
 10
-155.037014
 20
-142.780797
 30
0.0
 10
-148.475347
 20
-142.780797
 30
0.0
 10
-141.913681
 20
-142.780797
 30
0.0
 10
-141.913681
 20
-149.342464
 30
0.0
 10
-141.913681
 20
-155.904130
 30
0.0
 10
-141.913681
 20
-162.465797
 30
0.0
 10
-141.913681
 20
-169.027464
 30
0.0
 10
-148.475347
 20
-169.027464
 30
0.0
 10
-155.037014
 20
-169.027464
 30
0.0
 10
-161.598681
 20
-169.027464
 30
0.0
 10
-168.160347
 20
-169.027464
 30
0.0
 10
-168.160347
 20
-162.465797
 30
0.0
 10
-168.160347
 20
-155.904130
 30
0.0
 10
-168.160347
 20
-149.342464
 30
0.0
 10
-168.160347
 20
-142.780797
 30
0.0
 10
-168.160347
 20
-142.780797
 30
0.0
  0
LWPOLYLINE
  5
133
100
AcDbEntity
  8
0
 62
7
100
AcDbPolyline
 90
18
 70
0
 10
-139.938125
 20
-142.780797
 30
0.0
 10
-133.376458
 20
-142.780797
 30
0.0
 10
-126.814792
 20
-142.780797
 30
0.0
 10
-120.253125
 20
-142.780797
 30
0.0
 10
-113.691458
 20
-142.780797
 30
0.0
 10
-113.691458
 20
-149.342464
 30
0.0
 10
-113.691458
 20
-155.904130
 30
0.0
 10
-113.691458
 20
-162.465797
 30
0.0
 10
-113.691458
 20
-169.027464
 30
0.0
 10
-120.253125
 20
-169.027464
 30
0.0
 10
-126.814792
 20
-169.027464
 30
0.0
 10
-133.376458
 20
-169.027464
 30
0.0
 10
-139.938125
 20
-169.027464
 30
0.0
 10
-139.938125
 20
-162.465797
 30
0.0
 10
-139.938125
 20
-155.904130
 30
0.0
 10
-139.938125
 20
-149.342464
 30
0.0
 10
-139.938125
 20
-142.780797
 30
0.0
 10
-139.938125
 20
-142.780797
 30
0.0
  0
LWPOLYLINE
  5
134
100
AcDbEntity
  8
0
 62
7
100
AcDbPolyline
 90
18
 70
0
 10
-111.715903
 20
-142.780797
 30
0.0
 10
-105.154236
 20
-142.780797
 30
0.0
 10
-98.592569
 20
-142.780797
 30
0.0
 10
-92.030903
 20
-142.780797
 30
0.0
 10
-85.469236
 20
-142.780797
 30
0.0
 10
-85.469236
 20
-149.342464
 30
0.0
 10
-85.469236
 20
-155.904130
 30
0.0
 10
-85.469236
 20
-162.465797
 30
0.0
 10
-85.469236
 20
-169.027464
 30
0.0
 10
-92.030903
 20
-169.027464
 30
0.0
 10
-98.592569
 20
-169.027464
 30
0.0
 10
-105.154236
 20
-169.027464
 30
0.0
 10
-111.715903
 20
-169.027464
 30
0.0
 10
-111.715903
 20
-162.465797
 30
0.0
 10
-111.715903
 20
-155.904130
 30
0.0
 10
-111.715903
 20
-149.342464
 30
0.0
 10
-111.715903
 20
-142.780797
 30
0.0
 10
-111.715903
 20
-142.780797
 30
0.0
  0
LWPOLYLINE
  5
135
100
AcDbEntity
  8
0
 62
7
100
AcDbPolyline
 90
18
 70
0
 10
-83.493681
 20
-142.780797
 30
0.0
 10
-76.932014
 20
-142.780797
 30
0.0
 10
-70.370347
 20
-142.780797
 30
0.0
 10
-63.808681
 20
-142.780797
 30
0.0
 10
-57.247014
 20
-142.780797
 30
0.0
 10
-57.247014
 20
-149.342464
 30
0.0
 10
-57.247014
 20
-155.904130
 30
0.0
 10
-57.247014
 20
-162.465797
 30
0.0
 10
-57.247014
 20
-169.027464
 30
0.0
 10
-63.808681
 20
-169.027464
 30
0.0
 10
-70.370347
 20
-169.027464
 30
0.0
 10
-76.932014
 20
-169.027464
 30
0.0
 10
-83.493681
 20
-169.027464
 30
0.0
 10
-83.493681
 20
-162.465797
 30
0.0
 10
-83.493681
 20
-155.904130
 30
0.0
 10
-83.493681
 20
-149.342464
 30
0.0
 10
-83.493681
 20
-142.780797
 30
0.0
 10
-83.493681
 20
-142.780797
 30
0.0
  0
LWPOLYLINE
  5
136
100
AcDbEntity
  8
0
 62
7
100
AcDbPolyline
 90
18
 70
0
 10
-55.271458
 20
-142.780797
 30
0.0
 10
-48.709792
 20
-142.780797
 30
0.0
 10
-42.148125
 20
-142.780797
 30
0.0
 10
-35.586458
 20
-142.780797
 30
0.0
 10
-29.024792
 20
-142.780797
 30
0.0
 10
-29.024792
 20
-149.342464
 30
0.0
 10
-29.024792
 20
-155.904130
 30
0.0
 10
-29.024792
 20
-162.465797
 30
0.0
 10
-29.024792
 20
-169.027464
 30
0.0
 10
-35.586458
 20
-169.027464
 30
0.0
 10
-42.148125
 20
-169.027464
 30
0.0
 10
-48.709792
 20
-169.027464
 30
0.0
 10
-55.271458
 20
-169.027464
 30
0.0
 10
-55.271458
 20
-162.465797
 30
0.0
 10
-55.271458
 20
-155.904130
 30
0.0
 10
-55.271458
 20
-149.342464
 30
0.0
 10
-55.271458
 20
-142.780797
 30
0.0
 10
-55.271458
 20
-142.780797
 30
0.0
  0
ENDSEC
  0
SECTION
  2
OBJECTS
  0
DICTIONARY
  5
C
330
0
100
AcDbDictionary
  3
ACAD_GROUP
350
D
  3
ACAD_MLINESTYLE
350
17
  0
DICTIONARY
  5
D
330
C
100
AcDbDictionary
  0
DICTIONARY
  5
1A
330
C
100
AcDbDictionary
  0
DICTIONARY
  5
17
330
C
100
AcDbDictionary
  3
STANDARD
350
18
  0
DICTIONARY
  5
19
330
C
100
AcDbDictionary
  0
ENDSEC
  0
EOF
