999
DXF created by Inkscape
  0
SECTION
  2
HEADER
  9
$ACADVER
  1
AC1014
  9
$HANDSEED
  5
FFFF
  9
$MEASUREMENT
 70
     1
  0
ENDSEC
  0
SECTION
  2
TABLES
  0
TABLE
  2
VPORT
  5
8
330
0
100
AcDbSymbolTable
 70
     4
  0
VPORT
  5
2E
330
8
100
AcDbSymbolTableRecord
100
AcDbViewportTableRecord
  2
*ACTIVE
 70
     0
 10
0.0
 20
0.0
 11
1.0
 21
1.0
 12
210.0
 22
148.5
 13
0.0
 23
0.0
 14
10.0
 24
10.0
 15
10.0
 25
10.0
 16
0.0
 26
0.0
 36
1.0
 17
0.0
 27
0.0
 37
0.0
 40
341.0
 41
1.24
 42
50.0
 43
0.0
 44
0.0
 50
0.0
 51
0.0
 71
     0
 72
   100
 73
     1
 74
     3
 75
     0
 76
     0
 77
     0
 78
     0
  0
ENDTAB
  0
TABLE
  2
LTYPE
  5
5
330
0
100
AcDbSymbolTable
 70
     1
  0
LTYPE
  5
14
330
5
100
AcDbSymbolTableRecord
100
AcDbLinetypeTableRecord
  2
BYBLOCK
 70
     0
  3

 72
    65
 73
     0
 40
0.0
  0
LTYPE
  5
15
330
5
100
AcDbSymbolTableRecord
100
AcDbLinetypeTableRecord
  2
BYLAYER
 70
     0
  3

 72
    65
 73
     0
 40
0.0
  0
LTYPE
  5
16
330
5
100
AcDbSymbolTableRecord
100
AcDbLinetypeTableRecord
  2
CONTINUOUS
 70
     0
  3
Solid line
 72
    65
 73
     0
 40
0.0
  0
ENDTAB
  0
TABLE
  2
LAYER
  5
2
100
AcDbSymbolTable
 70
1
  0
LAYER
  5
50
100
AcDbSymbolTableRecord
100
AcDbLayerTableRecord
  2
0
 70
0
  6
CONTINUOUS
  0
ENDTAB
  0
TABLE
  2
STYLE
  5
3
330
0
100
AcDbSymbolTable
 70
     1
  0
STYLE
  5
11
330
3
100
AcDbSymbolTableRecord
100
AcDbTextStyleTableRecord
  2
STANDARD
 70
     0
 40
0.0
 41
1.0
 50
0.0
 71
     0
 42
2.5
  3
txt
  4

  0
ENDTAB
  0
TABLE
  2
VIEW
  5
6
330
0
100
AcDbSymbolTable
 70
     0
  0
ENDTAB
  0
TABLE
  2
UCS
  5
7
330
0
100
AcDbSymbolTable
 70
     0
  0
ENDTAB
  0
TABLE
  2
APPID
  5
9
330
0
100
AcDbSymbolTable
 70
     2
  0
APPID
  5
12
330
9
100
AcDbSymbolTableRecord
100
AcDbRegAppTableRecord
  2
ACAD
 70
     0
  0
ENDTAB
  0
TABLE
  2
DIMSTYLE
  5
A
330
0
100
AcDbSymbolTable
 70
     1
  0
DIMSTYLE
105
27
330
A
100
AcDbSymbolTableRecord
100
AcDbDimStyleTableRecord
  2
ISO-25
 70
     0
  3

  4

  5

  6

  7

 40
1.0
 41
2.5
 42
0.625
 43
3.75
 44
1.25
 45
0.0
 46
0.0
 47
0.0
 48
0.0
140
2.5
141
2.5
142
0.0
143
0.03937007874016
144
1.0
145
0.0
146
1.0
147
0.625
 71
     0
 72
     0
 73
     0
 74
     0
 75
     0
 76
     0
 77
     1
 78
     8
170
     0
171
     3
172
     1
173
     0
174
     0
175
     0
176
     0
177
     0
178
     0
270
     2
271
     2
272
     2
273
     2
274
     3
340
11
275
     0
280
     0
281
     0
282
     0
283
     0
284
     8
285
     0
286
     0
287
     3
288
     0
  0
ENDTAB
  0
TABLE
  2
BLOCK_RECORD
  5
1
330
0
100
AcDbSymbolTable
 70
     1
  0
BLOCK_RECORD
  5
1F
330
1
100
AcDbSymbolTableRecord
100
AcDbBlockTableRecord
  2
*MODEL_SPACE
  0
BLOCK_RECORD
  5
1B
330
1
100
AcDbSymbolTableRecord
100
AcDbBlockTableRecord
  2
*PAPER_SPACE
  0
ENDTAB
  0
ENDSEC
  0
SECTION
  2
BLOCKS
  0
BLOCK
  5
20
330
1F
100
AcDbEntity
  8
0
100
AcDbBlockBegin
  2
*MODEL_SPACE
 70
     0
 10
0.0
 20
0.0
 30
0.0
  3
*MODEL_SPACE
  1

  0
ENDBLK
  5
21
330
1F
100
AcDbEntity
  8
0
100
AcDbBlockEnd
  0
BLOCK
  5
1C
330
1B
100
AcDbEntity
 67
     1
  8
0
100
AcDbBlockBegin
  2
*PAPER_SPACE
  1

  0
ENDBLK
  5
1D
330
1B
100
AcDbEntity
 67
     1
  8
0
100
AcDbBlockEnd
  0
ENDSEC
  0
SECTION
  2
ENTITIES
  0
LWPOLYLINE
  5
100
100
AcDbEntity
  8
0
 62
7
100
AcDbPolyline
 90
18
 70
0
 10
-168.892361
 20
140.226342
 30
0.0
 10
-168.892361
 20
133.382453
 30
0.0
 10
-168.892361
 20
126.538564
 30
0.0
 10
-168.892361
 20
119.694675
 30
0.0
 10
-168.892361
 20
112.850786
 30
0.0
 10
-162.048472
 20
112.850786
 30
0.0
 10
-155.204583
 20
112.850786
 30
0.0
 10
-148.360694
 20
112.850786
 30
0.0
 10
-141.516806
 20
112.850786
 30
0.0
 10
-141.516806
 20
119.694675
 30
0.0
 10
-141.516806
 20
126.538564
 30
0.0
 10
-141.516806
 20
133.382453
 30
0.0
 10
-141.516806
 20
140.226342
 30
0.0
 10
-148.360694
 20
140.226342
 30
0.0
 10
-155.204583
 20
140.226342
 30
0.0
 10
-162.048472
 20
140.226342
 30
0.0
 10
-168.892361
 20
140.226342
 30
0.0
 10
-168.892361
 20
140.226342
 30
0.0
  0
LWPOLYLINE
  5
101
100
AcDbEntity
  8
0
 62
7
100
AcDbPolyline
 90
18
 70
0
 10
-140.670139
 20
140.226342
 30
0.0
 10
-140.670139
 20
133.382453
 30
0.0
 10
-140.670139
 20
126.538564
 30
0.0
 10
-140.670139
 20
119.694675
 30
0.0
 10
-140.670139
 20
112.850786
 30
0.0
 10
-133.826250
 20
112.850786
 30
0.0
 10
-126.982361
 20
112.850786
 30
0.0
 10
-120.138472
 20
112.850786
 30
0.0
 10
-113.294583
 20
112.850786
 30
0.0
 10
-113.294583
 20
119.694675
 30
0.0
 10
-113.294583
 20
126.538564
 30
0.0
 10
-113.294583
 20
133.382453
 30
0.0
 10
-113.294583
 20
140.226342
 30
0.0
 10
-120.138472
 20
140.226342
 30
0.0
 10
-126.982361
 20
140.226342
 30
0.0
 10
-133.826250
 20
140.226342
 30
0.0
 10
-140.670139
 20
140.226342
 30
0.0
 10
-140.670139
 20
140.226342
 30
0.0
  0
LWPOLYLINE
  5
102
100
AcDbEntity
  8
0
 62
7
100
AcDbPolyline
 90
18
 70
0
 10
-112.447917
 20
140.226342
 30
0.0
 10
-112.447917
 20
133.382453
 30
0.0
 10
-112.447917
 20
126.538564
 30
0.0
 10
-112.447917
 20
119.694675
 30
0.0
 10
-112.447917
 20
112.850786
 30
0.0
 10
-105.604028
 20
112.850786
 30
0.0
 10
-98.760139
 20
112.850786
 30
0.0
 10
-91.916250
 20
112.850786
 30
0.0
 10
-85.072361
 20
112.850786
 30
0.0
 10
-85.072361
 20
119.694675
 30
0.0
 10
-85.072361
 20
126.538564
 30
0.0
 10
-85.072361
 20
133.382453
 30
0.0
 10
-85.072361
 20
140.226342
 30
0.0
 10
-91.916250
 20
140.226342
 30
0.0
 10
-98.760139
 20
140.226342
 30
0.0
 10
-105.604028
 20
140.226342
 30
0.0
 10
-112.447917
 20
140.226342
 30
0.0
 10
-112.447917
 20
140.226342
 30
0.0
  0
LWPOLYLINE
  5
103
100
AcDbEntity
  8
0
 62
7
100
AcDbPolyline
 90
18
 70
0
 10
-84.225694
 20
140.226342
 30
0.0
 10
-84.225694
 20
133.382453
 30
0.0
 10
-84.225694
 20
126.538564
 30
0.0
 10
-84.225694
 20
119.694675
 30
0.0
 10
-84.225694
 20
112.850786
 30
0.0
 10
-77.381806
 20
112.850786
 30
0.0
 10
-70.537917
 20
112.850786
 30
0.0
 10
-63.694028
 20
112.850786
 30
0.0
 10
-56.850139
 20
112.850786
 30
0.0
 10
-56.850139
 20
119.694675
 30
0.0
 10
-56.850139
 20
126.538564
 30
0.0
 10
-56.850139
 20
133.382453
 30
0.0
 10
-56.850139
 20
140.226342
 30
0.0
 10
-63.694028
 20
140.226342
 30
0.0
 10
-70.537917
 20
140.226342
 30
0.0
 10
-77.381806
 20
140.226342
 30
0.0
 10
-84.225694
 20
140.226342
 30
0.0
 10
-84.225694
 20
140.226342
 30
0.0
  0
LWPOLYLINE
  5
104
100
AcDbEntity
  8
0
 62
7
100
AcDbPolyline
 90
18
 70
0
 10
-56.003472
 20
140.226342
 30
0.0
 10
-56.003472
 20
133.382453
 30
0.0
 10
-56.003472
 20
126.538564
 30
0.0
 10
-56.003472
 20
119.694675
 30
0.0
 10
-56.003472
 20
112.850786
 30
0.0
 10
-49.159583
 20
112.850786
 30
0.0
 10
-42.315694
 20
112.850786
 30
0.0
 10
-35.471806
 20
112.850786
 30
0.0
 10
-28.627917
 20
112.850786
 30
0.0
 10
-28.627917
 20
119.694675
 30
0.0
 10
-28.627917
 20
126.538564
 30
0.0
 10
-28.627917
 20
133.382453
 30
0.0
 10
-28.627917
 20
140.226342
 30
0.0
 10
-35.471806
 20
140.226342
 30
0.0
 10
-42.315694
 20
140.226342
 30
0.0
 10
-49.159583
 20
140.226342
 30
0.0
 10
-56.003472
 20
140.226342
 30
0.0
 10
-56.003472
 20
140.226342
 30
0.0
  0
LWPOLYLINE
  5
105
100
AcDbEntity
  8
0
 62
7
100
AcDbPolyline
 90
18
 70
0
 10
-168.327917
 20
139.661897
 30
0.0
 10
-161.766250
 20
139.661897
 30
0.0
 10
-155.204583
 20
139.661897
 30
0.0
 10
-148.642917
 20
139.661897
 30
0.0
 10
-142.081250
 20
139.661897
 30
0.0
 10
-142.081250
 20
133.100231
 30
0.0
 10
-142.081250
 20
126.538564
 30
0.0
 10
-142.081250
 20
119.976897
 30
0.0
 10
-142.081250
 20
113.415231
 30
0.0
 10
-148.642917
 20
113.415231
 30
0.0
 10
-155.204583
 20
113.415231
 30
0.0
 10
-161.766250
 20
113.415231
 30
0.0
 10
-168.327917
 20
113.415231
 30
0.0
 10
-168.327917
 20
119.976897
 30
0.0
 10
-168.327917
 20
126.538564
 30
0.0
 10
-168.327917
 20
133.100231
 30
0.0
 10
-168.327917
 20
139.661897
 30
0.0
 10
-168.327917
 20
139.661897
 30
0.0
  0
LWPOLYLINE
  5
106
100
AcDbEntity
  8
0
 62
7
100
AcDbPolyline
 90
18
 70
0
 10
-140.105694
 20
139.661897
 30
0.0
 10
-133.544028
 20
139.661897
 30
0.0
 10
-126.982361
 20
139.661897
 30
0.0
 10
-120.420694
 20
139.661897
 30
0.0
 10
-113.859028
 20
139.661897
 30
0.0
 10
-113.859028
 20
133.100231
 30
0.0
 10
-113.859028
 20
126.538564
 30
0.0
 10
-113.859028
 20
119.976897
 30
0.0
 10
-113.859028
 20
113.415231
 30
0.0
 10
-120.420694
 20
113.415231
 30
0.0
 10
-126.982361
 20
113.415231
 30
0.0
 10
-133.544028
 20
113.415231
 30
0.0
 10
-140.105694
 20
113.415231
 30
0.0
 10
-140.105694
 20
119.976897
 30
0.0
 10
-140.105694
 20
126.538564
 30
0.0
 10
-140.105694
 20
133.100231
 30
0.0
 10
-140.105694
 20
139.661897
 30
0.0
 10
-140.105694
 20
139.661897
 30
0.0
  0
LWPOLYLINE
  5
107
100
AcDbEntity
  8
0
 62
7
100
AcDbPolyline
 90
18
 70
0
 10
-111.883472
 20
139.661897
 30
0.0
 10
-105.321806
 20
139.661897
 30
0.0
 10
-98.760139
 20
139.661897
 30
0.0
 10
-92.198472
 20
139.661897
 30
0.0
 10
-85.636806
 20
139.661897
 30
0.0
 10
-85.636806
 20
133.100231
 30
0.0
 10
-85.636806
 20
126.538564
 30
0.0
 10
-85.636806
 20
119.976897
 30
0.0
 10
-85.636806
 20
113.415231
 30
0.0
 10
-92.198472
 20
113.415231
 30
0.0
 10
-98.760139
 20
113.415231
 30
0.0
 10
-105.321806
 20
113.415231
 30
0.0
 10
-111.883472
 20
113.415231
 30
0.0
 10
-111.883472
 20
119.976897
 30
0.0
 10
-111.883472
 20
126.538564
 30
0.0
 10
-111.883472
 20
133.100231
 30
0.0
 10
-111.883472
 20
139.661897
 30
0.0
 10
-111.883472
 20
139.661897
 30
0.0
  0
LWPOLYLINE
  5
108
100
AcDbEntity
  8
0
 62
7
100
AcDbPolyline
 90
18
 70
0
 10
-83.661250
 20
139.661897
 30
0.0
 10
-77.099583
 20
139.661897
 30
0.0
 10
-70.537917
 20
139.661897
 30
0.0
 10
-63.976250
 20
139.661897
 30
0.0
 10
-57.414583
 20
139.661897
 30
0.0
 10
-57.414583
 20
133.100231
 30
0.0
 10
-57.414583
 20
126.538564
 30
0.0
 10
-57.414583
 20
119.976897
 30
0.0
 10
-57.414583
 20
113.415231
 30
0.0
 10
-63.976250
 20
113.415231
 30
0.0
 10
-70.537917
 20
113.415231
 30
0.0
 10
-77.099583
 20
113.415231
 30
0.0
 10
-83.661250
 20
113.415231
 30
0.0
 10
-83.661250
 20
119.976897
 30
0.0
 10
-83.661250
 20
126.538564
 30
0.0
 10
-83.661250
 20
133.100231
 30
0.0
 10
-83.661250
 20
139.661897
 30
0.0
 10
-83.661250
 20
139.661897
 30
0.0
  0
LWPOLYLINE
  5
109
100
AcDbEntity
  8
0
 62
7
100
AcDbPolyline
 90
18
 70
0
 10
-55.439028
 20
139.661897
 30
0.0
 10
-48.877361
 20
139.661897
 30
0.0
 10
-42.315694
 20
139.661897
 30
0.0
 10
-35.754028
 20
139.661897
 30
0.0
 10
-29.192361
 20
139.661897
 30
0.0
 10
-29.192361
 20
133.100231
 30
0.0
 10
-29.192361
 20
126.538564
 30
0.0
 10
-29.192361
 20
119.976897
 30
0.0
 10
-29.192361
 20
113.415231
 30
0.0
 10
-35.754028
 20
113.415231
 30
0.0
 10
-42.315694
 20
113.415231
 30
0.0
 10
-48.877361
 20
113.415231
 30
0.0
 10
-55.439028
 20
113.415231
 30
0.0
 10
-55.439028
 20
119.976897
 30
0.0
 10
-55.439028
 20
126.538564
 30
0.0
 10
-55.439028
 20
133.100231
 30
0.0
 10
-55.439028
 20
139.661897
 30
0.0
 10
-55.439028
 20
139.661897
 30
0.0
  0
LWPOLYLINE
  5
10a
100
AcDbEntity
  8
0
 62
7
100
AcDbPolyline
 90
18
 70
0
 10
-168.892361
 20
112.004119
 30
0.0
 10
-168.892361
 20
105.160231
 30
0.0
 10
-168.892361
 20
98.316342
 30
0.0
 10
-168.892361
 20
91.472453
 30
0.0
 10
-168.892361
 20
84.628564
 30
0.0
 10
-162.048472
 20
84.628564
 30
0.0
 10
-155.204583
 20
84.628564
 30
0.0
 10
-148.360694
 20
84.628564
 30
0.0
 10
-141.516806
 20
84.628564
 30
0.0
 10
-141.516806
 20
91.472453
 30
0.0
 10
-141.516806
 20
98.316342
 30
0.0
 10
-141.516806
 20
105.160231
 30
0.0
 10
-141.516806
 20
112.004119
 30
0.0
 10
-148.360694
 20
112.004119
 30
0.0
 10
-155.204583
 20
112.004119
 30
0.0
 10
-162.048472
 20
112.004119
 30
0.0
 10
-168.892361
 20
112.004119
 30
0.0
 10
-168.892361
 20
112.004119
 30
0.0
  0
LWPOLYLINE
  5
10b
100
AcDbEntity
  8
0
 62
7
100
AcDbPolyline
 90
18
 70
0
 10
-140.670139
 20
112.004119
 30
0.0
 10
-140.670139
 20
105.160231
 30
0.0
 10
-140.670139
 20
98.316342
 30
0.0
 10
-140.670139
 20
91.472453
 30
0.0
 10
-140.670139
 20
84.628564
 30
0.0
 10
-133.826250
 20
84.628564
 30
0.0
 10
-126.982361
 20
84.628564
 30
0.0
 10
-120.138472
 20
84.628564
 30
0.0
 10
-113.294583
 20
84.628564
 30
0.0
 10
-113.294583
 20
91.472453
 30
0.0
 10
-113.294583
 20
98.316342
 30
0.0
 10
-113.294583
 20
105.160231
 30
0.0
 10
-113.294583
 20
112.004119
 30
0.0
 10
-120.138472
 20
112.004119
 30
0.0
 10
-126.982361
 20
112.004119
 30
0.0
 10
-133.826250
 20
112.004119
 30
0.0
 10
-140.670139
 20
112.004119
 30
0.0
 10
-140.670139
 20
112.004119
 30
0.0
  0
LWPOLYLINE
  5
10c
100
AcDbEntity
  8
0
 62
7
100
AcDbPolyline
 90
18
 70
0
 10
-112.447917
 20
112.004119
 30
0.0
 10
-112.447917
 20
105.160231
 30
0.0
 10
-112.447917
 20
98.316342
 30
0.0
 10
-112.447917
 20
91.472453
 30
0.0
 10
-112.447917
 20
84.628564
 30
0.0
 10
-105.604028
 20
84.628564
 30
0.0
 10
-98.760139
 20
84.628564
 30
0.0
 10
-91.916250
 20
84.628564
 30
0.0
 10
-85.072361
 20
84.628564
 30
0.0
 10
-85.072361
 20
91.472453
 30
0.0
 10
-85.072361
 20
98.316342
 30
0.0
 10
-85.072361
 20
105.160231
 30
0.0
 10
-85.072361
 20
112.004119
 30
0.0
 10
-91.916250
 20
112.004119
 30
0.0
 10
-98.760139
 20
112.004119
 30
0.0
 10
-105.604028
 20
112.004119
 30
0.0
 10
-112.447917
 20
112.004119
 30
0.0
 10
-112.447917
 20
112.004119
 30
0.0
  0
LWPOLYLINE
  5
10d
100
AcDbEntity
  8
0
 62
7
100
AcDbPolyline
 90
18
 70
0
 10
-84.225694
 20
112.004119
 30
0.0
 10
-84.225694
 20
105.160231
 30
0.0
 10
-84.225694
 20
98.316342
 30
0.0
 10
-84.225694
 20
91.472453
 30
0.0
 10
-84.225694
 20
84.628564
 30
0.0
 10
-77.381806
 20
84.628564
 30
0.0
 10
-70.537917
 20
84.628564
 30
0.0
 10
-63.694028
 20
84.628564
 30
0.0
 10
-56.850139
 20
84.628564
 30
0.0
 10
-56.850139
 20
91.472453
 30
0.0
 10
-56.850139
 20
98.316342
 30
0.0
 10
-56.850139
 20
105.160231
 30
0.0
 10
-56.850139
 20
112.004119
 30
0.0
 10
-63.694028
 20
112.004119
 30
0.0
 10
-70.537917
 20
112.004119
 30
0.0
 10
-77.381806
 20
112.004119
 30
0.0
 10
-84.225694
 20
112.004119
 30
0.0
 10
-84.225694
 20
112.004119
 30
0.0
  0
LWPOLYLINE
  5
10e
100
AcDbEntity
  8
0
 62
7
100
AcDbPolyline
 90
18
 70
0
 10
-56.003472
 20
112.004119
 30
0.0
 10
-56.003472
 20
105.160231
 30
0.0
 10
-56.003472
 20
98.316342
 30
0.0
 10
-56.003472
 20
91.472453
 30
0.0
 10
-56.003472
 20
84.628564
 30
0.0
 10
-49.159583
 20
84.628564
 30
0.0
 10
-42.315694
 20
84.628564
 30
0.0
 10
-35.471806
 20
84.628564
 30
0.0
 10
-28.627917
 20
84.628564
 30
0.0
 10
-28.627917
 20
91.472453
 30
0.0
 10
-28.627917
 20
98.316342
 30
0.0
 10
-28.627917
 20
105.160231
 30
0.0
 10
-28.627917
 20
112.004119
 30
0.0
 10
-35.471806
 20
112.004119
 30
0.0
 10
-42.315694
 20
112.004119
 30
0.0
 10
-49.159583
 20
112.004119
 30
0.0
 10
-56.003472
 20
112.004119
 30
0.0
 10
-56.003472
 20
112.004119
 30
0.0
  0
LWPOLYLINE
  5
10f
100
AcDbEntity
  8
0
 62
7
100
AcDbPolyline
 90
18
 70
0
 10
-168.327917
 20
111.439675
 30
0.0
 10
-161.766250
 20
111.439675
 30
0.0
 10
-155.204583
 20
111.439675
 30
0.0
 10
-148.642917
 20
111.439675
 30
0.0
 10
-142.081250
 20
111.439675
 30
0.0
 10
-142.081250
 20
104.878008
 30
0.0
 10
-142.081250
 20
98.316342
 30
0.0
 10
-142.081250
 20
91.754675
 30
0.0
 10
-142.081250
 20
85.193008
 30
0.0
 10
-148.642917
 20
85.193008
 30
0.0
 10
-155.204583
 20
85.193008
 30
0.0
 10
-161.766250
 20
85.193008
 30
0.0
 10
-168.327917
 20
85.193008
 30
0.0
 10
-168.327917
 20
91.754675
 30
0.0
 10
-168.327917
 20
98.316342
 30
0.0
 10
-168.327917
 20
104.878008
 30
0.0
 10
-168.327917
 20
111.439675
 30
0.0
 10
-168.327917
 20
111.439675
 30
0.0
  0
LWPOLYLINE
  5
110
100
AcDbEntity
  8
0
 62
7
100
AcDbPolyline
 90
18
 70
0
 10
-140.105694
 20
111.439675
 30
0.0
 10
-133.544028
 20
111.439675
 30
0.0
 10
-126.982361
 20
111.439675
 30
0.0
 10
-120.420694
 20
111.439675
 30
0.0
 10
-113.859028
 20
111.439675
 30
0.0
 10
-113.859028
 20
104.878008
 30
0.0
 10
-113.859028
 20
98.316342
 30
0.0
 10
-113.859028
 20
91.754675
 30
0.0
 10
-113.859028
 20
85.193008
 30
0.0
 10
-120.420694
 20
85.193008
 30
0.0
 10
-126.982361
 20
85.193008
 30
0.0
 10
-133.544028
 20
85.193008
 30
0.0
 10
-140.105694
 20
85.193008
 30
0.0
 10
-140.105694
 20
91.754675
 30
0.0
 10
-140.105694
 20
98.316342
 30
0.0
 10
-140.105694
 20
104.878008
 30
0.0
 10
-140.105694
 20
111.439675
 30
0.0
 10
-140.105694
 20
111.439675
 30
0.0
  0
LWPOLYLINE
  5
111
100
AcDbEntity
  8
0
 62
7
100
AcDbPolyline
 90
18
 70
0
 10
-111.883472
 20
111.439675
 30
0.0
 10
-105.321806
 20
111.439675
 30
0.0
 10
-98.760139
 20
111.439675
 30
0.0
 10
-92.198472
 20
111.439675
 30
0.0
 10
-85.636806
 20
111.439675
 30
0.0
 10
-85.636806
 20
104.878008
 30
0.0
 10
-85.636806
 20
98.316342
 30
0.0
 10
-85.636806
 20
91.754675
 30
0.0
 10
-85.636806
 20
85.193008
 30
0.0
 10
-92.198472
 20
85.193008
 30
0.0
 10
-98.760139
 20
85.193008
 30
0.0
 10
-105.321806
 20
85.193008
 30
0.0
 10
-111.883472
 20
85.193008
 30
0.0
 10
-111.883472
 20
91.754675
 30
0.0
 10
-111.883472
 20
98.316342
 30
0.0
 10
-111.883472
 20
104.878008
 30
0.0
 10
-111.883472
 20
111.439675
 30
0.0
 10
-111.883472
 20
111.439675
 30
0.0
  0
LWPOLYLINE
  5
112
100
AcDbEntity
  8
0
 62
7
100
AcDbPolyline
 90
18
 70
0
 10
-83.661250
 20
111.439675
 30
0.0
 10
-77.099583
 20
111.439675
 30
0.0
 10
-70.537917
 20
111.439675
 30
0.0
 10
-63.976250
 20
111.439675
 30
0.0
 10
-57.414583
 20
111.439675
 30
0.0
 10
-57.414583
 20
104.878008
 30
0.0
 10
-57.414583
 20
98.316342
 30
0.0
 10
-57.414583
 20
91.754675
 30
0.0
 10
-57.414583
 20
85.193008
 30
0.0
 10
-63.976250
 20
85.193008
 30
0.0
 10
-70.537917
 20
85.193008
 30
0.0
 10
-77.099583
 20
85.193008
 30
0.0
 10
-83.661250
 20
85.193008
 30
0.0
 10
-83.661250
 20
91.754675
 30
0.0
 10
-83.661250
 20
98.316342
 30
0.0
 10
-83.661250
 20
104.878008
 30
0.0
 10
-83.661250
 20
111.439675
 30
0.0
 10
-83.661250
 20
111.439675
 30
0.0
  0
LWPOLYLINE
  5
113
100
AcDbEntity
  8
0
 62
7
100
AcDbPolyline
 90
18
 70
0
 10
-55.439028
 20
111.439675
 30
0.0
 10
-48.877361
 20
111.439675
 30
0.0
 10
-42.315694
 20
111.439675
 30
0.0
 10
-35.754028
 20
111.439675
 30
0.0
 10
-29.192361
 20
111.439675
 30
0.0
 10
-29.192361
 20
104.878008
 30
0.0
 10
-29.192361
 20
98.316342
 30
0.0
 10
-29.192361
 20
91.754675
 30
0.0
 10
-29.192361
 20
85.193008
 30
0.0
 10
-35.754028
 20
85.193008
 30
0.0
 10
-42.315694
 20
85.193008
 30
0.0
 10
-48.877361
 20
85.193008
 30
0.0
 10
-55.439028
 20
85.193008
 30
0.0
 10
-55.439028
 20
91.754675
 30
0.0
 10
-55.439028
 20
98.316342
 30
0.0
 10
-55.439028
 20
104.878008
 30
0.0
 10
-55.439028
 20
111.439675
 30
0.0
 10
-55.439028
 20
111.439675
 30
0.0
  0
LWPOLYLINE
  5
114
100
AcDbEntity
  8
0
 62
7
100
AcDbPolyline
 90
18
 70
0
 10
-168.892361
 20
83.781897
 30
0.0
 10
-168.892361
 20
76.938008
 30
0.0
 10
-168.892361
 20
70.094119
 30
0.0
 10
-168.892361
 20
63.250231
 30
0.0
 10
-168.892361
 20
56.406342
 30
0.0
 10
-162.048472
 20
56.406342
 30
0.0
 10
-155.204583
 20
56.406342
 30
0.0
 10
-148.360694
 20
56.406342
 30
0.0
 10
-141.516806
 20
56.406342
 30
0.0
 10
-141.516806
 20
63.250231
 30
0.0
 10
-141.516806
 20
70.094119
 30
0.0
 10
-141.516806
 20
76.938008
 30
0.0
 10
-141.516806
 20
83.781897
 30
0.0
 10
-148.360694
 20
83.781897
 30
0.0
 10
-155.204583
 20
83.781897
 30
0.0
 10
-162.048472
 20
83.781897
 30
0.0
 10
-168.892361
 20
83.781897
 30
0.0
 10
-168.892361
 20
83.781897
 30
0.0
  0
LWPOLYLINE
  5
115
100
AcDbEntity
  8
0
 62
7
100
AcDbPolyline
 90
18
 70
0
 10
-140.670139
 20
83.781897
 30
0.0
 10
-140.670139
 20
76.938008
 30
0.0
 10
-140.670139
 20
70.094119
 30
0.0
 10
-140.670139
 20
63.250231
 30
0.0
 10
-140.670139
 20
56.406342
 30
0.0
 10
-133.826250
 20
56.406342
 30
0.0
 10
-126.982361
 20
56.406342
 30
0.0
 10
-120.138472
 20
56.406342
 30
0.0
 10
-113.294583
 20
56.406342
 30
0.0
 10
-113.294583
 20
63.250231
 30
0.0
 10
-113.294583
 20
70.094119
 30
0.0
 10
-113.294583
 20
76.938008
 30
0.0
 10
-113.294583
 20
83.781897
 30
0.0
 10
-120.138472
 20
83.781897
 30
0.0
 10
-126.982361
 20
83.781897
 30
0.0
 10
-133.826250
 20
83.781897
 30
0.0
 10
-140.670139
 20
83.781897
 30
0.0
 10
-140.670139
 20
83.781897
 30
0.0
  0
LWPOLYLINE
  5
116
100
AcDbEntity
  8
0
 62
7
100
AcDbPolyline
 90
18
 70
0
 10
-112.447917
 20
83.781897
 30
0.0
 10
-112.447917
 20
76.938008
 30
0.0
 10
-112.447917
 20
70.094119
 30
0.0
 10
-112.447917
 20
63.250231
 30
0.0
 10
-112.447917
 20
56.406342
 30
0.0
 10
-105.604028
 20
56.406342
 30
0.0
 10
-98.760139
 20
56.406342
 30
0.0
 10
-91.916250
 20
56.406342
 30
0.0
 10
-85.072361
 20
56.406342
 30
0.0
 10
-85.072361
 20
63.250231
 30
0.0
 10
-85.072361
 20
70.094119
 30
0.0
 10
-85.072361
 20
76.938008
 30
0.0
 10
-85.072361
 20
83.781897
 30
0.0
 10
-91.916250
 20
83.781897
 30
0.0
 10
-98.760139
 20
83.781897
 30
0.0
 10
-105.604028
 20
83.781897
 30
0.0
 10
-112.447917
 20
83.781897
 30
0.0
 10
-112.447917
 20
83.781897
 30
0.0
  0
LWPOLYLINE
  5
117
100
AcDbEntity
  8
0
 62
7
100
AcDbPolyline
 90
18
 70
0
 10
-84.225694
 20
83.781897
 30
0.0
 10
-84.225694
 20
76.938008
 30
0.0
 10
-84.225694
 20
70.094119
 30
0.0
 10
-84.225694
 20
63.250231
 30
0.0
 10
-84.225694
 20
56.406342
 30
0.0
 10
-77.381806
 20
56.406342
 30
0.0
 10
-70.537917
 20
56.406342
 30
0.0
 10
-63.694028
 20
56.406342
 30
0.0
 10
-56.850139
 20
56.406342
 30
0.0
 10
-56.850139
 20
63.250231
 30
0.0
 10
-56.850139
 20
70.094119
 30
0.0
 10
-56.850139
 20
76.938008
 30
0.0
 10
-56.850139
 20
83.781897
 30
0.0
 10
-63.694028
 20
83.781897
 30
0.0
 10
-70.537917
 20
83.781897
 30
0.0
 10
-77.381806
 20
83.781897
 30
0.0
 10
-84.225694
 20
83.781897
 30
0.0
 10
-84.225694
 20
83.781897
 30
0.0
  0
LWPOLYLINE
  5
118
100
AcDbEntity
  8
0
 62
7
100
AcDbPolyline
 90
18
 70
0
 10
-56.003472
 20
83.781897
 30
0.0
 10
-56.003472
 20
76.938008
 30
0.0
 10
-56.003472
 20
70.094119
 30
0.0
 10
-56.003472
 20
63.250231
 30
0.0
 10
-56.003472
 20
56.406342
 30
0.0
 10
-49.159583
 20
56.406342
 30
0.0
 10
-42.315694
 20
56.406342
 30
0.0
 10
-35.471806
 20
56.406342
 30
0.0
 10
-28.627917
 20
56.406342
 30
0.0
 10
-28.627917
 20
63.250231
 30
0.0
 10
-28.627917
 20
70.094119
 30
0.0
 10
-28.627917
 20
76.938008
 30
0.0
 10
-28.627917
 20
83.781897
 30
0.0
 10
-35.471806
 20
83.781897
 30
0.0
 10
-42.315694
 20
83.781897
 30
0.0
 10
-49.159583
 20
83.781897
 30
0.0
 10
-56.003472
 20
83.781897
 30
0.0
 10
-56.003472
 20
83.781897
 30
0.0
  0
LWPOLYLINE
  5
119
100
AcDbEntity
  8
0
 62
7
100
AcDbPolyline
 90
18
 70
0
 10
-168.327917
 20
83.217453
 30
0.0
 10
-161.766250
 20
83.217453
 30
0.0
 10
-155.204583
 20
83.217453
 30
0.0
 10
-148.642917
 20
83.217453
 30
0.0
 10
-142.081250
 20
83.217453
 30
0.0
 10
-142.081250
 20
76.655786
 30
0.0
 10
-142.081250
 20
70.094119
 30
0.0
 10
-142.081250
 20
63.532453
 30
0.0
 10
-142.081250
 20
56.970786
 30
0.0
 10
-148.642917
 20
56.970786
 30
0.0
 10
-155.204583
 20
56.970786
 30
0.0
 10
-161.766250
 20
56.970786
 30
0.0
 10
-168.327917
 20
56.970786
 30
0.0
 10
-168.327917
 20
63.532453
 30
0.0
 10
-168.327917
 20
70.094119
 30
0.0
 10
-168.327917
 20
76.655786
 30
0.0
 10
-168.327917
 20
83.217453
 30
0.0
 10
-168.327917
 20
83.217453
 30
0.0
  0
LWPOLYLINE
  5
11a
100
AcDbEntity
  8
0
 62
7
100
AcDbPolyline
 90
18
 70
0
 10
-140.105694
 20
83.217453
 30
0.0
 10
-133.544028
 20
83.217453
 30
0.0
 10
-126.982361
 20
83.217453
 30
0.0
 10
-120.420694
 20
83.217453
 30
0.0
 10
-113.859028
 20
83.217453
 30
0.0
 10
-113.859028
 20
76.655786
 30
0.0
 10
-113.859028
 20
70.094119
 30
0.0
 10
-113.859028
 20
63.532453
 30
0.0
 10
-113.859028
 20
56.970786
 30
0.0
 10
-120.420694
 20
56.970786
 30
0.0
 10
-126.982361
 20
56.970786
 30
0.0
 10
-133.544028
 20
56.970786
 30
0.0
 10
-140.105694
 20
56.970786
 30
0.0
 10
-140.105694
 20
63.532453
 30
0.0
 10
-140.105694
 20
70.094119
 30
0.0
 10
-140.105694
 20
76.655786
 30
0.0
 10
-140.105694
 20
83.217453
 30
0.0
 10
-140.105694
 20
83.217453
 30
0.0
  0
LWPOLYLINE
  5
11b
100
AcDbEntity
  8
0
 62
7
100
AcDbPolyline
 90
18
 70
0
 10
-111.883472
 20
83.217453
 30
0.0
 10
-105.321806
 20
83.217453
 30
0.0
 10
-98.760139
 20
83.217453
 30
0.0
 10
-92.198472
 20
83.217453
 30
0.0
 10
-85.636806
 20
83.217453
 30
0.0
 10
-85.636806
 20
76.655786
 30
0.0
 10
-85.636806
 20
70.094119
 30
0.0
 10
-85.636806
 20
63.532453
 30
0.0
 10
-85.636806
 20
56.970786
 30
0.0
 10
-92.198472
 20
56.970786
 30
0.0
 10
-98.760139
 20
56.970786
 30
0.0
 10
-105.321806
 20
56.970786
 30
0.0
 10
-111.883472
 20
56.970786
 30
0.0
 10
-111.883472
 20
63.532453
 30
0.0
 10
-111.883472
 20
70.094119
 30
0.0
 10
-111.883472
 20
76.655786
 30
0.0
 10
-111.883472
 20
83.217453
 30
0.0
 10
-111.883472
 20
83.217453
 30
0.0
  0
LWPOLYLINE
  5
11c
100
AcDbEntity
  8
0
 62
7
100
AcDbPolyline
 90
18
 70
0
 10
-83.661250
 20
83.217453
 30
0.0
 10
-77.099583
 20
83.217453
 30
0.0
 10
-70.537917
 20
83.217453
 30
0.0
 10
-63.976250
 20
83.217453
 30
0.0
 10
-57.414583
 20
83.217453
 30
0.0
 10
-57.414583
 20
76.655786
 30
0.0
 10
-57.414583
 20
70.094119
 30
0.0
 10
-57.414583
 20
63.532453
 30
0.0
 10
-57.414583
 20
56.970786
 30
0.0
 10
-63.976250
 20
56.970786
 30
0.0
 10
-70.537917
 20
56.970786
 30
0.0
 10
-77.099583
 20
56.970786
 30
0.0
 10
-83.661250
 20
56.970786
 30
0.0
 10
-83.661250
 20
63.532453
 30
0.0
 10
-83.661250
 20
70.094119
 30
0.0
 10
-83.661250
 20
76.655786
 30
0.0
 10
-83.661250
 20
83.217453
 30
0.0
 10
-83.661250
 20
83.217453
 30
0.0
  0
LWPOLYLINE
  5
11d
100
AcDbEntity
  8
0
 62
7
100
AcDbPolyline
 90
18
 70
0
 10
-55.439028
 20
83.217453
 30
0.0
 10
-48.877361
 20
83.217453
 30
0.0
 10
-42.315694
 20
83.217453
 30
0.0
 10
-35.754028
 20
83.217453
 30
0.0
 10
-29.192361
 20
83.217453
 30
0.0
 10
-29.192361
 20
76.655786
 30
0.0
 10
-29.192361
 20
70.094119
 30
0.0
 10
-29.192361
 20
63.532453
 30
0.0
 10
-29.192361
 20
56.970786
 30
0.0
 10
-35.754028
 20
56.970786
 30
0.0
 10
-42.315694
 20
56.970786
 30
0.0
 10
-48.877361
 20
56.970786
 30
0.0
 10
-55.439028
 20
56.970786
 30
0.0
 10
-55.439028
 20
63.532453
 30
0.0
 10
-55.439028
 20
70.094119
 30
0.0
 10
-55.439028
 20
76.655786
 30
0.0
 10
-55.439028
 20
83.217453
 30
0.0
 10
-55.439028
 20
83.217453
 30
0.0
  0
LWPOLYLINE
  5
11e
100
AcDbEntity
  8
0
 62
7
100
AcDbPolyline
 90
18
 70
0
 10
-168.892361
 20
55.559675
 30
0.0
 10
-168.892361
 20
48.715786
 30
0.0
 10
-168.892361
 20
41.871897
 30
0.0
 10
-168.892361
 20
35.028008
 30
0.0
 10
-168.892361
 20
28.184119
 30
0.0
 10
-162.048472
 20
28.184119
 30
0.0
 10
-155.204583
 20
28.184119
 30
0.0
 10
-148.360694
 20
28.184119
 30
0.0
 10
-141.516806
 20
28.184119
 30
0.0
 10
-141.516806
 20
35.028008
 30
0.0
 10
-141.516806
 20
41.871897
 30
0.0
 10
-141.516806
 20
48.715786
 30
0.0
 10
-141.516806
 20
55.559675
 30
0.0
 10
-148.360694
 20
55.559675
 30
0.0
 10
-155.204583
 20
55.559675
 30
0.0
 10
-162.048472
 20
55.559675
 30
0.0
 10
-168.892361
 20
55.559675
 30
0.0
 10
-168.892361
 20
55.559675
 30
0.0
  0
LWPOLYLINE
  5
11f
100
AcDbEntity
  8
0
 62
7
100
AcDbPolyline
 90
18
 70
0
 10
-140.670139
 20
55.559675
 30
0.0
 10
-140.670139
 20
48.715786
 30
0.0
 10
-140.670139
 20
41.871897
 30
0.0
 10
-140.670139
 20
35.028008
 30
0.0
 10
-140.670139
 20
28.184119
 30
0.0
 10
-133.826250
 20
28.184119
 30
0.0
 10
-126.982361
 20
28.184119
 30
0.0
 10
-120.138472
 20
28.184119
 30
0.0
 10
-113.294583
 20
28.184119
 30
0.0
 10
-113.294583
 20
35.028008
 30
0.0
 10
-113.294583
 20
41.871897
 30
0.0
 10
-113.294583
 20
48.715786
 30
0.0
 10
-113.294583
 20
55.559675
 30
0.0
 10
-120.138472
 20
55.559675
 30
0.0
 10
-126.982361
 20
55.559675
 30
0.0
 10
-133.826250
 20
55.559675
 30
0.0
 10
-140.670139
 20
55.559675
 30
0.0
 10
-140.670139
 20
55.559675
 30
0.0
  0
LWPOLYLINE
  5
120
100
AcDbEntity
  8
0
 62
7
100
AcDbPolyline
 90
18
 70
0
 10
-112.447917
 20
55.559675
 30
0.0
 10
-112.447917
 20
48.715786
 30
0.0
 10
-112.447917
 20
41.871897
 30
0.0
 10
-112.447917
 20
35.028008
 30
0.0
 10
-112.447917
 20
28.184119
 30
0.0
 10
-105.604028
 20
28.184119
 30
0.0
 10
-98.760139
 20
28.184119
 30
0.0
 10
-91.916250
 20
28.184119
 30
0.0
 10
-85.072361
 20
28.184119
 30
0.0
 10
-85.072361
 20
35.028008
 30
0.0
 10
-85.072361
 20
41.871897
 30
0.0
 10
-85.072361
 20
48.715786
 30
0.0
 10
-85.072361
 20
55.559675
 30
0.0
 10
-91.916250
 20
55.559675
 30
0.0
 10
-98.760139
 20
55.559675
 30
0.0
 10
-105.604028
 20
55.559675
 30
0.0
 10
-112.447917
 20
55.559675
 30
0.0
 10
-112.447917
 20
55.559675
 30
0.0
  0
LWPOLYLINE
  5
121
100
AcDbEntity
  8
0
 62
7
100
AcDbPolyline
 90
18
 70
0
 10
-84.225694
 20
55.559675
 30
0.0
 10
-84.225694
 20
48.715786
 30
0.0
 10
-84.225694
 20
41.871897
 30
0.0
 10
-84.225694
 20
35.028008
 30
0.0
 10
-84.225694
 20
28.184119
 30
0.0
 10
-77.381806
 20
28.184119
 30
0.0
 10
-70.537917
 20
28.184119
 30
0.0
 10
-63.694028
 20
28.184119
 30
0.0
 10
-56.850139
 20
28.184119
 30
0.0
 10
-56.850139
 20
35.028008
 30
0.0
 10
-56.850139
 20
41.871897
 30
0.0
 10
-56.850139
 20
48.715786
 30
0.0
 10
-56.850139
 20
55.559675
 30
0.0
 10
-63.694028
 20
55.559675
 30
0.0
 10
-70.537917
 20
55.559675
 30
0.0
 10
-77.381806
 20
55.559675
 30
0.0
 10
-84.225694
 20
55.559675
 30
0.0
 10
-84.225694
 20
55.559675
 30
0.0
  0
LWPOLYLINE
  5
122
100
AcDbEntity
  8
0
 62
7
100
AcDbPolyline
 90
18
 70
0
 10
-56.003472
 20
55.559675
 30
0.0
 10
-56.003472
 20
48.715786
 30
0.0
 10
-56.003472
 20
41.871897
 30
0.0
 10
-56.003472
 20
35.028008
 30
0.0
 10
-56.003472
 20
28.184119
 30
0.0
 10
-49.159583
 20
28.184119
 30
0.0
 10
-42.315694
 20
28.184119
 30
0.0
 10
-35.471806
 20
28.184119
 30
0.0
 10
-28.627917
 20
28.184119
 30
0.0
 10
-28.627917
 20
35.028008
 30
0.0
 10
-28.627917
 20
41.871897
 30
0.0
 10
-28.627917
 20
48.715786
 30
0.0
 10
-28.627917
 20
55.559675
 30
0.0
 10
-35.471806
 20
55.559675
 30
0.0
 10
-42.315694
 20
55.559675
 30
0.0
 10
-49.159583
 20
55.559675
 30
0.0
 10
-56.003472
 20
55.559675
 30
0.0
 10
-56.003472
 20
55.559675
 30
0.0
  0
LWPOLYLINE
  5
123
100
AcDbEntity
  8
0
 62
7
100
AcDbPolyline
 90
18
 70
0
 10
-168.327917
 20
54.995231
 30
0.0
 10
-161.766250
 20
54.995231
 30
0.0
 10
-155.204583
 20
54.995231
 30
0.0
 10
-148.642917
 20
54.995231
 30
0.0
 10
-142.081250
 20
54.995231
 30
0.0
 10
-142.081250
 20
48.433564
 30
0.0
 10
-142.081250
 20
41.871897
 30
0.0
 10
-142.081250
 20
35.310231
 30
0.0
 10
-142.081250
 20
28.748564
 30
0.0
 10
-148.642917
 20
28.748564
 30
0.0
 10
-155.204583
 20
28.748564
 30
0.0
 10
-161.766250
 20
28.748564
 30
0.0
 10
-168.327917
 20
28.748564
 30
0.0
 10
-168.327917
 20
35.310231
 30
0.0
 10
-168.327917
 20
41.871897
 30
0.0
 10
-168.327917
 20
48.433564
 30
0.0
 10
-168.327917
 20
54.995231
 30
0.0
 10
-168.327917
 20
54.995231
 30
0.0
  0
LWPOLYLINE
  5
124
100
AcDbEntity
  8
0
 62
7
100
AcDbPolyline
 90
18
 70
0
 10
-140.105694
 20
54.995231
 30
0.0
 10
-133.544028
 20
54.995231
 30
0.0
 10
-126.982361
 20
54.995231
 30
0.0
 10
-120.420694
 20
54.995231
 30
0.0
 10
-113.859028
 20
54.995231
 30
0.0
 10
-113.859028
 20
48.433564
 30
0.0
 10
-113.859028
 20
41.871897
 30
0.0
 10
-113.859028
 20
35.310231
 30
0.0
 10
-113.859028
 20
28.748564
 30
0.0
 10
-120.420694
 20
28.748564
 30
0.0
 10
-126.982361
 20
28.748564
 30
0.0
 10
-133.544028
 20
28.748564
 30
0.0
 10
-140.105694
 20
28.748564
 30
0.0
 10
-140.105694
 20
35.310231
 30
0.0
 10
-140.105694
 20
41.871897
 30
0.0
 10
-140.105694
 20
48.433564
 30
0.0
 10
-140.105694
 20
54.995231
 30
0.0
 10
-140.105694
 20
54.995231
 30
0.0
  0
LWPOLYLINE
  5
125
100
AcDbEntity
  8
0
 62
7
100
AcDbPolyline
 90
18
 70
0
 10
-111.883472
 20
54.995231
 30
0.0
 10
-105.321806
 20
54.995231
 30
0.0
 10
-98.760139
 20
54.995231
 30
0.0
 10
-92.198472
 20
54.995231
 30
0.0
 10
-85.636806
 20
54.995231
 30
0.0
 10
-85.636806
 20
48.433564
 30
0.0
 10
-85.636806
 20
41.871897
 30
0.0
 10
-85.636806
 20
35.310231
 30
0.0
 10
-85.636806
 20
28.748564
 30
0.0
 10
-92.198472
 20
28.748564
 30
0.0
 10
-98.760139
 20
28.748564
 30
0.0
 10
-105.321806
 20
28.748564
 30
0.0
 10
-111.883472
 20
28.748564
 30
0.0
 10
-111.883472
 20
35.310231
 30
0.0
 10
-111.883472
 20
41.871897
 30
0.0
 10
-111.883472
 20
48.433564
 30
0.0
 10
-111.883472
 20
54.995231
 30
0.0
 10
-111.883472
 20
54.995231
 30
0.0
  0
LWPOLYLINE
  5
126
100
AcDbEntity
  8
0
 62
7
100
AcDbPolyline
 90
18
 70
0
 10
-83.661250
 20
54.995231
 30
0.0
 10
-77.099583
 20
54.995231
 30
0.0
 10
-70.537917
 20
54.995231
 30
0.0
 10
-63.976250
 20
54.995231
 30
0.0
 10
-57.414583
 20
54.995231
 30
0.0
 10
-57.414583
 20
48.433564
 30
0.0
 10
-57.414583
 20
41.871897
 30
0.0
 10
-57.414583
 20
35.310231
 30
0.0
 10
-57.414583
 20
28.748564
 30
0.0
 10
-63.976250
 20
28.748564
 30
0.0
 10
-70.537917
 20
28.748564
 30
0.0
 10
-77.099583
 20
28.748564
 30
0.0
 10
-83.661250
 20
28.748564
 30
0.0
 10
-83.661250
 20
35.310231
 30
0.0
 10
-83.661250
 20
41.871897
 30
0.0
 10
-83.661250
 20
48.433564
 30
0.0
 10
-83.661250
 20
54.995231
 30
0.0
 10
-83.661250
 20
54.995231
 30
0.0
  0
LWPOLYLINE
  5
127
100
AcDbEntity
  8
0
 62
7
100
AcDbPolyline
 90
18
 70
0
 10
-55.439028
 20
54.995231
 30
0.0
 10
-48.877361
 20
54.995231
 30
0.0
 10
-42.315694
 20
54.995231
 30
0.0
 10
-35.754028
 20
54.995231
 30
0.0
 10
-29.192361
 20
54.995231
 30
0.0
 10
-29.192361
 20
48.433564
 30
0.0
 10
-29.192361
 20
41.871897
 30
0.0
 10
-29.192361
 20
35.310231
 30
0.0
 10
-29.192361
 20
28.748564
 30
0.0
 10
-35.754028
 20
28.748564
 30
0.0
 10
-42.315694
 20
28.748564
 30
0.0
 10
-48.877361
 20
28.748564
 30
0.0
 10
-55.439028
 20
28.748564
 30
0.0
 10
-55.439028
 20
35.310231
 30
0.0
 10
-55.439028
 20
41.871897
 30
0.0
 10
-55.439028
 20
48.433564
 30
0.0
 10
-55.439028
 20
54.995231
 30
0.0
 10
-55.439028
 20
54.995231
 30
0.0
  0
LWPOLYLINE
  5
128
100
AcDbEntity
  8
0
 62
7
100
AcDbPolyline
 90
18
 70
0
 10
-168.892361
 20
27.337453
 30
0.0
 10
-168.892361
 20
20.493564
 30
0.0
 10
-168.892361
 20
13.649675
 30
0.0
 10
-168.892361
 20
6.805786
 30
0.0
 10
-168.892361
 20
-0.038103
 30
0.0
 10
-162.048472
 20
-0.038103
 30
0.0
 10
-155.204583
 20
-0.038103
 30
0.0
 10
-148.360694
 20
-0.038103
 30
0.0
 10
-141.516806
 20
-0.038103
 30
0.0
 10
-141.516806
 20
6.805786
 30
0.0
 10
-141.516806
 20
13.649675
 30
0.0
 10
-141.516806
 20
20.493564
 30
0.0
 10
-141.516806
 20
27.337453
 30
0.0
 10
-148.360694
 20
27.337453
 30
0.0
 10
-155.204583
 20
27.337453
 30
0.0
 10
-162.048472
 20
27.337453
 30
0.0
 10
-168.892361
 20
27.337453
 30
0.0
 10
-168.892361
 20
27.337453
 30
0.0
  0
LWPOLYLINE
  5
129
100
AcDbEntity
  8
0
 62
7
100
AcDbPolyline
 90
18
 70
0
 10
-140.670139
 20
27.337453
 30
0.0
 10
-140.670139
 20
20.493564
 30
0.0
 10
-140.670139
 20
13.649675
 30
0.0
 10
-140.670139
 20
6.805786
 30
0.0
 10
-140.670139
 20
-0.038103
 30
0.0
 10
-133.826250
 20
-0.038103
 30
0.0
 10
-126.982361
 20
-0.038103
 30
0.0
 10
-120.138472
 20
-0.038103
 30
0.0
 10
-113.294583
 20
-0.038103
 30
0.0
 10
-113.294583
 20
6.805786
 30
0.0
 10
-113.294583
 20
13.649675
 30
0.0
 10
-113.294583
 20
20.493564
 30
0.0
 10
-113.294583
 20
27.337453
 30
0.0
 10
-120.138472
 20
27.337453
 30
0.0
 10
-126.982361
 20
27.337453
 30
0.0
 10
-133.826250
 20
27.337453
 30
0.0
 10
-140.670139
 20
27.337453
 30
0.0
 10
-140.670139
 20
27.337453
 30
0.0
  0
LWPOLYLINE
  5
12a
100
AcDbEntity
  8
0
 62
7
100
AcDbPolyline
 90
18
 70
0
 10
-112.447917
 20
27.337453
 30
0.0
 10
-112.447917
 20
20.493564
 30
0.0
 10
-112.447917
 20
13.649675
 30
0.0
 10
-112.447917
 20
6.805786
 30
0.0
 10
-112.447917
 20
-0.038103
 30
0.0
 10
-105.604028
 20
-0.038103
 30
0.0
 10
-98.760139
 20
-0.038103
 30
0.0
 10
-91.916250
 20
-0.038103
 30
0.0
 10
-85.072361
 20
-0.038103
 30
0.0
 10
-85.072361
 20
6.805786
 30
0.0
 10
-85.072361
 20
13.649675
 30
0.0
 10
-85.072361
 20
20.493564
 30
0.0
 10
-85.072361
 20
27.337453
 30
0.0
 10
-91.916250
 20
27.337453
 30
0.0
 10
-98.760139
 20
27.337453
 30
0.0
 10
-105.604028
 20
27.337453
 30
0.0
 10
-112.447917
 20
27.337453
 30
0.0
 10
-112.447917
 20
27.337453
 30
0.0
  0
LWPOLYLINE
  5
12b
100
AcDbEntity
  8
0
 62
7
100
AcDbPolyline
 90
18
 70
0
 10
-84.225694
 20
27.337453
 30
0.0
 10
-84.225694
 20
20.493564
 30
0.0
 10
-84.225694
 20
13.649675
 30
0.0
 10
-84.225694
 20
6.805786
 30
0.0
 10
-84.225694
 20
-0.038103
 30
0.0
 10
-77.381806
 20
-0.038103
 30
0.0
 10
-70.537917
 20
-0.038103
 30
0.0
 10
-63.694028
 20
-0.038103
 30
0.0
 10
-56.850139
 20
-0.038103
 30
0.0
 10
-56.850139
 20
6.805786
 30
0.0
 10
-56.850139
 20
13.649675
 30
0.0
 10
-56.850139
 20
20.493564
 30
0.0
 10
-56.850139
 20
27.337453
 30
0.0
 10
-63.694028
 20
27.337453
 30
0.0
 10
-70.537917
 20
27.337453
 30
0.0
 10
-77.381806
 20
27.337453
 30
0.0
 10
-84.225694
 20
27.337453
 30
0.0
 10
-84.225694
 20
27.337453
 30
0.0
  0
LWPOLYLINE
  5
12c
100
AcDbEntity
  8
0
 62
7
100
AcDbPolyline
 90
18
 70
0
 10
-56.003472
 20
27.337453
 30
0.0
 10
-56.003472
 20
20.493564
 30
0.0
 10
-56.003472
 20
13.649675
 30
0.0
 10
-56.003472
 20
6.805786
 30
0.0
 10
-56.003472
 20
-0.038103
 30
0.0
 10
-49.159583
 20
-0.038103
 30
0.0
 10
-42.315694
 20
-0.038103
 30
0.0
 10
-35.471806
 20
-0.038103
 30
0.0
 10
-28.627917
 20
-0.038103
 30
0.0
 10
-28.627917
 20
6.805786
 30
0.0
 10
-28.627917
 20
13.649675
 30
0.0
 10
-28.627917
 20
20.493564
 30
0.0
 10
-28.627917
 20
27.337453
 30
0.0
 10
-35.471806
 20
27.337453
 30
0.0
 10
-42.315694
 20
27.337453
 30
0.0
 10
-49.159583
 20
27.337453
 30
0.0
 10
-56.003472
 20
27.337453
 30
0.0
 10
-56.003472
 20
27.337453
 30
0.0
  0
LWPOLYLINE
  5
12d
100
AcDbEntity
  8
0
 62
7
100
AcDbPolyline
 90
18
 70
0
 10
-168.327917
 20
26.773008
 30
0.0
 10
-161.766250
 20
26.773008
 30
0.0
 10
-155.204583
 20
26.773008
 30
0.0
 10
-148.642917
 20
26.773008
 30
0.0
 10
-142.081250
 20
26.773008
 30
0.0
 10
-142.081250
 20
20.211342
 30
0.0
 10
-142.081250
 20
13.649675
 30
0.0
 10
-142.081250
 20
7.088008
 30
0.0
 10
-142.081250
 20
0.526342
 30
0.0
 10
-148.642917
 20
0.526342
 30
0.0
 10
-155.204583
 20
0.526342
 30
0.0
 10
-161.766250
 20
0.526342
 30
0.0
 10
-168.327917
 20
0.526342
 30
0.0
 10
-168.327917
 20
7.088008
 30
0.0
 10
-168.327917
 20
13.649675
 30
0.0
 10
-168.327917
 20
20.211342
 30
0.0
 10
-168.327917
 20
26.773008
 30
0.0
 10
-168.327917
 20
26.773008
 30
0.0
  0
LWPOLYLINE
  5
12e
100
AcDbEntity
  8
0
 62
7
100
AcDbPolyline
 90
18
 70
0
 10
-140.105694
 20
26.773008
 30
0.0
 10
-133.544028
 20
26.773008
 30
0.0
 10
-126.982361
 20
26.773008
 30
0.0
 10
-120.420694
 20
26.773008
 30
0.0
 10
-113.859028
 20
26.773008
 30
0.0
 10
-113.859028
 20
20.211342
 30
0.0
 10
-113.859028
 20
13.649675
 30
0.0
 10
-113.859028
 20
7.088008
 30
0.0
 10
-113.859028
 20
0.526342
 30
0.0
 10
-120.420694
 20
0.526342
 30
0.0
 10
-126.982361
 20
0.526342
 30
0.0
 10
-133.544028
 20
0.526342
 30
0.0
 10
-140.105694
 20
0.526342
 30
0.0
 10
-140.105694
 20
7.088008
 30
0.0
 10
-140.105694
 20
13.649675
 30
0.0
 10
-140.105694
 20
20.211342
 30
0.0
 10
-140.105694
 20
26.773008
 30
0.0
 10
-140.105694
 20
26.773008
 30
0.0
  0
LWPOLYLINE
  5
12f
100
AcDbEntity
  8
0
 62
7
100
AcDbPolyline
 90
18
 70
0
 10
-111.883472
 20
26.773008
 30
0.0
 10
-105.321806
 20
26.773008
 30
0.0
 10
-98.760139
 20
26.773008
 30
0.0
 10
-92.198472
 20
26.773008
 30
0.0
 10
-85.636806
 20
26.773008
 30
0.0
 10
-85.636806
 20
20.211342
 30
0.0
 10
-85.636806
 20
13.649675
 30
0.0
 10
-85.636806
 20
7.088008
 30
0.0
 10
-85.636806
 20
0.526342
 30
0.0
 10
-92.198472
 20
0.526342
 30
0.0
 10
-98.760139
 20
0.526342
 30
0.0
 10
-105.321806
 20
0.526342
 30
0.0
 10
-111.883472
 20
0.526342
 30
0.0
 10
-111.883472
 20
7.088008
 30
0.0
 10
-111.883472
 20
13.649675
 30
0.0
 10
-111.883472
 20
20.211342
 30
0.0
 10
-111.883472
 20
26.773008
 30
0.0
 10
-111.883472
 20
26.773008
 30
0.0
  0
LWPOLYLINE
  5
130
100
AcDbEntity
  8
0
 62
7
100
AcDbPolyline
 90
18
 70
0
 10
-83.661250
 20
26.773008
 30
0.0
 10
-77.099583
 20
26.773008
 30
0.0
 10
-70.537917
 20
26.773008
 30
0.0
 10
-63.976250
 20
26.773008
 30
0.0
 10
-57.414583
 20
26.773008
 30
0.0
 10
-57.414583
 20
20.211342
 30
0.0
 10
-57.414583
 20
13.649675
 30
0.0
 10
-57.414583
 20
7.088008
 30
0.0
 10
-57.414583
 20
0.526342
 30
0.0
 10
-63.976250
 20
0.526342
 30
0.0
 10
-70.537917
 20
0.526342
 30
0.0
 10
-77.099583
 20
0.526342
 30
0.0
 10
-83.661250
 20
0.526342
 30
0.0
 10
-83.661250
 20
7.088008
 30
0.0
 10
-83.661250
 20
13.649675
 30
0.0
 10
-83.661250
 20
20.211342
 30
0.0
 10
-83.661250
 20
26.773008
 30
0.0
 10
-83.661250
 20
26.773008
 30
0.0
  0
LWPOLYLINE
  5
131
100
AcDbEntity
  8
0
 62
7
100
AcDbPolyline
 90
18
 70
0
 10
-55.439028
 20
26.773008
 30
0.0
 10
-48.877361
 20
26.773008
 30
0.0
 10
-42.315694
 20
26.773008
 30
0.0
 10
-35.754028
 20
26.773008
 30
0.0
 10
-29.192361
 20
26.773008
 30
0.0
 10
-29.192361
 20
20.211342
 30
0.0
 10
-29.192361
 20
13.649675
 30
0.0
 10
-29.192361
 20
7.088008
 30
0.0
 10
-29.192361
 20
0.526342
 30
0.0
 10
-35.754028
 20
0.526342
 30
0.0
 10
-42.315694
 20
0.526342
 30
0.0
 10
-48.877361
 20
0.526342
 30
0.0
 10
-55.439028
 20
0.526342
 30
0.0
 10
-55.439028
 20
7.088008
 30
0.0
 10
-55.439028
 20
13.649675
 30
0.0
 10
-55.439028
 20
20.211342
 30
0.0
 10
-55.439028
 20
26.773008
 30
0.0
 10
-55.439028
 20
26.773008
 30
0.0
  0
ENDSEC
  0
SECTION
  2
OBJECTS
  0
DICTIONARY
  5
C
330
0
100
AcDbDictionary
  3
ACAD_GROUP
350
D
  3
ACAD_MLINESTYLE
350
17
  0
DICTIONARY
  5
D
330
C
100
AcDbDictionary
  0
DICTIONARY
  5
1A
330
C
100
AcDbDictionary
  0
DICTIONARY
  5
17
330
C
100
AcDbDictionary
  3
STANDARD
350
18
  0
DICTIONARY
  5
19
330
C
100
AcDbDictionary
  0
ENDSEC
  0
EOF
