999
DXF created by Inkscape
  0
SECTION
  2
HEADER
  9
$ACADVER
  1
AC1014
  9
$HANDSEED
  5
FFFF
  9
$MEASUREMENT
 70
     1
  0
ENDSEC
  0
SECTION
  2
TABLES
  0
TABLE
  2
VPORT
  5
8
330
0
100
AcDbSymbolTable
 70
     4
  0
VPORT
  5
2E
330
8
100
AcDbSymbolTableRecord
100
AcDbViewportTableRecord
  2
*ACTIVE
 70
     0
 10
0.0
 20
0.0
 11
1.0
 21
1.0
 12
210.0
 22
148.5
 13
0.0
 23
0.0
 14
10.0
 24
10.0
 15
10.0
 25
10.0
 16
0.0
 26
0.0
 36
1.0
 17
0.0
 27
0.0
 37
0.0
 40
341.0
 41
1.24
 42
50.0
 43
0.0
 44
0.0
 50
0.0
 51
0.0
 71
     0
 72
   100
 73
     1
 74
     3
 75
     0
 76
     0
 77
     0
 78
     0
  0
ENDTAB
  0
TABLE
  2
LTYPE
  5
5
330
0
100
AcDbSymbolTable
 70
     1
  0
LTYPE
  5
14
330
5
100
AcDbSymbolTableRecord
100
AcDbLinetypeTableRecord
  2
BYBLOCK
 70
     0
  3

 72
    65
 73
     0
 40
0.0
  0
LTYPE
  5
15
330
5
100
AcDbSymbolTableRecord
100
AcDbLinetypeTableRecord
  2
BYLAYER
 70
     0
  3

 72
    65
 73
     0
 40
0.0
  0
LTYPE
  5
16
330
5
100
AcDbSymbolTableRecord
100
AcDbLinetypeTableRecord
  2
CONTINUOUS
 70
     0
  3
Solid line
 72
    65
 73
     0
 40
0.0
  0
ENDTAB
  0
TABLE
  2
LAYER
  5
2
100
AcDbSymbolTable
 70
1
  0
LAYER
  5
50
100
AcDbSymbolTableRecord
100
AcDbLayerTableRecord
  2
0
 70
0
  6
CONTINUOUS
  0
ENDTAB
  0
TABLE
  2
STYLE
  5
3
330
0
100
AcDbSymbolTable
 70
     1
  0
STYLE
  5
11
330
3
100
AcDbSymbolTableRecord
100
AcDbTextStyleTableRecord
  2
STANDARD
 70
     0
 40
0.0
 41
1.0
 50
0.0
 71
     0
 42
2.5
  3
txt
  4

  0
ENDTAB
  0
TABLE
  2
VIEW
  5
6
330
0
100
AcDbSymbolTable
 70
     0
  0
ENDTAB
  0
TABLE
  2
UCS
  5
7
330
0
100
AcDbSymbolTable
 70
     0
  0
ENDTAB
  0
TABLE
  2
APPID
  5
9
330
0
100
AcDbSymbolTable
 70
     2
  0
APPID
  5
12
330
9
100
AcDbSymbolTableRecord
100
AcDbRegAppTableRecord
  2
ACAD
 70
     0
  0
ENDTAB
  0
TABLE
  2
DIMSTYLE
  5
A
330
0
100
AcDbSymbolTable
 70
     1
  0
DIMSTYLE
105
27
330
A
100
AcDbSymbolTableRecord
100
AcDbDimStyleTableRecord
  2
ISO-25
 70
     0
  3

  4

  5

  6

  7

 40
1.0
 41
2.5
 42
0.625
 43
3.75
 44
1.25
 45
0.0
 46
0.0
 47
0.0
 48
0.0
140
2.5
141
2.5
142
0.0
143
0.03937007874016
144
1.0
145
0.0
146
1.0
147
0.625
 71
     0
 72
     0
 73
     0
 74
     0
 75
     0
 76
     0
 77
     1
 78
     8
170
     0
171
     3
172
     1
173
     0
174
     0
175
     0
176
     0
177
     0
178
     0
270
     2
271
     2
272
     2
273
     2
274
     3
340
11
275
     0
280
     0
281
     0
282
     0
283
     0
284
     8
285
     0
286
     0
287
     3
288
     0
  0
ENDTAB
  0
TABLE
  2
BLOCK_RECORD
  5
1
330
0
100
AcDbSymbolTable
 70
     1
  0
BLOCK_RECORD
  5
1F
330
1
100
AcDbSymbolTableRecord
100
AcDbBlockTableRecord
  2
*MODEL_SPACE
  0
BLOCK_RECORD
  5
1B
330
1
100
AcDbSymbolTableRecord
100
AcDbBlockTableRecord
  2
*PAPER_SPACE
  0
ENDTAB
  0
ENDSEC
  0
SECTION
  2
BLOCKS
  0
BLOCK
  5
20
330
1F
100
AcDbEntity
  8
0
100
AcDbBlockBegin
  2
*MODEL_SPACE
 70
     0
 10
0.0
 20
0.0
 30
0.0
  3
*MODEL_SPACE
  1

  0
ENDBLK
  5
21
330
1F
100
AcDbEntity
  8
0
100
AcDbBlockEnd
  0
BLOCK
  5
1C
330
1B
100
AcDbEntity
 67
     1
  8
0
100
AcDbBlockBegin
  2
*PAPER_SPACE
  1

  0
ENDBLK
  5
1D
330
1B
100
AcDbEntity
 67
     1
  8
0
100
AcDbBlockEnd
  0
ENDSEC
  0
SECTION
  2
ENTITIES
  0
LWPOLYLINE
  5
100
100
AcDbEntity
  8
0
 62
7
100
AcDbPolyline
 90
18
 70
0
 10
0.313940
 20
139.661897
 30
0.0
 10
0.313940
 20
132.818008
 30
0.0
 10
0.313940
 20
125.974119
 30
0.0
 10
0.313940
 20
119.130231
 30
0.0
 10
0.313940
 20
112.286342
 30
0.0
 10
7.157829
 20
112.286342
 30
0.0
 10
14.001718
 20
112.286342
 30
0.0
 10
20.845607
 20
112.286342
 30
0.0
 10
27.689494
 20
112.286342
 30
0.0
 10
27.689494
 20
119.130231
 30
0.0
 10
27.689494
 20
125.974119
 30
0.0
 10
27.689494
 20
132.818008
 30
0.0
 10
27.689494
 20
139.661897
 30
0.0
 10
20.845607
 20
139.661897
 30
0.0
 10
14.001718
 20
139.661897
 30
0.0
 10
7.157829
 20
139.661897
 30
0.0
 10
0.313940
 20
139.661897
 30
0.0
 10
0.313940
 20
139.661897
 30
0.0
  0
LWPOLYLINE
  5
101
100
AcDbEntity
  8
0
 62
7
100
AcDbPolyline
 90
18
 70
0
 10
28.536161
 20
139.661897
 30
0.0
 10
28.536161
 20
132.818008
 30
0.0
 10
28.536161
 20
125.974119
 30
0.0
 10
28.536161
 20
119.130231
 30
0.0
 10
28.536161
 20
112.286342
 30
0.0
 10
35.380049
 20
112.286342
 30
0.0
 10
42.223938
 20
112.286342
 30
0.0
 10
49.067827
 20
112.286342
 30
0.0
 10
55.911716
 20
112.286342
 30
0.0
 10
55.911716
 20
119.130231
 30
0.0
 10
55.911716
 20
125.974119
 30
0.0
 10
55.911716
 20
132.818008
 30
0.0
 10
55.911716
 20
139.661897
 30
0.0
 10
49.067827
 20
139.661897
 30
0.0
 10
42.223938
 20
139.661897
 30
0.0
 10
35.380049
 20
139.661897
 30
0.0
 10
28.536161
 20
139.661897
 30
0.0
 10
28.536161
 20
139.661897
 30
0.0
  0
LWPOLYLINE
  5
102
100
AcDbEntity
  8
0
 62
7
100
AcDbPolyline
 90
18
 70
0
 10
56.758383
 20
139.661897
 30
0.0
 10
56.758383
 20
132.818008
 30
0.0
 10
56.758383
 20
125.974119
 30
0.0
 10
56.758383
 20
119.130231
 30
0.0
 10
56.758383
 20
112.286342
 30
0.0
 10
63.602272
 20
112.286342
 30
0.0
 10
70.446161
 20
112.286342
 30
0.0
 10
77.290049
 20
112.286342
 30
0.0
 10
84.133938
 20
112.286342
 30
0.0
 10
84.133938
 20
119.130231
 30
0.0
 10
84.133938
 20
125.974119
 30
0.0
 10
84.133938
 20
132.818008
 30
0.0
 10
84.133938
 20
139.661897
 30
0.0
 10
77.290049
 20
139.661897
 30
0.0
 10
70.446161
 20
139.661897
 30
0.0
 10
63.602272
 20
139.661897
 30
0.0
 10
56.758383
 20
139.661897
 30
0.0
 10
56.758383
 20
139.661897
 30
0.0
  0
LWPOLYLINE
  5
103
100
AcDbEntity
  8
0
 62
7
100
AcDbPolyline
 90
18
 70
0
 10
84.980605
 20
139.661897
 30
0.0
 10
84.980605
 20
132.818008
 30
0.0
 10
84.980605
 20
125.974119
 30
0.0
 10
84.980605
 20
119.130231
 30
0.0
 10
84.980605
 20
112.286342
 30
0.0
 10
91.824494
 20
112.286342
 30
0.0
 10
98.668383
 20
112.286342
 30
0.0
 10
105.512272
 20
112.286342
 30
0.0
 10
112.356161
 20
112.286342
 30
0.0
 10
112.356161
 20
119.130231
 30
0.0
 10
112.356161
 20
125.974119
 30
0.0
 10
112.356161
 20
132.818008
 30
0.0
 10
112.356161
 20
139.661897
 30
0.0
 10
105.512272
 20
139.661897
 30
0.0
 10
98.668383
 20
139.661897
 30
0.0
 10
91.824494
 20
139.661897
 30
0.0
 10
84.980605
 20
139.661897
 30
0.0
 10
84.980605
 20
139.661897
 30
0.0
  0
LWPOLYLINE
  5
104
100
AcDbEntity
  8
0
 62
7
100
AcDbPolyline
 90
18
 70
0
 10
113.202827
 20
139.661897
 30
0.0
 10
113.202827
 20
132.818008
 30
0.0
 10
113.202827
 20
125.974119
 30
0.0
 10
113.202827
 20
119.130231
 30
0.0
 10
113.202827
 20
112.286342
 30
0.0
 10
120.046716
 20
112.286342
 30
0.0
 10
126.890605
 20
112.286342
 30
0.0
 10
133.734494
 20
112.286342
 30
0.0
 10
140.578383
 20
112.286342
 30
0.0
 10
140.578383
 20
119.130231
 30
0.0
 10
140.578383
 20
125.974119
 30
0.0
 10
140.578383
 20
132.818008
 30
0.0
 10
140.578383
 20
139.661897
 30
0.0
 10
133.734494
 20
139.661897
 30
0.0
 10
126.890605
 20
139.661897
 30
0.0
 10
120.046716
 20
139.661897
 30
0.0
 10
113.202827
 20
139.661897
 30
0.0
 10
113.202827
 20
139.661897
 30
0.0
  0
LWPOLYLINE
  5
105
100
AcDbEntity
  8
0
 62
7
100
AcDbPolyline
 90
18
 70
0
 10
0.878384
 20
139.097453
 30
0.0
 10
7.440051
 20
139.097453
 30
0.0
 10
14.001718
 20
139.097453
 30
0.0
 10
20.563384
 20
139.097453
 30
0.0
 10
27.125049
 20
139.097453
 30
0.0
 10
27.125049
 20
132.535786
 30
0.0
 10
27.125049
 20
125.974119
 30
0.0
 10
27.125049
 20
119.412453
 30
0.0
 10
27.125049
 20
112.850786
 30
0.0
 10
20.563384
 20
112.850786
 30
0.0
 10
14.001718
 20
112.850786
 30
0.0
 10
7.440051
 20
112.850786
 30
0.0
 10
0.878384
 20
112.850786
 30
0.0
 10
0.878384
 20
119.412453
 30
0.0
 10
0.878384
 20
125.974119
 30
0.0
 10
0.878384
 20
132.535786
 30
0.0
 10
0.878384
 20
139.097453
 30
0.0
 10
0.878384
 20
139.097453
 30
0.0
  0
LWPOLYLINE
  5
106
100
AcDbEntity
  8
0
 62
7
100
AcDbPolyline
 90
18
 70
0
 10
29.100605
 20
139.097453
 30
0.0
 10
35.662272
 20
139.097453
 30
0.0
 10
42.223938
 20
139.097453
 30
0.0
 10
48.785605
 20
139.097453
 30
0.0
 10
55.347272
 20
139.097453
 30
0.0
 10
55.347272
 20
132.535786
 30
0.0
 10
55.347272
 20
125.974119
 30
0.0
 10
55.347272
 20
119.412453
 30
0.0
 10
55.347272
 20
112.850786
 30
0.0
 10
48.785605
 20
112.850786
 30
0.0
 10
42.223938
 20
112.850786
 30
0.0
 10
35.662272
 20
112.850786
 30
0.0
 10
29.100605
 20
112.850786
 30
0.0
 10
29.100605
 20
119.412453
 30
0.0
 10
29.100605
 20
125.974119
 30
0.0
 10
29.100605
 20
132.535786
 30
0.0
 10
29.100605
 20
139.097453
 30
0.0
 10
29.100605
 20
139.097453
 30
0.0
  0
LWPOLYLINE
  5
107
100
AcDbEntity
  8
0
 62
7
100
AcDbPolyline
 90
18
 70
0
 10
57.322827
 20
139.097453
 30
0.0
 10
63.884494
 20
139.097453
 30
0.0
 10
70.446161
 20
139.097453
 30
0.0
 10
77.007827
 20
139.097453
 30
0.0
 10
83.569494
 20
139.097453
 30
0.0
 10
83.569494
 20
132.535786
 30
0.0
 10
83.569494
 20
125.974119
 30
0.0
 10
83.569494
 20
119.412453
 30
0.0
 10
83.569494
 20
112.850786
 30
0.0
 10
77.007827
 20
112.850786
 30
0.0
 10
70.446161
 20
112.850786
 30
0.0
 10
63.884494
 20
112.850786
 30
0.0
 10
57.322827
 20
112.850786
 30
0.0
 10
57.322827
 20
119.412453
 30
0.0
 10
57.322827
 20
125.974119
 30
0.0
 10
57.322827
 20
132.535786
 30
0.0
 10
57.322827
 20
139.097453
 30
0.0
 10
57.322827
 20
139.097453
 30
0.0
  0
LWPOLYLINE
  5
108
100
AcDbEntity
  8
0
 62
7
100
AcDbPolyline
 90
18
 70
0
 10
85.545049
 20
139.097453
 30
0.0
 10
92.106716
 20
139.097453
 30
0.0
 10
98.668383
 20
139.097453
 30
0.0
 10
105.230049
 20
139.097453
 30
0.0
 10
111.791716
 20
139.097453
 30
0.0
 10
111.791716
 20
132.535786
 30
0.0
 10
111.791716
 20
125.974119
 30
0.0
 10
111.791716
 20
119.412453
 30
0.0
 10
111.791716
 20
112.850786
 30
0.0
 10
105.230049
 20
112.850786
 30
0.0
 10
98.668383
 20
112.850786
 30
0.0
 10
92.106716
 20
112.850786
 30
0.0
 10
85.545049
 20
112.850786
 30
0.0
 10
85.545049
 20
119.412453
 30
0.0
 10
85.545049
 20
125.974119
 30
0.0
 10
85.545049
 20
132.535786
 30
0.0
 10
85.545049
 20
139.097453
 30
0.0
 10
85.545049
 20
139.097453
 30
0.0
  0
LWPOLYLINE
  5
109
100
AcDbEntity
  8
0
 62
7
100
AcDbPolyline
 90
18
 70
0
 10
113.767272
 20
139.097453
 30
0.0
 10
120.328938
 20
139.097453
 30
0.0
 10
126.890605
 20
139.097453
 30
0.0
 10
133.452272
 20
139.097453
 30
0.0
 10
140.013938
 20
139.097453
 30
0.0
 10
140.013938
 20
132.535786
 30
0.0
 10
140.013938
 20
125.974119
 30
0.0
 10
140.013938
 20
119.412453
 30
0.0
 10
140.013938
 20
112.850786
 30
0.0
 10
133.452272
 20
112.850786
 30
0.0
 10
126.890605
 20
112.850786
 30
0.0
 10
120.328938
 20
112.850786
 30
0.0
 10
113.767272
 20
112.850786
 30
0.0
 10
113.767272
 20
119.412453
 30
0.0
 10
113.767272
 20
125.974119
 30
0.0
 10
113.767272
 20
132.535786
 30
0.0
 10
113.767272
 20
139.097453
 30
0.0
 10
113.767272
 20
139.097453
 30
0.0
  0
LWPOLYLINE
  5
10a
100
AcDbEntity
  8
0
 62
7
100
AcDbPolyline
 90
18
 70
0
 10
0.313940
 20
111.439675
 30
0.0
 10
0.313940
 20
104.595786
 30
0.0
 10
0.313940
 20
97.751897
 30
0.0
 10
0.313940
 20
90.908008
 30
0.0
 10
0.313940
 20
84.064119
 30
0.0
 10
7.157829
 20
84.064119
 30
0.0
 10
14.001718
 20
84.064119
 30
0.0
 10
20.845607
 20
84.064119
 30
0.0
 10
27.689494
 20
84.064119
 30
0.0
 10
27.689494
 20
90.908008
 30
0.0
 10
27.689494
 20
97.751897
 30
0.0
 10
27.689494
 20
104.595786
 30
0.0
 10
27.689494
 20
111.439675
 30
0.0
 10
20.845607
 20
111.439675
 30
0.0
 10
14.001718
 20
111.439675
 30
0.0
 10
7.157829
 20
111.439675
 30
0.0
 10
0.313940
 20
111.439675
 30
0.0
 10
0.313940
 20
111.439675
 30
0.0
  0
LWPOLYLINE
  5
10b
100
AcDbEntity
  8
0
 62
7
100
AcDbPolyline
 90
18
 70
0
 10
28.536161
 20
111.439675
 30
0.0
 10
28.536161
 20
104.595786
 30
0.0
 10
28.536161
 20
97.751897
 30
0.0
 10
28.536161
 20
90.908008
 30
0.0
 10
28.536161
 20
84.064119
 30
0.0
 10
35.380049
 20
84.064119
 30
0.0
 10
42.223938
 20
84.064119
 30
0.0
 10
49.067827
 20
84.064119
 30
0.0
 10
55.911716
 20
84.064119
 30
0.0
 10
55.911716
 20
90.908008
 30
0.0
 10
55.911716
 20
97.751897
 30
0.0
 10
55.911716
 20
104.595786
 30
0.0
 10
55.911716
 20
111.439675
 30
0.0
 10
49.067827
 20
111.439675
 30
0.0
 10
42.223938
 20
111.439675
 30
0.0
 10
35.380049
 20
111.439675
 30
0.0
 10
28.536161
 20
111.439675
 30
0.0
 10
28.536161
 20
111.439675
 30
0.0
  0
LWPOLYLINE
  5
10c
100
AcDbEntity
  8
0
 62
7
100
AcDbPolyline
 90
18
 70
0
 10
56.758383
 20
111.439675
 30
0.0
 10
56.758383
 20
104.595786
 30
0.0
 10
56.758383
 20
97.751897
 30
0.0
 10
56.758383
 20
90.908008
 30
0.0
 10
56.758383
 20
84.064119
 30
0.0
 10
63.602272
 20
84.064119
 30
0.0
 10
70.446161
 20
84.064119
 30
0.0
 10
77.290049
 20
84.064119
 30
0.0
 10
84.133938
 20
84.064119
 30
0.0
 10
84.133938
 20
90.908008
 30
0.0
 10
84.133938
 20
97.751897
 30
0.0
 10
84.133938
 20
104.595786
 30
0.0
 10
84.133938
 20
111.439675
 30
0.0
 10
77.290049
 20
111.439675
 30
0.0
 10
70.446161
 20
111.439675
 30
0.0
 10
63.602272
 20
111.439675
 30
0.0
 10
56.758383
 20
111.439675
 30
0.0
 10
56.758383
 20
111.439675
 30
0.0
  0
LWPOLYLINE
  5
10d
100
AcDbEntity
  8
0
 62
7
100
AcDbPolyline
 90
18
 70
0
 10
84.980605
 20
111.439675
 30
0.0
 10
84.980605
 20
104.595786
 30
0.0
 10
84.980605
 20
97.751897
 30
0.0
 10
84.980605
 20
90.908008
 30
0.0
 10
84.980605
 20
84.064119
 30
0.0
 10
91.824494
 20
84.064119
 30
0.0
 10
98.668383
 20
84.064119
 30
0.0
 10
105.512272
 20
84.064119
 30
0.0
 10
112.356161
 20
84.064119
 30
0.0
 10
112.356161
 20
90.908008
 30
0.0
 10
112.356161
 20
97.751897
 30
0.0
 10
112.356161
 20
104.595786
 30
0.0
 10
112.356161
 20
111.439675
 30
0.0
 10
105.512272
 20
111.439675
 30
0.0
 10
98.668383
 20
111.439675
 30
0.0
 10
91.824494
 20
111.439675
 30
0.0
 10
84.980605
 20
111.439675
 30
0.0
 10
84.980605
 20
111.439675
 30
0.0
  0
LWPOLYLINE
  5
10e
100
AcDbEntity
  8
0
 62
7
100
AcDbPolyline
 90
18
 70
0
 10
113.202827
 20
111.439675
 30
0.0
 10
113.202827
 20
104.595786
 30
0.0
 10
113.202827
 20
97.751897
 30
0.0
 10
113.202827
 20
90.908008
 30
0.0
 10
113.202827
 20
84.064119
 30
0.0
 10
120.046716
 20
84.064119
 30
0.0
 10
126.890605
 20
84.064119
 30
0.0
 10
133.734494
 20
84.064119
 30
0.0
 10
140.578383
 20
84.064119
 30
0.0
 10
140.578383
 20
90.908008
 30
0.0
 10
140.578383
 20
97.751897
 30
0.0
 10
140.578383
 20
104.595786
 30
0.0
 10
140.578383
 20
111.439675
 30
0.0
 10
133.734494
 20
111.439675
 30
0.0
 10
126.890605
 20
111.439675
 30
0.0
 10
120.046716
 20
111.439675
 30
0.0
 10
113.202827
 20
111.439675
 30
0.0
 10
113.202827
 20
111.439675
 30
0.0
  0
LWPOLYLINE
  5
10f
100
AcDbEntity
  8
0
 62
7
100
AcDbPolyline
 90
18
 70
0
 10
0.878384
 20
110.875231
 30
0.0
 10
7.440051
 20
110.875231
 30
0.0
 10
14.001718
 20
110.875231
 30
0.0
 10
20.563384
 20
110.875231
 30
0.0
 10
27.125049
 20
110.875231
 30
0.0
 10
27.125049
 20
104.313564
 30
0.0
 10
27.125049
 20
97.751897
 30
0.0
 10
27.125049
 20
91.190231
 30
0.0
 10
27.125049
 20
84.628564
 30
0.0
 10
20.563384
 20
84.628564
 30
0.0
 10
14.001718
 20
84.628564
 30
0.0
 10
7.440051
 20
84.628564
 30
0.0
 10
0.878384
 20
84.628564
 30
0.0
 10
0.878384
 20
91.190231
 30
0.0
 10
0.878384
 20
97.751897
 30
0.0
 10
0.878384
 20
104.313564
 30
0.0
 10
0.878384
 20
110.875231
 30
0.0
 10
0.878384
 20
110.875231
 30
0.0
  0
LWPOLYLINE
  5
110
100
AcDbEntity
  8
0
 62
7
100
AcDbPolyline
 90
18
 70
0
 10
29.100605
 20
110.875231
 30
0.0
 10
35.662272
 20
110.875231
 30
0.0
 10
42.223938
 20
110.875231
 30
0.0
 10
48.785605
 20
110.875231
 30
0.0
 10
55.347272
 20
110.875231
 30
0.0
 10
55.347272
 20
104.313564
 30
0.0
 10
55.347272
 20
97.751897
 30
0.0
 10
55.347272
 20
91.190231
 30
0.0
 10
55.347272
 20
84.628564
 30
0.0
 10
48.785605
 20
84.628564
 30
0.0
 10
42.223938
 20
84.628564
 30
0.0
 10
35.662272
 20
84.628564
 30
0.0
 10
29.100605
 20
84.628564
 30
0.0
 10
29.100605
 20
91.190231
 30
0.0
 10
29.100605
 20
97.751897
 30
0.0
 10
29.100605
 20
104.313564
 30
0.0
 10
29.100605
 20
110.875231
 30
0.0
 10
29.100605
 20
110.875231
 30
0.0
  0
LWPOLYLINE
  5
111
100
AcDbEntity
  8
0
 62
7
100
AcDbPolyline
 90
18
 70
0
 10
57.322827
 20
110.875231
 30
0.0
 10
63.884494
 20
110.875231
 30
0.0
 10
70.446161
 20
110.875231
 30
0.0
 10
77.007827
 20
110.875231
 30
0.0
 10
83.569494
 20
110.875231
 30
0.0
 10
83.569494
 20
104.313564
 30
0.0
 10
83.569494
 20
97.751897
 30
0.0
 10
83.569494
 20
91.190231
 30
0.0
 10
83.569494
 20
84.628564
 30
0.0
 10
77.007827
 20
84.628564
 30
0.0
 10
70.446161
 20
84.628564
 30
0.0
 10
63.884494
 20
84.628564
 30
0.0
 10
57.322827
 20
84.628564
 30
0.0
 10
57.322827
 20
91.190231
 30
0.0
 10
57.322827
 20
97.751897
 30
0.0
 10
57.322827
 20
104.313564
 30
0.0
 10
57.322827
 20
110.875231
 30
0.0
 10
57.322827
 20
110.875231
 30
0.0
  0
LWPOLYLINE
  5
112
100
AcDbEntity
  8
0
 62
7
100
AcDbPolyline
 90
18
 70
0
 10
85.545049
 20
110.875231
 30
0.0
 10
92.106716
 20
110.875231
 30
0.0
 10
98.668383
 20
110.875231
 30
0.0
 10
105.230049
 20
110.875231
 30
0.0
 10
111.791716
 20
110.875231
 30
0.0
 10
111.791716
 20
104.313564
 30
0.0
 10
111.791716
 20
97.751897
 30
0.0
 10
111.791716
 20
91.190231
 30
0.0
 10
111.791716
 20
84.628564
 30
0.0
 10
105.230049
 20
84.628564
 30
0.0
 10
98.668383
 20
84.628564
 30
0.0
 10
92.106716
 20
84.628564
 30
0.0
 10
85.545049
 20
84.628564
 30
0.0
 10
85.545049
 20
91.190231
 30
0.0
 10
85.545049
 20
97.751897
 30
0.0
 10
85.545049
 20
104.313564
 30
0.0
 10
85.545049
 20
110.875231
 30
0.0
 10
85.545049
 20
110.875231
 30
0.0
  0
LWPOLYLINE
  5
113
100
AcDbEntity
  8
0
 62
7
100
AcDbPolyline
 90
18
 70
0
 10
113.767272
 20
110.875231
 30
0.0
 10
120.328938
 20
110.875231
 30
0.0
 10
126.890605
 20
110.875231
 30
0.0
 10
133.452272
 20
110.875231
 30
0.0
 10
140.013938
 20
110.875231
 30
0.0
 10
140.013938
 20
104.313564
 30
0.0
 10
140.013938
 20
97.751897
 30
0.0
 10
140.013938
 20
91.190231
 30
0.0
 10
140.013938
 20
84.628564
 30
0.0
 10
133.452272
 20
84.628564
 30
0.0
 10
126.890605
 20
84.628564
 30
0.0
 10
120.328938
 20
84.628564
 30
0.0
 10
113.767272
 20
84.628564
 30
0.0
 10
113.767272
 20
91.190231
 30
0.0
 10
113.767272
 20
97.751897
 30
0.0
 10
113.767272
 20
104.313564
 30
0.0
 10
113.767272
 20
110.875231
 30
0.0
 10
113.767272
 20
110.875231
 30
0.0
  0
LWPOLYLINE
  5
114
100
AcDbEntity
  8
0
 62
7
100
AcDbPolyline
 90
18
 70
0
 10
0.313940
 20
83.217453
 30
0.0
 10
0.313940
 20
76.373564
 30
0.0
 10
0.313940
 20
69.529675
 30
0.0
 10
0.313940
 20
62.685786
 30
0.0
 10
0.313940
 20
55.841897
 30
0.0
 10
7.157829
 20
55.841897
 30
0.0
 10
14.001718
 20
55.841897
 30
0.0
 10
20.845607
 20
55.841897
 30
0.0
 10
27.689494
 20
55.841897
 30
0.0
 10
27.689494
 20
62.685786
 30
0.0
 10
27.689494
 20
69.529675
 30
0.0
 10
27.689494
 20
76.373564
 30
0.0
 10
27.689494
 20
83.217453
 30
0.0
 10
20.845607
 20
83.217453
 30
0.0
 10
14.001718
 20
83.217453
 30
0.0
 10
7.157829
 20
83.217453
 30
0.0
 10
0.313940
 20
83.217453
 30
0.0
 10
0.313940
 20
83.217453
 30
0.0
  0
LWPOLYLINE
  5
115
100
AcDbEntity
  8
0
 62
7
100
AcDbPolyline
 90
18
 70
0
 10
28.536161
 20
83.217453
 30
0.0
 10
28.536161
 20
76.373564
 30
0.0
 10
28.536161
 20
69.529675
 30
0.0
 10
28.536161
 20
62.685786
 30
0.0
 10
28.536161
 20
55.841897
 30
0.0
 10
35.380049
 20
55.841897
 30
0.0
 10
42.223938
 20
55.841897
 30
0.0
 10
49.067827
 20
55.841897
 30
0.0
 10
55.911716
 20
55.841897
 30
0.0
 10
55.911716
 20
62.685786
 30
0.0
 10
55.911716
 20
69.529675
 30
0.0
 10
55.911716
 20
76.373564
 30
0.0
 10
55.911716
 20
83.217453
 30
0.0
 10
49.067827
 20
83.217453
 30
0.0
 10
42.223938
 20
83.217453
 30
0.0
 10
35.380049
 20
83.217453
 30
0.0
 10
28.536161
 20
83.217453
 30
0.0
 10
28.536161
 20
83.217453
 30
0.0
  0
LWPOLYLINE
  5
116
100
AcDbEntity
  8
0
 62
7
100
AcDbPolyline
 90
18
 70
0
 10
56.758383
 20
83.217453
 30
0.0
 10
56.758383
 20
76.373564
 30
0.0
 10
56.758383
 20
69.529675
 30
0.0
 10
56.758383
 20
62.685786
 30
0.0
 10
56.758383
 20
55.841897
 30
0.0
 10
63.602272
 20
55.841897
 30
0.0
 10
70.446161
 20
55.841897
 30
0.0
 10
77.290049
 20
55.841897
 30
0.0
 10
84.133938
 20
55.841897
 30
0.0
 10
84.133938
 20
62.685786
 30
0.0
 10
84.133938
 20
69.529675
 30
0.0
 10
84.133938
 20
76.373564
 30
0.0
 10
84.133938
 20
83.217453
 30
0.0
 10
77.290049
 20
83.217453
 30
0.0
 10
70.446161
 20
83.217453
 30
0.0
 10
63.602272
 20
83.217453
 30
0.0
 10
56.758383
 20
83.217453
 30
0.0
 10
56.758383
 20
83.217453
 30
0.0
  0
LWPOLYLINE
  5
117
100
AcDbEntity
  8
0
 62
7
100
AcDbPolyline
 90
18
 70
0
 10
84.980605
 20
83.217453
 30
0.0
 10
84.980605
 20
76.373564
 30
0.0
 10
84.980605
 20
69.529675
 30
0.0
 10
84.980605
 20
62.685786
 30
0.0
 10
84.980605
 20
55.841897
 30
0.0
 10
91.824494
 20
55.841897
 30
0.0
 10
98.668383
 20
55.841897
 30
0.0
 10
105.512272
 20
55.841897
 30
0.0
 10
112.356161
 20
55.841897
 30
0.0
 10
112.356161
 20
62.685786
 30
0.0
 10
112.356161
 20
69.529675
 30
0.0
 10
112.356161
 20
76.373564
 30
0.0
 10
112.356161
 20
83.217453
 30
0.0
 10
105.512272
 20
83.217453
 30
0.0
 10
98.668383
 20
83.217453
 30
0.0
 10
91.824494
 20
83.217453
 30
0.0
 10
84.980605
 20
83.217453
 30
0.0
 10
84.980605
 20
83.217453
 30
0.0
  0
LWPOLYLINE
  5
118
100
AcDbEntity
  8
0
 62
7
100
AcDbPolyline
 90
18
 70
0
 10
113.202827
 20
83.217453
 30
0.0
 10
113.202827
 20
76.373564
 30
0.0
 10
113.202827
 20
69.529675
 30
0.0
 10
113.202827
 20
62.685786
 30
0.0
 10
113.202827
 20
55.841897
 30
0.0
 10
120.046716
 20
55.841897
 30
0.0
 10
126.890605
 20
55.841897
 30
0.0
 10
133.734494
 20
55.841897
 30
0.0
 10
140.578383
 20
55.841897
 30
0.0
 10
140.578383
 20
62.685786
 30
0.0
 10
140.578383
 20
69.529675
 30
0.0
 10
140.578383
 20
76.373564
 30
0.0
 10
140.578383
 20
83.217453
 30
0.0
 10
133.734494
 20
83.217453
 30
0.0
 10
126.890605
 20
83.217453
 30
0.0
 10
120.046716
 20
83.217453
 30
0.0
 10
113.202827
 20
83.217453
 30
0.0
 10
113.202827
 20
83.217453
 30
0.0
  0
LWPOLYLINE
  5
119
100
AcDbEntity
  8
0
 62
7
100
AcDbPolyline
 90
18
 70
0
 10
0.878384
 20
82.653008
 30
0.0
 10
7.440051
 20
82.653008
 30
0.0
 10
14.001718
 20
82.653008
 30
0.0
 10
20.563384
 20
82.653008
 30
0.0
 10
27.125049
 20
82.653008
 30
0.0
 10
27.125049
 20
76.091342
 30
0.0
 10
27.125049
 20
69.529675
 30
0.0
 10
27.125049
 20
62.968008
 30
0.0
 10
27.125049
 20
56.406342
 30
0.0
 10
20.563384
 20
56.406342
 30
0.0
 10
14.001718
 20
56.406342
 30
0.0
 10
7.440051
 20
56.406342
 30
0.0
 10
0.878384
 20
56.406342
 30
0.0
 10
0.878384
 20
62.968008
 30
0.0
 10
0.878384
 20
69.529675
 30
0.0
 10
0.878384
 20
76.091342
 30
0.0
 10
0.878384
 20
82.653008
 30
0.0
 10
0.878384
 20
82.653008
 30
0.0
  0
LWPOLYLINE
  5
11a
100
AcDbEntity
  8
0
 62
7
100
AcDbPolyline
 90
18
 70
0
 10
29.100605
 20
82.653008
 30
0.0
 10
35.662272
 20
82.653008
 30
0.0
 10
42.223938
 20
82.653008
 30
0.0
 10
48.785605
 20
82.653008
 30
0.0
 10
55.347272
 20
82.653008
 30
0.0
 10
55.347272
 20
76.091342
 30
0.0
 10
55.347272
 20
69.529675
 30
0.0
 10
55.347272
 20
62.968008
 30
0.0
 10
55.347272
 20
56.406342
 30
0.0
 10
48.785605
 20
56.406342
 30
0.0
 10
42.223938
 20
56.406342
 30
0.0
 10
35.662272
 20
56.406342
 30
0.0
 10
29.100605
 20
56.406342
 30
0.0
 10
29.100605
 20
62.968008
 30
0.0
 10
29.100605
 20
69.529675
 30
0.0
 10
29.100605
 20
76.091342
 30
0.0
 10
29.100605
 20
82.653008
 30
0.0
 10
29.100605
 20
82.653008
 30
0.0
  0
LWPOLYLINE
  5
11b
100
AcDbEntity
  8
0
 62
7
100
AcDbPolyline
 90
18
 70
0
 10
57.322827
 20
82.653008
 30
0.0
 10
63.884494
 20
82.653008
 30
0.0
 10
70.446161
 20
82.653008
 30
0.0
 10
77.007827
 20
82.653008
 30
0.0
 10
83.569494
 20
82.653008
 30
0.0
 10
83.569494
 20
76.091342
 30
0.0
 10
83.569494
 20
69.529675
 30
0.0
 10
83.569494
 20
62.968008
 30
0.0
 10
83.569494
 20
56.406342
 30
0.0
 10
77.007827
 20
56.406342
 30
0.0
 10
70.446161
 20
56.406342
 30
0.0
 10
63.884494
 20
56.406342
 30
0.0
 10
57.322827
 20
56.406342
 30
0.0
 10
57.322827
 20
62.968008
 30
0.0
 10
57.322827
 20
69.529675
 30
0.0
 10
57.322827
 20
76.091342
 30
0.0
 10
57.322827
 20
82.653008
 30
0.0
 10
57.322827
 20
82.653008
 30
0.0
  0
LWPOLYLINE
  5
11c
100
AcDbEntity
  8
0
 62
7
100
AcDbPolyline
 90
18
 70
0
 10
85.545049
 20
82.653008
 30
0.0
 10
92.106716
 20
82.653008
 30
0.0
 10
98.668383
 20
82.653008
 30
0.0
 10
105.230049
 20
82.653008
 30
0.0
 10
111.791716
 20
82.653008
 30
0.0
 10
111.791716
 20
76.091342
 30
0.0
 10
111.791716
 20
69.529675
 30
0.0
 10
111.791716
 20
62.968008
 30
0.0
 10
111.791716
 20
56.406342
 30
0.0
 10
105.230049
 20
56.406342
 30
0.0
 10
98.668383
 20
56.406342
 30
0.0
 10
92.106716
 20
56.406342
 30
0.0
 10
85.545049
 20
56.406342
 30
0.0
 10
85.545049
 20
62.968008
 30
0.0
 10
85.545049
 20
69.529675
 30
0.0
 10
85.545049
 20
76.091342
 30
0.0
 10
85.545049
 20
82.653008
 30
0.0
 10
85.545049
 20
82.653008
 30
0.0
  0
LWPOLYLINE
  5
11d
100
AcDbEntity
  8
0
 62
7
100
AcDbPolyline
 90
18
 70
0
 10
113.767272
 20
82.653008
 30
0.0
 10
120.328938
 20
82.653008
 30
0.0
 10
126.890605
 20
82.653008
 30
0.0
 10
133.452272
 20
82.653008
 30
0.0
 10
140.013938
 20
82.653008
 30
0.0
 10
140.013938
 20
76.091342
 30
0.0
 10
140.013938
 20
69.529675
 30
0.0
 10
140.013938
 20
62.968008
 30
0.0
 10
140.013938
 20
56.406342
 30
0.0
 10
133.452272
 20
56.406342
 30
0.0
 10
126.890605
 20
56.406342
 30
0.0
 10
120.328938
 20
56.406342
 30
0.0
 10
113.767272
 20
56.406342
 30
0.0
 10
113.767272
 20
62.968008
 30
0.0
 10
113.767272
 20
69.529675
 30
0.0
 10
113.767272
 20
76.091342
 30
0.0
 10
113.767272
 20
82.653008
 30
0.0
 10
113.767272
 20
82.653008
 30
0.0
  0
LWPOLYLINE
  5
11e
100
AcDbEntity
  8
0
 62
7
100
AcDbPolyline
 90
18
 70
0
 10
0.313940
 20
54.995231
 30
0.0
 10
0.313940
 20
48.151342
 30
0.0
 10
0.313940
 20
41.307453
 30
0.0
 10
0.313940
 20
34.463564
 30
0.0
 10
0.313940
 20
27.619675
 30
0.0
 10
7.157829
 20
27.619675
 30
0.0
 10
14.001718
 20
27.619675
 30
0.0
 10
20.845607
 20
27.619675
 30
0.0
 10
27.689494
 20
27.619675
 30
0.0
 10
27.689494
 20
34.463564
 30
0.0
 10
27.689494
 20
41.307453
 30
0.0
 10
27.689494
 20
48.151342
 30
0.0
 10
27.689494
 20
54.995231
 30
0.0
 10
20.845607
 20
54.995231
 30
0.0
 10
14.001718
 20
54.995231
 30
0.0
 10
7.157829
 20
54.995231
 30
0.0
 10
0.313940
 20
54.995231
 30
0.0
 10
0.313940
 20
54.995231
 30
0.0
  0
LWPOLYLINE
  5
11f
100
AcDbEntity
  8
0
 62
7
100
AcDbPolyline
 90
18
 70
0
 10
28.536161
 20
54.995231
 30
0.0
 10
28.536161
 20
48.151342
 30
0.0
 10
28.536161
 20
41.307453
 30
0.0
 10
28.536161
 20
34.463564
 30
0.0
 10
28.536161
 20
27.619675
 30
0.0
 10
35.380049
 20
27.619675
 30
0.0
 10
42.223938
 20
27.619675
 30
0.0
 10
49.067827
 20
27.619675
 30
0.0
 10
55.911716
 20
27.619675
 30
0.0
 10
55.911716
 20
34.463564
 30
0.0
 10
55.911716
 20
41.307453
 30
0.0
 10
55.911716
 20
48.151342
 30
0.0
 10
55.911716
 20
54.995231
 30
0.0
 10
49.067827
 20
54.995231
 30
0.0
 10
42.223938
 20
54.995231
 30
0.0
 10
35.380049
 20
54.995231
 30
0.0
 10
28.536161
 20
54.995231
 30
0.0
 10
28.536161
 20
54.995231
 30
0.0
  0
LWPOLYLINE
  5
120
100
AcDbEntity
  8
0
 62
7
100
AcDbPolyline
 90
18
 70
0
 10
56.758383
 20
54.995231
 30
0.0
 10
56.758383
 20
48.151342
 30
0.0
 10
56.758383
 20
41.307453
 30
0.0
 10
56.758383
 20
34.463564
 30
0.0
 10
56.758383
 20
27.619675
 30
0.0
 10
63.602272
 20
27.619675
 30
0.0
 10
70.446161
 20
27.619675
 30
0.0
 10
77.290049
 20
27.619675
 30
0.0
 10
84.133938
 20
27.619675
 30
0.0
 10
84.133938
 20
34.463564
 30
0.0
 10
84.133938
 20
41.307453
 30
0.0
 10
84.133938
 20
48.151342
 30
0.0
 10
84.133938
 20
54.995231
 30
0.0
 10
77.290049
 20
54.995231
 30
0.0
 10
70.446161
 20
54.995231
 30
0.0
 10
63.602272
 20
54.995231
 30
0.0
 10
56.758383
 20
54.995231
 30
0.0
 10
56.758383
 20
54.995231
 30
0.0
  0
LWPOLYLINE
  5
121
100
AcDbEntity
  8
0
 62
7
100
AcDbPolyline
 90
18
 70
0
 10
84.980605
 20
54.995231
 30
0.0
 10
84.980605
 20
48.151342
 30
0.0
 10
84.980605
 20
41.307453
 30
0.0
 10
84.980605
 20
34.463564
 30
0.0
 10
84.980605
 20
27.619675
 30
0.0
 10
91.824494
 20
27.619675
 30
0.0
 10
98.668383
 20
27.619675
 30
0.0
 10
105.512272
 20
27.619675
 30
0.0
 10
112.356161
 20
27.619675
 30
0.0
 10
112.356161
 20
34.463564
 30
0.0
 10
112.356161
 20
41.307453
 30
0.0
 10
112.356161
 20
48.151342
 30
0.0
 10
112.356161
 20
54.995231
 30
0.0
 10
105.512272
 20
54.995231
 30
0.0
 10
98.668383
 20
54.995231
 30
0.0
 10
91.824494
 20
54.995231
 30
0.0
 10
84.980605
 20
54.995231
 30
0.0
 10
84.980605
 20
54.995231
 30
0.0
  0
LWPOLYLINE
  5
122
100
AcDbEntity
  8
0
 62
7
100
AcDbPolyline
 90
18
 70
0
 10
113.202827
 20
54.995231
 30
0.0
 10
113.202827
 20
48.151342
 30
0.0
 10
113.202827
 20
41.307453
 30
0.0
 10
113.202827
 20
34.463564
 30
0.0
 10
113.202827
 20
27.619675
 30
0.0
 10
120.046716
 20
27.619675
 30
0.0
 10
126.890605
 20
27.619675
 30
0.0
 10
133.734494
 20
27.619675
 30
0.0
 10
140.578383
 20
27.619675
 30
0.0
 10
140.578383
 20
34.463564
 30
0.0
 10
140.578383
 20
41.307453
 30
0.0
 10
140.578383
 20
48.151342
 30
0.0
 10
140.578383
 20
54.995231
 30
0.0
 10
133.734494
 20
54.995231
 30
0.0
 10
126.890605
 20
54.995231
 30
0.0
 10
120.046716
 20
54.995231
 30
0.0
 10
113.202827
 20
54.995231
 30
0.0
 10
113.202827
 20
54.995231
 30
0.0
  0
LWPOLYLINE
  5
123
100
AcDbEntity
  8
0
 62
7
100
AcDbPolyline
 90
18
 70
0
 10
0.878384
 20
54.430786
 30
0.0
 10
7.440051
 20
54.430786
 30
0.0
 10
14.001718
 20
54.430786
 30
0.0
 10
20.563384
 20
54.430786
 30
0.0
 10
27.125049
 20
54.430786
 30
0.0
 10
27.125049
 20
47.869119
 30
0.0
 10
27.125049
 20
41.307453
 30
0.0
 10
27.125049
 20
34.745786
 30
0.0
 10
27.125049
 20
28.184119
 30
0.0
 10
20.563384
 20
28.184119
 30
0.0
 10
14.001718
 20
28.184119
 30
0.0
 10
7.440051
 20
28.184119
 30
0.0
 10
0.878384
 20
28.184119
 30
0.0
 10
0.878384
 20
34.745786
 30
0.0
 10
0.878384
 20
41.307453
 30
0.0
 10
0.878384
 20
47.869119
 30
0.0
 10
0.878384
 20
54.430786
 30
0.0
 10
0.878384
 20
54.430786
 30
0.0
  0
LWPOLYLINE
  5
124
100
AcDbEntity
  8
0
 62
7
100
AcDbPolyline
 90
18
 70
0
 10
29.100605
 20
54.430786
 30
0.0
 10
35.662272
 20
54.430786
 30
0.0
 10
42.223938
 20
54.430786
 30
0.0
 10
48.785605
 20
54.430786
 30
0.0
 10
55.347272
 20
54.430786
 30
0.0
 10
55.347272
 20
47.869119
 30
0.0
 10
55.347272
 20
41.307453
 30
0.0
 10
55.347272
 20
34.745786
 30
0.0
 10
55.347272
 20
28.184119
 30
0.0
 10
48.785605
 20
28.184119
 30
0.0
 10
42.223938
 20
28.184119
 30
0.0
 10
35.662272
 20
28.184119
 30
0.0
 10
29.100605
 20
28.184119
 30
0.0
 10
29.100605
 20
34.745786
 30
0.0
 10
29.100605
 20
41.307453
 30
0.0
 10
29.100605
 20
47.869119
 30
0.0
 10
29.100605
 20
54.430786
 30
0.0
 10
29.100605
 20
54.430786
 30
0.0
  0
LWPOLYLINE
  5
125
100
AcDbEntity
  8
0
 62
7
100
AcDbPolyline
 90
18
 70
0
 10
57.322827
 20
54.430786
 30
0.0
 10
63.884494
 20
54.430786
 30
0.0
 10
70.446161
 20
54.430786
 30
0.0
 10
77.007827
 20
54.430786
 30
0.0
 10
83.569494
 20
54.430786
 30
0.0
 10
83.569494
 20
47.869119
 30
0.0
 10
83.569494
 20
41.307453
 30
0.0
 10
83.569494
 20
34.745786
 30
0.0
 10
83.569494
 20
28.184119
 30
0.0
 10
77.007827
 20
28.184119
 30
0.0
 10
70.446161
 20
28.184119
 30
0.0
 10
63.884494
 20
28.184119
 30
0.0
 10
57.322827
 20
28.184119
 30
0.0
 10
57.322827
 20
34.745786
 30
0.0
 10
57.322827
 20
41.307453
 30
0.0
 10
57.322827
 20
47.869119
 30
0.0
 10
57.322827
 20
54.430786
 30
0.0
 10
57.322827
 20
54.430786
 30
0.0
  0
LWPOLYLINE
  5
126
100
AcDbEntity
  8
0
 62
7
100
AcDbPolyline
 90
18
 70
0
 10
85.545049
 20
54.430786
 30
0.0
 10
92.106716
 20
54.430786
 30
0.0
 10
98.668383
 20
54.430786
 30
0.0
 10
105.230049
 20
54.430786
 30
0.0
 10
111.791716
 20
54.430786
 30
0.0
 10
111.791716
 20
47.869119
 30
0.0
 10
111.791716
 20
41.307453
 30
0.0
 10
111.791716
 20
34.745786
 30
0.0
 10
111.791716
 20
28.184119
 30
0.0
 10
105.230049
 20
28.184119
 30
0.0
 10
98.668383
 20
28.184119
 30
0.0
 10
92.106716
 20
28.184119
 30
0.0
 10
85.545049
 20
28.184119
 30
0.0
 10
85.545049
 20
34.745786
 30
0.0
 10
85.545049
 20
41.307453
 30
0.0
 10
85.545049
 20
47.869119
 30
0.0
 10
85.545049
 20
54.430786
 30
0.0
 10
85.545049
 20
54.430786
 30
0.0
  0
LWPOLYLINE
  5
127
100
AcDbEntity
  8
0
 62
7
100
AcDbPolyline
 90
18
 70
0
 10
113.767272
 20
54.430786
 30
0.0
 10
120.328938
 20
54.430786
 30
0.0
 10
126.890605
 20
54.430786
 30
0.0
 10
133.452272
 20
54.430786
 30
0.0
 10
140.013938
 20
54.430786
 30
0.0
 10
140.013938
 20
47.869119
 30
0.0
 10
140.013938
 20
41.307453
 30
0.0
 10
140.013938
 20
34.745786
 30
0.0
 10
140.013938
 20
28.184119
 30
0.0
 10
133.452272
 20
28.184119
 30
0.0
 10
126.890605
 20
28.184119
 30
0.0
 10
120.328938
 20
28.184119
 30
0.0
 10
113.767272
 20
28.184119
 30
0.0
 10
113.767272
 20
34.745786
 30
0.0
 10
113.767272
 20
41.307453
 30
0.0
 10
113.767272
 20
47.869119
 30
0.0
 10
113.767272
 20
54.430786
 30
0.0
 10
113.767272
 20
54.430786
 30
0.0
  0
LWPOLYLINE
  5
128
100
AcDbEntity
  8
0
 62
7
100
AcDbPolyline
 90
18
 70
0
 10
0.313940
 20
26.773008
 30
0.0
 10
0.313940
 20
19.929119
 30
0.0
 10
0.313940
 20
13.085231
 30
0.0
 10
0.313940
 20
6.241342
 30
0.0
 10
0.313940
 20
-0.602547
 30
0.0
 10
7.157829
 20
-0.602547
 30
0.0
 10
14.001718
 20
-0.602547
 30
0.0
 10
20.845607
 20
-0.602547
 30
0.0
 10
27.689494
 20
-0.602547
 30
0.0
 10
27.689494
 20
6.241342
 30
0.0
 10
27.689494
 20
13.085231
 30
0.0
 10
27.689494
 20
19.929119
 30
0.0
 10
27.689494
 20
26.773008
 30
0.0
 10
20.845607
 20
26.773008
 30
0.0
 10
14.001718
 20
26.773008
 30
0.0
 10
7.157829
 20
26.773008
 30
0.0
 10
0.313940
 20
26.773008
 30
0.0
 10
0.313940
 20
26.773008
 30
0.0
  0
LWPOLYLINE
  5
129
100
AcDbEntity
  8
0
 62
7
100
AcDbPolyline
 90
18
 70
0
 10
28.536161
 20
26.773008
 30
0.0
 10
28.536161
 20
19.929119
 30
0.0
 10
28.536161
 20
13.085231
 30
0.0
 10
28.536161
 20
6.241342
 30
0.0
 10
28.536161
 20
-0.602547
 30
0.0
 10
35.380049
 20
-0.602547
 30
0.0
 10
42.223938
 20
-0.602547
 30
0.0
 10
49.067827
 20
-0.602547
 30
0.0
 10
55.911716
 20
-0.602547
 30
0.0
 10
55.911716
 20
6.241342
 30
0.0
 10
55.911716
 20
13.085231
 30
0.0
 10
55.911716
 20
19.929119
 30
0.0
 10
55.911716
 20
26.773008
 30
0.0
 10
49.067827
 20
26.773008
 30
0.0
 10
42.223938
 20
26.773008
 30
0.0
 10
35.380049
 20
26.773008
 30
0.0
 10
28.536161
 20
26.773008
 30
0.0
 10
28.536161
 20
26.773008
 30
0.0
  0
LWPOLYLINE
  5
12a
100
AcDbEntity
  8
0
 62
7
100
AcDbPolyline
 90
18
 70
0
 10
56.758383
 20
26.773008
 30
0.0
 10
56.758383
 20
19.929119
 30
0.0
 10
56.758383
 20
13.085231
 30
0.0
 10
56.758383
 20
6.241342
 30
0.0
 10
56.758383
 20
-0.602547
 30
0.0
 10
63.602272
 20
-0.602547
 30
0.0
 10
70.446161
 20
-0.602547
 30
0.0
 10
77.290049
 20
-0.602547
 30
0.0
 10
84.133938
 20
-0.602547
 30
0.0
 10
84.133938
 20
6.241342
 30
0.0
 10
84.133938
 20
13.085231
 30
0.0
 10
84.133938
 20
19.929119
 30
0.0
 10
84.133938
 20
26.773008
 30
0.0
 10
77.290049
 20
26.773008
 30
0.0
 10
70.446161
 20
26.773008
 30
0.0
 10
63.602272
 20
26.773008
 30
0.0
 10
56.758383
 20
26.773008
 30
0.0
 10
56.758383
 20
26.773008
 30
0.0
  0
LWPOLYLINE
  5
12b
100
AcDbEntity
  8
0
 62
7
100
AcDbPolyline
 90
18
 70
0
 10
84.980605
 20
26.773008
 30
0.0
 10
84.980605
 20
19.929119
 30
0.0
 10
84.980605
 20
13.085231
 30
0.0
 10
84.980605
 20
6.241342
 30
0.0
 10
84.980605
 20
-0.602547
 30
0.0
 10
91.824494
 20
-0.602547
 30
0.0
 10
98.668383
 20
-0.602547
 30
0.0
 10
105.512272
 20
-0.602547
 30
0.0
 10
112.356161
 20
-0.602547
 30
0.0
 10
112.356161
 20
6.241342
 30
0.0
 10
112.356161
 20
13.085231
 30
0.0
 10
112.356161
 20
19.929119
 30
0.0
 10
112.356161
 20
26.773008
 30
0.0
 10
105.512272
 20
26.773008
 30
0.0
 10
98.668383
 20
26.773008
 30
0.0
 10
91.824494
 20
26.773008
 30
0.0
 10
84.980605
 20
26.773008
 30
0.0
 10
84.980605
 20
26.773008
 30
0.0
  0
LWPOLYLINE
  5
12c
100
AcDbEntity
  8
0
 62
7
100
AcDbPolyline
 90
18
 70
0
 10
113.202827
 20
26.773008
 30
0.0
 10
113.202827
 20
19.929119
 30
0.0
 10
113.202827
 20
13.085231
 30
0.0
 10
113.202827
 20
6.241342
 30
0.0
 10
113.202827
 20
-0.602547
 30
0.0
 10
120.046716
 20
-0.602547
 30
0.0
 10
126.890605
 20
-0.602547
 30
0.0
 10
133.734494
 20
-0.602547
 30
0.0
 10
140.578383
 20
-0.602547
 30
0.0
 10
140.578383
 20
6.241342
 30
0.0
 10
140.578383
 20
13.085231
 30
0.0
 10
140.578383
 20
19.929119
 30
0.0
 10
140.578383
 20
26.773008
 30
0.0
 10
133.734494
 20
26.773008
 30
0.0
 10
126.890605
 20
26.773008
 30
0.0
 10
120.046716
 20
26.773008
 30
0.0
 10
113.202827
 20
26.773008
 30
0.0
 10
113.202827
 20
26.773008
 30
0.0
  0
LWPOLYLINE
  5
12d
100
AcDbEntity
  8
0
 62
7
100
AcDbPolyline
 90
18
 70
0
 10
0.878384
 20
26.208564
 30
0.0
 10
7.440051
 20
26.208564
 30
0.0
 10
14.001718
 20
26.208564
 30
0.0
 10
20.563384
 20
26.208564
 30
0.0
 10
27.125049
 20
26.208564
 30
0.0
 10
27.125049
 20
19.646897
 30
0.0
 10
27.125049
 20
13.085231
 30
0.0
 10
27.125049
 20
6.523564
 30
0.0
 10
27.125049
 20
-0.038103
 30
0.0
 10
20.563384
 20
-0.038103
 30
0.0
 10
14.001718
 20
-0.038103
 30
0.0
 10
7.440051
 20
-0.038103
 30
0.0
 10
0.878384
 20
-0.038103
 30
0.0
 10
0.878384
 20
6.523564
 30
0.0
 10
0.878384
 20
13.085231
 30
0.0
 10
0.878384
 20
19.646897
 30
0.0
 10
0.878384
 20
26.208564
 30
0.0
 10
0.878384
 20
26.208564
 30
0.0
  0
LWPOLYLINE
  5
12e
100
AcDbEntity
  8
0
 62
7
100
AcDbPolyline
 90
18
 70
0
 10
29.100605
 20
26.208564
 30
0.0
 10
35.662272
 20
26.208564
 30
0.0
 10
42.223938
 20
26.208564
 30
0.0
 10
48.785605
 20
26.208564
 30
0.0
 10
55.347272
 20
26.208564
 30
0.0
 10
55.347272
 20
19.646897
 30
0.0
 10
55.347272
 20
13.085231
 30
0.0
 10
55.347272
 20
6.523564
 30
0.0
 10
55.347272
 20
-0.038103
 30
0.0
 10
48.785605
 20
-0.038103
 30
0.0
 10
42.223938
 20
-0.038103
 30
0.0
 10
35.662272
 20
-0.038103
 30
0.0
 10
29.100605
 20
-0.038103
 30
0.0
 10
29.100605
 20
6.523564
 30
0.0
 10
29.100605
 20
13.085231
 30
0.0
 10
29.100605
 20
19.646897
 30
0.0
 10
29.100605
 20
26.208564
 30
0.0
 10
29.100605
 20
26.208564
 30
0.0
  0
LWPOLYLINE
  5
12f
100
AcDbEntity
  8
0
 62
7
100
AcDbPolyline
 90
18
 70
0
 10
57.322827
 20
26.208564
 30
0.0
 10
63.884494
 20
26.208564
 30
0.0
 10
70.446161
 20
26.208564
 30
0.0
 10
77.007827
 20
26.208564
 30
0.0
 10
83.569494
 20
26.208564
 30
0.0
 10
83.569494
 20
19.646897
 30
0.0
 10
83.569494
 20
13.085231
 30
0.0
 10
83.569494
 20
6.523564
 30
0.0
 10
83.569494
 20
-0.038103
 30
0.0
 10
77.007827
 20
-0.038103
 30
0.0
 10
70.446161
 20
-0.038103
 30
0.0
 10
63.884494
 20
-0.038103
 30
0.0
 10
57.322827
 20
-0.038103
 30
0.0
 10
57.322827
 20
6.523564
 30
0.0
 10
57.322827
 20
13.085231
 30
0.0
 10
57.322827
 20
19.646897
 30
0.0
 10
57.322827
 20
26.208564
 30
0.0
 10
57.322827
 20
26.208564
 30
0.0
  0
LWPOLYLINE
  5
130
100
AcDbEntity
  8
0
 62
7
100
AcDbPolyline
 90
18
 70
0
 10
85.545049
 20
26.208564
 30
0.0
 10
92.106716
 20
26.208564
 30
0.0
 10
98.668383
 20
26.208564
 30
0.0
 10
105.230049
 20
26.208564
 30
0.0
 10
111.791716
 20
26.208564
 30
0.0
 10
111.791716
 20
19.646897
 30
0.0
 10
111.791716
 20
13.085231
 30
0.0
 10
111.791716
 20
6.523564
 30
0.0
 10
111.791716
 20
-0.038103
 30
0.0
 10
105.230049
 20
-0.038103
 30
0.0
 10
98.668383
 20
-0.038103
 30
0.0
 10
92.106716
 20
-0.038103
 30
0.0
 10
85.545049
 20
-0.038103
 30
0.0
 10
85.545049
 20
6.523564
 30
0.0
 10
85.545049
 20
13.085231
 30
0.0
 10
85.545049
 20
19.646897
 30
0.0
 10
85.545049
 20
26.208564
 30
0.0
 10
85.545049
 20
26.208564
 30
0.0
  0
LWPOLYLINE
  5
131
100
AcDbEntity
  8
0
 62
7
100
AcDbPolyline
 90
18
 70
0
 10
113.767272
 20
26.208564
 30
0.0
 10
120.328938
 20
26.208564
 30
0.0
 10
126.890605
 20
26.208564
 30
0.0
 10
133.452272
 20
26.208564
 30
0.0
 10
140.013938
 20
26.208564
 30
0.0
 10
140.013938
 20
19.646897
 30
0.0
 10
140.013938
 20
13.085231
 30
0.0
 10
140.013938
 20
6.523564
 30
0.0
 10
140.013938
 20
-0.038103
 30
0.0
 10
133.452272
 20
-0.038103
 30
0.0
 10
126.890605
 20
-0.038103
 30
0.0
 10
120.328938
 20
-0.038103
 30
0.0
 10
113.767272
 20
-0.038103
 30
0.0
 10
113.767272
 20
6.523564
 30
0.0
 10
113.767272
 20
13.085231
 30
0.0
 10
113.767272
 20
19.646897
 30
0.0
 10
113.767272
 20
26.208564
 30
0.0
 10
113.767272
 20
26.208564
 30
0.0
  0
ENDSEC
  0
SECTION
  2
OBJECTS
  0
DICTIONARY
  5
C
330
0
100
AcDbDictionary
  3
ACAD_GROUP
350
D
  3
ACAD_MLINESTYLE
350
17
  0
DICTIONARY
  5
D
330
C
100
AcDbDictionary
  0
DICTIONARY
  5
1A
330
C
100
AcDbDictionary
  0
DICTIONARY
  5
17
330
C
100
AcDbDictionary
  3
STANDARD
350
18
  0
DICTIONARY
  5
19
330
C
100
AcDbDictionary
  0
ENDSEC
  0
EOF
