999
DXF created by Inkscape
  0
SECTION
  2
HEADER
  9
$ACADVER
  1
AC1014
  9
$HANDSEED
  5
FFFF
  9
$MEASUREMENT
 70
     1
  0
ENDSEC
  0
SECTION
  2
TABLES
  0
TABLE
  2
VPORT
  5
8
330
0
100
AcDbSymbolTable
 70
     4
  0
VPORT
  5
2E
330
8
100
AcDbSymbolTableRecord
100
AcDbViewportTableRecord
  2
*ACTIVE
 70
     0
 10
0.0
 20
0.0
 11
1.0
 21
1.0
 12
210.0
 22
148.5
 13
0.0
 23
0.0
 14
10.0
 24
10.0
 15
10.0
 25
10.0
 16
0.0
 26
0.0
 36
1.0
 17
0.0
 27
0.0
 37
0.0
 40
341.0
 41
1.24
 42
50.0
 43
0.0
 44
0.0
 50
0.0
 51
0.0
 71
     0
 72
   100
 73
     1
 74
     3
 75
     0
 76
     0
 77
     0
 78
     0
  0
ENDTAB
  0
TABLE
  2
LTYPE
  5
5
330
0
100
AcDbSymbolTable
 70
     1
  0
LTYPE
  5
14
330
5
100
AcDbSymbolTableRecord
100
AcDbLinetypeTableRecord
  2
BYBLOCK
 70
     0
  3

 72
    65
 73
     0
 40
0.0
  0
LTYPE
  5
15
330
5
100
AcDbSymbolTableRecord
100
AcDbLinetypeTableRecord
  2
BYLAYER
 70
     0
  3

 72
    65
 73
     0
 40
0.0
  0
LTYPE
  5
16
330
5
100
AcDbSymbolTableRecord
100
AcDbLinetypeTableRecord
  2
CONTINUOUS
 70
     0
  3
Solid line
 72
    65
 73
     0
 40
0.0
  0
ENDTAB
  0
TABLE
  2
LAYER
  5
2
100
AcDbSymbolTable
 70
1
  0
LAYER
  5
50
100
AcDbSymbolTableRecord
100
AcDbLayerTableRecord
  2
0
 70
0
  6
CONTINUOUS
  0
ENDTAB
  0
TABLE
  2
STYLE
  5
3
330
0
100
AcDbSymbolTable
 70
     1
  0
STYLE
  5
11
330
3
100
AcDbSymbolTableRecord
100
AcDbTextStyleTableRecord
  2
STANDARD
 70
     0
 40
0.0
 41
1.0
 50
0.0
 71
     0
 42
2.5
  3
txt
  4

  0
ENDTAB
  0
TABLE
  2
VIEW
  5
6
330
0
100
AcDbSymbolTable
 70
     0
  0
ENDTAB
  0
TABLE
  2
UCS
  5
7
330
0
100
AcDbSymbolTable
 70
     0
  0
ENDTAB
  0
TABLE
  2
APPID
  5
9
330
0
100
AcDbSymbolTable
 70
     2
  0
APPID
  5
12
330
9
100
AcDbSymbolTableRecord
100
AcDbRegAppTableRecord
  2
ACAD
 70
     0
  0
ENDTAB
  0
TABLE
  2
DIMSTYLE
  5
A
330
0
100
AcDbSymbolTable
 70
     1
  0
DIMSTYLE
105
27
330
A
100
AcDbSymbolTableRecord
100
AcDbDimStyleTableRecord
  2
ISO-25
 70
     0
  3

  4

  5

  6

  7

 40
1.0
 41
2.5
 42
0.625
 43
3.75
 44
1.25
 45
0.0
 46
0.0
 47
0.0
 48
0.0
140
2.5
141
2.5
142
0.0
143
0.03937007874016
144
1.0
145
0.0
146
1.0
147
0.625
 71
     0
 72
     0
 73
     0
 74
     0
 75
     0
 76
     0
 77
     1
 78
     8
170
     0
171
     3
172
     1
173
     0
174
     0
175
     0
176
     0
177
     0
178
     0
270
     2
271
     2
272
     2
273
     2
274
     3
340
11
275
     0
280
     0
281
     0
282
     0
283
     0
284
     8
285
     0
286
     0
287
     3
288
     0
  0
ENDTAB
  0
TABLE
  2
BLOCK_RECORD
  5
1
330
0
100
AcDbSymbolTable
 70
     1
  0
BLOCK_RECORD
  5
1F
330
1
100
AcDbSymbolTableRecord
100
AcDbBlockTableRecord
  2
*MODEL_SPACE
  0
BLOCK_RECORD
  5
1B
330
1
100
AcDbSymbolTableRecord
100
AcDbBlockTableRecord
  2
*PAPER_SPACE
  0
ENDTAB
  0
ENDSEC
  0
SECTION
  2
BLOCKS
  0
BLOCK
  5
20
330
1F
100
AcDbEntity
  8
0
100
AcDbBlockBegin
  2
*MODEL_SPACE
 70
     0
 10
0.0
 20
0.0
 30
0.0
  3
*MODEL_SPACE
  1

  0
ENDBLK
  5
21
330
1F
100
AcDbEntity
  8
0
100
AcDbBlockEnd
  0
BLOCK
  5
1C
330
1B
100
AcDbEntity
 67
     1
  8
0
100
AcDbBlockBegin
  2
*PAPER_SPACE
  1

  0
ENDBLK
  5
1D
330
1B
100
AcDbEntity
 67
     1
  8
0
100
AcDbBlockEnd
  0
ENDSEC
  0
SECTION
  2
ENTITIES
  0
LWPOLYLINE
  5
100
100
AcDbEntity
  8
0
 62
7
100
AcDbPolyline
 90
9
 70
0
 10
-27.412418
 20
-0.730820
 30
0.0
 10
-26.941319
 20
0.406513
 30
0.0
 10
-25.803986
 20
0.877612
 30
0.0
 10
-24.666654
 20
0.406513
 30
0.0
 10
-24.195555
 20
-0.730820
 30
0.0
 10
-24.666654
 20
-1.868153
 30
0.0
 10
-25.803986
 20
-2.339253
 30
0.0
 10
-26.941319
 20
-1.868153
 30
0.0
 10
-27.412418
 20
-0.730820
 30
0.0
  0
LWPOLYLINE
  5
101
100
AcDbEntity
  8
0
 62
7
100
AcDbPolyline
 90
9
 70
0
 10
-27.463133
 20
4.251096
 30
0.0
 10
-26.992037
 20
5.388429
 30
0.0
 10
-25.854701
 20
5.859529
 30
0.0
 10
-24.717369
 20
5.388429
 30
0.0
 10
-24.246273
 20
4.251096
 30
0.0
 10
-24.717369
 20
3.113763
 30
0.0
 10
-25.854701
 20
2.642664
 30
0.0
 10
-26.992037
 20
3.113763
 30
0.0
 10
-27.463133
 20
4.251096
 30
0.0
  0
LWPOLYLINE
  5
102
100
AcDbEntity
  8
0
 62
7
100
AcDbPolyline
 90
9
 70
0
 10
-22.232126
 20
4.551742
 30
0.0
 10
-21.761029
 20
5.689075
 30
0.0
 10
-20.623694
 20
6.160175
 30
0.0
 10
-19.486361
 20
5.689075
 30
0.0
 10
-19.015264
 20
4.551742
 30
0.0
 10
-19.486361
 20
3.414409
 30
0.0
 10
-20.623694
 20
2.943310
 30
0.0
 10
-21.761029
 20
3.414409
 30
0.0
 10
-22.232126
 20
4.551742
 30
0.0
  0
LWPOLYLINE
  5
103
100
AcDbEntity
  8
0
 62
7
100
AcDbPolyline
 90
9
 70
0
 10
-24.195506
 20
-5.503350
 30
0.0
 10
-24.666603
 20
-6.640683
 30
0.0
 10
-25.803939
 20
-7.111783
 30
0.0
 10
-26.941272
 20
-6.640683
 30
0.0
 10
-27.412368
 20
-5.503350
 30
0.0
 10
-26.941272
 20
-4.366017
 30
0.0
 10
-25.803939
 20
-3.894918
 30
0.0
 10
-24.666603
 20
-4.366017
 30
0.0
 10
-24.195506
 20
-5.503350
 30
0.0
  0
LWPOLYLINE
  5
104
100
AcDbEntity
  8
0
 62
7
100
AcDbPolyline
 90
9
 70
0
 10
-8.681718
 20
4.551736
 30
0.0
 10
-9.152817
 20
3.414403
 30
0.0
 10
-10.290150
 20
2.943304
 30
0.0
 10
-11.427483
 20
3.414403
 30
0.0
 10
-11.898582
 20
4.551736
 30
0.0
 10
-11.427483
 20
5.689069
 30
0.0
 10
-10.290150
 20
6.160169
 30
0.0
 10
-9.152817
 20
5.689069
 30
0.0
 10
-8.681718
 20
4.551736
 30
0.0
  0
LWPOLYLINE
  5
105
100
AcDbEntity
  8
0
 62
7
100
AcDbPolyline
 90
9
 70
0
 10
-3.224681
 20
-0.521437
 30
0.0
 10
-3.695777
 20
-1.658770
 30
0.0
 10
-4.833113
 20
-2.129869
 30
0.0
 10
-5.970446
 20
-1.658770
 30
0.0
 10
-6.441543
 20
-0.521437
 30
0.0
 10
-5.970446
 20
0.615896
 30
0.0
 10
-4.833113
 20
1.086996
 30
0.0
 10
-3.695777
 20
0.615896
 30
0.0
 10
-3.224681
 20
-0.521437
 30
0.0
  0
LWPOLYLINE
  5
106
100
AcDbEntity
  8
0
 62
7
100
AcDbPolyline
 90
9
 70
0
 10
3.900737
 20
4.751471
 30
0.0
 10
4.371837
 20
3.614138
 30
0.0
 10
5.509169
 20
3.143038
 30
0.0
 10
6.646502
 20
3.614138
 30
0.0
 10
7.117602
 20
4.751471
 30
0.0
 10
6.646502
 20
5.888804
 30
0.0
 10
5.509169
 20
6.359903
 30
0.0
 10
4.371837
 20
5.888804
 30
0.0
 10
3.900737
 20
4.751471
 30
0.0
  0
LWPOLYLINE
  5
107
100
AcDbEntity
  8
0
 62
7
100
AcDbPolyline
 90
9
 70
0
 10
3.667182
 20
-5.739892
 30
0.0
 10
4.138279
 20
-6.877225
 30
0.0
 10
5.275614
 20
-7.348324
 30
0.0
 10
6.412947
 20
-6.877225
 30
0.0
 10
6.884044
 20
-5.739892
 30
0.0
 10
6.412947
 20
-4.602559
 30
0.0
 10
5.275614
 20
-4.131460
 30
0.0
 10
4.138279
 20
-4.602559
 30
0.0
 10
3.667182
 20
-5.739892
 30
0.0
  0
LWPOLYLINE
  5
108
100
AcDbEntity
  8
0
 62
7
100
AcDbPolyline
 90
9
 70
0
 10
8.649097
 20
-5.739892
 30
0.0
 10
9.120194
 20
-6.877225
 30
0.0
 10
10.257530
 20
-7.348324
 30
0.0
 10
11.394863
 20
-6.877225
 30
0.0
 10
11.865960
 20
-5.739892
 30
0.0
 10
11.394863
 20
-4.602559
 30
0.0
 10
10.257530
 20
-4.131460
 30
0.0
 10
9.120194
 20
-4.602559
 30
0.0
 10
8.649097
 20
-5.739892
 30
0.0
  0
LWPOLYLINE
  5
109
100
AcDbEntity
  8
0
 62
7
100
AcDbPolyline
 90
9
 70
0
 10
-8.369093
 20
-5.739892
 30
0.0
 10
-8.840189
 20
-6.877225
 30
0.0
 10
-9.977525
 20
-7.348324
 30
0.0
 10
-11.114858
 20
-6.877225
 30
0.0
 10
-11.585954
 20
-5.739892
 30
0.0
 10
-11.114858
 20
-4.602559
 30
0.0
 10
-9.977525
 20
-4.131460
 30
0.0
 10
-8.840189
 20
-4.602559
 30
0.0
 10
-8.369093
 20
-5.739892
 30
0.0
  0
LWPOLYLINE
  5
10a
100
AcDbEntity
  8
0
 62
7
100
AcDbPolyline
 90
9
 70
0
 10
21.707966
 20
4.551736
 30
0.0
 10
21.236866
 20
3.414403
 30
0.0
 10
20.099533
 20
2.943304
 30
0.0
 10
18.962200
 20
3.414403
 30
0.0
 10
18.491101
 20
4.551736
 30
0.0
 10
18.962200
 20
5.689069
 30
0.0
 10
20.099533
 20
6.160169
 30
0.0
 10
21.236866
 20
5.689069
 30
0.0
 10
21.707966
 20
4.551736
 30
0.0
  0
LWPOLYLINE
  5
10b
100
AcDbEntity
  8
0
 62
7
100
AcDbPolyline
 90
9
 70
0
 10
27.165003
 20
-0.521437
 30
0.0
 10
26.693906
 20
-1.658770
 30
0.0
 10
25.556570
 20
-2.129869
 30
0.0
 10
24.419237
 20
-1.658770
 30
0.0
 10
23.948141
 20
-0.521437
 30
0.0
 10
24.419237
 20
0.615896
 30
0.0
 10
25.556570
 20
1.086996
 30
0.0
 10
26.693906
 20
0.615896
 30
0.0
 10
27.165003
 20
-0.521437
 30
0.0
  0
LWPOLYLINE
  5
10c
100
AcDbEntity
  8
0
 62
7
100
AcDbPolyline
 90
9
 70
0
 10
22.020591
 20
-5.739892
 30
0.0
 10
21.549494
 20
-6.877225
 30
0.0
 10
20.412158
 20
-7.348324
 30
0.0
 10
19.274826
 20
-6.877225
 30
0.0
 10
18.803729
 20
-5.739892
 30
0.0
 10
19.274826
 20
-4.602559
 30
0.0
 10
20.412158
 20
-4.131460
 30
0.0
 10
21.549494
 20
-4.602559
 30
0.0
 10
22.020591
 20
-5.739892
 30
0.0
  0
LWPOLYLINE
  5
10d
100
AcDbEntity
  8
0
 62
7
100
AcDbPolyline
 90
9
 70
0
 10
21.809444
 20
-0.521437
 30
0.0
 10
21.338347
 20
-1.658770
 30
0.0
 10
20.201011
 20
-2.129869
 30
0.0
 10
19.063678
 20
-1.658770
 30
0.0
 10
18.592582
 20
-0.521437
 30
0.0
 10
19.063678
 20
0.615896
 30
0.0
 10
20.201011
 20
1.086996
 30
0.0
 10
21.338347
 20
0.615896
 30
0.0
 10
21.809444
 20
-0.521437
 30
0.0
  0
ENDSEC
  0
SECTION
  2
OBJECTS
  0
DICTIONARY
  5
C
330
0
100
AcDbDictionary
  3
ACAD_GROUP
350
D
  3
ACAD_MLINESTYLE
350
17
  0
DICTIONARY
  5
D
330
C
100
AcDbDictionary
  0
DICTIONARY
  5
1A
330
C
100
AcDbDictionary
  0
DICTIONARY
  5
17
330
C
100
AcDbDictionary
  3
STANDARD
350
18
  0
DICTIONARY
  5
19
330
C
100
AcDbDictionary
  0
ENDSEC
  0
EOF
