999
DXF created by Inkscape
  0
SECTION
  2
HEADER
  9
$ACADVER
  1
AC1014
  9
$HANDSEED
  5
FFFF
  9
$MEASUREMENT
 70
     1
  0
ENDSEC
  0
SECTION
  2
TABLES
  0
TABLE
  2
VPORT
  5
8
330
0
100
AcDbSymbolTable
 70
     4
  0
VPORT
  5
2E
330
8
100
AcDbSymbolTableRecord
100
AcDbViewportTableRecord
  2
*ACTIVE
 70
     0
 10
0.0
 20
0.0
 11
1.0
 21
1.0
 12
210.0
 22
148.5
 13
0.0
 23
0.0
 14
10.0
 24
10.0
 15
10.0
 25
10.0
 16
0.0
 26
0.0
 36
1.0
 17
0.0
 27
0.0
 37
0.0
 40
341.0
 41
1.24
 42
50.0
 43
0.0
 44
0.0
 50
0.0
 51
0.0
 71
     0
 72
   100
 73
     1
 74
     3
 75
     0
 76
     0
 77
     0
 78
     0
  0
ENDTAB
  0
TABLE
  2
LTYPE
  5
5
330
0
100
AcDbSymbolTable
 70
     1
  0
LTYPE
  5
14
330
5
100
AcDbSymbolTableRecord
100
AcDbLinetypeTableRecord
  2
BYBLOCK
 70
     0
  3

 72
    65
 73
     0
 40
0.0
  0
LTYPE
  5
15
330
5
100
AcDbSymbolTableRecord
100
AcDbLinetypeTableRecord
  2
BYLAYER
 70
     0
  3

 72
    65
 73
     0
 40
0.0
  0
LTYPE
  5
16
330
5
100
AcDbSymbolTableRecord
100
AcDbLinetypeTableRecord
  2
CONTINUOUS
 70
     0
  3
Solid line
 72
    65
 73
     0
 40
0.0
  0
ENDTAB
  0
TABLE
  2
LAYER
  5
2
100
AcDbSymbolTable
 70
1
  0
LAYER
  5
50
100
AcDbSymbolTableRecord
100
AcDbLayerTableRecord
  2
0
 70
0
  6
CONTINUOUS
  0
ENDTAB
  0
TABLE
  2
STYLE
  5
3
330
0
100
AcDbSymbolTable
 70
     1
  0
STYLE
  5
11
330
3
100
AcDbSymbolTableRecord
100
AcDbTextStyleTableRecord
  2
STANDARD
 70
     0
 40
0.0
 41
1.0
 50
0.0
 71
     0
 42
2.5
  3
txt
  4

  0
ENDTAB
  0
TABLE
  2
VIEW
  5
6
330
0
100
AcDbSymbolTable
 70
     0
  0
ENDTAB
  0
TABLE
  2
UCS
  5
7
330
0
100
AcDbSymbolTable
 70
     0
  0
ENDTAB
  0
TABLE
  2
APPID
  5
9
330
0
100
AcDbSymbolTable
 70
     2
  0
APPID
  5
12
330
9
100
AcDbSymbolTableRecord
100
AcDbRegAppTableRecord
  2
ACAD
 70
     0
  0
ENDTAB
  0
TABLE
  2
DIMSTYLE
  5
A
330
0
100
AcDbSymbolTable
 70
     1
  0
DIMSTYLE
105
27
330
A
100
AcDbSymbolTableRecord
100
AcDbDimStyleTableRecord
  2
ISO-25
 70
     0
  3

  4

  5

  6

  7

 40
1.0
 41
2.5
 42
0.625
 43
3.75
 44
1.25
 45
0.0
 46
0.0
 47
0.0
 48
0.0
140
2.5
141
2.5
142
0.0
143
0.03937007874016
144
1.0
145
0.0
146
1.0
147
0.625
 71
     0
 72
     0
 73
     0
 74
     0
 75
     0
 76
     0
 77
     1
 78
     8
170
     0
171
     3
172
     1
173
     0
174
     0
175
     0
176
     0
177
     0
178
     0
270
     2
271
     2
272
     2
273
     2
274
     3
340
11
275
     0
280
     0
281
     0
282
     0
283
     0
284
     8
285
     0
286
     0
287
     3
288
     0
  0
ENDTAB
  0
TABLE
  2
BLOCK_RECORD
  5
1
330
0
100
AcDbSymbolTable
 70
     1
  0
BLOCK_RECORD
  5
1F
330
1
100
AcDbSymbolTableRecord
100
AcDbBlockTableRecord
  2
*MODEL_SPACE
  0
BLOCK_RECORD
  5
1B
330
1
100
AcDbSymbolTableRecord
100
AcDbBlockTableRecord
  2
*PAPER_SPACE
  0
ENDTAB
  0
ENDSEC
  0
SECTION
  2
BLOCKS
  0
BLOCK
  5
20
330
1F
100
AcDbEntity
  8
0
100
AcDbBlockBegin
  2
*MODEL_SPACE
 70
     0
 10
0.0
 20
0.0
 30
0.0
  3
*MODEL_SPACE
  1

  0
ENDBLK
  5
21
330
1F
100
AcDbEntity
  8
0
100
AcDbBlockEnd
  0
BLOCK
  5
1C
330
1B
100
AcDbEntity
 67
     1
  8
0
100
AcDbBlockBegin
  2
*PAPER_SPACE
  1

  0
ENDBLK
  5
1D
330
1B
100
AcDbEntity
 67
     1
  8
0
100
AcDbBlockEnd
  0
ENDSEC
  0
SECTION
  2
ENTITIES
  0
LWPOLYLINE
  5
100
100
AcDbEntity
  8
0
 62
7
100
AcDbPolyline
 90
9
 70
0
 10
-6.752294
 20
-2.585291
 30
0.0
 10
-8.047649
 20
-3.434162
 30
0.0
 10
-8.477597
 20
-5.975265
 30
0.0
 10
-8.047649
 20
-8.516366
 30
0.0
 10
-6.752294
 20
-9.359725
 30
0.0
 10
-5.456936
 20
-8.516366
 30
0.0
 10
-5.021476
 20
-5.975265
 30
0.0
 10
-5.456936
 20
-3.434162
 30
0.0
 10
-6.752294
 20
-2.585291
 30
0.0
  0
LWPOLYLINE
  5
101
100
AcDbEntity
  8
0
 62
7
100
AcDbPolyline
 90
9
 70
0
 10
-6.752294
 20
-1.703347
 30
0.0
 10
-4.641139
 20
-2.800265
 30
0.0
 10
-3.908021
 20
-5.975265
 30
0.0
 10
-4.641139
 20
-9.150265
 30
0.0
 10
-6.752294
 20
-10.241669
 30
0.0
 10
-8.868960
 20
-9.150265
 30
0.0
 10
-9.596563
 20
-5.975265
 30
0.0
 10
-8.868960
 20
-2.800265
 30
0.0
 10
-6.752294
 20
-1.703347
 30
0.0
  0
LWPOLYLINE
  5
102
100
AcDbEntity
  8
0
 62
7
100
AcDbPolyline
 90
12
 70
0
 10
19.810772
 20
-9.144751
 30
0.0
 10
21.629782
 20
-9.144751
 30
0.0
 10
21.629782
 20
-2.866410
 30
0.0
 10
19.650919
 20
-3.263285
 30
0.0
 10
19.650919
 20
-2.249049
 30
0.0
 10
21.618758
 20
-1.852174
 30
0.0
 10
22.732213
 20
-1.852174
 30
0.0
 10
22.732213
 20
-9.144751
 30
0.0
 10
24.551223
 20
-9.144751
 30
0.0
 10
24.551223
 20
-10.081819
 30
0.0
 10
19.810772
 20
-10.081819
 30
0.0
 10
19.810772
 20
-9.144751
 30
0.0
  0
LWPOLYLINE
  5
103
100
AcDbEntity
  8
0
 62
7
100
AcDbPolyline
 90
22
 70
0
 10
49.328350
 20
-9.144751
 30
0.0
 10
53.214417
 20
-9.144751
 30
0.0
 10
53.214417
 20
-10.081819
 30
0.0
 10
47.988896
 20
-10.081819
 30
0.0
 10
47.988896
 20
-9.144751
 30
0.0
 10
49.714201
 20
-7.386376
 30
0.0
 10
51.092239
 20
-5.958727
 30
0.0
 10
51.836379
 20
-4.944491
 30
0.0
 10
52.051353
 20
-4.123182
 30
0.0
 10
51.588332
 20
-3.053822
 30
0.0
 10
50.392195
 20
-2.640412
 30
0.0
 10
49.284252
 20
-2.822313
 30
0.0
 10
48.044018
 20
-3.373529
 30
0.0
 10
48.044018
 20
-2.249049
 30
0.0
 10
49.300789
 20
-1.841150
 30
0.0
 10
50.370146
 20
-1.703347
 30
0.0
 10
52.409643
 20
-2.342755
 30
0.0
 10
53.170320
 20
-4.051523
 30
0.0
 10
52.977395
 20
-5.016150
 30
0.0
 10
52.288376
 20
-6.085507
 30
0.0
 10
51.411944
 20
-7.011549
 30
0.0
 10
49.328350
 20
-9.144751
 30
0.0
  0
LWPOLYLINE
  5
104
100
AcDbEntity
  8
0
 62
7
100
AcDbPolyline
 90
30
 70
0
 10
80.494062
 20
-5.644535
 30
0.0
 10
81.739808
 20
-6.355602
 30
0.0
 10
82.191804
 20
-7.689542
 30
0.0
 10
81.353956
 20
-9.574699
 30
0.0
 10
78.972706
 20
-10.241669
 30
0.0
 10
77.903349
 20
-10.136940
 30
0.0
 10
76.773360
 20
-9.833771
 30
0.0
 10
76.773360
 20
-8.758902
 30
0.0
 10
77.787596
 20
-9.166801
 30
0.0
 10
78.939636
 20
-9.304604
 30
0.0
 10
80.532647
 20
-8.891194
 30
0.0
 10
81.083861
 20
-7.689542
 30
0.0
 10
80.571233
 20
-6.554041
 30
0.0
 10
79.154610
 20
-6.140628
 30
0.0
 10
78.195495
 20
-6.140628
 30
0.0
 10
78.195495
 20
-5.225613
 30
0.0
 10
79.198707
 20
-5.225613
 30
0.0
 10
80.455476
 20
-4.900394
 30
0.0
 10
80.890937
 20
-3.952305
 30
0.0
 10
80.438941
 20
-2.982166
 30
0.0
 10
79.154610
 20
-2.640412
 30
0.0
 10
78.173445
 20
-2.739630
 30
0.0
 10
77.021405
 20
-3.048310
 30
0.0
 10
77.021405
 20
-2.056124
 30
0.0
 10
78.206518
 20
-1.791541
 30
0.0
 10
79.253828
 20
-1.703347
 30
0.0
 10
81.260250
 20
-2.282122
 30
0.0
 10
81.998879
 20
-3.836549
 30
0.0
 10
81.607516
 20
-4.994100
 30
0.0
 10
80.494062
 20
-5.644535
 30
0.0
  0
LWPOLYLINE
  5
105
100
AcDbEntity
  8
0
 62
7
100
AcDbPolyline
 90
4
 70
0
 10
108.931258
 20
-2.822313
 30
0.0
 10
106.120060
 20
-7.215499
 30
0.0
 10
108.931258
 20
-7.215499
 30
0.0
 10
108.931258
 20
-2.822313
 30
0.0
  0
LWPOLYLINE
  5
106
100
AcDbEntity
  8
0
 62
7
100
AcDbPolyline
 90
12
 70
0
 10
108.639113
 20
-1.852174
 30
0.0
 10
110.039201
 20
-1.852174
 30
0.0
 10
110.039201
 20
-7.215499
 30
0.0
 10
111.213288
 20
-7.215499
 30
0.0
 10
111.213288
 20
-8.141541
 30
0.0
 10
110.039201
 20
-8.141541
 30
0.0
 10
110.039201
 20
-10.081819
 30
0.0
 10
108.931258
 20
-10.081819
 30
0.0
 10
108.931258
 20
-8.141541
 30
0.0
 10
105.216065
 20
-8.141541
 30
0.0
 10
105.216065
 20
-7.066669
 30
0.0
 10
108.639113
 20
-1.852174
 30
0.0
  0
LWPOLYLINE
  5
107
100
AcDbEntity
  8
0
 62
7
100
AcDbPolyline
 90
23
 70
0
 10
134.634427
 20
-1.852174
 30
0.0
 10
139.005564
 20
-1.852174
 30
0.0
 10
139.005564
 20
-2.789239
 30
0.0
 10
135.654175
 20
-2.789239
 30
0.0
 10
135.654175
 20
-4.806688
 30
0.0
 10
136.139245
 20
-4.685419
 30
0.0
 10
136.624314
 20
-4.641322
 30
0.0
 10
138.807125
 20
-5.396487
 30
0.0
 10
139.611899
 20
-7.441497
 30
0.0
 10
138.785078
 20
-9.508555
 30
0.0
 10
136.453437
 20
-10.241669
 30
0.0
 10
135.395104
 20
-10.153475
 30
0.0
 10
134.287161
 20
-9.888892
 30
0.0
 10
134.287161
 20
-8.769926
 30
0.0
 10
135.312421
 20
-9.172313
 30
0.0
 10
136.431387
 20
-9.304604
 30
0.0
 10
137.941719
 20
-8.802999
 30
0.0
 10
138.498445
 20
-7.441497
 30
0.0
 10
137.941719
 20
-6.079995
 30
0.0
 10
136.431387
 20
-5.578390
 30
0.0
 10
135.538419
 20
-5.677608
 30
0.0
 10
134.634427
 20
-5.986289
 30
0.0
 10
134.634427
 20
-1.852174
 30
0.0
  0
LWPOLYLINE
  5
108
100
AcDbEntity
  8
0
 62
7
100
AcDbPolyline
 90
23
 70
0
 10
-9.006974
 20
138.308033
 30
0.0
 10
-4.426411
 20
138.308033
 30
0.0
 10
-4.426411
 20
137.357629
 30
0.0
 10
-7.938369
 20
137.357629
 30
0.0
 10
-7.938369
 20
135.311464
 30
0.0
 10
-7.430059
 20
135.434458
 30
0.0
 10
-6.921749
 20
135.479183
 30
0.0
 10
-4.634357
 20
134.713269
 30
0.0
 10
-3.791026
 20
132.639151
 30
0.0
 10
-4.657461
 20
130.542672
 30
0.0
 10
-7.100813
 20
129.799120
 30
0.0
 10
-8.209853
 20
129.888570
 30
0.0
 10
-9.370878
 20
130.156919
 30
0.0
 10
-9.370878
 20
131.291814
 30
0.0
 10
-8.296497
 20
130.883699
 30
0.0
 10
-7.123920
 20
130.749524
 30
0.0
 10
-5.541226
 20
131.258270
 30
0.0
 10
-4.957827
 20
132.639151
 30
0.0
 10
-5.541226
 20
134.020033
 30
0.0
 10
-7.123920
 20
134.528779
 30
0.0
 10
-8.059671
 20
134.428147
 30
0.0
 10
-9.006974
 20
134.115073
 30
0.0
 10
-9.006974
 20
138.308033
 30
0.0
  0
LWPOLYLINE
  5
109
100
AcDbEntity
  8
0
 62
7
100
AcDbPolyline
 90
4
 70
0
 10
-5.812710
 20
108.700148
 30
0.0
 10
-8.758596
 20
104.244428
 30
0.0
 10
-5.812710
 20
104.244428
 30
0.0
 10
-5.812710
 20
108.700148
 30
0.0
  0
LWPOLYLINE
  5
10a
100
AcDbEntity
  8
0
 62
7
100
AcDbPolyline
 90
12
 70
0
 10
-6.118852
 20
109.684095
 30
0.0
 10
-4.651685
 20
109.684095
 30
0.0
 10
-4.651685
 20
104.244428
 30
0.0
 10
-3.421346
 20
104.244428
 30
0.0
 10
-3.421346
 20
103.305205
 30
0.0
 10
-4.651685
 20
103.305205
 30
0.0
 10
-4.651685
 20
101.337310
 30
0.0
 10
-5.812710
 20
101.337310
 30
0.0
 10
-5.812710
 20
103.305205
 30
0.0
 10
-9.705899
 20
103.305205
 30
0.0
 10
-9.705899
 20
104.395377
 30
0.0
 10
-6.118852
 20
109.684095
 30
0.0
  0
LWPOLYLINE
  5
10b
100
AcDbEntity
  8
0
 62
7
100
AcDbPolyline
 90
30
 70
0
 10
-5.483464
 20
77.213817
 30
0.0
 10
-4.178033
 20
76.492628
 30
0.0
 10
-3.704382
 20
75.139700
 30
0.0
 10
-4.582371
 20
73.227710
 30
0.0
 10
-7.077710
 20
72.551246
 30
0.0
 10
-8.198301
 20
72.657467
 30
0.0
 10
-9.382429
 20
72.964951
 30
0.0
 10
-9.382429
 20
74.055119
 30
0.0
 10
-8.319600
 20
73.641415
 30
0.0
 10
-7.112365
 20
73.501650
 30
0.0
 10
-5.443030
 20
73.920945
 30
0.0
 10
-4.865407
 20
75.139700
 30
0.0
 10
-5.402596
 20
76.291364
 30
0.0
 10
-6.887091
 20
76.710662
 30
0.0
 10
-7.892159
 20
76.710662
 30
0.0
 10
-7.892159
 20
77.638702
 30
0.0
 10
-6.840881
 20
77.638702
 30
0.0
 10
-5.523898
 20
77.968550
 30
0.0
 10
-5.067575
 20
78.930134
 30
0.0
 10
-5.541226
 20
79.914081
 30
0.0
 10
-6.887091
 20
80.260700
 30
0.0
 10
-7.915265
 20
80.160070
 30
0.0
 10
-9.122500
 20
79.846996
 30
0.0
 10
-9.122500
 20
80.853304
 30
0.0
 10
-7.880607
 20
81.121654
 30
0.0
 10
-6.783119
 20
81.211104
 30
0.0
 10
-4.680567
 20
80.624090
 30
0.0
 10
-3.906550
 20
79.047538
 30
0.0
 10
-4.316663
 20
77.873510
 30
0.0
 10
-5.483464
 20
77.213817
 30
0.0
  0
LWPOLYLINE
  5
10c
100
AcDbEntity
  8
0
 62
7
100
AcDbPolyline
 90
22
 70
0
 10
-8.013461
 20
45.039841
 30
0.0
 10
-3.941208
 20
45.039841
 30
0.0
 10
-3.941208
 20
44.089435
 30
0.0
 10
-9.417088
 20
44.089435
 30
0.0
 10
-9.417088
 20
45.039841
 30
0.0
 10
-7.609123
 20
46.823244
 30
0.0
 10
-6.165062
 20
48.271215
 30
0.0
 10
-5.385269
 20
49.299887
 30
0.0
 10
-5.159995
 20
50.132887
 30
0.0
 10
-5.645201
 20
51.217468
 30
0.0
 10
-6.898646
 20
51.636763
 30
0.0
 10
-8.059671
 20
51.452273
 30
0.0
 10
-9.359326
 20
50.893210
 30
0.0
 10
-9.359326
 20
52.033697
 30
0.0
 10
-8.042340
 20
52.447401
 30
0.0
 10
-6.921749
 20
52.587166
 30
0.0
 10
-4.784539
 20
51.938657
 30
0.0
 10
-3.987418
 20
50.205566
 30
0.0
 10
-4.189585
 20
49.227208
 30
0.0
 10
-4.911617
 20
48.142630
 30
0.0
 10
-5.830041
 20
47.203407
 30
0.0
 10
-8.013461
 20
45.039841
 30
0.0
  0
LWPOLYLINE
  5
10d
100
AcDbEntity
  8
0
 62
7
100
AcDbPolyline
 90
12
 70
0
 10
-8.816358
 20
16.415904
 30
0.0
 10
-6.910198
 20
16.415904
 30
0.0
 10
-6.910198
 20
22.783611
 30
0.0
 10
-8.983870
 20
22.381087
 30
0.0
 10
-8.983870
 20
23.409759
 30
0.0
 10
-6.921749
 20
23.812283
 30
0.0
 10
-5.754948
 20
23.812283
 30
0.0
 10
-5.754948
 20
16.415904
 30
0.0
 10
-3.848788
 20
16.415904
 30
0.0
 10
-3.848788
 20
15.465498
 30
0.0
 10
-8.816358
 20
15.465498
 30
0.0
 10
-8.816358
 20
16.415904
 30
0.0
  0
ENDSEC
  0
SECTION
  2
OBJECTS
  0
DICTIONARY
  5
C
330
0
100
AcDbDictionary
  3
ACAD_GROUP
350
D
  3
ACAD_MLINESTYLE
350
17
  0
DICTIONARY
  5
D
330
C
100
AcDbDictionary
  0
DICTIONARY
  5
1A
330
C
100
AcDbDictionary
  0
DICTIONARY
  5
17
330
C
100
AcDbDictionary
  3
STANDARD
350
18
  0
DICTIONARY
  5
19
330
C
100
AcDbDictionary
  0
ENDSEC
  0
EOF
