999
DXF created by Inkscape
  0
SECTION
  2
HEADER
  9
$ACADVER
  1
AC1014
  9
$HANDSEED
  5
FFFF
  9
$MEASUREMENT
 70
     1
  0
ENDSEC
  0
SECTION
  2
TABLES
  0
TABLE
  2
VPORT
  5
8
330
0
100
AcDbSymbolTable
 70
     4
  0
VPORT
  5
2E
330
8
100
AcDbSymbolTableRecord
100
AcDbViewportTableRecord
  2
*ACTIVE
 70
     0
 10
0.0
 20
0.0
 11
1.0
 21
1.0
 12
210.0
 22
148.5
 13
0.0
 23
0.0
 14
10.0
 24
10.0
 15
10.0
 25
10.0
 16
0.0
 26
0.0
 36
1.0
 17
0.0
 27
0.0
 37
0.0
 40
341.0
 41
1.24
 42
50.0
 43
0.0
 44
0.0
 50
0.0
 51
0.0
 71
     0
 72
   100
 73
     1
 74
     3
 75
     0
 76
     0
 77
     0
 78
     0
  0
ENDTAB
  0
TABLE
  2
LTYPE
  5
5
330
0
100
AcDbSymbolTable
 70
     1
  0
LTYPE
  5
14
330
5
100
AcDbSymbolTableRecord
100
AcDbLinetypeTableRecord
  2
BYBLOCK
 70
     0
  3

 72
    65
 73
     0
 40
0.0
  0
LTYPE
  5
15
330
5
100
AcDbSymbolTableRecord
100
AcDbLinetypeTableRecord
  2
BYLAYER
 70
     0
  3

 72
    65
 73
     0
 40
0.0
  0
LTYPE
  5
16
330
5
100
AcDbSymbolTableRecord
100
AcDbLinetypeTableRecord
  2
CONTINUOUS
 70
     0
  3
Solid line
 72
    65
 73
     0
 40
0.0
  0
ENDTAB
  0
TABLE
  2
LAYER
  5
2
100
AcDbSymbolTable
 70
1
  0
LAYER
  5
50
100
AcDbSymbolTableRecord
100
AcDbLayerTableRecord
  2
0
 70
0
  6
CONTINUOUS
  0
ENDTAB
  0
TABLE
  2
STYLE
  5
3
330
0
100
AcDbSymbolTable
 70
     1
  0
STYLE
  5
11
330
3
100
AcDbSymbolTableRecord
100
AcDbTextStyleTableRecord
  2
STANDARD
 70
     0
 40
0.0
 41
1.0
 50
0.0
 71
     0
 42
2.5
  3
txt
  4

  0
ENDTAB
  0
TABLE
  2
VIEW
  5
6
330
0
100
AcDbSymbolTable
 70
     0
  0
ENDTAB
  0
TABLE
  2
UCS
  5
7
330
0
100
AcDbSymbolTable
 70
     0
  0
ENDTAB
  0
TABLE
  2
APPID
  5
9
330
0
100
AcDbSymbolTable
 70
     2
  0
APPID
  5
12
330
9
100
AcDbSymbolTableRecord
100
AcDbRegAppTableRecord
  2
ACAD
 70
     0
  0
ENDTAB
  0
TABLE
  2
DIMSTYLE
  5
A
330
0
100
AcDbSymbolTable
 70
     1
  0
DIMSTYLE
105
27
330
A
100
AcDbSymbolTableRecord
100
AcDbDimStyleTableRecord
  2
ISO-25
 70
     0
  3

  4

  5

  6

  7

 40
1.0
 41
2.5
 42
0.625
 43
3.75
 44
1.25
 45
0.0
 46
0.0
 47
0.0
 48
0.0
140
2.5
141
2.5
142
0.0
143
0.03937007874016
144
1.0
145
0.0
146
1.0
147
0.625
 71
     0
 72
     0
 73
     0
 74
     0
 75
     0
 76
     0
 77
     1
 78
     8
170
     0
171
     3
172
     1
173
     0
174
     0
175
     0
176
     0
177
     0
178
     0
270
     2
271
     2
272
     2
273
     2
274
     3
340
11
275
     0
280
     0
281
     0
282
     0
283
     0
284
     8
285
     0
286
     0
287
     3
288
     0
  0
ENDTAB
  0
TABLE
  2
BLOCK_RECORD
  5
1
330
0
100
AcDbSymbolTable
 70
     1
  0
BLOCK_RECORD
  5
1F
330
1
100
AcDbSymbolTableRecord
100
AcDbBlockTableRecord
  2
*MODEL_SPACE
  0
BLOCK_RECORD
  5
1B
330
1
100
AcDbSymbolTableRecord
100
AcDbBlockTableRecord
  2
*PAPER_SPACE
  0
ENDTAB
  0
ENDSEC
  0
SECTION
  2
BLOCKS
  0
BLOCK
  5
20
330
1F
100
AcDbEntity
  8
0
100
AcDbBlockBegin
  2
*MODEL_SPACE
 70
     0
 10
0.0
 20
0.0
 30
0.0
  3
*MODEL_SPACE
  1

  0
ENDBLK
  5
21
330
1F
100
AcDbEntity
  8
0
100
AcDbBlockEnd
  0
BLOCK
  5
1C
330
1B
100
AcDbEntity
 67
     1
  8
0
100
AcDbBlockBegin
  2
*PAPER_SPACE
  1

  0
ENDBLK
  5
1D
330
1B
100
AcDbEntity
 67
     1
  8
0
100
AcDbBlockEnd
  0
ENDSEC
  0
SECTION
  2
ENTITIES
  0
LWPOLYLINE
  5
100
100
AcDbEntity
  8
0
 62
7
100
AcDbPolyline
 90
23
 70
0
 10
-136.392908
 20
-3.882559
 30
0.0
 10
-132.021771
 20
-3.882559
 30
0.0
 10
-132.021771
 20
-4.819625
 30
0.0
 10
-135.373160
 20
-4.819625
 30
0.0
 10
-135.373160
 20
-6.837073
 30
0.0
 10
-134.888091
 20
-6.715805
 30
0.0
 10
-134.403021
 20
-6.671708
 30
0.0
 10
-132.220210
 20
-7.426873
 30
0.0
 10
-131.415434
 20
-9.471883
 30
0.0
 10
-132.242257
 20
-11.538941
 30
0.0
 10
-134.573898
 20
-12.272055
 30
0.0
 10
-135.632232
 20
-12.183861
 30
0.0
 10
-136.740174
 20
-11.919277
 30
0.0
 10
-136.740174
 20
-10.800311
 30
0.0
 10
-135.714914
 20
-11.202698
 30
0.0
 10
-134.595948
 20
-11.334990
 30
0.0
 10
-133.085616
 20
-10.833385
 30
0.0
 10
-132.528891
 20
-9.471883
 30
0.0
 10
-133.085616
 20
-8.110381
 30
0.0
 10
-134.595948
 20
-7.608776
 30
0.0
 10
-135.488917
 20
-7.707994
 30
0.0
 10
-136.392908
 20
-8.016675
 30
0.0
 10
-136.392908
 20
-3.882559
 30
0.0
  0
LWPOLYLINE
  5
101
100
AcDbEntity
  8
0
 62
7
100
AcDbPolyline
 90
4
 70
0
 10
-104.593299
 20
-4.852698
 30
0.0
 10
-107.404498
 20
-9.245885
 30
0.0
 10
-104.593299
 20
-9.245885
 30
0.0
 10
-104.593299
 20
-4.852698
 30
0.0
  0
LWPOLYLINE
  5
102
100
AcDbEntity
  8
0
 62
7
100
AcDbPolyline
 90
12
 70
0
 10
-104.885444
 20
-3.882559
 30
0.0
 10
-103.485357
 20
-3.882559
 30
0.0
 10
-103.485357
 20
-9.245885
 30
0.0
 10
-102.311267
 20
-9.245885
 30
0.0
 10
-102.311267
 20
-10.171927
 30
0.0
 10
-103.485357
 20
-10.171927
 30
0.0
 10
-103.485357
 20
-12.112204
 30
0.0
 10
-104.593299
 20
-12.112204
 30
0.0
 10
-104.593299
 20
-10.171927
 30
0.0
 10
-108.308489
 20
-10.171927
 30
0.0
 10
-108.308489
 20
-9.097055
 30
0.0
 10
-104.885444
 20
-3.882559
 30
0.0
  0
LWPOLYLINE
  5
103
100
AcDbEntity
  8
0
 62
7
100
AcDbPolyline
 90
30
 70
0
 10
-75.527718
 20
-7.674920
 30
0.0
 10
-74.281972
 20
-8.385988
 30
0.0
 10
-73.829976
 20
-9.719928
 30
0.0
 10
-74.667823
 20
-11.605085
 30
0.0
 10
-77.049073
 20
-12.272055
 30
0.0
 10
-78.118430
 20
-12.167325
 30
0.0
 10
-79.248420
 20
-11.864157
 30
0.0
 10
-79.248420
 20
-10.789288
 30
0.0
 10
-78.234184
 20
-11.197186
 30
0.0
 10
-77.082144
 20
-11.334990
 30
0.0
 10
-75.489132
 20
-10.921579
 30
0.0
 10
-74.937919
 20
-9.719928
 30
0.0
 10
-75.450547
 20
-8.584427
 30
0.0
 10
-76.867170
 20
-8.171013
 30
0.0
 10
-77.826285
 20
-8.171013
 30
0.0
 10
-77.826285
 20
-7.255998
 30
0.0
 10
-76.823073
 20
-7.255998
 30
0.0
 10
-75.566303
 20
-6.930779
 30
0.0
 10
-75.130843
 20
-5.982691
 30
0.0
 10
-75.582839
 20
-5.012552
 30
0.0
 10
-76.867170
 20
-4.670798
 30
0.0
 10
-77.848335
 20
-4.770016
 30
0.0
 10
-79.000375
 20
-5.078696
 30
0.0
 10
-79.000375
 20
-4.086510
 30
0.0
 10
-77.815262
 20
-3.821927
 30
0.0
 10
-76.767952
 20
-3.733732
 30
0.0
 10
-74.761530
 20
-4.312508
 30
0.0
 10
-74.022901
 20
-5.866934
 30
0.0
 10
-74.414264
 20
-7.024486
 30
0.0
 10
-75.527718
 20
-7.674920
 30
0.0
  0
LWPOLYLINE
  5
104
100
AcDbEntity
  8
0
 62
7
100
AcDbPolyline
 90
22
 70
0
 10
-52.784575
 20
-11.175136
 30
0.0
 10
-48.898507
 20
-11.175136
 30
0.0
 10
-48.898507
 20
-12.112204
 30
0.0
 10
-54.124030
 20
-12.112204
 30
0.0
 10
-54.124030
 20
-11.175136
 30
0.0
 10
-52.398726
 20
-9.416762
 30
0.0
 10
-51.020686
 20
-7.989113
 30
0.0
 10
-50.276545
 20
-6.974877
 30
0.0
 10
-50.061573
 20
-6.153568
 30
0.0
 10
-50.524593
 20
-5.084208
 30
0.0
 10
-51.720730
 20
-4.670798
 30
0.0
 10
-52.828672
 20
-4.852698
 30
0.0
 10
-54.068906
 20
-5.403915
 30
0.0
 10
-54.068906
 20
-4.279434
 30
0.0
 10
-52.812137
 20
-3.871536
 30
0.0
 10
-51.742780
 20
-3.733732
 30
0.0
 10
-49.703281
 20
-4.373141
 30
0.0
 10
-48.942605
 20
-6.081909
 30
0.0
 10
-49.135532
 20
-7.046536
 30
0.0
 10
-49.824549
 20
-8.115893
 30
0.0
 10
-50.700982
 20
-9.041934
 30
0.0
 10
-52.784575
 20
-11.175136
 30
0.0
  0
LWPOLYLINE
  5
105
100
AcDbEntity
  8
0
 62
7
100
AcDbPolyline
 90
12
 70
0
 10
-24.799377
 20
-11.175136
 30
0.0
 10
-22.980366
 20
-11.175136
 30
0.0
 10
-22.980366
 20
-4.896795
 30
0.0
 10
-24.959228
 20
-5.293670
 30
0.0
 10
-24.959228
 20
-4.279434
 30
0.0
 10
-22.991390
 20
-3.882559
 30
0.0
 10
-21.877935
 20
-3.882559
 30
0.0
 10
-21.877935
 20
-11.175136
 30
0.0
 10
-20.058925
 20
-11.175136
 30
0.0
 10
-20.058925
 20
-12.112204
 30
0.0
 10
-24.799377
 20
-12.112204
 30
0.0
 10
-24.799377
 20
-11.175136
 30
0.0
  0
LWPOLYLINE
  5
106
100
AcDbEntity
  8
0
 62
7
100
AcDbPolyline
 90
9
 70
0
 10
-4.641433
 20
-4.615677
 30
0.0
 10
-5.936789
 20
-5.464548
 30
0.0
 10
-6.366737
 20
-8.005651
 30
0.0
 10
-5.936789
 20
-10.546752
 30
0.0
 10
-4.641433
 20
-11.390111
 30
0.0
 10
-3.346077
 20
-10.546752
 30
0.0
 10
-2.910618
 20
-8.005651
 30
0.0
 10
-3.346077
 20
-5.464548
 30
0.0
 10
-4.641433
 20
-4.615677
 30
0.0
  0
LWPOLYLINE
  5
107
100
AcDbEntity
  8
0
 62
7
100
AcDbPolyline
 90
9
 70
0
 10
-4.641433
 20
-3.733732
 30
0.0
 10
-2.530279
 20
-4.830651
 30
0.0
 10
-1.797163
 20
-8.005651
 30
0.0
 10
-2.530279
 20
-11.180651
 30
0.0
 10
-4.641433
 20
-12.272055
 30
0.0
 10
-6.758100
 20
-11.180651
 30
0.0
 10
-7.485704
 20
-8.005651
 30
0.0
 10
-6.758100
 20
-4.830651
 30
0.0
 10
-4.641433
 20
-3.733732
 30
0.0
  0
LWPOLYLINE
  5
108
100
AcDbEntity
  8
0
 62
7
100
AcDbPolyline
 90
12
 70
0
 10
-6.931380
 20
-23.636352
 30
0.0
 10
-5.112369
 20
-23.636352
 30
0.0
 10
-5.112369
 20
-17.358012
 30
0.0
 10
-7.091232
 20
-17.754887
 30
0.0
 10
-7.091232
 20
-16.740650
 30
0.0
 10
-5.123394
 20
-16.343775
 30
0.0
 10
-4.009939
 20
-16.343775
 30
0.0
 10
-4.009939
 20
-23.636352
 30
0.0
 10
-2.190928
 20
-23.636352
 30
0.0
 10
-2.190928
 20
-24.573421
 30
0.0
 10
-6.931380
 20
-24.573421
 30
0.0
 10
-6.931380
 20
-23.636352
 30
0.0
  0
LWPOLYLINE
  5
109
100
AcDbEntity
  8
0
 62
7
100
AcDbPolyline
 90
22
 70
0
 10
-6.165190
 20
-51.001545
 30
0.0
 10
-2.279123
 20
-51.001545
 30
0.0
 10
-2.279123
 20
-51.938613
 30
0.0
 10
-7.504644
 20
-51.938613
 30
0.0
 10
-7.504644
 20
-51.001545
 30
0.0
 10
-5.779340
 20
-49.243171
 30
0.0
 10
-4.401302
 20
-47.815521
 30
0.0
 10
-3.657161
 20
-46.801285
 30
0.0
 10
-3.442187
 20
-45.979976
 30
0.0
 10
-3.905208
 20
-44.910616
 30
0.0
 10
-5.101345
 20
-44.497206
 30
0.0
 10
-6.209288
 20
-44.679107
 30
0.0
 10
-7.449522
 20
-45.230323
 30
0.0
 10
-7.449522
 20
-44.105843
 30
0.0
 10
-6.192751
 20
-43.697944
 30
0.0
 10
-5.123394
 20
-43.560141
 30
0.0
 10
-3.083897
 20
-44.199549
 30
0.0
 10
-2.323220
 20
-45.908317
 30
0.0
 10
-2.516145
 20
-46.872944
 30
0.0
 10
-3.205164
 20
-47.942301
 30
0.0
 10
-4.081597
 20
-48.868343
 30
0.0
 10
-6.165190
 20
-51.001545
 30
0.0
  0
LWPOLYLINE
  5
10a
100
AcDbEntity
  8
0
 62
7
100
AcDbPolyline
 90
30
 70
0
 10
-3.750867
 20
-77.918546
 30
0.0
 10
-2.505121
 20
-78.629613
 30
0.0
 10
-2.053124
 20
-79.963553
 30
0.0
 10
-2.890972
 20
-81.848710
 30
0.0
 10
-5.272222
 20
-82.515680
 30
0.0
 10
-6.341579
 20
-82.410951
 30
0.0
 10
-7.471571
 20
-82.107782
 30
0.0
 10
-7.471571
 20
-81.032913
 30
0.0
 10
-6.457334
 20
-81.440812
 30
0.0
 10
-5.305295
 20
-81.578615
 30
0.0
 10
-3.712283
 20
-81.165205
 30
0.0
 10
-3.161067
 20
-79.963553
 30
0.0
 10
-3.673697
 20
-78.828052
 30
0.0
 10
-5.090321
 20
-78.414639
 30
0.0
 10
-6.049435
 20
-78.414639
 30
0.0
 10
-6.049435
 20
-77.499624
 30
0.0
 10
-5.046223
 20
-77.499624
 30
0.0
 10
-3.789453
 20
-77.174405
 30
0.0
 10
-3.353992
 20
-76.226316
 30
0.0
 10
-3.805989
 20
-75.256177
 30
0.0
 10
-5.090321
 20
-74.914423
 30
0.0
 10
-6.071484
 20
-75.013641
 30
0.0
 10
-7.223524
 20
-75.322321
 30
0.0
 10
-7.223524
 20
-74.330135
 30
0.0
 10
-6.038411
 20
-74.065552
 30
0.0
 10
-4.991102
 20
-73.977358
 30
0.0
 10
-2.984678
 20
-74.556133
 30
0.0
 10
-2.246050
 20
-76.110560
 30
0.0
 10
-2.637413
 20
-77.268111
 30
0.0
 10
-3.750867
 20
-77.918546
 30
0.0
  0
LWPOLYLINE
  5
10b
100
AcDbEntity
  8
0
 62
7
100
AcDbPolyline
 90
4
 70
0
 10
-4.065060
 20
-102.252440
 30
0.0
 10
-6.876258
 20
-106.645627
 30
0.0
 10
-4.065060
 20
-106.645627
 30
0.0
 10
-4.065060
 20
-102.252440
 30
0.0
  0
LWPOLYLINE
  5
10c
100
AcDbEntity
  8
0
 62
7
100
AcDbPolyline
 90
12
 70
0
 10
-4.357204
 20
-101.282301
 30
0.0
 10
-2.957117
 20
-101.282301
 30
0.0
 10
-2.957117
 20
-106.645627
 30
0.0
 10
-1.783029
 20
-106.645627
 30
0.0
 10
-1.783029
 20
-107.571668
 30
0.0
 10
-2.957117
 20
-107.571668
 30
0.0
 10
-2.957117
 20
-109.511946
 30
0.0
 10
-4.065060
 20
-109.511946
 30
0.0
 10
-4.065060
 20
-107.571668
 30
0.0
 10
-7.780251
 20
-107.571668
 30
0.0
 10
-7.780251
 20
-106.496797
 30
0.0
 10
-4.357204
 20
-101.282301
 30
0.0
  0
LWPOLYLINE
  5
10d
100
AcDbEntity
  8
0
 62
7
100
AcDbPolyline
 90
23
 70
0
 10
-7.113281
 20
-127.811201
 30
0.0
 10
-2.742144
 20
-127.811201
 30
0.0
 10
-2.742144
 20
-128.748264
 30
0.0
 10
-6.093533
 20
-128.748264
 30
0.0
 10
-6.093533
 20
-130.765701
 30
0.0
 10
-5.608463
 20
-130.644430
 30
0.0
 10
-5.123394
 20
-130.600347
 30
0.0
 10
-2.940581
 20
-131.355517
 30
0.0
 10
-2.135807
 20
-133.400500
 30
0.0
 10
-2.962630
 20
-135.467580
 30
0.0
 10
-5.294270
 20
-136.200680
 30
0.0
 10
-6.352604
 20
-136.112486
 30
0.0
 10
-7.460546
 20
-135.847902
 30
0.0
 10
-7.460546
 20
-134.728948
 30
0.0
 10
-6.435286
 20
-135.131340
 30
0.0
 10
-5.316319
 20
-135.263618
 30
0.0
 10
-3.805989
 20
-134.762024
 30
0.0
 10
-3.249262
 20
-133.400500
 30
0.0
 10
-3.805989
 20
-132.039003
 30
0.0
 10
-5.316319
 20
-131.537410
 30
0.0
 10
-6.209288
 20
-131.636611
 30
0.0
 10
-7.113281
 20
-131.945305
 30
0.0
 10
-7.113281
 20
-127.811201
 30
0.0
  0
ENDSEC
  0
SECTION
  2
OBJECTS
  0
DICTIONARY
  5
C
330
0
100
AcDbDictionary
  3
ACAD_GROUP
350
D
  3
ACAD_MLINESTYLE
350
17
  0
DICTIONARY
  5
D
330
C
100
AcDbDictionary
  0
DICTIONARY
  5
1A
330
C
100
AcDbDictionary
  0
DICTIONARY
  5
17
330
C
100
AcDbDictionary
  3
STANDARD
350
18
  0
DICTIONARY
  5
19
330
C
100
AcDbDictionary
  0
ENDSEC
  0
EOF
