<?xml version="1.0" encoding="UTF-8" standalone="no"?>
<!-- Created with Inkscape (http://www.inkscape.org/) -->

<svg
   xmlns:dc="http://purl.org/dc/elements/1.1/"
   xmlns:cc="http://creativecommons.org/ns#"
   xmlns:rdf="http://www.w3.org/1999/02/22-rdf-syntax-ns#"
   xmlns:svg="http://www.w3.org/2000/svg"
   xmlns="http://www.w3.org/2000/svg"
   version="1.1"
   width="533.48999"
   height="533.48999"
   id="svg4059">
  <desc
     id="desc4061">Veusz output document</desc>
  <metadata
     id="metadata4087">
    <rdf:RDF>
      <cc:Work
         rdf:about="">
        <dc:format>image/svg+xml</dc:format>
        <dc:type
           rdf:resource="http://purl.org/dc/dcmitype/StillImage" />
        <dc:title></dc:title>
      </cc:Work>
    </rdf:RDF>
  </metadata>
  <defs
     id="defs4077">
    <clipPath
       id="c0">
      <path
         d="m 0,0 533.49,0 0,533.49 L 0,533.49 0,0"
         id="path4080" />
    </clipPath>
    <clipPath
       id="c1">
      <path
         d="m 60.46,7.11 465.91,0 0,465.91 -465.91,0 0,-465.91"
         id="path4083" />
    </clipPath>
  </defs>
  <g
     transform="translate(143.09375,9.3075238)"
     id="flowRoot4135"
     style="font-size:40px;font-style:normal;font-weight:normal;line-height:125%;letter-spacing:0px;word-spacing:0px;fill:#000000;fill-opacity:1;stroke:none;font-family:Sans" />
  <g
     transform="translate(243.09375,9.3075238)"
     id="flowRoot4145"
     style="font-size:40px;font-style:normal;font-weight:normal;line-height:125%;letter-spacing:0px;word-spacing:0px;fill:#000000;fill-opacity:1;stroke:none;font-family:Sans" />
  <g
     transform="translate(343.09375,9.3075238)"
     id="flowRoot4153"
     style="font-size:40px;font-style:normal;font-weight:normal;line-height:125%;letter-spacing:0px;word-spacing:0px;fill:#000000;fill-opacity:1;stroke:none;font-family:Sans" />
  <g
     transform="translate(143.09375,-190.69248)"
     id="flowRoot4161"
     style="font-size:40px;font-style:normal;font-weight:normal;line-height:125%;letter-spacing:0px;word-spacing:0px;fill:#000000;fill-opacity:1;stroke:none;font-family:Sans" />
  <g
     transform="translate(153.73471,178.09301)"
     id="flowRoot3033"
     style="font-size:40px;font-style:normal;font-weight:normal;line-height:125%;letter-spacing:0px;word-spacing:0px;fill:#000000;fill-opacity:1;stroke:none;font-family:Sans">
    <path
       d="m -177.66016,364.55747 -4.58984,3.00781 -1.52344,9.00391 1.52344,9.0039 4.58984,2.98828 4.58985,-2.98828 1.54297,-9.0039 -1.54297,-9.00391 -4.58985,-3.00781 m 0,-3.125 7.48047,3.88672 2.59766,11.25 -2.59766,11.25 -7.48047,3.86718 -7.5,-3.86718 -2.57812,-11.25 2.57812,-11.25 7.5,-3.88672"
       id="path3098" />
    <path
       d="m -83.539062,387.79965 6.445312,0 0,-22.24609 -7.011719,1.40625 0,-3.59375 6.972657,-1.40625 3.945312,0 0,25.83984 6.445313,0 0,3.32032 -16.796875,0 0,-3.32032"
       id="path3100" />
    <path
       d="m 21.050781,387.79965 13.769531,0 0,3.32032 -18.515625,0 0,-3.32032 6.113282,-6.23046 4.882812,-5.0586 2.636719,-3.59375 0.761719,-2.91015 -1.640625,-3.78907 -4.238282,-1.46484 -3.925781,0.64453 -4.394531,1.95313 0,-3.98438 4.453125,-1.44531 3.789062,-0.48828 7.226563,2.26562 2.695312,6.05469 -0.683593,3.41797 -2.441407,3.78906 -3.105468,3.28125 -7.382813,7.55859"
       id="path3102" />
    <path
       d="m 131.48047,375.39731 4.41406,2.51953 1.60156,4.72656 -2.96875,6.67969 -8.4375,2.36328 -3.78906,-0.37109 -4.0039,-1.07422 0,-3.80859 3.59375,1.44531 4.08203,0.48828 5.64453,-1.46484 1.95312,-4.25782 -1.8164,-4.02343 -5.01953,-1.46485 -3.39844,0 0,-3.24218 3.55469,0 4.45312,-1.15235 1.54297,-3.35937 -1.60156,-3.4375 -4.55078,-1.21094 -3.47657,0.35156 -4.08203,1.09375 0,-3.51562 4.19922,-0.9375 3.71094,-0.3125 7.10937,2.05078 2.61719,5.50781 -1.38672,4.10156 -3.94531,2.30469"
       id="path3104" />
    <path
       d="m 232.24219,365.39731 -9.96094,15.56641 9.96094,0 0,-15.56641 m -1.03516,-3.4375 4.96094,0 0,19.00391 4.16015,0 0,3.28125 -4.16015,0 0,6.875 -3.92578,0 0,-6.875 -13.16407,0 0,-3.8086 12.12891,-18.47656"
       id="path3106" />
    <path
       d="m 323.31641,361.95981 15.48828,0 0,3.32031 -11.875,0 0,7.14844 1.71875,-0.42969 1.71875,-0.15625 7.73437,2.67578 2.85156,7.2461 -2.92968,7.32422 -8.26172,2.59765 -3.75,-0.3125 -3.92578,-0.9375 0,-3.96484 3.63281,1.42578 3.96484,0.46875 5.35157,-1.77734 1.97265,-4.82422 -1.97265,-4.82422 -5.35157,-1.77734 -3.16406,0.35156 -3.20312,1.09375 0,-14.64844"
       id="path3108" />
  </g>
  <g
     transform="matrix(1.0479111,0,0,1.014234,117.17953,1.5940819)"
     id="flowRoot3041"
     style="font-size:40px;font-style:normal;font-weight:normal;line-height:125%;letter-spacing:0px;word-spacing:0px;fill:#000000;fill-opacity:1;stroke:none;font-family:Sans">
    <path
       d="m -142.27734,41.24106 15.48828,0 0,3.320313 -11.875,0 0,7.148437 1.71875,-0.429687 1.71875,-0.15625 7.73437,2.675781 2.85156,7.246094 -2.92968,7.324218 -8.26172,2.597657 -3.75,-0.3125 -3.92578,-0.9375 0,-3.964844 3.63281,1.425781 3.96484,0.46875 5.35157,-1.777344 1.97265,-4.824218 -1.97265,-4.824219 -5.35157,-1.777344 -3.16406,0.351563 -3.20312,1.09375 0,-14.648438"
       id="path3087" />
    <path
       d="m -131.47656,144.67856 -9.96094,15.56641 9.96094,0 0,-15.56641 m -1.03516,-3.4375 4.96094,0 0,19.00391 4.16015,0 0,3.28125 -4.16015,0 0,6.875 -3.92578,0 0,-6.875 -13.16406,0 0,-3.8086 12.1289,-18.47656"
       id="path3089" />
    <path
       d="m -130.36328,254.67856 4.41406,2.51953 1.60156,4.72656 -2.96875,6.67969 -8.4375,2.36328 -3.78906,-0.37109 -4.0039,-1.07422 0,-3.80859 3.59375,1.44531 4.08203,0.48828 5.64453,-1.46484 1.95312,-4.25782 -1.8164,-4.02343 -5.01953,-1.46485 -3.39844,0 0,-3.24218 3.55469,0 4.45312,-1.15235 1.54297,-3.35937 -1.60156,-3.4375 -4.55078,-1.21094 -3.47657,0.35156 -4.08203,1.09375 0,-3.51562 4.19922,-0.9375 3.71094,-0.3125 7.10937,2.05078 2.61719,5.50781 -1.38672,4.10156 -3.94531,2.30469"
       id="path3091" />
    <path
       d="m -138.91797,367.0809 13.76953,0 0,3.32032 -18.51562,0 0,-3.32032 6.11328,-6.23046 4.88281,-5.0586 2.63672,-3.59375 0.76172,-2.91015 -1.64063,-3.78907 -4.23828,-1.46484 -3.92578,0.64453 -4.39453,1.95313 0,-3.98438 4.45313,-1.44531 3.78906,-0.48828 7.22656,2.26562 2.69531,6.05469 -0.68359,3.41797 -2.44141,3.78906 -3.10547,3.28125 -7.38281,7.55859"
       id="path3093" />
    <path
       d="m -141.63281,467.0809 6.44531,0 0,-22.24609 -7.01172,1.40625 0,-3.59375 6.97266,-1.40625 3.94531,0 0,25.83984 6.44531,0 0,3.32032 -16.79687,0 0,-3.32032"
       id="path3095" />
  </g>
</svg>
