999
DXF created by Inkscape
  0
SECTION
  2
HEADER
  9
$ACADVER
  1
AC1014
  9
$HANDSEED
  5
FFFF
  9
$MEASUREMENT
 70
     1
  0
ENDSEC
  0
SECTION
  2
TABLES
  0
TABLE
  2
VPORT
  5
8
330
0
100
AcDbSymbolTable
 70
     4
  0
VPORT
  5
2E
330
8
100
AcDbSymbolTableRecord
100
AcDbViewportTableRecord
  2
*ACTIVE
 70
     0
 10
0.0
 20
0.0
 11
1.0
 21
1.0
 12
210.0
 22
148.5
 13
0.0
 23
0.0
 14
10.0
 24
10.0
 15
10.0
 25
10.0
 16
0.0
 26
0.0
 36
1.0
 17
0.0
 27
0.0
 37
0.0
 40
341.0
 41
1.24
 42
50.0
 43
0.0
 44
0.0
 50
0.0
 51
0.0
 71
     0
 72
   100
 73
     1
 74
     3
 75
     0
 76
     0
 77
     0
 78
     0
  0
ENDTAB
  0
TABLE
  2
LTYPE
  5
5
330
0
100
AcDbSymbolTable
 70
     1
  0
LTYPE
  5
14
330
5
100
AcDbSymbolTableRecord
100
AcDbLinetypeTableRecord
  2
BYBLOCK
 70
     0
  3

 72
    65
 73
     0
 40
0.0
  0
LTYPE
  5
15
330
5
100
AcDbSymbolTableRecord
100
AcDbLinetypeTableRecord
  2
BYLAYER
 70
     0
  3

 72
    65
 73
     0
 40
0.0
  0
LTYPE
  5
16
330
5
100
AcDbSymbolTableRecord
100
AcDbLinetypeTableRecord
  2
CONTINUOUS
 70
     0
  3
Solid line
 72
    65
 73
     0
 40
0.0
  0
ENDTAB
  0
TABLE
  2
LAYER
  5
2
100
AcDbSymbolTable
 70
1
  0
LAYER
  5
50
100
AcDbSymbolTableRecord
100
AcDbLayerTableRecord
  2
0
 70
0
  6
CONTINUOUS
  0
ENDTAB
  0
TABLE
  2
STYLE
  5
3
330
0
100
AcDbSymbolTable
 70
     1
  0
STYLE
  5
11
330
3
100
AcDbSymbolTableRecord
100
AcDbTextStyleTableRecord
  2
STANDARD
 70
     0
 40
0.0
 41
1.0
 50
0.0
 71
     0
 42
2.5
  3
txt
  4

  0
ENDTAB
  0
TABLE
  2
VIEW
  5
6
330
0
100
AcDbSymbolTable
 70
     0
  0
ENDTAB
  0
TABLE
  2
UCS
  5
7
330
0
100
AcDbSymbolTable
 70
     0
  0
ENDTAB
  0
TABLE
  2
APPID
  5
9
330
0
100
AcDbSymbolTable
 70
     2
  0
APPID
  5
12
330
9
100
AcDbSymbolTableRecord
100
AcDbRegAppTableRecord
  2
ACAD
 70
     0
  0
ENDTAB
  0
TABLE
  2
DIMSTYLE
  5
A
330
0
100
AcDbSymbolTable
 70
     1
  0
DIMSTYLE
105
27
330
A
100
AcDbSymbolTableRecord
100
AcDbDimStyleTableRecord
  2
ISO-25
 70
     0
  3

  4

  5

  6

  7

 40
1.0
 41
2.5
 42
0.625
 43
3.75
 44
1.25
 45
0.0
 46
0.0
 47
0.0
 48
0.0
140
2.5
141
2.5
142
0.0
143
0.03937007874016
144
1.0
145
0.0
146
1.0
147
0.625
 71
     0
 72
     0
 73
     0
 74
     0
 75
     0
 76
     0
 77
     1
 78
     8
170
     0
171
     3
172
     1
173
     0
174
     0
175
     0
176
     0
177
     0
178
     0
270
     2
271
     2
272
     2
273
     2
274
     3
340
11
275
     0
280
     0
281
     0
282
     0
283
     0
284
     8
285
     0
286
     0
287
     3
288
     0
  0
ENDTAB
  0
TABLE
  2
BLOCK_RECORD
  5
1
330
0
100
AcDbSymbolTable
 70
     1
  0
BLOCK_RECORD
  5
1F
330
1
100
AcDbSymbolTableRecord
100
AcDbBlockTableRecord
  2
*MODEL_SPACE
  0
BLOCK_RECORD
  5
1B
330
1
100
AcDbSymbolTableRecord
100
AcDbBlockTableRecord
  2
*PAPER_SPACE
  0
ENDTAB
  0
ENDSEC
  0
SECTION
  2
BLOCKS
  0
BLOCK
  5
20
330
1F
100
AcDbEntity
  8
0
100
AcDbBlockBegin
  2
*MODEL_SPACE
 70
     0
 10
0.0
 20
0.0
 30
0.0
  3
*MODEL_SPACE
  1

  0
ENDBLK
  5
21
330
1F
100
AcDbEntity
  8
0
100
AcDbBlockEnd
  0
BLOCK
  5
1C
330
1B
100
AcDbEntity
 67
     1
  8
0
100
AcDbBlockBegin
  2
*PAPER_SPACE
  1

  0
ENDBLK
  5
1D
330
1B
100
AcDbEntity
 67
     1
  8
0
100
AcDbBlockEnd
  0
ENDSEC
  0
SECTION
  2
ENTITIES
  0
LWPOLYLINE
  5
100
100
AcDbEntity
  8
0
 62
7
100
AcDbPolyline
 90
9
 70
0
 10
-2.283470
 20
21.055992
 30
0.0
 10
-2.754568
 20
19.918659
 30
0.0
 10
-3.891901
 20
19.447560
 30
0.0
 10
-5.029235
 20
19.918659
 30
0.0
 10
-5.500333
 20
21.055992
 30
0.0
 10
-5.029235
 20
22.193325
 30
0.0
 10
-3.891901
 20
22.664424
 30
0.0
 10
-2.754568
 20
22.193325
 30
0.0
 10
-2.283470
 20
21.055992
 30
0.0
  0
LWPOLYLINE
  5
101
100
AcDbEntity
  8
0
 62
7
100
AcDbPolyline
 90
9
 70
0
 10
-2.283470
 20
44.263741
 30
0.0
 10
-2.754568
 20
43.126407
 30
0.0
 10
-3.891901
 20
42.655309
 30
0.0
 10
-5.029235
 20
43.126407
 30
0.0
 10
-5.500333
 20
44.263741
 30
0.0
 10
-5.029235
 20
45.401074
 30
0.0
 10
-3.891901
 20
45.872172
 30
0.0
 10
-2.754568
 20
45.401074
 30
0.0
 10
-2.283470
 20
44.263741
 30
0.0
  0
LWPOLYLINE
  5
102
100
AcDbEntity
  8
0
 62
7
100
AcDbPolyline
 90
9
 70
0
 10
-2.283470
 20
49.789338
 30
0.0
 10
-2.754568
 20
48.652005
 30
0.0
 10
-3.891901
 20
48.180907
 30
0.0
 10
-5.029235
 20
48.652005
 30
0.0
 10
-5.500333
 20
49.789338
 30
0.0
 10
-5.029235
 20
50.926672
 30
0.0
 10
-3.891901
 20
51.397770
 30
0.0
 10
-2.754568
 20
50.926672
 30
0.0
 10
-2.283470
 20
49.789338
 30
0.0
  0
LWPOLYLINE
  5
103
100
AcDbEntity
  8
0
 62
7
100
AcDbPolyline
 90
9
 70
0
 10
-8.035998
 20
77.373363
 30
0.0
 10
-8.507098
 20
78.510696
 30
0.0
 10
-9.644431
 20
78.981795
 30
0.0
 10
-10.781763
 20
78.510696
 30
0.0
 10
-11.252863
 20
77.373363
 30
0.0
 10
-10.781763
 20
76.236030
 30
0.0
 10
-9.644431
 20
75.764931
 30
0.0
 10
-8.507098
 20
76.236030
 30
0.0
 10
-8.035998
 20
77.373363
 30
0.0
  0
LWPOLYLINE
  5
104
100
AcDbEntity
  8
0
 62
7
100
AcDbPolyline
 90
9
 70
0
 10
-2.293693
 20
77.373363
 30
0.0
 10
-2.764793
 20
78.510696
 30
0.0
 10
-3.902126
 20
78.981795
 30
0.0
 10
-5.039458
 20
78.510696
 30
0.0
 10
-5.510558
 20
77.373363
 30
0.0
 10
-5.039458
 20
76.236030
 30
0.0
 10
-3.902126
 20
75.764931
 30
0.0
 10
-2.764793
 20
76.236030
 30
0.0
 10
-2.293693
 20
77.373363
 30
0.0
  0
LWPOLYLINE
  5
105
100
AcDbEntity
  8
0
 62
7
100
AcDbPolyline
 90
9
 70
0
 10
-8.084984
 20
105.241557
 30
0.0
 10
-8.556083
 20
106.378890
 30
0.0
 10
-9.693416
 20
106.849990
 30
0.0
 10
-10.830749
 20
106.378890
 30
0.0
 10
-11.301849
 20
105.241557
 30
0.0
 10
-10.830749
 20
104.104224
 30
0.0
 10
-9.693416
 20
103.633125
 30
0.0
 10
-8.556083
 20
104.104224
 30
0.0
 10
-8.084984
 20
105.241557
 30
0.0
  0
LWPOLYLINE
  5
106
100
AcDbEntity
  8
0
 62
7
100
AcDbPolyline
 90
9
 70
0
 10
-2.342678
 20
105.241557
 30
0.0
 10
-2.813778
 20
106.378890
 30
0.0
 10
-3.951111
 20
106.849990
 30
0.0
 10
-5.088444
 20
106.378890
 30
0.0
 10
-5.559544
 20
105.241557
 30
0.0
 10
-5.088444
 20
104.104224
 30
0.0
 10
-3.951111
 20
103.633125
 30
0.0
 10
-2.813778
 20
104.104224
 30
0.0
 10
-2.342678
 20
105.241557
 30
0.0
  0
LWPOLYLINE
  5
107
100
AcDbEntity
  8
0
 62
7
100
AcDbPolyline
 90
9
 70
0
 10
-2.342678
 20
99.715959
 30
0.0
 10
-2.813778
 20
100.853292
 30
0.0
 10
-3.951111
 20
101.324392
 30
0.0
 10
-5.088444
 20
100.853292
 30
0.0
 10
-5.559544
 20
99.715959
 30
0.0
 10
-5.088444
 20
98.578626
 30
0.0
 10
-3.951111
 20
98.107527
 30
0.0
 10
-2.813778
 20
98.578626
 30
0.0
 10
-2.342678
 20
99.715959
 30
0.0
  0
LWPOLYLINE
  5
108
100
AcDbEntity
  8
0
 62
7
100
AcDbPolyline
 90
9
 70
0
 10
-7.512095
 20
134.669125
 30
0.0
 10
-7.983195
 20
135.806458
 30
0.0
 10
-9.120528
 20
136.277558
 30
0.0
 10
-10.257861
 20
135.806458
 30
0.0
 10
-10.728960
 20
134.669125
 30
0.0
 10
-10.257861
 20
133.531792
 30
0.0
 10
-9.120528
 20
133.060693
 30
0.0
 10
-7.983195
 20
133.531792
 30
0.0
 10
-7.512095
 20
134.669125
 30
0.0
  0
LWPOLYLINE
  5
109
100
AcDbEntity
  8
0
 62
7
100
AcDbPolyline
 90
9
 70
0
 10
-1.205346
 20
129.143527
 30
0.0
 10
-1.676445
 20
130.280860
 30
0.0
 10
-2.813778
 20
130.751960
 30
0.0
 10
-3.951111
 20
130.280860
 30
0.0
 10
-4.422211
 20
129.143527
 30
0.0
 10
-3.951111
 20
128.006194
 30
0.0
 10
-2.813778
 20
127.535095
 30
0.0
 10
-1.676445
 20
128.006194
 30
0.0
 10
-1.205346
 20
129.143527
 30
0.0
  0
ENDSEC
  0
SECTION
  2
OBJECTS
  0
DICTIONARY
  5
C
330
0
100
AcDbDictionary
  3
ACAD_GROUP
350
D
  3
ACAD_MLINESTYLE
350
17
  0
DICTIONARY
  5
D
330
C
100
AcDbDictionary
  0
DICTIONARY
  5
1A
330
C
100
AcDbDictionary
  0
DICTIONARY
  5
17
330
C
100
AcDbDictionary
  3
STANDARD
350
18
  0
DICTIONARY
  5
19
330
C
100
AcDbDictionary
  0
ENDSEC
  0
EOF
