999
DXF created by Inkscape
  0
SECTION
  2
HEADER
  9
$ACADVER
  1
AC1014
  9
$HANDSEED
  5
FFFF
  9
$MEASUREMENT
 70
     1
  0
ENDSEC
  0
SECTION
  2
TABLES
  0
TABLE
  2
VPORT
  5
8
330
0
100
AcDbSymbolTable
 70
     4
  0
VPORT
  5
2E
330
8
100
AcDbSymbolTableRecord
100
AcDbViewportTableRecord
  2
*ACTIVE
 70
     0
 10
0.0
 20
0.0
 11
1.0
 21
1.0
 12
210.0
 22
148.5
 13
0.0
 23
0.0
 14
10.0
 24
10.0
 15
10.0
 25
10.0
 16
0.0
 26
0.0
 36
1.0
 17
0.0
 27
0.0
 37
0.0
 40
341.0
 41
1.24
 42
50.0
 43
0.0
 44
0.0
 50
0.0
 51
0.0
 71
     0
 72
   100
 73
     1
 74
     3
 75
     0
 76
     0
 77
     0
 78
     0
  0
ENDTAB
  0
TABLE
  2
LTYPE
  5
5
330
0
100
AcDbSymbolTable
 70
     1
  0
LTYPE
  5
14
330
5
100
AcDbSymbolTableRecord
100
AcDbLinetypeTableRecord
  2
BYBLOCK
 70
     0
  3

 72
    65
 73
     0
 40
0.0
  0
LTYPE
  5
15
330
5
100
AcDbSymbolTableRecord
100
AcDbLinetypeTableRecord
  2
BYLAYER
 70
     0
  3

 72
    65
 73
     0
 40
0.0
  0
LTYPE
  5
16
330
5
100
AcDbSymbolTableRecord
100
AcDbLinetypeTableRecord
  2
CONTINUOUS
 70
     0
  3
Solid line
 72
    65
 73
     0
 40
0.0
  0
ENDTAB
  0
TABLE
  2
LAYER
  5
2
100
AcDbSymbolTable
 70
1
  0
LAYER
  5
50
100
AcDbSymbolTableRecord
100
AcDbLayerTableRecord
  2
0
 70
0
  6
CONTINUOUS
  0
ENDTAB
  0
TABLE
  2
STYLE
  5
3
330
0
100
AcDbSymbolTable
 70
     1
  0
STYLE
  5
11
330
3
100
AcDbSymbolTableRecord
100
AcDbTextStyleTableRecord
  2
STANDARD
 70
     0
 40
0.0
 41
1.0
 50
0.0
 71
     0
 42
2.5
  3
txt
  4

  0
ENDTAB
  0
TABLE
  2
VIEW
  5
6
330
0
100
AcDbSymbolTable
 70
     0
  0
ENDTAB
  0
TABLE
  2
UCS
  5
7
330
0
100
AcDbSymbolTable
 70
     0
  0
ENDTAB
  0
TABLE
  2
APPID
  5
9
330
0
100
AcDbSymbolTable
 70
     2
  0
APPID
  5
12
330
9
100
AcDbSymbolTableRecord
100
AcDbRegAppTableRecord
  2
ACAD
 70
     0
  0
ENDTAB
  0
TABLE
  2
DIMSTYLE
  5
A
330
0
100
AcDbSymbolTable
 70
     1
  0
DIMSTYLE
105
27
330
A
100
AcDbSymbolTableRecord
100
AcDbDimStyleTableRecord
  2
ISO-25
 70
     0
  3

  4

  5

  6

  7

 40
1.0
 41
2.5
 42
0.625
 43
3.75
 44
1.25
 45
0.0
 46
0.0
 47
0.0
 48
0.0
140
2.5
141
2.5
142
0.0
143
0.03937007874016
144
1.0
145
0.0
146
1.0
147
0.625
 71
     0
 72
     0
 73
     0
 74
     0
 75
     0
 76
     0
 77
     1
 78
     8
170
     0
171
     3
172
     1
173
     0
174
     0
175
     0
176
     0
177
     0
178
     0
270
     2
271
     2
272
     2
273
     2
274
     3
340
11
275
     0
280
     0
281
     0
282
     0
283
     0
284
     8
285
     0
286
     0
287
     3
288
     0
  0
ENDTAB
  0
TABLE
  2
BLOCK_RECORD
  5
1
330
0
100
AcDbSymbolTable
 70
     1
  0
BLOCK_RECORD
  5
1F
330
1
100
AcDbSymbolTableRecord
100
AcDbBlockTableRecord
  2
*MODEL_SPACE
  0
BLOCK_RECORD
  5
1B
330
1
100
AcDbSymbolTableRecord
100
AcDbBlockTableRecord
  2
*PAPER_SPACE
  0
ENDTAB
  0
ENDSEC
  0
SECTION
  2
BLOCKS
  0
BLOCK
  5
20
330
1F
100
AcDbEntity
  8
0
100
AcDbBlockBegin
  2
*MODEL_SPACE
 70
     0
 10
0.0
 20
0.0
 30
0.0
  3
*MODEL_SPACE
  1

  0
ENDBLK
  5
21
330
1F
100
AcDbEntity
  8
0
100
AcDbBlockEnd
  0
BLOCK
  5
1C
330
1B
100
AcDbEntity
 67
     1
  8
0
100
AcDbBlockBegin
  2
*PAPER_SPACE
  1

  0
ENDBLK
  5
1D
330
1B
100
AcDbEntity
 67
     1
  8
0
100
AcDbBlockEnd
  0
ENDSEC
  0
SECTION
  2
ENTITIES
  0
LWPOLYLINE
  5
100
100
AcDbEntity
  8
0
 62
7
100
AcDbPolyline
 90
12
 70
0
 10
19.786021
 20
-11.307700
 30
0.0
 10
21.605032
 20
-11.307700
 30
0.0
 10
21.605032
 20
-5.029359
 30
0.0
 10
19.626169
 20
-5.426234
 30
0.0
 10
19.626169
 20
-4.411997
 30
0.0
 10
21.594008
 20
-4.015122
 30
0.0
 10
22.707463
 20
-4.015122
 30
0.0
 10
22.707463
 20
-11.307700
 30
0.0
 10
24.526473
 20
-11.307700
 30
0.0
 10
24.526473
 20
-12.244768
 30
0.0
 10
19.786021
 20
-12.244768
 30
0.0
 10
19.786021
 20
-11.307700
 30
0.0
  0
LWPOLYLINE
  5
101
100
AcDbEntity
  8
0
 62
7
100
AcDbPolyline
 90
22
 70
0
 10
49.303599
 20
-11.307700
 30
0.0
 10
53.189667
 20
-11.307700
 30
0.0
 10
53.189667
 20
-12.244768
 30
0.0
 10
47.964147
 20
-12.244768
 30
0.0
 10
47.964147
 20
-11.307700
 30
0.0
 10
49.689451
 20
-9.549325
 30
0.0
 10
51.067488
 20
-8.121676
 30
0.0
 10
51.811629
 20
-7.107440
 30
0.0
 10
52.026604
 20
-6.286131
 30
0.0
 10
51.563581
 20
-5.216771
 30
0.0
 10
50.367444
 20
-4.803361
 30
0.0
 10
49.259502
 20
-4.985261
 30
0.0
 10
48.019268
 20
-5.536478
 30
0.0
 10
48.019268
 20
-4.411997
 30
0.0
 10
49.276038
 20
-4.004099
 30
0.0
 10
50.345397
 20
-3.866295
 30
0.0
 10
52.384893
 20
-4.505704
 30
0.0
 10
53.145569
 20
-6.214472
 30
0.0
 10
52.952645
 20
-7.179099
 30
0.0
 10
52.263625
 20
-8.248456
 30
0.0
 10
51.387192
 20
-9.174497
 30
0.0
 10
49.303599
 20
-11.307700
 30
0.0
  0
LWPOLYLINE
  5
102
100
AcDbEntity
  8
0
 62
7
100
AcDbPolyline
 90
30
 70
0
 10
80.469312
 20
-7.807484
 30
0.0
 10
81.715058
 20
-8.518551
 30
0.0
 10
82.167054
 20
-9.852491
 30
0.0
 10
81.329206
 20
-11.737648
 30
0.0
 10
78.947956
 20
-12.404618
 30
0.0
 10
77.878599
 20
-12.299888
 30
0.0
 10
76.748607
 20
-11.996720
 30
0.0
 10
76.748607
 20
-10.921851
 30
0.0
 10
77.762843
 20
-11.329750
 30
0.0
 10
78.914885
 20
-11.467553
 30
0.0
 10
80.507897
 20
-11.054143
 30
0.0
 10
81.059111
 20
-9.852491
 30
0.0
 10
80.546483
 20
-8.716990
 30
0.0
 10
79.129857
 20
-8.303577
 30
0.0
 10
78.170745
 20
-8.303577
 30
0.0
 10
78.170745
 20
-7.388561
 30
0.0
 10
79.173954
 20
-7.388561
 30
0.0
 10
80.430726
 20
-7.063343
 30
0.0
 10
80.866187
 20
-6.115254
 30
0.0
 10
80.414191
 20
-5.145115
 30
0.0
 10
79.129857
 20
-4.803361
 30
0.0
 10
78.148694
 20
-4.902579
 30
0.0
 10
76.996655
 20
-5.211259
 30
0.0
 10
76.996655
 20
-4.219073
 30
0.0
 10
78.181768
 20
-3.954490
 30
0.0
 10
79.229078
 20
-3.866295
 30
0.0
 10
81.235500
 20
-4.445071
 30
0.0
 10
81.974129
 20
-5.999497
 30
0.0
 10
81.582766
 20
-7.157049
 30
0.0
 10
80.469312
 20
-7.807484
 30
0.0
  0
LWPOLYLINE
  5
103
100
AcDbEntity
  8
0
 62
7
100
AcDbPolyline
 90
4
 70
0
 10
108.906508
 20
-4.985261
 30
0.0
 10
106.095310
 20
-9.378448
 30
0.0
 10
108.906508
 20
-9.378448
 30
0.0
 10
108.906508
 20
-4.985261
 30
0.0
  0
LWPOLYLINE
  5
104
100
AcDbEntity
  8
0
 62
7
100
AcDbPolyline
 90
12
 70
0
 10
108.614363
 20
-4.015122
 30
0.0
 10
110.014451
 20
-4.015122
 30
0.0
 10
110.014451
 20
-9.378448
 30
0.0
 10
111.188538
 20
-9.378448
 30
0.0
 10
111.188538
 20
-10.304490
 30
0.0
 10
110.014451
 20
-10.304490
 30
0.0
 10
110.014451
 20
-12.244768
 30
0.0
 10
108.906508
 20
-12.244768
 30
0.0
 10
108.906508
 20
-10.304490
 30
0.0
 10
105.191315
 20
-10.304490
 30
0.0
 10
105.191315
 20
-9.229618
 30
0.0
 10
108.614363
 20
-4.015122
 30
0.0
  0
LWPOLYLINE
  5
105
100
AcDbEntity
  8
0
 62
7
100
AcDbPolyline
 90
23
 70
0
 10
134.609677
 20
-4.015122
 30
0.0
 10
138.980814
 20
-4.015122
 30
0.0
 10
138.980814
 20
-4.952188
 30
0.0
 10
135.629425
 20
-4.952188
 30
0.0
 10
135.629425
 20
-6.969636
 30
0.0
 10
136.114495
 20
-6.848368
 30
0.0
 10
136.599564
 20
-6.804271
 30
0.0
 10
138.782375
 20
-7.559436
 30
0.0
 10
139.587149
 20
-9.604446
 30
0.0
 10
138.760328
 20
-11.671504
 30
0.0
 10
136.428687
 20
-12.404618
 30
0.0
 10
135.370354
 20
-12.316424
 30
0.0
 10
134.262411
 20
-12.051841
 30
0.0
 10
134.262411
 20
-10.932875
 30
0.0
 10
135.287671
 20
-11.335261
 30
0.0
 10
136.406637
 20
-11.467553
 30
0.0
 10
137.916969
 20
-10.965948
 30
0.0
 10
138.473694
 20
-9.604446
 30
0.0
 10
137.916969
 20
-8.242944
 30
0.0
 10
136.406637
 20
-7.741339
 30
0.0
 10
135.513669
 20
-7.840557
 30
0.0
 10
134.609677
 20
-8.149238
 30
0.0
 10
134.609677
 20
-4.015122
 30
0.0
  0
ENDSEC
  0
SECTION
  2
OBJECTS
  0
DICTIONARY
  5
C
330
0
100
AcDbDictionary
  3
ACAD_GROUP
350
D
  3
ACAD_MLINESTYLE
350
17
  0
DICTIONARY
  5
D
330
C
100
AcDbDictionary
  0
DICTIONARY
  5
1A
330
C
100
AcDbDictionary
  0
DICTIONARY
  5
17
330
C
100
AcDbDictionary
  3
STANDARD
350
18
  0
DICTIONARY
  5
19
330
C
100
AcDbDictionary
  0
ENDSEC
  0
EOF
