999
DXF created by Inkscape
  0
SECTION
  2
HEADER
  9
$ACADVER
  1
AC1014
  9
$HANDSEED
  5
FFFF
  9
$MEASUREMENT
 70
     1
  0
ENDSEC
  0
SECTION
  2
TABLES
  0
TABLE
  2
VPORT
  5
8
330
0
100
AcDbSymbolTable
 70
     4
  0
VPORT
  5
2E
330
8
100
AcDbSymbolTableRecord
100
AcDbViewportTableRecord
  2
*ACTIVE
 70
     0
 10
0.0
 20
0.0
 11
1.0
 21
1.0
 12
210.0
 22
148.5
 13
0.0
 23
0.0
 14
10.0
 24
10.0
 15
10.0
 25
10.0
 16
0.0
 26
0.0
 36
1.0
 17
0.0
 27
0.0
 37
0.0
 40
341.0
 41
1.24
 42
50.0
 43
0.0
 44
0.0
 50
0.0
 51
0.0
 71
     0
 72
   100
 73
     1
 74
     3
 75
     0
 76
     0
 77
     0
 78
     0
  0
ENDTAB
  0
TABLE
  2
LTYPE
  5
5
330
0
100
AcDbSymbolTable
 70
     1
  0
LTYPE
  5
14
330
5
100
AcDbSymbolTableRecord
100
AcDbLinetypeTableRecord
  2
BYBLOCK
 70
     0
  3

 72
    65
 73
     0
 40
0.0
  0
LTYPE
  5
15
330
5
100
AcDbSymbolTableRecord
100
AcDbLinetypeTableRecord
  2
BYLAYER
 70
     0
  3

 72
    65
 73
     0
 40
0.0
  0
LTYPE
  5
16
330
5
100
AcDbSymbolTableRecord
100
AcDbLinetypeTableRecord
  2
CONTINUOUS
 70
     0
  3
Solid line
 72
    65
 73
     0
 40
0.0
  0
ENDTAB
  0
TABLE
  2
LAYER
  5
2
100
AcDbSymbolTable
 70
1
  0
LAYER
  5
50
100
AcDbSymbolTableRecord
100
AcDbLayerTableRecord
  2
0
 70
0
  6
CONTINUOUS
  0
ENDTAB
  0
TABLE
  2
STYLE
  5
3
330
0
100
AcDbSymbolTable
 70
     1
  0
STYLE
  5
11
330
3
100
AcDbSymbolTableRecord
100
AcDbTextStyleTableRecord
  2
STANDARD
 70
     0
 40
0.0
 41
1.0
 50
0.0
 71
     0
 42
2.5
  3
txt
  4

  0
ENDTAB
  0
TABLE
  2
VIEW
  5
6
330
0
100
AcDbSymbolTable
 70
     0
  0
ENDTAB
  0
TABLE
  2
UCS
  5
7
330
0
100
AcDbSymbolTable
 70
     0
  0
ENDTAB
  0
TABLE
  2
APPID
  5
9
330
0
100
AcDbSymbolTable
 70
     2
  0
APPID
  5
12
330
9
100
AcDbSymbolTableRecord
100
AcDbRegAppTableRecord
  2
ACAD
 70
     0
  0
ENDTAB
  0
TABLE
  2
DIMSTYLE
  5
A
330
0
100
AcDbSymbolTable
 70
     1
  0
DIMSTYLE
105
27
330
A
100
AcDbSymbolTableRecord
100
AcDbDimStyleTableRecord
  2
ISO-25
 70
     0
  3

  4

  5

  6

  7

 40
1.0
 41
2.5
 42
0.625
 43
3.75
 44
1.25
 45
0.0
 46
0.0
 47
0.0
 48
0.0
140
2.5
141
2.5
142
0.0
143
0.03937007874016
144
1.0
145
0.0
146
1.0
147
0.625
 71
     0
 72
     0
 73
     0
 74
     0
 75
     0
 76
     0
 77
     1
 78
     8
170
     0
171
     3
172
     1
173
     0
174
     0
175
     0
176
     0
177
     0
178
     0
270
     2
271
     2
272
     2
273
     2
274
     3
340
11
275
     0
280
     0
281
     0
282
     0
283
     0
284
     8
285
     0
286
     0
287
     3
288
     0
  0
ENDTAB
  0
TABLE
  2
BLOCK_RECORD
  5
1
330
0
100
AcDbSymbolTable
 70
     1
  0
BLOCK_RECORD
  5
1F
330
1
100
AcDbSymbolTableRecord
100
AcDbBlockTableRecord
  2
*MODEL_SPACE
  0
BLOCK_RECORD
  5
1B
330
1
100
AcDbSymbolTableRecord
100
AcDbBlockTableRecord
  2
*PAPER_SPACE
  0
ENDTAB
  0
ENDSEC
  0
SECTION
  2
BLOCKS
  0
BLOCK
  5
20
330
1F
100
AcDbEntity
  8
0
100
AcDbBlockBegin
  2
*MODEL_SPACE
 70
     0
 10
0.0
 20
0.0
 30
0.0
  3
*MODEL_SPACE
  1

  0
ENDBLK
  5
21
330
1F
100
AcDbEntity
  8
0
100
AcDbBlockEnd
  0
BLOCK
  5
1C
330
1B
100
AcDbEntity
 67
     1
  8
0
100
AcDbBlockBegin
  2
*PAPER_SPACE
  1

  0
ENDBLK
  5
1D
330
1B
100
AcDbEntity
 67
     1
  8
0
100
AcDbBlockEnd
  0
ENDSEC
  0
SECTION
  2
ENTITIES
  0
LWPOLYLINE
  5
100
100
AcDbEntity
  8
0
 62
7
100
AcDbPolyline
 90
9
 70
0
 10
-8.025775
 20
-12.340948
 30
0.0
 10
-8.496873
 20
-13.478281
 30
0.0
 10
-9.634206
 20
-13.949381
 30
0.0
 10
-10.771540
 20
-13.478281
 30
0.0
 10
-11.242638
 20
-12.340948
 30
0.0
 10
-10.771540
 20
-11.203615
 30
0.0
 10
-9.634206
 20
-10.732516
 30
0.0
 10
-8.496873
 20
-11.203615
 30
0.0
 10
-8.025775
 20
-12.340948
 30
0.0
  0
LWPOLYLINE
  5
101
100
AcDbEntity
  8
0
 62
7
100
AcDbPolyline
 90
9
 70
0
 10
-2.283470
 20
-12.340948
 30
0.0
 10
-2.754568
 20
-13.478281
 30
0.0
 10
-3.891901
 20
-13.949381
 30
0.0
 10
-5.029235
 20
-13.478281
 30
0.0
 10
-5.500333
 20
-12.340948
 30
0.0
 10
-5.029235
 20
-11.203615
 30
0.0
 10
-3.891901
 20
-10.732516
 30
0.0
 10
-2.754568
 20
-11.203615
 30
0.0
 10
-2.283470
 20
-12.340948
 30
0.0
  0
LWPOLYLINE
  5
102
100
AcDbEntity
  8
0
 62
7
100
AcDbPolyline
 90
9
 70
0
 10
-2.283470
 20
-6.815351
 30
0.0
 10
-2.754568
 20
-7.952684
 30
0.0
 10
-3.891901
 20
-8.423783
 30
0.0
 10
-5.029235
 20
-7.952684
 30
0.0
 10
-5.500333
 20
-6.815351
 30
0.0
 10
-5.029235
 20
-5.678018
 30
0.0
 10
-3.891901
 20
-5.206918
 30
0.0
 10
-2.754568
 20
-5.678018
 30
0.0
 10
-2.283470
 20
-6.815351
 30
0.0
  0
LWPOLYLINE
  5
103
100
AcDbEntity
  8
0
 62
7
100
AcDbPolyline
 90
9
 70
0
 10
-20.662588
 20
-5.953351
 30
0.0
 10
-21.133685
 20
-7.090684
 30
0.0
 10
-22.271021
 20
-7.561783
 30
0.0
 10
-23.408354
 20
-7.090684
 30
0.0
 10
-23.879450
 20
-5.953351
 30
0.0
 10
-23.408354
 20
-4.816018
 30
0.0
 10
-22.271021
 20
-4.344918
 30
0.0
 10
-21.133685
 20
-4.816018
 30
0.0
 10
-20.662588
 20
-5.953351
 30
0.0
  0
LWPOLYLINE
  5
104
100
AcDbEntity
  8
0
 62
7
100
AcDbPolyline
 90
9
 70
0
 10
-52.910359
 20
-11.478949
 30
0.0
 10
-52.439260
 20
-12.616282
 30
0.0
 10
-51.301927
 20
-13.087381
 30
0.0
 10
-50.164594
 20
-12.616282
 30
0.0
 10
-49.693494
 20
-11.478949
 30
0.0
 10
-50.164594
 20
-10.341616
 30
0.0
 10
-51.301927
 20
-9.870516
 30
0.0
 10
-52.439260
 20
-10.341616
 30
0.0
 10
-52.910359
 20
-11.478949
 30
0.0
  0
LWPOLYLINE
  5
105
100
AcDbEntity
  8
0
 62
7
100
AcDbPolyline
 90
9
 70
0
 10
-52.910359
 20
-5.953351
 30
0.0
 10
-52.439260
 20
-7.090684
 30
0.0
 10
-51.301927
 20
-7.561783
 30
0.0
 10
-50.164594
 20
-7.090684
 30
0.0
 10
-49.693494
 20
-5.953351
 30
0.0
 10
-50.164594
 20
-4.816018
 30
0.0
 10
-51.301927
 20
-4.344918
 30
0.0
 10
-52.439260
 20
-4.816018
 30
0.0
 10
-52.910359
 20
-5.953351
 30
0.0
  0
LWPOLYLINE
  5
106
100
AcDbEntity
  8
0
 62
7
100
AcDbPolyline
 90
9
 70
0
 10
-75.911620
 20
-6.528003
 30
0.0
 10
-75.440520
 20
-5.390670
 30
0.0
 10
-74.303187
 20
-4.919571
 30
0.0
 10
-73.165854
 20
-5.390670
 30
0.0
 10
-72.694755
 20
-6.528003
 30
0.0
 10
-73.165854
 20
-7.665336
 30
0.0
 10
-74.303187
 20
-8.136436
 30
0.0
 10
-75.440520
 20
-7.665336
 30
0.0
 10
-75.911620
 20
-6.528003
 30
0.0
  0
LWPOLYLINE
  5
107
100
AcDbEntity
  8
0
 62
7
100
AcDbPolyline
 90
9
 70
0
 10
-81.910592
 20
-6.528003
 30
0.0
 10
-81.439492
 20
-5.390670
 30
0.0
 10
-80.302159
 20
-4.919571
 30
0.0
 10
-79.164826
 20
-5.390670
 30
0.0
 10
-78.693727
 20
-6.528003
 30
0.0
 10
-79.164826
 20
-7.665336
 30
0.0
 10
-80.302159
 20
-8.136436
 30
0.0
 10
-81.439492
 20
-7.665336
 30
0.0
 10
-81.910592
 20
-6.528003
 30
0.0
  0
LWPOLYLINE
  5
108
100
AcDbEntity
  8
0
 62
7
100
AcDbPolyline
 90
9
 70
0
 10
-105.986044
 20
-5.953337
 30
0.0
 10
-106.457143
 20
-4.816004
 30
0.0
 10
-107.594476
 20
-4.344904
 30
0.0
 10
-108.731809
 20
-4.816004
 30
0.0
 10
-109.202909
 20
-5.953337
 30
0.0
 10
-108.731809
 20
-7.090670
 30
0.0
 10
-107.594476
 20
-7.561769
 30
0.0
 10
-106.457143
 20
-7.090670
 30
0.0
 10
-105.986044
 20
-5.953337
 30
0.0
  0
LWPOLYLINE
  5
109
100
AcDbEntity
  8
0
 62
7
100
AcDbPolyline
 90
9
 70
0
 10
-100.243739
 20
-5.953337
 30
0.0
 10
-100.714838
 20
-4.816004
 30
0.0
 10
-101.852171
 20
-4.344904
 30
0.0
 10
-102.989504
 20
-4.816004
 30
0.0
 10
-103.460604
 20
-5.953337
 30
0.0
 10
-102.989504
 20
-7.090670
 30
0.0
 10
-101.852171
 20
-7.561769
 30
0.0
 10
-100.714838
 20
-7.090670
 30
0.0
 10
-100.243739
 20
-5.953337
 30
0.0
  0
LWPOLYLINE
  5
10a
100
AcDbEntity
  8
0
 62
7
100
AcDbPolyline
 90
9
 70
0
 10
-100.243739
 20
-11.478935
 30
0.0
 10
-100.714838
 20
-10.341602
 30
0.0
 10
-101.852171
 20
-9.870502
 30
0.0
 10
-102.989504
 20
-10.341602
 30
0.0
 10
-103.460604
 20
-11.478935
 30
0.0
 10
-102.989504
 20
-12.616267
 30
0.0
 10
-101.852171
 20
-13.087367
 30
0.0
 10
-100.714838
 20
-12.616267
 30
0.0
 10
-100.243739
 20
-11.478935
 30
0.0
  0
LWPOLYLINE
  5
10b
100
AcDbEntity
  8
0
 62
7
100
AcDbPolyline
 90
9
 70
0
 10
-135.016948
 20
-6.528003
 30
0.0
 10
-135.488048
 20
-5.390670
 30
0.0
 10
-136.625381
 20
-4.919571
 30
0.0
 10
-137.762714
 20
-5.390670
 30
0.0
 10
-138.233813
 20
-6.528003
 30
0.0
 10
-137.762714
 20
-7.665336
 30
0.0
 10
-136.625381
 20
-8.136436
 30
0.0
 10
-135.488048
 20
-7.665336
 30
0.0
 10
-135.016948
 20
-6.528003
 30
0.0
  0
LWPOLYLINE
  5
10c
100
AcDbEntity
  8
0
 62
7
100
AcDbPolyline
 90
9
 70
0
 10
-131.275754
 20
-12.053601
 30
0.0
 10
-131.746854
 20
-10.916268
 30
0.0
 10
-132.884187
 20
-10.445169
 30
0.0
 10
-134.021520
 20
-10.916268
 30
0.0
 10
-134.492619
 20
-12.053601
 30
0.0
 10
-134.021520
 20
-13.190934
 30
0.0
 10
-132.884187
 20
-13.662033
 30
0.0
 10
-131.746854
 20
-13.190934
 30
0.0
 10
-131.275754
 20
-12.053601
 30
0.0
  0
LWPOLYLINE
  5
10d
100
AcDbEntity
  8
0
 62
7
100
AcDbPolyline
 90
9
 70
0
 10
-2.283470
 20
-23.686248
 30
0.0
 10
-2.754568
 20
-24.823581
 30
0.0
 10
-3.891901
 20
-25.294680
 30
0.0
 10
-5.029235
 20
-24.823581
 30
0.0
 10
-5.500333
 20
-23.686248
 30
0.0
 10
-5.029235
 20
-22.548915
 30
0.0
 10
-3.891901
 20
-22.077815
 30
0.0
 10
-2.754568
 20
-22.548915
 30
0.0
 10
-2.283470
 20
-23.686248
 30
0.0
  0
LWPOLYLINE
  5
10e
100
AcDbEntity
  8
0
 62
7
100
AcDbPolyline
 90
9
 70
0
 10
-2.283470
 20
-50.761855
 30
0.0
 10
-2.754568
 20
-51.899188
 30
0.0
 10
-3.891901
 20
-52.370284
 30
0.0
 10
-5.029235
 20
-51.899188
 30
0.0
 10
-5.500333
 20
-50.761855
 30
0.0
 10
-5.029235
 20
-49.624519
 30
0.0
 10
-3.891901
 20
-49.153422
 30
0.0
 10
-2.754568
 20
-49.624519
 30
0.0
 10
-2.283470
 20
-50.761855
 30
0.0
  0
LWPOLYLINE
  5
10f
100
AcDbEntity
  8
0
 62
7
100
AcDbPolyline
 90
9
 70
0
 10
-2.283470
 20
-45.236257
 30
0.0
 10
-2.754568
 20
-46.373590
 30
0.0
 10
-3.891901
 20
-46.844687
 30
0.0
 10
-5.029235
 20
-46.373590
 30
0.0
 10
-5.500333
 20
-45.236257
 30
0.0
 10
-5.029235
 20
-44.098921
 30
0.0
 10
-3.891901
 20
-43.627825
 30
0.0
 10
-2.754568
 20
-44.098921
 30
0.0
 10
-2.283470
 20
-45.236257
 30
0.0
  0
LWPOLYLINE
  5
110
100
AcDbEntity
  8
0
 62
7
100
AcDbPolyline
 90
9
 70
0
 10
-2.342678
 20
-102.131416
 30
0.0
 10
-2.813778
 20
-100.994083
 30
0.0
 10
-3.951111
 20
-100.522984
 30
0.0
 10
-5.088444
 20
-100.994083
 30
0.0
 10
-5.559544
 20
-102.131416
 30
0.0
 10
-5.088444
 20
-103.268749
 30
0.0
 10
-3.951111
 20
-103.739848
 30
0.0
 10
-2.813778
 20
-103.268749
 30
0.0
 10
-2.342678
 20
-102.131416
 30
0.0
  0
LWPOLYLINE
  5
111
100
AcDbEntity
  8
0
 62
7
100
AcDbPolyline
 90
9
 70
0
 10
-2.342678
 20
-107.657014
 30
0.0
 10
-2.813778
 20
-106.519681
 30
0.0
 10
-3.951111
 20
-106.048581
 30
0.0
 10
-5.088444
 20
-106.519681
 30
0.0
 10
-5.559544
 20
-107.657014
 30
0.0
 10
-5.088444
 20
-108.794338
 30
0.0
 10
-3.951111
 20
-109.265452
 30
0.0
 10
-2.813778
 20
-108.794338
 30
0.0
 10
-2.342678
 20
-107.657014
 30
0.0
  0
LWPOLYLINE
  5
112
100
AcDbEntity
  8
0
 62
7
100
AcDbPolyline
 90
9
 70
0
 10
-5.812479
 20
-79.223368
 30
0.0
 10
-5.341379
 20
-78.086035
 30
0.0
 10
-4.204046
 20
-77.614935
 30
0.0
 10
-3.066713
 20
-78.086035
 30
0.0
 10
-2.595614
 20
-79.223368
 30
0.0
 10
-3.066713
 20
-80.360701
 30
0.0
 10
-4.204046
 20
-80.831800
 30
0.0
 10
-5.341379
 20
-80.360701
 30
0.0
 10
-5.812479
 20
-79.223368
 30
0.0
  0
LWPOLYLINE
  5
113
100
AcDbEntity
  8
0
 62
7
100
AcDbPolyline
 90
9
 70
0
 10
-11.811451
 20
-79.223368
 30
0.0
 10
-11.340351
 20
-78.086035
 30
0.0
 10
-10.203018
 20
-77.614935
 30
0.0
 10
-9.065685
 20
-78.086035
 30
0.0
 10
-8.594586
 20
-79.223368
 30
0.0
 10
-9.065685
 20
-80.360701
 30
0.0
 10
-10.203018
 20
-80.831800
 30
0.0
 10
-11.340351
 20
-80.360701
 30
0.0
 10
-11.811451
 20
-79.223368
 30
0.0
  0
LWPOLYLINE
  5
114
100
AcDbEntity
  8
0
 62
7
100
AcDbPolyline
 90
9
 70
0
 10
-7.184228
 20
-129.506723
 30
0.0
 10
-7.655327
 20
-128.369390
 30
0.0
 10
-8.792660
 20
-127.898291
 30
0.0
 10
-9.929993
 20
-128.369390
 30
0.0
 10
-10.401093
 20
-129.506723
 30
0.0
 10
-9.929993
 20
-130.644065
 30
0.0
 10
-8.792660
 20
-131.115150
 30
0.0
 10
-7.655327
 20
-130.644065
 30
0.0
 10
-7.184228
 20
-129.506723
 30
0.0
  0
LWPOLYLINE
  5
115
100
AcDbEntity
  8
0
 62
7
100
AcDbPolyline
 90
9
 70
0
 10
-3.443033
 20
-135.032298
 30
0.0
 10
-3.914133
 20
-133.894971
 30
0.0
 10
-5.051466
 20
-133.423858
 30
0.0
 10
-6.188799
 20
-133.894971
 30
0.0
 10
-6.659898
 20
-135.032298
 30
0.0
 10
-6.188799
 20
-136.169626
 30
0.0
 10
-5.051466
 20
-136.640739
 30
0.0
 10
-3.914133
 20
-136.169626
 30
0.0
 10
-3.443033
 20
-135.032298
 30
0.0
  0
ENDSEC
  0
SECTION
  2
OBJECTS
  0
DICTIONARY
  5
C
330
0
100
AcDbDictionary
  3
ACAD_GROUP
350
D
  3
ACAD_MLINESTYLE
350
17
  0
DICTIONARY
  5
D
330
C
100
AcDbDictionary
  0
DICTIONARY
  5
1A
330
C
100
AcDbDictionary
  0
DICTIONARY
  5
17
330
C
100
AcDbDictionary
  3
STANDARD
350
18
  0
DICTIONARY
  5
19
330
C
100
AcDbDictionary
  0
ENDSEC
  0
EOF
