999
DXF created by Inkscape
  0
SECTION
  2
HEADER
  9
$ACADVER
  1
AC1014
  9
$HANDSEED
  5
FFFF
  9
$MEASUREMENT
 70
     1
  0
ENDSEC
  0
SECTION
  2
TABLES
  0
TABLE
  2
VPORT
  5
8
330
0
100
AcDbSymbolTable
 70
     4
  0
VPORT
  5
2E
330
8
100
AcDbSymbolTableRecord
100
AcDbViewportTableRecord
  2
*ACTIVE
 70
     0
 10
0.0
 20
0.0
 11
1.0
 21
1.0
 12
210.0
 22
148.5
 13
0.0
 23
0.0
 14
10.0
 24
10.0
 15
10.0
 25
10.0
 16
0.0
 26
0.0
 36
1.0
 17
0.0
 27
0.0
 37
0.0
 40
341.0
 41
1.24
 42
50.0
 43
0.0
 44
0.0
 50
0.0
 51
0.0
 71
     0
 72
   100
 73
     1
 74
     3
 75
     0
 76
     0
 77
     0
 78
     0
  0
ENDTAB
  0
TABLE
  2
LTYPE
  5
5
330
0
100
AcDbSymbolTable
 70
     1
  0
LTYPE
  5
14
330
5
100
AcDbSymbolTableRecord
100
AcDbLinetypeTableRecord
  2
BYBLOCK
 70
     0
  3

 72
    65
 73
     0
 40
0.0
  0
LTYPE
  5
15
330
5
100
AcDbSymbolTableRecord
100
AcDbLinetypeTableRecord
  2
BYLAYER
 70
     0
  3

 72
    65
 73
     0
 40
0.0
  0
LTYPE
  5
16
330
5
100
AcDbSymbolTableRecord
100
AcDbLinetypeTableRecord
  2
CONTINUOUS
 70
     0
  3
Solid line
 72
    65
 73
     0
 40
0.0
  0
ENDTAB
  0
TABLE
  2
LAYER
  5
2
100
AcDbSymbolTable
 70
1
  0
LAYER
  5
50
100
AcDbSymbolTableRecord
100
AcDbLayerTableRecord
  2
0
 70
0
  6
CONTINUOUS
  0
ENDTAB
  0
TABLE
  2
STYLE
  5
3
330
0
100
AcDbSymbolTable
 70
     1
  0
STYLE
  5
11
330
3
100
AcDbSymbolTableRecord
100
AcDbTextStyleTableRecord
  2
STANDARD
 70
     0
 40
0.0
 41
1.0
 50
0.0
 71
     0
 42
2.5
  3
txt
  4

  0
ENDTAB
  0
TABLE
  2
VIEW
  5
6
330
0
100
AcDbSymbolTable
 70
     0
  0
ENDTAB
  0
TABLE
  2
UCS
  5
7
330
0
100
AcDbSymbolTable
 70
     0
  0
ENDTAB
  0
TABLE
  2
APPID
  5
9
330
0
100
AcDbSymbolTable
 70
     2
  0
APPID
  5
12
330
9
100
AcDbSymbolTableRecord
100
AcDbRegAppTableRecord
  2
ACAD
 70
     0
  0
ENDTAB
  0
TABLE
  2
DIMSTYLE
  5
A
330
0
100
AcDbSymbolTable
 70
     1
  0
DIMSTYLE
105
27
330
A
100
AcDbSymbolTableRecord
100
AcDbDimStyleTableRecord
  2
ISO-25
 70
     0
  3

  4

  5

  6

  7

 40
1.0
 41
2.5
 42
0.625
 43
3.75
 44
1.25
 45
0.0
 46
0.0
 47
0.0
 48
0.0
140
2.5
141
2.5
142
0.0
143
0.03937007874016
144
1.0
145
0.0
146
1.0
147
0.625
 71
     0
 72
     0
 73
     0
 74
     0
 75
     0
 76
     0
 77
     1
 78
     8
170
     0
171
     3
172
     1
173
     0
174
     0
175
     0
176
     0
177
     0
178
     0
270
     2
271
     2
272
     2
273
     2
274
     3
340
11
275
     0
280
     0
281
     0
282
     0
283
     0
284
     8
285
     0
286
     0
287
     3
288
     0
  0
ENDTAB
  0
TABLE
  2
BLOCK_RECORD
  5
1
330
0
100
AcDbSymbolTable
 70
     1
  0
BLOCK_RECORD
  5
1F
330
1
100
AcDbSymbolTableRecord
100
AcDbBlockTableRecord
  2
*MODEL_SPACE
  0
BLOCK_RECORD
  5
1B
330
1
100
AcDbSymbolTableRecord
100
AcDbBlockTableRecord
  2
*PAPER_SPACE
  0
ENDTAB
  0
ENDSEC
  0
SECTION
  2
BLOCKS
  0
BLOCK
  5
20
330
1F
100
AcDbEntity
  8
0
100
AcDbBlockBegin
  2
*MODEL_SPACE
 70
     0
 10
0.0
 20
0.0
 30
0.0
  3
*MODEL_SPACE
  1

  0
ENDBLK
  5
21
330
1F
100
AcDbEntity
  8
0
100
AcDbBlockEnd
  0
BLOCK
  5
1C
330
1B
100
AcDbEntity
 67
     1
  8
0
100
AcDbBlockBegin
  2
*PAPER_SPACE
  1

  0
ENDBLK
  5
1D
330
1B
100
AcDbEntity
 67
     1
  8
0
100
AcDbBlockEnd
  0
ENDSEC
  0
SECTION
  2
ENTITIES
  0
LWPOLYLINE
  5
100
100
AcDbEntity
  8
0
 62
7
100
AcDbPolyline
 90
23
 70
0
 10
-6.993238
 20
136.154792
 30
0.0
 10
-2.622101
 20
136.154792
 30
0.0
 10
-2.622101
 20
135.217726
 30
0.0
 10
-5.973490
 20
135.217726
 30
0.0
 10
-5.973490
 20
133.200278
 30
0.0
 10
-5.488421
 20
133.321545
 30
0.0
 10
-5.003351
 20
133.365642
 30
0.0
 10
-2.820540
 20
132.610477
 30
0.0
 10
-2.015764
 20
130.565469
 30
0.0
 10
-2.842587
 20
128.498412
 30
0.0
 10
-5.174228
 20
127.765295
 30
0.0
 10
-6.232562
 20
127.853489
 30
0.0
 10
-7.340504
 20
128.118073
 30
0.0
 10
-7.340504
 20
129.237040
 30
0.0
 10
-6.315244
 20
128.834653
 30
0.0
 10
-5.196278
 20
128.702361
 30
0.0
 10
-3.685946
 20
129.203967
 30
0.0
 10
-3.129221
 20
130.565469
 30
0.0
 10
-3.685946
 20
131.926970
 30
0.0
 10
-5.196278
 20
132.428576
 30
0.0
 10
-6.089246
 20
132.329358
 30
0.0
 10
-6.993238
 20
132.020677
 30
0.0
 10
-6.993238
 20
136.154792
 30
0.0
  0
LWPOLYLINE
  5
101
100
AcDbEntity
  8
0
 62
7
100
AcDbPolyline
 90
4
 70
0
 10
-3.945018
 20
106.962431
 30
0.0
 10
-6.756217
 20
102.569244
 30
0.0
 10
-3.945018
 20
102.569244
 30
0.0
 10
-3.945018
 20
106.962431
 30
0.0
  0
LWPOLYLINE
  5
102
100
AcDbEntity
  8
0
 62
7
100
AcDbPolyline
 90
12
 70
0
 10
-4.237163
 20
107.932569
 30
0.0
 10
-2.837076
 20
107.932569
 30
0.0
 10
-2.837076
 20
102.569244
 30
0.0
 10
-1.662986
 20
102.569244
 30
0.0
 10
-1.662986
 20
101.643202
 30
0.0
 10
-2.837076
 20
101.643202
 30
0.0
 10
-2.837076
 20
99.702924
 30
0.0
 10
-3.945018
 20
99.702924
 30
0.0
 10
-3.945018
 20
101.643202
 30
0.0
 10
-7.660208
 20
101.643202
 30
0.0
 10
-7.660208
 20
102.718074
 30
0.0
 10
-4.237163
 20
107.932569
 30
0.0
  0
LWPOLYLINE
  5
103
100
AcDbEntity
  8
0
 62
7
100
AcDbPolyline
 90
30
 70
0
 10
-3.630826
 20
75.917986
 30
0.0
 10
-2.385080
 20
75.206919
 30
0.0
 10
-1.933084
 20
73.872978
 30
0.0
 10
-2.770931
 20
71.987822
 30
0.0
 10
-5.152181
 20
71.320851
 30
0.0
 10
-6.221538
 20
71.425581
 30
0.0
 10
-7.351528
 20
71.728750
 30
0.0
 10
-7.351528
 20
72.803619
 30
0.0
 10
-6.337292
 20
72.395720
 30
0.0
 10
-5.185252
 20
72.257917
 30
0.0
 10
-3.592240
 20
72.671327
 30
0.0
 10
-3.041026
 20
73.872978
 30
0.0
 10
-3.553655
 20
75.008480
 30
0.0
 10
-4.970278
 20
75.421893
 30
0.0
 10
-5.929393
 20
75.421893
 30
0.0
 10
-5.929393
 20
76.336908
 30
0.0
 10
-4.926180
 20
76.336908
 30
0.0
 10
-3.669411
 20
76.662127
 30
0.0
 10
-3.233951
 20
77.610216
 30
0.0
 10
-3.685946
 20
78.580355
 30
0.0
 10
-4.970278
 20
78.922109
 30
0.0
 10
-5.951443
 20
78.822891
 30
0.0
 10
-7.103483
 20
78.514210
 30
0.0
 10
-7.103483
 20
79.506397
 30
0.0
 10
-5.918369
 20
79.770980
 30
0.0
 10
-4.871060
 20
79.859174
 30
0.0
 10
-2.864637
 20
79.280399
 30
0.0
 10
-2.126008
 20
77.725972
 30
0.0
 10
-2.517371
 20
76.568421
 30
0.0
 10
-3.630826
 20
75.917986
 30
0.0
  0
LWPOLYLINE
  5
104
100
AcDbEntity
  8
0
 62
7
100
AcDbPolyline
 90
22
 70
0
 10
-6.045149
 20
44.195548
 30
0.0
 10
-2.159082
 20
44.195548
 30
0.0
 10
-2.159082
 20
43.258480
 30
0.0
 10
-7.384601
 20
43.258480
 30
0.0
 10
-7.384601
 20
44.195548
 30
0.0
 10
-5.659298
 20
45.953922
 30
0.0
 10
-4.281260
 20
47.381572
 30
0.0
 10
-3.537119
 20
48.395808
 30
0.0
 10
-3.322145
 20
49.217117
 30
0.0
 10
-3.785167
 20
50.286476
 30
0.0
 10
-4.981304
 20
50.699887
 30
0.0
 10
-6.089246
 20
50.517986
 30
0.0
 10
-7.329480
 20
49.966769
 30
0.0
 10
-7.329480
 20
51.091250
 30
0.0
 10
-6.072708
 20
51.499149
 30
0.0
 10
-5.003351
 20
51.636952
 30
0.0
 10
-2.963855
 20
50.997544
 30
0.0
 10
-2.203179
 20
49.288776
 30
0.0
 10
-2.396103
 20
48.324149
 30
0.0
 10
-3.085124
 20
47.254792
 30
0.0
 10
-3.961556
 20
46.328750
 30
0.0
 10
-6.045149
 20
44.195548
 30
0.0
  0
LWPOLYLINE
  5
105
100
AcDbEntity
  8
0
 62
7
100
AcDbPolyline
 90
12
 70
0
 10
-6.811337
 20
15.973326
 30
0.0
 10
-4.992328
 20
15.973326
 30
0.0
 10
-4.992328
 20
22.251667
 30
0.0
 10
-6.971191
 20
21.854792
 30
0.0
 10
-6.971191
 20
22.869028
 30
0.0
 10
-5.003351
 20
23.265903
 30
0.0
 10
-3.889897
 20
23.265903
 30
0.0
 10
-3.889897
 20
15.973326
 30
0.0
 10
-2.070887
 20
15.973326
 30
0.0
 10
-2.070887
 20
15.036258
 30
0.0
 10
-6.811337
 20
15.036258
 30
0.0
 10
-6.811337
 20
15.973326
 30
0.0
  0
ENDSEC
  0
SECTION
  2
OBJECTS
  0
DICTIONARY
  5
C
330
0
100
AcDbDictionary
  3
ACAD_GROUP
350
D
  3
ACAD_MLINESTYLE
350
17
  0
DICTIONARY
  5
D
330
C
100
AcDbDictionary
  0
DICTIONARY
  5
1A
330
C
100
AcDbDictionary
  0
DICTIONARY
  5
17
330
C
100
AcDbDictionary
  3
STANDARD
350
18
  0
DICTIONARY
  5
19
330
C
100
AcDbDictionary
  0
ENDSEC
  0
EOF
