<?xml version="1.0" encoding="UTF-8" standalone="no"?>
<!-- Created with Inkscape (http://www.inkscape.org/) -->

<svg
   xmlns:dc="http://purl.org/dc/elements/1.1/"
   xmlns:cc="http://creativecommons.org/ns#"
   xmlns:rdf="http://www.w3.org/1999/02/22-rdf-syntax-ns#"
   xmlns:svg="http://www.w3.org/2000/svg"
   xmlns="http://www.w3.org/2000/svg"
   xmlns:sodipodi="http://sodipodi.sourceforge.net/DTD/sodipodi-0.dtd"
   xmlns:inkscape="http://www.inkscape.org/namespaces/inkscape"
   version="1.1"
   width="533.48999"
   height="533.48999"
   id="svg4059"
   inkscape:version="0.48.1 r9760"
   sodipodi:docname="oneAlpha.svg">
  <sodipodi:namedview
     pagecolor="#ffffff"
     bordercolor="#666666"
     borderopacity="1"
     objecttolerance="10"
     gridtolerance="10"
     guidetolerance="10"
     inkscape:pageopacity="0"
     inkscape:pageshadow="2"
     inkscape:window-width="1440"
     inkscape:window-height="852"
     id="namedview3343"
     showgrid="false"
     inkscape:zoom="1.2404822"
     inkscape:cx="-16.289771"
     inkscape:cy="-78.394521"
     inkscape:window-x="0"
     inkscape:window-y="0"
     inkscape:window-maximized="0"
     inkscape:current-layer="svg4059" />
  <desc
     id="desc4061">Veusz output document</desc>
  <metadata
     id="metadata4087">
    <rdf:RDF>
      <cc:Work
         rdf:about="">
        <dc:format>image/svg+xml</dc:format>
        <dc:type
           rdf:resource="http://purl.org/dc/dcmitype/StillImage" />
        <dc:title></dc:title>
      </cc:Work>
    </rdf:RDF>
  </metadata>
  <defs
     id="defs4077">
    <clipPath
       id="c0">
      <path
         d="m 0,0 533.49,0 0,533.49 L 0,533.49 0,0"
         id="path4080" />
    </clipPath>
    <clipPath
       id="c1">
      <path
         d="m 60.46,7.11 465.91,0 0,465.91 -465.91,0 0,-465.91"
         id="path4083" />
    </clipPath>
  </defs>
  <g
     transform="translate(143.09375,9.3075238)"
     id="flowRoot4135"
     style="font-size:40px;font-style:normal;font-weight:normal;line-height:125%;letter-spacing:0px;word-spacing:0px;fill:#000000;fill-opacity:1;stroke:none;font-family:Sans" />
  <g
     transform="translate(243.09375,9.3075238)"
     id="flowRoot4145"
     style="font-size:40px;font-style:normal;font-weight:normal;line-height:125%;letter-spacing:0px;word-spacing:0px;fill:#000000;fill-opacity:1;stroke:none;font-family:Sans" />
  <g
     transform="translate(343.09375,9.3075238)"
     id="flowRoot4153"
     style="font-size:40px;font-style:normal;font-weight:normal;line-height:125%;letter-spacing:0px;word-spacing:0px;fill:#000000;fill-opacity:1;stroke:none;font-family:Sans" />
  <g
     transform="translate(143.09375,-190.69248)"
     id="flowRoot4161"
     style="font-size:40px;font-style:normal;font-weight:normal;line-height:125%;letter-spacing:0px;word-spacing:0px;fill:#000000;fill-opacity:1;stroke:none;font-family:Sans" />
  <g
     style="font-size:40px;font-style:normal;font-weight:normal;line-height:125%;letter-spacing:0px;word-spacing:0px;fill:#000000;fill-opacity:1;stroke:none;font-family:Sans"
     id="flowRoot3364"
     transform="translate(0,-72)">
    <path
       d="m -67.738281,595.72934 -6.835938,3.20313 -2.519531,8.73047 2.519531,8.71093 6.835938,3.20313 6.796875,-3.20313 2.519531,-8.71093 -2.519531,-8.73047 -6.796875,-3.20313 m 0,-3.20312 9.804687,4.12109 3.671875,11.01563 -3.671875,11.01562 -9.804687,4.10156 -9.84375,-4.10156 -3.671875,-11.01562 3.671875,-11.01563 9.84375,-4.12109"
       id="path3373"
       inkscape:connector-curvature="0"
       sodipodi:nodetypes="cccccccccccccccccc" />
    <path
       d="m -9.8867188,593.05356 5.3125001,0 12.9296875,24.39453 0,-24.39453 3.8281252,0 0,29.16016 -5.3125003,0 -12.9296874,-24.39453 0,24.39453 -3.8281251,0 0,-29.16016"
       id="path3375"
       inkscape:connector-curvature="0"
       sodipodi:nodetypes="ccccccccccc" />
    <path
       d="m 58.238281,593.05356 18.4375,0 0,3.32031 -14.492187,0 0,8.63282 13.886718,0 0,3.32031 -13.886718,0 0,10.5664 14.84375,0 0,3.32032 -18.789063,0 0,-29.16016"
       id="path3377"
       inkscape:connector-curvature="0"
       sodipodi:nodetypes="ccccccccccccc" />
  </g>
</svg>
