999
DXF created by Inkscape
  0
SECTION
  2
HEADER
  9
$ACADVER
  1
AC1014
  9
$HANDSEED
  5
FFFF
  9
$MEASUREMENT
 70
     1
  0
ENDSEC
  0
SECTION
  2
TABLES
  0
TABLE
  2
VPORT
  5
8
330
0
100
AcDbSymbolTable
 70
     4
  0
VPORT
  5
2E
330
8
100
AcDbSymbolTableRecord
100
AcDbViewportTableRecord
  2
*ACTIVE
 70
     0
 10
0.0
 20
0.0
 11
1.0
 21
1.0
 12
210.0
 22
148.5
 13
0.0
 23
0.0
 14
10.0
 24
10.0
 15
10.0
 25
10.0
 16
0.0
 26
0.0
 36
1.0
 17
0.0
 27
0.0
 37
0.0
 40
341.0
 41
1.24
 42
50.0
 43
0.0
 44
0.0
 50
0.0
 51
0.0
 71
     0
 72
   100
 73
     1
 74
     3
 75
     0
 76
     0
 77
     0
 78
     0
  0
ENDTAB
  0
TABLE
  2
LTYPE
  5
5
330
0
100
AcDbSymbolTable
 70
     1
  0
LTYPE
  5
14
330
5
100
AcDbSymbolTableRecord
100
AcDbLinetypeTableRecord
  2
BYBLOCK
 70
     0
  3

 72
    65
 73
     0
 40
0.0
  0
LTYPE
  5
15
330
5
100
AcDbSymbolTableRecord
100
AcDbLinetypeTableRecord
  2
BYLAYER
 70
     0
  3

 72
    65
 73
     0
 40
0.0
  0
LTYPE
  5
16
330
5
100
AcDbSymbolTableRecord
100
AcDbLinetypeTableRecord
  2
CONTINUOUS
 70
     0
  3
Solid line
 72
    65
 73
     0
 40
0.0
  0
ENDTAB
  0
TABLE
  2
LAYER
  5
2
100
AcDbSymbolTable
 70
1
  0
LAYER
  5
50
100
AcDbSymbolTableRecord
100
AcDbLayerTableRecord
  2
0
 70
0
  6
CONTINUOUS
  0
ENDTAB
  0
TABLE
  2
STYLE
  5
3
330
0
100
AcDbSymbolTable
 70
     1
  0
STYLE
  5
11
330
3
100
AcDbSymbolTableRecord
100
AcDbTextStyleTableRecord
  2
STANDARD
 70
     0
 40
0.0
 41
1.0
 50
0.0
 71
     0
 42
2.5
  3
txt
  4

  0
ENDTAB
  0
TABLE
  2
VIEW
  5
6
330
0
100
AcDbSymbolTable
 70
     0
  0
ENDTAB
  0
TABLE
  2
UCS
  5
7
330
0
100
AcDbSymbolTable
 70
     0
  0
ENDTAB
  0
TABLE
  2
APPID
  5
9
330
0
100
AcDbSymbolTable
 70
     2
  0
APPID
  5
12
330
9
100
AcDbSymbolTableRecord
100
AcDbRegAppTableRecord
  2
ACAD
 70
     0
  0
ENDTAB
  0
TABLE
  2
DIMSTYLE
  5
A
330
0
100
AcDbSymbolTable
 70
     1
  0
DIMSTYLE
105
27
330
A
100
AcDbSymbolTableRecord
100
AcDbDimStyleTableRecord
  2
ISO-25
 70
     0
  3

  4

  5

  6

  7

 40
1.0
 41
2.5
 42
0.625
 43
3.75
 44
1.25
 45
0.0
 46
0.0
 47
0.0
 48
0.0
140
2.5
141
2.5
142
0.0
143
0.03937007874016
144
1.0
145
0.0
146
1.0
147
0.625
 71
     0
 72
     0
 73
     0
 74
     0
 75
     0
 76
     0
 77
     1
 78
     8
170
     0
171
     3
172
     1
173
     0
174
     0
175
     0
176
     0
177
     0
178
     0
270
     2
271
     2
272
     2
273
     2
274
     3
340
11
275
     0
280
     0
281
     0
282
     0
283
     0
284
     8
285
     0
286
     0
287
     3
288
     0
  0
ENDTAB
  0
TABLE
  2
BLOCK_RECORD
  5
1
330
0
100
AcDbSymbolTable
 70
     1
  0
BLOCK_RECORD
  5
1F
330
1
100
AcDbSymbolTableRecord
100
AcDbBlockTableRecord
  2
*MODEL_SPACE
  0
BLOCK_RECORD
  5
1B
330
1
100
AcDbSymbolTableRecord
100
AcDbBlockTableRecord
  2
*PAPER_SPACE
  0
ENDTAB
  0
ENDSEC
  0
SECTION
  2
BLOCKS
  0
BLOCK
  5
20
330
1F
100
AcDbEntity
  8
0
100
AcDbBlockBegin
  2
*MODEL_SPACE
 70
     0
 10
0.0
 20
0.0
 30
0.0
  3
*MODEL_SPACE
  1

  0
ENDBLK
  5
21
330
1F
100
AcDbEntity
  8
0
100
AcDbBlockEnd
  0
BLOCK
  5
1C
330
1B
100
AcDbEntity
 67
     1
  8
0
100
AcDbBlockBegin
  2
*PAPER_SPACE
  1

  0
ENDBLK
  5
1D
330
1B
100
AcDbEntity
 67
     1
  8
0
100
AcDbBlockEnd
  0
ENDSEC
  0
SECTION
  2
ENTITIES
  0
LWPOLYLINE
  5
100
100
AcDbEntity
  8
0
 62
7
100
AcDbPolyline
 90
9
 70
0
 10
-12.647786
 20
4.551736
 30
0.0
 10
-13.118885
 20
3.414403
 30
0.0
 10
-14.256218
 20
2.943304
 30
0.0
 10
-15.393551
 20
3.414403
 30
0.0
 10
-15.864651
 20
4.551736
 30
0.0
 10
-15.393551
 20
5.689069
 30
0.0
 10
-14.256218
 20
6.160169
 30
0.0
 10
-13.118885
 20
5.689069
 30
0.0
 10
-12.647786
 20
4.551736
 30
0.0
  0
LWPOLYLINE
  5
101
100
AcDbEntity
  8
0
 62
7
100
AcDbPolyline
 90
9
 70
0
 10
-12.597070
 20
-0.430180
 30
0.0
 10
-13.068167
 20
-1.567513
 30
0.0
 10
-14.205503
 20
-2.038612
 30
0.0
 10
-15.342836
 20
-1.567513
 30
0.0
 10
-15.813932
 20
-0.430180
 30
0.0
 10
-15.342836
 20
0.707153
 30
0.0
 10
-14.205503
 20
1.178252
 30
0.0
 10
-13.068167
 20
0.707153
 30
0.0
 10
-12.597070
 20
-0.430180
 30
0.0
  0
LWPOLYLINE
  5
102
100
AcDbEntity
  8
0
 62
7
100
AcDbPolyline
 90
9
 70
0
 10
-17.828080
 20
-0.730826
 30
0.0
 10
-18.299177
 20
-1.868159
 30
0.0
 10
-19.436512
 20
-2.339258
 30
0.0
 10
-20.573845
 20
-1.868159
 30
0.0
 10
-21.044942
 20
-0.730826
 30
0.0
 10
-20.573845
 20
0.406507
 30
0.0
 10
-19.436512
 20
0.877607
 30
0.0
 10
-18.299177
 20
0.406507
 30
0.0
 10
-17.828080
 20
-0.730826
 30
0.0
  0
LWPOLYLINE
  5
103
100
AcDbEntity
  8
0
 62
7
100
AcDbPolyline
 90
9
 70
0
 10
-17.777314
 20
-5.503350
 30
0.0
 10
-18.248410
 20
-6.640683
 30
0.0
 10
-19.385746
 20
-7.111783
 30
0.0
 10
-20.523079
 20
-6.640683
 30
0.0
 10
-20.994176
 20
-5.503350
 30
0.0
 10
-20.523079
 20
-4.366017
 30
0.0
 10
-19.385746
 20
-3.894918
 30
0.0
 10
-18.248410
 20
-4.366017
 30
0.0
 10
-17.777314
 20
-5.503350
 30
0.0
  0
LWPOLYLINE
  5
104
100
AcDbEntity
  8
0
 62
7
100
AcDbPolyline
 90
9
 70
0
 10
13.927702
 20
4.551736
 30
0.0
 10
13.456602
 20
3.414403
 30
0.0
 10
12.319270
 20
2.943304
 30
0.0
 10
11.181937
 20
3.414403
 30
0.0
 10
10.710837
 20
4.551736
 30
0.0
 10
11.181937
 20
5.689069
 30
0.0
 10
12.319270
 20
6.160169
 30
0.0
 10
13.456602
 20
5.689069
 30
0.0
 10
13.927702
 20
4.551736
 30
0.0
  0
LWPOLYLINE
  5
105
100
AcDbEntity
  8
0
 62
7
100
AcDbPolyline
 90
9
 70
0
 10
19.458521
 20
-0.730826
 30
0.0
 10
18.987424
 20
-1.868159
 30
0.0
 10
17.850088
 20
-2.339258
 30
0.0
 10
16.712755
 20
-1.868159
 30
0.0
 10
16.241659
 20
-0.730826
 30
0.0
 10
16.712755
 20
0.406507
 30
0.0
 10
17.850088
 20
0.877607
 30
0.0
 10
18.987424
 20
0.406507
 30
0.0
 10
19.458521
 20
-0.730826
 30
0.0
  0
LWPOLYLINE
  5
106
100
AcDbEntity
  8
0
 62
7
100
AcDbPolyline
 90
9
 70
0
 10
14.278276
 20
-5.378803
 30
0.0
 10
13.807179
 20
-6.516136
 30
0.0
 10
12.669843
 20
-6.987235
 30
0.0
 10
11.532510
 20
-6.516136
 30
0.0
 10
11.061414
 20
-5.378803
 30
0.0
 10
11.532510
 20
-4.241470
 30
0.0
 10
12.669843
 20
-3.770370
 30
0.0
 10
13.807179
 20
-4.241470
 30
0.0
 10
14.278276
 20
-5.378803
 30
0.0
  0
LWPOLYLINE
  5
107
100
AcDbEntity
  8
0
 62
7
100
AcDbPolyline
 90
9
 70
0
 10
2.108470
 20
4.377825
 30
0.0
 10
1.637371
 20
3.240492
 30
0.0
 10
0.500038
 20
2.769393
 30
0.0
 10
-0.637295
 20
3.240492
 30
0.0
 10
-1.108394
 20
4.377825
 30
0.0
 10
-0.637295
 20
5.515158
 30
0.0
 10
0.500038
 20
5.986258
 30
0.0
 10
1.637371
 20
5.515158
 30
0.0
 10
2.108470
 20
4.377825
 30
0.0
  0
LWPOLYLINE
  5
108
100
AcDbEntity
  8
0
 62
7
100
AcDbPolyline
 90
9
 70
0
 10
2.342025
 20
-0.730826
 30
0.0
 10
1.870929
 20
-1.868159
 30
0.0
 10
0.733593
 20
-2.339258
 30
0.0
 10
-0.403740
 20
-1.868159
 30
0.0
 10
-0.874837
 20
-0.730826
 30
0.0
 10
-0.403740
 20
0.406507
 30
0.0
 10
0.733593
 20
0.877607
 30
0.0
 10
1.870929
 20
0.406507
 30
0.0
 10
2.342025
 20
-0.730826
 30
0.0
  0
LWPOLYLINE
  5
109
100
AcDbEntity
  8
0
 62
7
100
AcDbPolyline
 90
9
 70
0
 10
-2.639890
 20
-0.730826
 30
0.0
 10
-3.110987
 20
-1.868159
 30
0.0
 10
-4.248322
 20
-2.339258
 30
0.0
 10
-5.385655
 20
-1.868159
 30
0.0
 10
-5.856752
 20
-0.730826
 30
0.0
 10
-5.385655
 20
0.406507
 30
0.0
 10
-4.248322
 20
0.877607
 30
0.0
 10
-3.110987
 20
0.406507
 30
0.0
 10
-2.639890
 20
-0.730826
 30
0.0
  0
LWPOLYLINE
  5
10a
100
AcDbEntity
  8
0
 62
7
100
AcDbPolyline
 90
9
 70
0
 10
2.408278
 20
-5.588192
 30
0.0
 10
1.937182
 20
-6.725525
 30
0.0
 10
0.799846
 20
-7.196624
 30
0.0
 10
-0.337487
 20
-6.725525
 30
0.0
 10
-0.808584
 20
-5.588192
 30
0.0
 10
-0.337487
 20
-4.450859
 30
0.0
 10
0.799846
 20
-3.979759
 30
0.0
 10
1.937182
 20
-4.450859
 30
0.0
 10
2.408278
 20
-5.588192
 30
0.0
  0
ENDSEC
  0
SECTION
  2
OBJECTS
  0
DICTIONARY
  5
C
330
0
100
AcDbDictionary
  3
ACAD_GROUP
350
D
  3
ACAD_MLINESTYLE
350
17
  0
DICTIONARY
  5
D
330
C
100
AcDbDictionary
  0
DICTIONARY
  5
1A
330
C
100
AcDbDictionary
  0
DICTIONARY
  5
17
330
C
100
AcDbDictionary
  3
STANDARD
350
18
  0
DICTIONARY
  5
19
330
C
100
AcDbDictionary
  0
ENDSEC
  0
EOF
