<?xml version="1.0" encoding="UTF-8" standalone="no"?>
<!-- Created with Inkscape (http://www.inkscape.org/) -->

<svg
   xmlns:dc="http://purl.org/dc/elements/1.1/"
   xmlns:cc="http://creativecommons.org/ns#"
   xmlns:rdf="http://www.w3.org/1999/02/22-rdf-syntax-ns#"
   xmlns:svg="http://www.w3.org/2000/svg"
   xmlns="http://www.w3.org/2000/svg"
   version="1.1"
   width="533.48999"
   height="533.48999"
   id="svg4059">
  <desc
     id="desc4061">Veusz output document</desc>
  <metadata
     id="metadata4087">
    <rdf:RDF>
      <cc:Work
         rdf:about="">
        <dc:format>image/svg+xml</dc:format>
        <dc:type
           rdf:resource="http://purl.org/dc/dcmitype/StillImage" />
        <dc:title></dc:title>
      </cc:Work>
    </rdf:RDF>
  </metadata>
  <defs
     id="defs4077">
    <clipPath
       id="c0">
      <path
         d="m 0,0 533.49,0 0,533.49 L 0,533.49 0,0"
         id="path4080" />
    </clipPath>
    <clipPath
       id="c1">
      <path
         d="m 60.46,7.11 465.91,0 0,465.91 -465.91,0 0,-465.91"
         id="path4083" />
    </clipPath>
  </defs>
  <g
     transform="translate(143.09375,9.3075238)"
     id="flowRoot4135"
     style="font-size:40px;font-style:normal;font-weight:normal;line-height:125%;letter-spacing:0px;word-spacing:0px;fill:#000000;fill-opacity:1;stroke:none;font-family:Sans" />
  <g
     transform="translate(243.09375,9.3075238)"
     id="flowRoot4145"
     style="font-size:40px;font-style:normal;font-weight:normal;line-height:125%;letter-spacing:0px;word-spacing:0px;fill:#000000;fill-opacity:1;stroke:none;font-family:Sans" />
  <g
     transform="translate(343.09375,9.3075238)"
     id="flowRoot4153"
     style="font-size:40px;font-style:normal;font-weight:normal;line-height:125%;letter-spacing:0px;word-spacing:0px;fill:#000000;fill-opacity:1;stroke:none;font-family:Sans" />
  <g
     transform="translate(143.09375,-190.69248)"
     id="flowRoot4161"
     style="font-size:40px;font-style:normal;font-weight:normal;line-height:125%;letter-spacing:0px;word-spacing:0px;fill:#000000;fill-opacity:1;stroke:none;font-family:Sans" />
  <path
     d="m -4.437784,533.03667 -1.669246,4.02992 -4.029922,1.66925 -4.029921,-1.66925 -1.669247,-4.02992 1.669247,-4.02992 4.029921,-1.66925 4.029922,1.66925 z"
     id="path4479"
     style="fill:#000000;fill-opacity:1;stroke:#000000;stroke-width:2.26261187;stroke-miterlimit:4;stroke-opacity:1" />
  <path
     d="m 15.908966,533.03667 -1.669246,4.02992 -4.029922,1.66925 -4.029921,-1.66925 -1.669247,-4.02992 1.669247,-4.02992 4.029921,-1.66925 4.029922,1.66925 z"
     id="path4481"
     style="fill:#000000;fill-opacity:1;stroke:#000000;stroke-width:2.26261187;stroke-miterlimit:4;stroke-opacity:1" />
  <path
     d="m 15.908966,513.45778 -1.669246,4.02992 -4.029922,1.66925 -4.029921,-1.66925 -1.669247,-4.02992 1.669247,-4.02992 4.029921,-1.66925 4.029922,1.66925 z"
     id="path4483"
     style="fill:#000000;fill-opacity:1;stroke:#000000;stroke-width:2.26261187;stroke-miterlimit:4;stroke-opacity:1" />
</svg>
